<?xml version="1.0" encoding="UTF-8"?>
<svg id="Layer_1" data-name="Layer 1" xmlns="http://www.w3.org/2000/svg" viewBox="0 0 125.49 41.27">
  <defs>
    <style>
      .cls-1 {
        fill: #fff;
      }

      .cls-2 {
        fill: #202020;
      }
    </style>
  </defs>
  <polygon class="cls-1" points="125.46 39.66 4.94 39.66 65.2 1.66 125.46 39.66"/>
  <g>
    <path class="cls-2" d="M125.1,40.22c.16,0,.2-.21-.14-.38l-.41,.14,.55,.24Z"/>
    <path class="cls-2" d="M123.26,38.33c-.46-.1-1.05-.14-.97,.27,.55-.03,.57,.14,1.17,.07,.34,.17,.51,.45,.39,.51,.16,0,.46,.38,.75,.31-.28-.48-.81-.83-1.48-1-.08-.14,.08-.14,.14-.17Z"/>
    <path class="cls-2" d="M91.99,18l.18,.16c-.04-.05-.11-.11-.18-.16Z"/>
    <path class="cls-2" d="M72.54,5.52c.15,.09,.23,.1,.26,.08-.15-.07-.27-.12-.26-.08Z"/>
    <path class="cls-2" d="M69.4,3.11c.07,.05,.12,.1,.18,.14-.06-.07-.13-.14-.18-.14Z"/>
    <path class="cls-2" d="M91.99,18l-.47-.42c-.09,.07,.22,.24,.47,.42Z"/>
    <path class="cls-2" d="M118.48,36.26c.12,.06,.23,.09,.33,.11l-.29-.14s-.03,.02-.04,.03Z"/>
    <path class="cls-2" d="M100.75,23.21l.16,.1c.07,0,.13-.01,.2-.03l-.36-.07Z"/>
    <path class="cls-2" d="M107.39,27.33c-.14-.1-.34,.1-.47,.17,.15-.04,.29-.02,.43,.04,.03-.04,.05-.11,.04-.21Z"/>
    <path class="cls-2" d="M117.61,34.36l.21,.08c-.05-.02-.14-.06-.21-.08Z"/>
    <path class="cls-2" d="M96.05,20.17s0-.09,0-.12c-.02,.03-.01,.07,0,.12Z"/>
    <path class="cls-2" d="M116.4,38.34s0,.03,0,.05c.05-.03,.06-.05,0-.05Z"/>
    <path class="cls-2" d="M125.46,39.73l-.13,.02c-.01,.05-.03,.11-.03,.16l.15-.17Z"/>
    <path class="cls-2" d="M62.02,2.04s.02,0,.03-.01c.14-.13,.06-.07-.03,.01Z"/>
    <path class="cls-2" d="M3.91,38.93c.83-.38,.57-.11,.45,.06-.14,.19-.11,.28,.88-.19-.2,.06-.16-.09-.22-.19-.07-.09-.23-.14-1.11,.32Z"/>
    <path class="cls-2" d="M118.33,36.12l-.27-.17c.12,.09,.2,.14,.27,.17Z"/>
    <path class="cls-2" d="M5.24,38.8h0s.2-.09,.2-.09c-.08,.04-.13,.06-.2,.09Z"/>
    <path class="cls-2" d="M48.04,11.06c.06,.02,.13,.02,.21,.01-.02-.02-.07-.03-.21-.01Z"/>
    <path class="cls-2" d="M58.73,4.79l-.28,.13c.12-.04,.2-.09,.28-.13Z"/>
    <path class="cls-2" d="M42.8,14.83c-.15,.07-.22,.07-.39,.22,.03,0,.05,0,.08,0,.05-.08,.13-.15,.32-.21Z"/>
    <path class="cls-2" d="M37.14,18.4s.09-.01,.13-.02c.05-.04,.12-.09,.17-.13l-.31,.14Z"/>
    <path class="cls-2" d="M96.04,38.47c.15,.08,.24,.17,.31,.25-.1-.2,.88-.27-.31-.25Z"/>
    <path class="cls-2" d="M118.56,36.13c-.07,.04-.14,.04-.23,0,.07,.04,.13,.07,.2,.11,.04-.02,.06-.06,.04-.1Z"/>
    <path class="cls-2" d="M43.76,16.85l-.92,.53c.27-.14,.6-.33,.92-.53Z"/>
    <path class="cls-2" d="M47.99,38.51l.24-.03c-.09,0-.18,0-.24,.03Z"/>
    <path class="cls-2" d="M40.19,19.1c-.21,.02-.41,.08-.61,.16-.03,.04-.06,.08-.07,.13l.68-.28Z"/>
    <path class="cls-2" d="M96.35,38.73h0s0,0,0,0Z"/>
    <path class="cls-2" d="M103.36,38.06c-1.01,0-.48,.36-.69,.57-1.21,.1-.56-.27-.97-.46-.76,.1-1.34,.44-1.9,.42-.04-.06-.15-.08-.02-.16-.8,.29-2.37,.01-3.3,.38-.07-.03-.1-.06-.12-.09,.15,.19,.17,.37,.14,.51-.45,0-.84,.23-1.01,0,.28,0,.3-.09,.43-.17l-.48,.1c-.43-.35,.65-.12,.65-.38-.93,.11-2.01,.4-2.72,.3-.15-.34,1.66-.11,.71-.42l1.1,.13c-.84-.54,.67,.04-.1-.54-1.45-.1-1.62,.17-3.07,.07-.33,.19,.11,.28-.22,.47-2.05,.34-1.62-.85-3.13-.4-.39,.23-.54,.66-1.62,.43l.37-.38c-1.4-.04-.8,.55-2.27,.29,.26-.15,1.1-.13,.89-.17-.95-.3-.67,.22-1.41,.22l-.15-.34c-1.49,.05-3.14,.3-4.79,.36,.09-.1,.38-.21-.01-.31-2.09,.17-4.45-.04-6.47-.24l-.77,.29c-.18,0-.33-.13-.14-.19-.78-.11-.04,.19-.42,.3-.45,.02-.59-.17-.31-.26-1.38,.25-3.94,.54-5.4,.22l.28-.09c-1.14-.12-1.28,.6-2.33,.33l.2-.05c-2.46-.13-5.19,.14-7.07-.3-.36,.42-2.44-.19-2.6,.4-1.41-.29-1-.4-2.99-.59-.53-.03-.79,.37-1.44,.43l-.02-.31-.89,.32-.47-.37-.61,.08c.24,.02,.52,.14,.48,.23-.96,.14-2.34-.21-2.36-.37l-2.27,.26c.05-.12,.43-.17,.73-.25-1.21,.31-.22-.32-1.33-.04,.15,.07-.08,.18-.11,.25-.55-.19-1.81-.19-2.74-.11l.18-.21c-1.68-.05-3.55,.1-5.44,.1,.68,.1,.52,.47-.03,.5l-.22-.33c-.36,.2,.58,.12-.16,.37-.71-.04-.47-.37-.07-.48l-.86,.11c-.05-.1,.15-.15,.2-.27-.35,.2-1.48-.33-1.99,.02l-.05-.1c-1.89,0-2.74,.11-4.28,.13-.03,.28-.63,.22-1.09,.45-1.13-.09-2.38-.31-3.75-.29-.96,.14-.28,.24-.71,.41-.07-.26-1.43-.23-.72-.42-1.63,.04-2.09,.05-4.15,.26,.22,.1,.48,.15,.35,.24-.38,.04-.85-.11-.8-.23l.1-.03c-1.16,.19-2.5,0-3.78-.16-.64-.08-1.26-.16-1.85-.19-.29-.01-.57-.01-.83,0-.17,.01-.18,.03-.2,.05l-.11,.08,.04-.03c-.19,.09-.49,.19-.9,.28-.15-.02,0-.07,.15-.13,.16-.06,.3-.14,.35-.22-.33,.13-.64,.17-.82,.18-.19,0-.26-.02-.32-.04,.25-.13,.38-.19,.28-.27,1.12-.26,1.03-.22,1.17-.36l.05-.05s-.01,0,.06-.05l.19-.13c.26-.17,.51-.33,.76-.49,.5-.31,.98-.57,1.42-.7l-.18-.1c.3-.39,.52-.21,.83-.36-.11-.09-.51,.13-.32-.1,3.18-2.26,6.94-4.07,10.4-6.06,1.26-.74,.21-1.22,1.99-1.84l-.27,.56c2.28-1.91,5.1-3.2,7.36-5.02-.1,.16-.06,.24-.29,.39,.64-.12,1.91-1.19,1.82-1.36,.39-.22,.18,.09,.47,.03,.59-.21,1.13-1.08,1.54-1.05,.07,0-.1,.16-.19,.23,.27-.31,1.58-.96,1.11-1,.99-.47,1.69-1.21,2.5-1.53,.31-.56,1.65-.86,1.56-1.33,.18,.42,1.8-.7,2.27-1.25-.12,.24,.58-.2,.45,.11,.66-.42,1.22-.87,.98-1,1.51-.31,2.21-1.91,3.27-1.76,1.83-1.44,3.56-2.73,5.27-3.93,.18,.42-1.93,1.27-1.6,1.62,1.58-1.21,2.33-2.15,4.05-3.1,.46-.22-.14,.32-.24,.48,1.57-1.21,3.26-2.01,4.61-3.15,.02,.04-.12,.18-.25,.3,.29-.2,.72-.37,.58-.53l-.26,.23c-.63,.04,.83-1.26,.8-1.43-.18,.81,1.55-.8,1.15,.32,.17-.15,.36-.39,.25-.48,.31-.15,.44-.14,.23,.18,.99-.76,.5-.71,1.46-1.3,.05,.09-.12,.24-.16,.4,.19-.23,.38-.47,.63-.7,.16-.14,.17-.17,.28-.25,.09-.06,.19-.14,.3-.16-.02,.06,.02,.14-.09,.21,.08-.1,.16-.01,.24,.01,.09,.03,.17,.06,.26,.09,.33,.14,.64,.28,.96,.42,.66,.3,1.32,.63,2.03,1.18-.68,.08,.44,.45,.32,.81l.87,.42-.23-.36c.71,.46,1.49,.62,2.04,1.11l-.61-.2,1.38,.78-.68-.6c.83,.29,.17-.45,1.07,.24-.21-.09,.71,.45,.97,.88h0c.42,.12,.85,.24,1.33,.66,.07,.19-.33,.28-.28,.4,.51-.04,1.72,.98,2.34,.98-.19-.03-.3,.13-.27,.2l.43-.03c.29,.28,.31,.34,.18,.44,.97,.67-.06-.6,1.01,.32-.1-.04-.08,.02-.29-.07,1.13,.84,2.38,1.31,3.4,2.1,.12,.52-1-.52-.8-.02,1.61,.93,3.49,1.67,4.97,2.7l-.26-.21c.49-.32,.99,.94,1.89,1.21-.21-.09-.4,.09-.32,.08,1,.73,2.2,1.23,3.87,2.09h-.27c.55,.48,1.58,1.07,2.21,1.54,.27,0,.64,.27,.51-.05,1.63,1.95,4.12,2.11,5.59,3.8-.22-.14-.58-.23-.41-.12l1.61,.87c0-.27-.13-.25-.36-.6,.27,0,.76,.19,1.14,.43-.78-.31-.19,.32,.04,.62-.01-.09,.13-.09,.14-.17,.59,.86,.38-.31,1.34,.62l-.12,.07c.45,.21,.91,.31,1.34,.62,.04,.34-.51-.17-.65,0,.63,.38,1.5,.35,1.93,.93-.3-.1-.69-.34-.99-.45,.45,.65,.56,.63,.99,.96l-.04-.03,.98,.79-.22-.24c1.15-.1,1.66,.9,2.96,1.17-1.25-.28-.3,.1-.54,.31,.22,.24,.58,.58,.42,.58,.63,.11,.73,.69,1.62,.83-.02,.1,.53,.34,.28,.48,.69,.34-.06-.24,.06-.31,1.17,.35,2.13,1.82,3.81,2.34,1.34,.62,1.74,.49,2.98,1.07,.3,.38-.51,.1-.51,.1,.55,.52,1.03,.79,1.68,1.07-.16,0-.08,.14,.04,.34,.49,.28,.51-.1,1.05,.41-.17,.02-.39,.09-.68,.03,.6,.28,1.25,.47,1.88,.76,.06,.24-.49,0-.75-.04,.69,.34,1.76,.93,2.1,.83l-.36-.34c.24,.14,0,.27-.2,.2-.67-.17-.75-.58-.73-.69l.44,.21c-.12-.75-1.7-.96-2.51-1.51l.57-.13-1.03-.24c-.12-.21-.12-.48,.32-.27-.48-.55-.6-.21-.99-.72-.04-.07,0-.07,.06-.05l-.65-.26c.16,0,.06-.31,.38-.03-.91-.86-1.84-.79-2.07-1.31l.1,.03c-1.52-.79-.3,.17-1.58-.21l-.33-1.1-.3,.17c-.14-.1-.42-.31-.31-.38-.67-.17,.02,.17-.4,.14-.57-.69-2.04-1.13-1.95-1.65-.38,.03,.59,.58-.26,.24,.06-.58-.93-.48-1.46-1.1,.34-.1,.89,.41,.36-.21-.64,.14-1.22-.89-1.82-1.16-.22,.29-1.28-.63-2.27-1.11,.12-.07-1.64-1.27-2.43-1.92l.06-.04c-.36,.21-1.21-.41-1.9-.76,.14-.17,.31-.17,.71-.03l-.61-.38c-.21,0-.43-.06-.85-.27l.3-.14c-.82-.5-1.8-.75-2.75-1.57-.2,.18,.45,1.13-.74,.58,.03-.14,.12-.37,.44-.24-.1-.04-.4-.11-.56-.28l.56,.08c-.42-.39-.35,0-.72-.25,.11-.16-.21-.3-.07-.39,.11,.04,.29,.28,.47,.3-.41-.3-.86-.72-.95-.96-.02,.12-.14,.22-.47,.05-.82-.5-.15-.38-.57-.76-.27,0-.71-.45-.88-.21-.24-.15-.21-.29-.26-.42-.49-.15-1.98-1.2-1.67-.64l.1,.09s-.05-.02-.08-.03h0s0,0,0,0c-1.53-.62-2.76-1.94-4.19-2.69l.05-.08c-.87-.42-1.85-1.08-2.54-1.27-.24-.15-.47-.51-.31-.55-.66-.33-.79-.28-1.6-.98,.72,.25-.13-.27,.71,.3-.76-.58-.86-.83-1.87-1.15,.43-.03-.44-.65-.86-.83l.47,.51c-.45-.24-.82-.5-1.19-.76l.38-.15c-1.44-1.38-3.35-1.3-4.24-2.66-.56-.08,.81,.7,.27,.69-.74-.52-1.27-1.42-1.51-1.57-.94-.81-1.23-.2-2.25-1,.08,.19,.04,.54-.84,.12-.74-.52-.67-1.01-.14-.79,.19,.11,.26,.19,.23,.22,.27,.12,.62,.28,.39-.02l-.16,.04c-.31-.34-1.37-.99-1.02-1-.64-.27-.35,0,.04,.33-.88-.76-1.52-.97-2.46-1.7,.12,.16,.2,.37,.04,.27-1.39-1.05-.77-.22-1.79-.8-.47-.51,.43-.24-.65-.74-.55-.49,.04-.35,.33-.28-.26-.1-.49-.22-.7-.36-.14-.1-.28-.19-.42-.29-.17-.12-.33-.24-.49-.36-.16-.13-.32-.25-.47-.37l-.23-.18-.23,.11c-.3,.14-.58,.28-.83,.43l.89-.68c-.55,.41-.98,.69-1.44,.97,.21-.04,.42-.08,.6-.1-.58,.32-.75,.42-.81,.34-.21,.32,.43,.19-.03,.74-.44,.14-1.08,.83-1.38,.65,1.24-.66-.3-.18,.68-.86-.17,.15-.41,.3-.72,.45-.06,0,0-.08,.07-.14-1.29,.48-.33,.63-1.51,1.37,.05-.24-.45-.11-.62,.04,.48-.3,.38,.11,.02,.5-.83,.36-.77,.6-1.17,.84l.49-.23c-.06,.25-.45,.46-.94,.84-.12-.09,.43-.38,.21-.31-.42,.63-1.49,.56-2.2,1.25-.44,.14-.21-.26-.59-.12-.79,.77-1.12,.42-1.98,1.18,.4,.03,.42-.05-.13,.57l1.49-1.14-.83,.93c.48-.3,.92-.76,1.23-.91-.38,.47-.36,.39-.03,.41-.84,.11-1.18,.99-2.06,1.26l-.29-.51c-1.27,.49-1.85,1.53-3.4,2.33l.53-.21c-.07,.32-.89,.6-1.32,.98-.06-.19-.4-.07-.67-.04,.1,.11-1.08,.67-1.01,1.09l-.8,.19c-1.24,.66-1.05,1.33-2.23,1.99,.23-.4-.36-.19,.32-.8-.38,.24-.74,.42-.68,.54-.29,.04-.91,.89-1.37,.95-.11,.17-.06,.38-.49,.64-.07,0-.05-.08-.05-.08,.05,.08-.6,.53-.11,.48-1.5,.22-3.26,2.11-4.56,2.3-.8,.58-1.76,1.27-2.51,1.75,.02-.08-.05-.08,.1-.16-1.14,.5-.34,.88-1.63,1.46-.78,.11,.54-.54,.1-.41-.51-.45-1.38,.98-2.38,1.16l.17-.15c-.73,.2-1.36,1.15-2.38,1.73,0,0,.02-.08-.05-.09-.5,.71-1.74,1.62-2.64,2.3,.16-.4,.36-.39,.04-.49-.41,.3,.35,.27-.47,.87-.35,.06-1.04,.35-1.27,.16l.8-.52c-.6-.04-1.04,.67-1.5,.89l-.03-.17c-1.21,.82-1.02,1.17-2.37,1.98h.2c-.52,.8-.73,.21-1.3,.92l-.43-.2c-.43,.38-1.48,1.38-2.3,1.99,.33-.56,1.26-1.32,1.79-1.86-.48,.3-1.6,1.04-1.75,1.37,.17-.15,.36-.39,.58-.46-.42,.63-1.11,1.24-2.06,1.84-.24-.75-2.58,1.4-3.58,1.33-.76,.65-1.61,1.15-2.51,1.64-.23,.12-.45,.25-.68,.37-.35,.21-.71,.41-1.08,.63-.8,.47-1.65,.99-2.47,1.52,2.14-.65-.92,.6,.49,.43-.53,.38-.77,.52-.92,.57-.92,.43-1.93,.93-3.06,1.5-1.12,.5,.26-.33-.21-.19-.99,.59-1.39,.76-1.8,.92-.14,.08-.37,.16,.12,.24,.41-.22,1.73-.31,2.74-.23-.35-.09-.65-.19-.89-.28,1.85-.16,2.01-.03,2.39,.09,.32,.13,.86,.26,2.58,.1l-1.23,.19c.9-.06,2.38-.06,3.86-.1l.55-.02h.26s.14-.03,.14-.03c.19-.02,.37-.04,.55-.07,.35-.06,.65-.14,.85-.27,.15,.07,.35,.24-.03,.28,2.04,.07,4.53-.52,6.12-.22l-.15,.15c.38-.04,.66-.28,1.14-.13-.02,.06-.15,.15,.02,.16,.2-.05,1.01-.26,1.51-.17l-.43,.17c1.99,.2,3.05-.41,4.71-.51,0,.44,1.56,.58,2.34,.65l-.03,.06c2.31,.05,3.93-.36,6.07-.54,1.33,.48,4.5,.2,6.64,.47-.33-.08,.05-.34,.43-.39,.5,.09,1.39-.31,1.31,.1h-.18c.38,.39,1.41,.28,2.21,.29l.13-.53c2.1,.77,5.51-.28,6.66,.41,.51-.13,1.14-.13,1.64-.26l-.03,.28c1.41,.07,2.11,.11,3.85,.04l-.35,.2c.98,.02,1.24-.82,2.14-.83l.27,.42c1.71,0,3.44,.36,5.14-.02-.03,.06-.08,.18-.36,.2,.81,.01,3.12,.29,2.82-.29,.02,.38,1.77,.04,2.69-.13l-.14,.28c.78-.36,.81-.45,1.89-.55,.26,.04,.23,.22-.12,.15,.86,.15,.67-.26,1.71-.12l-.39,.18c.89,.02,.81-.07,1.3-.28,.56-.11,1.68,.07,1.81,.32,.12-.15,.6-.36,1.13-.29,.07,.1-.12,.15-.22,.18,1.48,.19,2.2-.32,3.22-.05,.02,.09,.09,.14,.17,.17-1.18,0-2.12-.02-2.03-.04,0,.26,.95,.3,.19,.66,.76-.19,2.07-.61,2.99-.49,.04,.02,.09,.05,.12,.09l-.1,.03c.21,.03,.41,0,.59-.04,.3,.04,.48,.07,.77,.08,.11,.21,1.09,.11,1.56,.13-.04-.28,.58-.24,0-.47,.08,.02-.09,.03-.4,.05-.07,0-.16,.01-.2,.03l.03-.02c-.31,0-.72,.01-1.18,.02,.37-.14,.77-.26,1.29-.11,.24-.18,.51-.37,.66-.45,.65,.39,1.9,.6,2.07,.85,1.45-.16,3.41-.1,4.32-.63,.41-.07,.47,.15,.63,.23-.24,.05-.52,.04-.65,.12,.82-.14,2.44-.05,2.63-.42,1.04,.17-.58,.34,.84,.28l-.19,.11c2.8,.59,4.55-.94,7.66-.18-.22-.05-.32-.07-.37-.13,3.54,.33,7.3-.31,10.79,.22,.99,.11,1.1-.13,1.71-.31l.22,.3,1.04-.35c1.47-.26,2.54,.74,4.41,.26l-.24-.2c.67,.04,2.12-.12,2,.11,.07-.04,.22-.21,.48-.11l.02,.16,1.64-.27c1.27,.11-.2,.63,1.66,.66,.69-.06,1.97-.46,1.71-.57-.28,0-.71-.1-.73-.26l.63-.08c.11-.47,.6-.94-.95-1.27l-1.08,.28-.35-.23h.91c-.52-.23-.84-.04-1.21,.09-.09-.12-.24-.2-.45-.25l-1.06,.44c-.13-.18,.48-.36-.24-.46-.5,.21,.48,.41-.35,.54-.52-.21-.37-.38-.97-.2-.09-.12,.04-.2,.28-.25-.54,.14-1.43,.06-1.71,.31-.54-.26-1.82,.07-1.77-.37-.17,.11-.95,.35-1.45,.36,.91-.53-1.86-.03-1.62-.6-.67,.47-2.42,.21-3.61,.47,.07-.04,.2-.11,.3-.09-.67-.04-.86-.18-1.29-.27-.09,.39-1.13,.48-1.69,.72-.82-.38,.5-.46,.24-.82,.04,.32-1.42,.32-1.14,.58-.63-.23-.54-.11-.86-.44-.11,.49-.58,.08-1.1,.38-.91-.24-.23-.46-1.23-.31-.47-.15,.41-.32,.41-.32Zm-23.68,.85h0c.2-.01,.38-.02,.49-.02-.1,0-.24,.01-.49,.02Zm-1.99,0c.24,.01,.54,.01,.86,.01,.07,.1,0,.2-.21,.19,.11-.07-.36-.12-.66-.2Zm4.21,1.95c-.31,.04-.42-.02-.46-.07,.15,0,.32-.02,.55-.03,.01,0,.03-.02,.04-.03-.03,.05-.06,.1-.12,.14Z"/>
    <path class="cls-2" d="M82.46,40.49s.07-.02,.13-.02c-.06-.02-.13-.05-.19-.06-.04,.03-.08,.06-.11,.09,.06,0,.12,0,.17,0Z"/>
    <path class="cls-2" d="M92.2,18.19l-.03-.03s.04,.05,.05,.08c-.02-.03-.01-.03-.02-.05Z"/>
    <polygon class="cls-2" points="50.2 38.37 50.21 38.44 50.38 38.38 50.2 38.37"/>
    <path class="cls-2" d="M100.96,24.85s.03,.08,.08,.14c0-.02-.03-.07-.08-.14Z"/>
    <path class="cls-2" d="M104.93,27.43l.51,.44c-.21-.2-.38-.34-.51-.44Z"/>
    <path class="cls-2" d="M107.94,29.49c.07-.02,.1-.04,.12-.06h0s-.12,.06-.12,.06Z"/>
    <path class="cls-2" d="M59.95,6.24s-.08,.06-.11,.09c-.25,.22-.07,.08,.11-.09Z"/>
    <path class="cls-2" d="M73.72,7.53c-.18-.05-.36-.11-.54-.18,.25,.18,.45,.31,.54,.18Z"/>
    <polygon class="cls-2" points="43.86 16.79 43.86 16.78 43.76 16.85 43.86 16.79"/>
    <path class="cls-2" d="M72.5,6.91c.23,.21,.45,.34,.67,.43-.2-.15-.44-.33-.67-.43Z"/>
    <path class="cls-2" d="M121.21,38.02l.14,.1s.02-.02,.04-.03l-.18-.08Z"/>
    <path class="cls-2" d="M121.4,38.09l.18,.08c-.08-.05-.14-.09-.18-.08Z"/>
    <path class="cls-2" d="M121.97,38.33l-.38-.16c.12,.08,.26,.18,.38,.16Z"/>
    <path class="cls-2" d="M117.21,35.34l-.1,.06s.07-.02,.1-.06Z"/>
    <path class="cls-2" d="M115.95,34.58c.28,.21,.63,.65,1.07,.86l.08-.04c-.27,0-.78-.78-1.15-.81Z"/>
    <path class="cls-2" d="M111.45,30.25l.99,.72c-.12-.21-.28-.48,.2-.2-1.14-1.1,.14,.38-1.2-.52Z"/>
    <path class="cls-2" d="M108.32,28.09c.58,.31,.08-.14,.14-.17-.41-.14-.51-.17-.14,.17Z"/>
    <path class="cls-2" d="M85.06,13.42l.19-.18c-.45-.24-.06,.08-.19,.18Z"/>
    <polygon class="cls-2" points="79.91 11.73 80.24 12.13 80.56 12.06 79.91 11.73"/>
    <polygon class="cls-2" points="78.25 8.54 78.46 8.62 77.69 8.25 78.25 8.54"/>
    <path class="cls-2" d="M38.01,17.56l.3,.18c.26-.23,.13-.57-.3-.18Z"/>
    <path class="cls-2" d="M21.32,28.46c-.27-.02-.8,.2-1.01,.51,.39-.22,.83-.36,1.01-.51Z"/>
    <polygon class="cls-2" points="44.92 40.9 44.51 41 45.27 40.92 44.92 40.9"/>
  </g>
</svg>