<?xml version="1.0" encoding="UTF-8"?>
<svg id="Layer_1" data-name="Layer 1" xmlns="http://www.w3.org/2000/svg" viewBox="0 0 285 270.75">
  <defs>
    <style>
      .cls-1 {
        fill: #070606;
      }

      .cls-2 {
        fill: #868686;
      }

      .cls-3 {
        fill: #fdfdfd;
      }

      .cls-4 {
        fill: #454545;
      }

      .cls-5 {
        fill: #eef1f1;
      }
    </style>
  </defs>
  <path class="cls-1" d="M4.76,164.49c0-1.23,0-2.55,0-3.87,0-.68,.04-1.35-.99-1.33-2.12,.03-2.47-1.5-2.74-3.15-.62-3.74-.17-7.42,.61-11.06,2.76-12.87,5.99-25.61,11.14-37.77,.34-.81,.87-1.6,.54-2.57-.72-2.11,.05-4.03,.98-5.82,2.31-4.47,4.9-8.79,6.75-13.51,.73-1.86,1.91-3.58,3.1-5.21,2.71-3.75,5.09-7.68,7.22-11.77,.71-1.37,1.28-2.91,3.38-2.76,.81,.06,1.26-.85,1.75-1.46,1.11-1.42,2.18-2.87,3.32-4.26,1.55-1.89,2.97-3.79,5.19-5.16,2.04-1.26,3.63-3.33,5.05-5.39,7.24-10.54,16.65-18.86,27.03-26.17,1.19-.84,2.41-1.74,3.74-2.27,7.84-3.11,15.04-7.6,22.93-10.58,.94-.36,1.98-.58,2.7-1.34,3.74-3.97,8.63-5.48,13.76-6.56C130.07,.41,140.06-.17,150.1,.04c11.6,.24,23.17,.89,34.59,3.19,.11,.02,.23,.01,.33,.05,8.46,2.99,17.38,4.57,25.68,8.02,13.24,5.51,24.16,14.27,33.6,24.91,5.15,5.8,9.66,12.15,14.33,18.33,6.26,8.26,10.7,17.68,14.29,27.43,2.53,6.85,4.92,13.76,6.72,20.84,.08,.33,0,.78,.2,.98,4.07,4.01,3.17,9.41,3.71,14.27,.83,7.48,1.15,15.04,1.39,22.57,.26,8.15-.64,16.37-3.41,23.93-3.72,10.18-7.5,20.43-13.45,29.68-5.26,8.17-11.25,15.74-17.96,22.76-.62,.65-1.33,1.23-1.88,1.94-8.93,11.3-20.75,19.18-32.27,27.42-1,.72-1.99,1.46-2.95,2.25-3.05,2.5-6.07,5.02-9.48,7.04-.77,.46-1.61,.85-1.98,1.75-.39,.94-1.17,1.32-2.08,1.53-2.69,.6-4.99,2.03-7.23,3.52-11.01,7.31-23.28,8.32-35.96,7.23-2.82-.24-5.65-.38-8.43-.06-11.22,1.27-22.45,1.51-33.71,.59-4.82-.39-9.56-1.62-14.44-1.32-2.13,.13-4.27,.29-6.41,.34-2.97,.07-3.33-.26-4.16-3.33-.42-1.57-2.1-1.74-2.96-1.63-2.64,.33-4.52-1.08-6.58-2.15-3.29-1.7-6.54-3.43-10.09-4.59-5.46-1.78-9.96-5.15-14.06-9.07-1.14-1.09-2.1-2.19-3.99-2.01-1.5,.14-2.72-.98-3.83-1.92-1.72-1.45-3.37-2.98-5.06-4.48-1.77-1.57-3.5-3.3-5.64-4.27-7.47-3.36-12-9.67-16.44-16.05-4.24-6.1-8.01-12.5-11.02-19.31-.41-.92-.76-1.93-1.41-2.67-2.63-2.98-3.44-6.62-3.31-10.32,.22-6.7-2.02-12.82-3.82-19.06-.25-.86-.53-1.72-.79-2.58-.33-1.07-.22-2.03,.81-2.66,1.14-.7,1.88-.04,2.58,.8,.24,.29,.32,.88,1.21,.57Zm254.65-82.81c-.02-.55,.01-1.14-.67-1.36,0-.33,0-.65-.03-.98-.03-.33-.18-.81-.49-.73-.73,.17-.18,.67-.07,.96,.1,.28,.41,.48,.63,.71,0,.56,.16,1.05,.67,1.37,0,.56,.14,1.05,.67,1.35,0,.43-.02,.89,.47,1.08,.08,.03,.39-.21,.37-.26-.12-.43-.35-.79-.87-.8,0-.56,.02-1.14-.68-1.35ZM42.67,221.36c-.31-.94-.88-1.64-2.17-2.35,.46,1.38,1.11,2.04,1.85,2.63,.48,1.29,1.23,2.31,3.09,3.12-.93-1.66-1.72-2.64-2.78-3.4Zm4.55,6.23c.07-.8-.19-1.39-1.3-1.72,.23,.92,.44,1.54,1.29,1.74,.56,1.38,1.29,2.63,2.6,3.45,1.01,1.19,1.8,2.61,3.44,3.1,4.58,1.36,8.19,4.22,11.28,7.7,1.36,1.54,2.92,2.25,4.86,2.67,15.12,3.25,30.46,4.66,45.88,5.4,8.11,.39,16.15,1.23,24.09,3,4.54,1.01,9.11,1.22,13.75,.59,6.24-.85,12.42-2.06,18.69-2.8,5.69-.67,11.31-2.07,16.72-3.86,10.47-3.47,20.56-7.86,29.41-14.69,2.32-1.79,4.73-3.4,6.59-5.73,1.47-1.84,3.2-3.52,5.26-4.71,1.54-.88,2.56-2.12,3.49-3.55,4.93-7.53,10.04-14.94,15.59-22.04,5.35-6.85,9.83-14.25,14.21-21.73,.92-1.58,1.46-3.25,1.82-5.03,1.58-7.83,2.89-15.67,3.6-23.65,.81-9.06,.31-17.98-1.38-26.86-1.35-7.08-4.08-13.78-5.93-20.72-.83-3.12-2.18-6.03-2.69-9.32-.43-2.77-2.27-5.34-3.56-7.95-6.56-13.24-15.51-24.71-25.59-35.44-6.26-6.67-13.2-12.18-21.69-15.67-1.35-.56-2.67-1.19-4.01-1.78-7.41-3.24-14.85-6.44-22.49-9.08-10.37-3.58-21.29-4.57-32.06-6.2-2.27-.34-4.49-.04-6.65,.68-1.48-.2-2.74,.29-4.26,1.16,1.26,.33,2.12,.45,2.99,.22,6.45,1.05,12.05,4.13,17.62,7.29,.71,.4,1.42,.87,.89,1.83-.46,.84-1.2,.97-1.99,.43-4.18-2.85-9.2-3.44-13.82-5.09-2.11-.75-4.35-1.2-6.63-.97-5.25,.52-10.48,1.14-15.53,2.88-8.77,3.02-16.73,7.63-24.7,12.23-.69,.4-1.26,.92-1.74,1.56-4.96,6.68-10.07,13.24-15.45,19.6-.32,.38-1.09,.87-.64,1.35,1.46,1.54,.03,2.14-.82,2.91-3.01,2.69-6.82,4.34-9.55,7.4-.15,.16-.35,.28-.55,.39-.85,.46-1.79,.59-2.54-.04-.75-.63-.85-1.58-.37-2.46,.48-.88,1.04-1.72,1.57-2.58,1.21-.87,2.02-1.99,2.79-4.03-1.8,1.18-2.92,1.96-3.62,3.22-9.19,9.62-17.49,19.94-24.64,31.19-7.69,12.1-14.24,24.73-18.8,38.34-1.66,4.96-2.3,10.16-1.53,15.3,.94,6.35,1.71,12.7,2.22,19.09,.13,1.57,.21,3.15-.12,4.71-.26,1.24-.57,2.51-2.01,2.85-1.63,.4-2.49-.63-3.11-1.94-.31-1.72-.62-3.45-.93-5.17-.32,1.8-.87,3.56-.14,5.3,.88,5.57,2.06,11.08,4.21,16.29,2.27,5.5,4.8,10.89,7.34,16.28,1.01,2.15,2.6,3.9,4.59,5.3,2.57,1.82,5.09,3.69,7.8,5.32,5.11,3.07,8.4,7.73,10.95,12.96,.91,1.87,.68,2.18-1.31,3.2-1.57,0-2.16-1.57-3.41-2.09ZM232.37,42.48c3.07,3.3,6.6,6.07,10.11,8.85,.58,1.05,1.53,1.6,2.74,1.9-.5-1.03-.94-2.05-2.06-2.57-3.11-3.24-6.45-6.24-10.05-8.94-.58-.96-1.46-1.46-2.89-2.07,.54,1.51,1.14,2.31,2.14,2.83Zm36.61,66.8c.54,1.44,.44,3.12,1.83,4.54,.32-1.71-.41-3-.79-4.33-1.75-7.7-3.54-15.38-7.79-22.21,2.58,7.24,5.01,14.52,6.75,22ZM109.43,22.26c4.49-2.29,9.26-3.92,13.98-5.83-5.44,.29-10.39,1.76-14.61,5.24-.94,.38-1.79,.86-2.48,2.07,1.44-.26,2.4-.6,3.11-1.47Zm98.04-4.93c-1.41-1.28-2.88-2.44-5.72-2.36,2.05,1.33,3.35,2.48,5,3.12,4.53,3.38,9.06,6.76,13.59,10.14,.64,.75,1.31,1.45,2.51,1.34-.11-.64-.38-1.06-.95-1.28-2.08-3.12-4.86-5.49-8.03-7.4-2.09-1.26-4.27-2.37-6.41-3.55ZM17.24,128.13c.07-3.98,1.15-7.75,2.57-11.4,1.84-4.72,2.98-9.61,4.26-14.99-.77,1.53-1.46,2.56-1.84,3.7-2,6.04-3.96,12.1-5.86,18.18-.46,1.48-.77,3.05-.2,4.62,.2,1.52,.41,3.04,1.62,4.46,1.04-1.88-.49-3.13-.56-4.57ZM138.44,8.69c7.05,.38,13.88-1.09,20.75-2.4-1.32-.41-2.63-.8-3.96-.89-1.33-.09-2.69,.12-4.04,.22-5.39,.41-10.69,1.45-15.98,2.53-1.19-.07-2.16,.49-3.64,1.03,2.68,.4,4.77-.08,6.86-.49ZM12.02,149.26c.23-.75,.16-1.46-.26-2.14-.51,.64-.58,1.34-.38,2.09-1.07,3.87-1.36,7.88-2.17,11.79-.64,3.1,.98,4.84,3.32,6.8,.11-6.49-.27-12.51-.52-18.54Zm109.58,112.66c2.68,.4,5.34,.18,8.02-.15,7.21-.89,14.39-1.95,21.55-3.22,1.49,.26,2.67-.62,4.03-.88-2.05-.42-4.03-.53-5.94,.29-4.23,.3-8.46,.52-12.68,.93-5.66,.56-11.31,1.27-16.96,1.92-1.46-.28-2.87,.06-4.31,.34,2.12,.17,4.14,1.03,6.29,.77ZM57.95,55.97c-1.72,1.08-3.03,2.48-3.59,4.47,1.48-1.47,3.31-2.59,4.35-4.46,1.57-1.41,3.13-2.85,4.73-4.22,.85-.73,1.86-1.59,2.94-.6,1.14,1.05,1.73,.31,2.46-.41,3.88-3.86,7.76-7.72,11.64-11.58,.25-.19,.54-.34,.73-.57,.33-.39,.94-.89,.61-1.34-.56-.77-1.12,0-1.62,.3-.25,.16-.42,.46-.62,.69-2.76,1.72-5.43,3.59-8.48,4.79-.66,.26-1.16,.66-1.63,1.14-3.84,3.93-7.68,7.86-11.52,11.79ZM211.42,26.31c-2.14-1.64-4.24-3.35-6.43-4.92-5.26-3.76-10.84-6.81-17.41-7.62-1.21-.15-2.54-.36-3.55-.99-2.76-1.71-5.96-1.88-8.89-2.91-5.14-1.8-10.02-.55-14.99,.48,1.65,.48,3.3,.79,4.96,1.06,5.55,.91,11.14,1.64,16.45,3.6,9.69,3.59,19.26,7.49,28.63,11.86,1.02,.74,2.01,1.55,3.86,1.28-1.06-.83-1.61-1.63-2.62-1.85ZM80.4,251.17c2.97,1.04,6.03,1.86,8.88,3.16,7.07,3.22,14.6,3.75,22.12,3.51,6.87-.22,13.72-1.32,21.17-2.09-3.8-1.42-7.21-1.46-10.53-1.68-13.47-.89-26.97-1.42-40.33-3.57-1.46-.96-3.15-.54-4.88-.87,1.02,1.22,2.36,1.21,3.57,1.52Zm106.18,10.1c-7.4-.47-13.35,3.12-19.83,4.6,6.82,.08,13.43-.69,19.83-4.6ZM30,224.45c-1.31-2.15-2.61-4.3-4.85-5.69,.89,2.49,2.4,4.47,4.85,5.69Zm-18.33-41.93c.44,2.05,.68,4.14,2.34,6.27,.08-2.85-.96-4.64-2.34-6.27Zm190.36,69.63c-1.92-.07-3.28,.98-5.1,2.53,2.55-.09,3.72-1.52,5.1-2.53Zm39.07-31.67c1.56-.77,2.83-1.82,3.59-3.4-1.71,.57-2.74,1.89-3.59,3.4Zm14.7-21.71c-1.24,1.26-2.29,2.65-2.68,4.39,1.35-1.19,2.58-2.44,2.68-4.39Zm-181.58,55.07c1.02,2.01,2.35,1.68,3.8,1.94-1.02-1.27-2.13-1.59-3.8-1.94Zm-51.53-51.76c.24-1.66-.61-2.83-1.75-4.37-.13,2.05,.81,3.22,1.75,4.37Zm-7.7-64.91c-.15,.89-.29,1.32-.27,1.73,.02,.49-.13,1.32,.63,1.24,.95-.1,.71-.9,.49-1.53-.11-.3-.32-.56-.85-1.44Zm254.43-52.27c-.17-.56-.25-1.28-1.06-1.36-.46-.05-.86,.25-.82,.76,.06,.76,.62,1.1,1.3,1.2,.33,.05,.62-.12,.58-.6Zm-19.43-20.13c-.15-1.78-.81-2.42-1.86-3.2,.07,1.42,.83,2.03,1.86,3.2Zm-39.1,177.48c-.09-.16-.14-.41-.26-.44-.61-.16-.99,.23-1.29,.68-.05,.08,.11,.43,.18,.43,.56,.02,.98-.29,1.37-.67ZM245.78,43.86c0-.47-.3-.77-.66-.98-.07-.04-.38,.13-.39,.22-.04,.47,.28,.76,.64,.98,.07,.04,.27-.14,.41-.22Zm2.07,2.69c-.07-.44-.31-.83-.71-.95-.4-.12-.52,.27-.37,.53,.2,.34,.53,.61,.8,.9,.09-.16,.19-.32,.28-.48Z"/>
  <path class="cls-3" d="M142.43,13.36c2.17-.72,4.38-1.02,6.65-.68,10.77,1.63,21.68,2.62,32.06,6.2,7.64,2.64,15.08,5.84,22.49,9.08,1.34,.58,2.65,1.22,4.01,1.78,8.49,3.49,15.43,9,21.69,15.67,10.08,10.73,19.03,22.21,25.59,35.44,1.3,2.62,3.13,5.18,3.56,7.95,.51,3.28,1.86,6.2,2.69,9.32,1.85,6.94,4.59,13.64,5.93,20.72,1.69,8.88,2.19,17.8,1.38,26.86-.71,7.98-2.03,15.82-3.6,23.65-.36,1.79-.9,3.46-1.82,5.03-4.38,7.48-8.86,14.88-14.21,21.73-5.54,7.1-10.65,14.51-15.59,22.04-.94,1.43-1.95,2.67-3.49,3.55-2.06,1.18-3.79,2.86-5.26,4.71-1.86,2.33-4.27,3.94-6.59,5.73-8.85,6.83-18.94,11.22-29.41,14.69-5.41,1.79-11.03,3.19-16.72,3.86-6.26,.74-12.45,1.94-18.69,2.8-4.64,.64-9.21,.43-13.75-.59-7.94-1.77-15.98-2.61-24.09-3-15.42-.74-30.75-2.15-45.88-5.4-1.94-.42-3.5-1.13-4.86-2.67-3.09-3.49-6.7-6.34-11.28-7.7-1.64-.49-2.43-1.91-3.44-3.1,0-.62,.38-1.02,.83-1.37,2-1.02,2.23-1.33,1.31-3.2-2.55-5.23-5.84-9.9-10.95-12.96-2.71-1.62-5.23-3.5-7.8-5.32-1.99-1.41-3.58-3.15-4.59-5.3-2.53-5.39-5.07-10.78-7.34-16.28-2.15-5.21-3.33-10.72-4.21-16.29,.36-.04,.72-.09,1.07-.13,.62,1.32,1.48,2.34,3.11,1.94,1.43-.35,1.75-1.62,2.01-2.85,.33-1.56,.24-3.14,.12-4.71-.51-6.39-1.28-12.74-2.22-19.09-.76-5.14-.13-10.34,1.53-15.3,4.55-13.61,11.11-26.25,18.8-38.34,7.15-11.25,15.45-21.57,24.64-31.19,.48,.06,.74,.35,.83,.82-.53,.86-1.09,1.7-1.57,2.58-.48,.89-.39,1.83,.37,2.46,.75,.63,1.68,.5,2.54,.04,.2-.11,.41-.22,.55-.39,2.73-3.06,6.54-4.7,9.55-7.4,.86-.77,2.29-1.37,.82-2.91-.45-.48,.31-.96,.64-1.35,5.37-6.36,10.48-12.92,15.45-19.6,.48-.64,1.04-1.16,1.74-1.56,7.97-4.6,15.93-9.21,24.7-12.23,5.05-1.74,10.27-2.36,15.53-2.88,2.28-.23,4.51,.22,6.63,.97,4.62,1.65,9.64,2.24,13.82,5.09,.79,.54,1.53,.4,1.99-.43,.53-.96-.18-1.42-.89-1.83-5.57-3.16-11.18-6.24-17.62-7.29-.2-1.04,.83-.94,1.27-1.39Zm-50.69,202.2c-.71,2.37-.38,2.95,1.76,2.54,2.63-.5,5.21-1.11,7.31-3.11,1.53-1.46,3.04-2.97,4.98-4,3.69-1.95,7-4.46,10.18-7.18,2.04-1.74,4.18-3.4,6.83-4.21,3.22-.99,6.43-1.98,9.6-3.1,3.03-1.07,6.07-2.59,7.13-5.73,1.18-3.52,3.13-7.09,1.66-11.11-.21-.56,.07-1.32,.17-1.98,.71-4.97,3.9-7.87,8.21-9.9,1.2-.56,2.09-.49,3.03,.41,2.31,2.19,5.11,3.65,7.81,5.28,5.28,3.19,10.69,6.16,16.1,9.15,2.94,1.63,5.49,3.99,8.48,5.49,4.75,2.39,9.14,5.22,13.33,8.48,4.99,3.88,10.76,5.5,17.11,4.73,2.51-.31,4.85-1.15,6.66-2.95,1.59-1.59,3.11-3.27,4.45-5.07,3.12-4.19,2.59-12.07-.89-16.04-3.78-4.31-7.16-8.97-11.64-12.64-.68-.56-1.14-1.38-1.7-2.09-3.88-4.96-7.48-10.18-11.71-14.82-7.04-7.73-14.55-15.03-21.75-22.62-3.1-3.28-6.92-5.71-9.97-9.06-1.76-1.94-4.43-2.54-7.12-2.56-1.68-.01-3.37,.19-5.03-.3-3.81-1.12-7.75-1.42-11.67-1.24-8.75,.39-17.51,.87-26.24,1.67-3.71,.34-7.44,.12-11.1,.68-7.69,1.19-15.39,1.73-23.18,1.81-5.58,.05-11.13,1.07-16.06,4.24-4.32,2.78-6.71,6.26-6.5,11.66,.33,8.26,7.03,15.12,15.38,15.17,6.19,.04,12.39,0,18.58,.01,1.24,0,2.51,.08,3.62-.59,1.23-.74,2.56-.72,3.92-.7,1.8,.03,3.61,.09,5.4-.03,3.19-.21,6.16-.93,8.63-3.27,1.37-1.3,3.07-2.3,4.75-3.19,1.22-.64,2.64-2.36,3.84-1.31,1.16,1.02,.27,2.96-.14,4.46-.12,.43-.32,.84-.52,1.24-3.24,6.51-7.59,12.29-12.74,17.3-5.19,5.04-10.01,10.37-14.43,16.05-6.21,7.98-10.76,16.84-12.94,26.79-.31,1.41-.71,2.81-.52,4.31,.69,5.36,1.7,6.45,6.93,7.3ZM140.46,53.08c2.91-3.52,4.81-7.36,6.8-11.13,2.48-4.7,3.62-9.66,1.92-14.95-1.41-4.39-5.44-5.61-8.93-2.54-1.51,1.32-2.73,2.98-4.08,4.48-.51,.57-.57,1.2-.23,1.85,.37,.71,.99,.81,1.72,.65,.99-.22,1.97-.48,2.98-.59,4.39-.46,4.53-.29,4.48,4.04-.02,1.61-.32,3.15-.92,4.6-2.44,5.94-7.31,9.82-11.98,13.86-.49,.43-1.15,.86-1.83,.4-.52-.36-.37-.97-.31-1.54,.3-2.79,.59-5.59,.84-8.38,.54-5.95-.76-11.83-.72-17.76,0-1.16-1.3-1.71-2.22-.98-.34,.27-.52,.73-.82,1.06-3.84,4.44-6.69,9.54-9.79,14.47-.75,1.18-1.37,2.45,.03,3.6,1,.82,2.12,.41,3.38-1.16,.42-.52,.75-1.12,1.15-1.66,1.06-1.41,2.14-2.8,3.21-4.19-.76,7.15-.29,14.12-.36,21.07-.01,1.01,.01,2.03,.18,3.03,.18,1.07,.82,1.93,1.97,1.98,1.2,.06,1.76-.8,2.04-1.87,.19-.71-.2-1.53,.53-2.29,1.75,1.56,3.93,1.21,5.22-.12,1.92-1.98,3.77-1.38,5.85-.96,1.12,.22,2.18,.55,3.17,1.09,2.43,1.3,5.05,1.13,7.59,.69,2.66-.46,4.63-2.22,6.26-4.29,.82-1.04,1.19-2.26,.32-3.42-.94-1.25-2.18-.91-3.34-.28-1.08,.59-2.16,1.21-3.18,1.9-3.65,2.47-7.15,1.97-10.93-.64Zm2.97,178.53c-.29-.73,.02-1.09,.17-1.48,1.86-4.67,4.16-8.66,10.18-8.56,1.89,.03,2.39-1.88,1.09-3.36-.85-.96-1.95-1.5-3.25-1.55-2.26-.09-4.17,.71-5.75,2.32-.94,.96-1.79,1.99-2.88,2.83-6.11,4.73-7.36,11.51-3.41,18.17,3.32,5.61,8.46,7.21,14.38,4.61,2.49-1.09,3.84-3.04,4.64-5.45,.52-1.56,.3-3.07-.86-4.4-1.52-1.74-3.25-3.02-5.56-3.56-2.99-.7-5.92-.68-8.75,.43Zm108.54-93.87c-1.62,5.56-3.74,6.53-8.55,4.31-.71-.33-1.42-.68-2.17-.89-.82-.22-1.56,.02-2.06,.78-.49,.74-.43,1.48-.02,2.23,2.99,5.49,8.2,6.85,13.4,3.51,.94-.61,1.89-1.22,2.78-1.9,2.7-2.11,3.85-5.41,1.81-8.01-2.16-2.74-1.92-5.15-.95-7.96,.18-.53,.35-1.08,.42-1.63,.49-3.59-2.2-7.15-5.78-7.4-1.54-.11-3.15,.13-4.68,.44-1.59,.33-2.36,1.48-1.93,2.55,.56,1.38,1.59,1.41,2.77,.82,.77-.38,1.62-.58,2.01,.38,.63,1.55,2.08,3.67,1.3,4.66-1.13,1.44-1.11,3.91-3.48,4.4-.96,.2-1.56,.98-1.49,1.99,.07,1.01,.84,1.45,1.72,1.86,1.55,.73,3.06,.03,4.9-.15Zm-215.83,16.73c.65,4.05,1.26,7.92,1.89,11.78,.09,.52,.13,1.22,.87,1.2,.66-.01,.87-.61,1.03-1.16,.8-2.62,.85-5.34,.55-7.99-.5-4.34-1.26-8.61-.02-12.97,.48-1.69-.4-2.82-1.81-3.01-1.44-.19-2.32,.56-2.32,2.48,0,2.31-1.3,4-2.38,5.78-.66,1.09-1.75,1.75-3.12,.72-1.84-1.38-2.31-3.22-1.91-5.36,.44-2.36,2.02-3.93,3.83-5.31,.17-.13,.63,.06,.92,.19,.99,.44,1.9,.34,2.09-.82,.23-1.39-.88-1.55-1.96-1.69-3.08-.4-5.12,1.4-6.96,3.39-2.4,2.59-2.51,7.44-.42,10.32,2.65,3.67,5.29,4.36,9.72,2.44ZM238.41,84.7c-3.58-2.85-6.38-1.55-8.79-.06-3.2,1.98-6.82,3.43-9.31,6.48-.64,.78-1.58,1.22-2.64,1.35-1.23,.15-1.95,.85-1.38,2.06,.51,1.09,1.4,.58,2.3,.24,2.53-.96,4.65-2.68,7.11-3.72,4.21-1.78,7.67-4.92,12.7-6.35Zm-31.63-38.79c0-.44-.29-.81-.99-.82-.92-.02-1.64,.19-2.4,.87-2.89,2.55-4.63,5.99-7.07,8.89-1.5,1.78-2.57,3.91-3.82,5.9-.48,.76-.53,1.54,.34,2.01,.82,.44,1.5,.16,1.91-.72,.33-.71,.62-1.44,1.27-1.95,4.35-3.35,6.96-8.07,9.95-12.51,.31-.46,.78-.81,.81-1.65ZM47.4,203.92c.98-.16,1.82-.74,2.72-1.2,4.68-2.38,7.96-6.52,12.11-9.56,1.04-.76,.46-1.26-.39-1.67-.81-.4-1.52-.07-2.25,.22-2.57,1-4.62,2.69-6.52,4.64-1.89,1.95-3.16,4.66-6.32,5.11-.67,.1-1.01,.86-.7,1.62,.23,.57,.68,.86,1.35,.84Zm19.53-131.53c-.5,0-.84,.31-1.11,.66-.39,.5-.31,1.06,.07,1.54,.77,.96,1.48,1.94,2.08,3.03,.87,1.55,1.58,3.19,2.73,4.6,1.51,1.84,3.32,3.32,5.08,4.86,.61,.54,1.36,.91,2.12,.32,.8-.61-.08-1.16-.17-1.75-.2-1.42-1.04-2.41-1.92-3.45-2.6-3.05-5.81-5.58-7.8-9.14-.23-.4-.63-.62-1.09-.68Zm-2.34,27.01c-1.03-2.04-2.94-2.77-4.91-3.64-2.9-1.28-6.75-1.31-7.83-5.37-.19-.72-1.04-.81-1.7-.42-.49,.29-.82,.79-.65,1.4,.12,.42,.35,.83,.57,1.21,2.9,4.91,7.55,6.98,12.91,7.81,.63,.1,1.27-.28,1.61-.99Zm30.47,123.99c-1.95-1.23-2.43-1.25-3.98,.15-2.24,2.03-3.43,4.84-5.21,7.21-.6,.79-1.03,1.72-1.47,2.62-.41,.81-.28,1.57,.61,1.96,.95,.41,1.63-.2,1.78-.98,.33-1.69,1.42-2.8,2.72-3.65,1.16-.76,2.01-1.68,2.69-2.87,.88-1.52,1.91-2.96,2.87-4.43Zm155.43-41.04c.08-.26,.15-.53,.23-.79-1.86-2.39-4.36-3.47-7.44-3.37-2.45,.08-4.9,.37-7.29-.56-.94-.37-1.86-.19-2.04,1-.15,.99,.62,1.42,1.42,1.54,1.66,.24,3.28,.61,4.91,.94,3.35,.68,6.81,.85,10.22,1.23Zm-50.41,31.52c-.42,0-.83,.2-1.1,.58-.37,.52-.32,1.07,.11,1.53,1.84,1.95,3.05,4.45,5.29,6.04,1.01,.71,1.91,2.73,3.08,1.72,1.16-.99-.28-2.65-.81-3.96-.26-.64-.81-1.08-1.43-1.37-1.57-.73-2.85-1.75-3.58-3.38-.28-.63-.74-1.13-1.57-1.16Z"/>
  <path class="cls-5" d="M81.71,250.51c13.36,2.15,26.86,2.67,40.33,3.57,3.33,.22,6.73,.26,10.53,1.68-7.45,.77-14.3,1.87-21.17,2.09-7.52,.24-15.05-.29-22.12-3.51-2.85-1.3-5.91-2.12-8.88-3.16,.24-.62,.89-.4,1.31-.66Z"/>
  <path class="cls-5" d="M210.18,26.89c-9.37-4.37-18.94-8.26-28.63-11.86-5.3-1.97-10.9-2.69-16.45-3.6-1.66-.27-3.31-.58-4.96-1.06,4.97-1.03,9.86-2.29,14.99-.48,2.93,1.03,6.13,1.2,8.89,2.91,1,.62,2.34,.84,3.55,.99,6.57,.81,12.15,3.86,17.41,7.62,2.19,1.57,4.29,3.28,6.43,4.92-.18,.7-.82,.41-1.24,.57Z"/>
  <path class="cls-5" d="M80.47,39.18c-3.88,3.86-7.76,7.71-11.64,11.58-.73,.72-1.32,1.46-2.46,.41-1.08-1-2.09-.13-2.94,.6-1.6,1.38-3.16,2.81-4.73,4.22-.25,0-.51-.01-.76-.02,3.84-3.93,7.68-7.86,11.52-11.79,.47-.48,.97-.88,1.63-1.14,3.05-1.2,5.72-3.07,8.48-4.79,.54,.08,.86,.36,.9,.92Z"/>
  <path class="cls-5" d="M119.62,260.81c5.65-.65,11.3-1.36,16.96-1.92,4.22-.42,8.45-.63,12.68-.93,.6,.32,1.38,.04,1.91,.59-7.15,1.27-14.34,2.33-21.55,3.22-2.68,.33-5.34,.55-8.02,.15-.44-.77-1.52-.38-1.98-1.11Z"/>
  <path class="cls-5" d="M12.02,149.26c.24,6.03,.63,12.06,.52,18.54-2.34-1.95-3.97-3.7-3.32-6.8,.81-3.91,1.1-7.93,2.17-11.79,0,0,.32-.03,.32-.03l.32,.07Z"/>
  <path class="cls-5" d="M135.21,8.15c5.29-1.07,10.58-2.12,15.98-2.53,1.34-.1,2.7-.31,4.04-.22,1.33,.09,2.64,.48,3.96,.89-6.87,1.31-13.7,2.78-20.75,2.4-1.04-.41-2.25,.24-3.22-.54Z"/>
  <path class="cls-5" d="M186.58,261.27c-6.4,3.9-13.01,4.68-19.83,4.6,6.48-1.48,12.43-5.07,19.83-4.6Z"/>
  <path class="cls-5" d="M16.17,128.24c-.57-1.57-.26-3.14,.2-4.62,1.89-6.08,3.85-12.14,5.86-18.18,.38-1.14,1.07-2.17,1.84-3.7-1.27,5.38-2.42,10.27-4.26,14.99-1.42,3.65-2.5,7.42-2.57,11.4-.35,.04-.71,.07-1.06,.11Z"/>
  <path class="cls-5" d="M220.35,28.22c-4.53-3.38-9.06-6.76-13.59-10.14,.05-.43,.36-.62,.72-.76,2.14,1.18,4.32,2.3,6.41,3.55,3.18,1.91,5.96,4.28,8.03,7.4-.52-.02-1.05-.04-1.57-.06Z"/>
  <path class="cls-5" d="M108.81,21.66c4.22-3.48,9.16-4.95,14.61-5.24-4.72,1.91-9.49,3.54-13.98,5.83-.21-.2-.41-.4-.62-.59Z"/>
  <path class="cls-2" d="M268.98,109.28c-1.75-7.49-4.18-14.76-6.75-22,4.24,6.83,6.04,14.51,7.78,22.21-.35-.07-.69-.14-1.03-.2Z"/>
  <path class="cls-5" d="M233.12,41.72c3.6,2.7,6.93,5.7,10.05,8.94-.08,.37-.34,.56-.68,.68-3.52-2.78-7.05-5.55-10.11-8.85,.06-.43,.32-.68,.75-.76Z"/>
  <path class="cls-2" d="M30,224.45c-2.45-1.22-3.96-3.19-4.85-5.69,2.24,1.38,3.54,3.54,4.85,5.69Z"/>
  <path class="cls-2" d="M119.62,260.81c.46,.73,1.55,.34,1.98,1.11-2.15,.25-4.17-.6-6.29-.77,1.44-.28,2.85-.62,4.31-.34Z"/>
  <path class="cls-2" d="M11.66,182.51c1.39,1.63,2.42,3.43,2.34,6.27-1.67-2.14-1.91-4.23-2.34-6.27Z"/>
  <path class="cls-2" d="M207.48,17.33c-.36,.14-.67,.32-.72,.76-1.65-.64-2.95-1.79-5-3.12,2.84-.07,4.31,1.08,5.72,2.36Z"/>
  <path class="cls-2" d="M151.17,258.54c-.53-.54-1.31-.26-1.91-.59,1.9-.82,3.88-.71,5.94-.29-1.36,.26-2.54,1.14-4.03,.88Z"/>
  <path class="cls-2" d="M57.95,55.97c.25,0,.51,.01,.76,.02-1.04,1.87-2.86,2.99-4.35,4.46,.56-1.99,1.87-3.4,3.59-4.47Z"/>
  <path class="cls-2" d="M202.03,252.14c-1.38,1.01-2.55,2.44-5.1,2.53,1.82-1.55,3.18-2.6,5.1-2.53Z"/>
  <path class="cls-2" d="M135.21,8.15c.97,.79,2.19,.13,3.22,.54-2.09,.41-4.18,.89-6.86,.49,1.48-.54,2.45-1.11,3.64-1.03Z"/>
  <path class="cls-2" d="M18.12,170.19c-.36,.04-.72,.09-1.07,.13-.73-1.75-.18-3.51,.14-5.3,.31,1.72,.62,3.45,.93,5.17Z"/>
  <path class="cls-2" d="M66.93,61.46c-.08-.47-.34-.76-.83-.82,.7-1.26,1.82-2.04,3.62-3.22-.76,2.04-1.58,3.16-2.79,4.03Z"/>
  <path class="cls-4" d="M241.09,220.47c.84-1.51,1.88-2.83,3.59-3.4-.76,1.58-2.03,2.63-3.59,3.4Z"/>
  <path class="cls-2" d="M255.79,198.76c-.1,1.95-1.33,3.2-2.68,4.39,.39-1.74,1.44-3.13,2.68-4.39Z"/>
  <path class="cls-2" d="M74.22,253.83c1.67,.35,2.78,.67,3.8,1.94-1.45-.26-2.78,.07-3.8-1.94Z"/>
  <path class="cls-2" d="M81.71,250.51c-.41,.26-1.07,.04-1.31,.66-1.21-.31-2.55-.31-3.57-1.52,1.73,.32,3.42-.1,4.88,.87Z"/>
  <path class="cls-2" d="M16.17,128.24c.35-.04,.71-.07,1.06-.11,.07,1.44,1.6,2.68,.56,4.57-1.21-1.42-1.42-2.94-1.62-4.46Z"/>
  <path class="cls-2" d="M242.48,51.33c.34-.11,.6-.3,.68-.68,1.12,.52,1.56,1.55,2.06,2.57-1.22-.3-2.16-.85-2.74-1.9Z"/>
  <path class="cls-4" d="M268.98,109.28c.34,.07,.69,.14,1.03,.2,.38,1.34,1.11,2.63,.79,4.34-1.39-1.42-1.29-3.1-1.83-4.54Z"/>
  <path class="cls-2" d="M142.43,13.36c-.44,.45-1.47,.35-1.27,1.39-.87,.23-1.72,.11-2.99-.22,1.52-.87,2.77-1.37,4.26-1.16Z"/>
  <path class="cls-2" d="M50.63,229.67c-.45,.36-.83,.75-.83,1.37-1.3-.82-2.04-2.07-2.6-3.45h.01c1.25,.5,1.84,2.09,3.41,2.08Z"/>
  <path class="cls-2" d="M108.81,21.66c.21,.2,.41,.4,.62,.59-.71,.87-1.67,1.22-3.11,1.47,.69-1.21,1.54-1.69,2.48-2.07Z"/>
  <path class="cls-2" d="M233.12,41.72c-.42,.08-.68,.33-.75,.76-1-.52-1.6-1.32-2.14-2.83,1.42,.61,2.3,1.11,2.89,2.07Z"/>
  <path class="cls-2" d="M22.69,202.07c-.94-1.14-1.87-2.31-1.75-4.37,1.14,1.54,1.98,2.71,1.75,4.37Z"/>
  <path class="cls-4" d="M14.99,137.16c.53,.89,.75,1.14,.85,1.44,.22,.62,.46,1.43-.49,1.53-.76,.08-.61-.75-.63-1.24-.02-.41,.12-.84,.27-1.73Z"/>
  <path class="cls-4" d="M42.67,221.35c1.05,.77,1.84,1.75,2.77,3.4-1.86-.81-2.62-1.83-3.09-3.12,.11-.1,.21-.19,.32-.29Z"/>
  <path class="cls-2" d="M269.42,84.89c.04,.48-.24,.65-.58,.6-.68-.1-1.25-.44-1.3-1.2-.04-.51,.36-.8,.82-.76,.81,.08,.89,.8,1.06,1.36Z"/>
  <path class="cls-2" d="M210.18,26.89c.43-.17,1.06,.13,1.24-.57,1.01,.23,1.56,1.03,2.62,1.85-1.85,.27-2.84-.54-3.86-1.28Z"/>
  <path class="cls-2" d="M249.99,64.76c-1.02-1.17-1.78-1.78-1.86-3.2,1.05,.78,1.7,1.42,1.86,3.2Z"/>
  <path class="cls-2" d="M80.47,39.18c-.04-.56-.36-.84-.9-.92,.21-.23,.37-.53,.63-.69,.5-.31,1.06-1.08,1.62-.3,.33,.46-.27,.95-.61,1.34-.2,.23-.49,.39-.73,.57Z"/>
  <path class="cls-4" d="M42.35,221.64c-.74-.6-1.39-1.25-1.85-2.63,1.29,.71,1.86,1.41,2.17,2.35-.11,.09-.21,.19-.32,.29Z"/>
  <path class="cls-4" d="M210.89,242.24c-.4,.38-.82,.69-1.37,.67-.07,0-.23-.35-.18-.43,.3-.45,.68-.84,1.29-.68,.11,.03,.17,.28,.26,.44Z"/>
  <path class="cls-2" d="M220.35,28.22c.52,.02,1.05,.04,1.57,.06,.56,.22,.84,.64,.95,1.28-1.2,.11-1.87-.59-2.51-1.34Z"/>
  <path class="cls-4" d="M258.78,80.28c-.22-.23-.52-.43-.63-.71-.11-.3-.66-.79,.07-.96,.31-.07,.46,.41,.49,.73,.03,.32,.02,.65,.03,.98l.04-.04Z"/>
  <path class="cls-2" d="M12.02,149.26l-.32-.07s-.32,.03-.32,.03c-.2-.75-.13-1.45,.38-2.09,.42,.69,.49,1.4,.26,2.14Z"/>
  <path class="cls-4" d="M245.78,43.86c-.14,.08-.34,.26-.41,.22-.36-.21-.68-.51-.64-.98,0-.09,.32-.26,.39-.22,.37,.21,.65,.51,.66,.98Z"/>
  <path class="cls-4" d="M47.21,227.59c-.85-.2-1.06-.81-1.29-1.74,1.12,.33,1.37,.92,1.3,1.72,0,0-.01,.01-.01,.01Z"/>
  <path class="cls-4" d="M247.85,46.55c-.09,.16-.18,.32-.28,.48-.27-.3-.61-.56-.8-.9-.15-.26-.03-.65,.37-.53,.4,.12,.64,.51,.71,.95Z"/>
  <path class="cls-4" d="M260.09,83.02c.53,0,.75,.36,.87,.8,.01,.05-.29,.29-.37,.26-.49-.2-.46-.65-.47-1.08,0,0-.03,.03-.03,.03Z"/>
  <path class="cls-4" d="M259.41,81.68c.7,.21,.67,.79,.68,1.34,0,0,.03-.03,.03-.03-.53-.3-.67-.79-.67-1.35,0,0-.04,.03-.04,.03Z"/>
  <path class="cls-4" d="M258.74,80.32c.69,.23,.65,.81,.67,1.36,0,0,.04-.03,.04-.03-.51-.32-.67-.8-.67-1.37,0,0-.04,.04-.04,.04Z"/>
  <path class="cls-1" d="M91.74,215.56c-5.23-.85-6.24-1.94-6.93-7.3-.19-1.5,.21-2.91,.52-4.31,2.18-9.95,6.73-18.81,12.94-26.79,4.42-5.68,9.23-11.01,14.43-16.05,5.16-5.01,9.51-10.79,12.74-17.3,.2-.4,.4-.81,.52-1.24,.41-1.51,1.29-3.44,.14-4.46-1.19-1.05-2.62,.67-3.84,1.31-1.68,.89-3.38,1.89-4.75,3.19-2.47,2.34-5.44,3.06-8.63,3.27-1.79,.12-3.6,.06-5.4,.03-1.36-.02-2.68-.04-3.92,.7-1.11,.67-2.38,.59-3.62,.59-6.19,0-12.39,.02-18.58-.01-8.35-.05-15.04-6.91-15.38-15.17-.22-5.4,2.17-8.88,6.5-11.66,4.93-3.17,10.48-4.19,16.06-4.24,7.79-.08,15.49-.62,23.18-1.81,3.65-.56,7.39-.34,11.1-.68,8.72-.8,17.48-1.28,26.24-1.67,3.91-.17,7.86,.12,11.67,1.24,1.67,.49,3.35,.28,5.03,.3,2.69,.02,5.36,.62,7.12,2.56,3.05,3.35,6.87,5.78,9.97,9.06,7.19,7.6,14.7,14.9,21.75,22.62,4.23,4.64,7.83,9.86,11.71,14.82,.55,.71,1.02,1.53,1.7,2.09,4.48,3.67,7.86,8.33,11.64,12.64,3.48,3.96,4.01,11.85,.89,16.04-1.34,1.8-2.86,3.49-4.45,5.07-1.81,1.81-4.14,2.65-6.66,2.95-6.35,.77-12.12-.85-17.11-4.73-4.19-3.26-8.58-6.09-13.33-8.48-2.99-1.5-5.54-3.86-8.48-5.49-5.4-2.99-10.81-5.95-16.1-9.15-2.69-1.63-5.5-3.09-7.81-5.28-.95-.9-1.83-.97-3.03-.41-4.31,2.02-7.49,4.92-8.21,9.9-.09,.66-.37,1.41-.17,1.98,1.47,4.01-.48,7.58-1.66,11.11-1.06,3.14-4.1,4.66-7.13,5.73-3.17,1.12-6.39,2.11-9.6,3.1-2.65,.81-4.79,2.47-6.83,4.21-3.18,2.71-6.49,5.22-10.18,7.18-1.94,1.02-3.45,2.54-4.98,4-2.09,2-4.68,2.61-7.31,3.11-2.14,.41-2.48-.17-1.76-2.54Zm-10.15-90.82c.46-.47,.91-.95,1.38-1.4,.65-.61,1.32-1.18,2.32-1.14,1.26,.04,1.58,1.21,2.21,2.15,1.44-1.57,2.67-2.92,4.34-4.74-2.82,0-5,0-7.19,0-.61,0-1.12,.16-1.18,.86-.16,1.75-1.71,2.51-2.63,3.72-1.37,.82-2.08,2.03-2.63,4.22,1.66-1.44,2.85-2.25,3.39-3.66Zm-.99,17.58c-.44-.96-.08-1.93,.17-3.06-4.01,2.71-4.6,2.59-6.08-1.05-.89,.33-1.62,1.16-2.74,.83-1.38-.4-1.34-1.85-1.97-2.8-.94,.7-1.73,1.29-2.63,1.96,2.15,2.39,4.86,3.7,7.63,4.92,3.24,1.41,6.63,.05,9.93,.51,.65,.09,.94-.5,.89-1.14-.02-.21-.06-.51-.2-.61-.61-.44-1.08,.04-1.39,.43-1.23,1.52-2.41,1.27-3.61,.01Zm40.99,19.78c1.35-.16,1.69-1.36,2.23-2.28,2.82-4.82,5.6-9.66,8.35-14.52,.4-.71,1.07-1.39,.94-2.42-1.18,.36-1.92,.97-2.49,1.86-1.26,1.98-2.57,3.92-3.85,5.88-2.38,3.63-4.76,7.26-7.14,10.89-1.14,.34-1.8,1.27-2.59,2.06-6.39,6.46-11.53,13.87-16.28,21.58-4.77,5.51-7.49,12.23-10.92,18.52-.46,.84-.97,1.81-.42,2.88,1.06,2.05,4.45,3.34,6.64,2.41,2.48-1.05,4.89-2.26,7.17-3.72,1.12-.72,2.29-1.63,3.64-.41,.88,.79,1.5,0,2.04-.41,2.65-2.07,5.43-4.04,7.39-6.82,1.61-2.28,3.63-3.42,6.46-3.6,2.67-.18,5.35-.73,7.8-1.92,5.62-2.74,8.1-8.99,5.57-14.39-2.04,2.65-4.03,5.21-5.99,7.8-1.84,2.42-3.83,4.59-6.69,5.95-2.55,1.22-3.41,.83-3.76-2.24,.85-1.38,2.11-2.59,2.21-4.81-1.5,1.34-2.58,2.43-3.12,3.94-1.57,2.32-3.13,4.65-4.72,6.95-.63,.92-1.3,1.83-2.03,2.67-.75,.86-1.74,1.06-2.72,.45-.92-.56-.96-1.55-.61-2.4,.59-1.44,1.36-2.81,2.05-4.21,1.07-1.1,1.7-2.42,2.38-4.37-1.75,.84-2.48,1.84-3.08,2.97-1.84,.59-3.32,1.61-4.17,3.43-2.24,4.82-6.89,7.75-9.63,12.18-.17,.28-.46,.48-.71,.71-.63,.58-1.36,.81-2.15,.41-.94-.48-1.2-1.35-.95-2.29,.23-.85,.64-1.66,1.03-2.46,1.17-2.42,2.17-4.95,3.61-7.19,1.04-1.61,0-3.51,1.29-5.01,1.16-1.34,2.2-2.82,2.86-4.51,4.82-6.32,9.61-12.65,14.47-18.94,1.56-2.01,3.06-4.18,5.88-4.63Zm22.59,1.48c4.17-.66,6.34-3.76,8.49-6.9,.32-.46,.73-.86,1.05-1.32,2.95-4.36,6.37-8.39,8.05-13.56,1.71-5.29,2.48-10.73,2.98-16.2,.34-3.64-1.67-5.21-5.22-4.66-4.32,.67-8.21,2.26-11.39,5.37-3.76,3.69-7.08,7.77-10.47,11.74,1.04,1.42,1.8,1.7,3.29,.56,1.48-1.12,2.64-2.37,3.65-3.85,1.4-2.05,2.88-4.02,4.76-5.67,1.13-.99,2.28-1.86,3.92-1.42,.99,.26,1.57-.25,2.32-.89,1.41-1.21,2.28-.95,3.07,.75,.29,.61,.34,1.03,1.15,1.31,1.91,.66,2.3,1.54,1.36,3.22-1.08,1.95-1.79,4.07-3.18,5.89-1.56,2.04-2.73,4.39-4.1,6.58-.67,1.07-.97,2.02,.35,2.84,2.84,1.78,2.88,2.04,.66,4.59-.66,.76-1.4,1.47-2.05,2.24-2.73,3.26-6.17,5.86-8.67,9.34-.32,.1-.72,.39-.95,.28-3.13-1.44-4.65,.77-6.32,2.72-.73,.85-1.47,1.76-2.4,2.36-2.01,1.29-2.65,2.84-1.47,4.99,.09,.16,.29,.27,.43,.39,.28-.19,.55-.53,.84-.54,1.71-.09,2.25-.9,2.44-2.65,.34-3.18,4.13-6.78,7.39-7.51Zm40.16,18.87c-2.29-1.96-4.74-3.68-7.37-5.2-5.83-3.36-11.22-7.33-15.79-12.32-.45-.49-.94-.96-1.35-1.48-.29-.37-.32-.85,.02-1.21,.4-.42,.89-.76,1.46-.33,.71,.53,1.37,1.13,2.05,1.7,.41,.73,1.02,1.42,1.82,.93,.36-.22-.27-.89-.79-1.13-.71-1.94,.69-2.52,2.12-3.03-.53-.48-1.01-.8-1.36-1.24-1.26-1.59-1.03-2.88,.89-3.1,1.85-.21,.76-1.03,.76-1.68,0-.69,.09-1.35,.74-1.77,1.43-.21,2.57,.37,3.62,1.29,.92,.81,1.92,1.52,2.89,2.28-1.1-2.1-2.65-3.64-4.56-4.81-.67-.58-1.35-1.16-2.01-1.76-.75-.67-1.1-1.63-.49-2.38,.83-1.02,.3-2.46,1.28-3.35,1.73-1.15,3.44,0,5.19,.36-.04-1.05-.38-1.55-1.03-1.85-.77-1.33-1.61-2.64-2.3-4.01-.71-1.43-.31-2.25,1.14-2.62,.92-.23,1.75,0,2.49,.57,.87,.9,1.73,1.82,3.61,2.58-.96-1.56-1.47-2.51-2.42-3.14-.71-1.13-.63-2.13,.54-2.9,1.11-.73,1.96-.01,2.71,.64,2.39,2.07,4.47,4.44,6.59,6.77,10.62,11.65,20.61,23.84,30.9,35.77,2.62,3.04,5.43,5.84,5.01,10.41-.1,1.11,.93,2.37-.41,3.31-1.22,.85-2.34,.19-3.46-.39-.33-.17-.65-.63-1.13-.32-.15,1.69-1.11,3.21-.28,5.09,.54,1.23-1.08,2.25-2.4,1.62-.49-.24-1.06-.6-1.27-1.06-1.1-2.44-3.2-2.66-5.52-2.64,.34,.63,.69,1.21,.98,1.82,.35,.73,.48,1.5,.26,2.3-.2,.71,.16,.94,.75,1.19,3.66,1.54,9.48,.35,12.21-2.56,.92-.99,1.83-1.99,2.66-3.05,2.61-3.32,2.4-8.95-.38-12.15-3.76-4.33-7.19-8.95-11.63-12.65-.76-.63-1.24-1.59-1.89-2.36-4.43-5.24-8.17-11.05-12.89-16.04-6.33-6.71-12.77-13.32-19.23-19.91-1.45-1.47-2.76-3.18-4.93-4.51,.35,3.82-1.42,6.78-1.77,9.99-.25,2.33-.81,4.42-2.04,6.41-4.35,7.06-7.31,15.05-13.66,20.74-1.36,1.22,.31,2.83-1.1,3.89-.18,.14,1.36,.82,2.09,1.26,1.06,.64,2.15,1.23,3.21,1.86,4.44,2.64,8.77,5.5,13.35,7.88,4,2.07,7.95,4.18,11.58,6.85,.84,1,1.89,1.63,3.48,2.08-.92-1.35-1.79-2.13-2.92-2.6Zm-93.91-39.35c2.63,.14,5.2,.91,7.49,.04,2.33-.88,4.61-.95,6.95-.82,4.83,.26,9.01-.83,12.57-4.43,3.13-3.17,7.13-4.65,11.69-4.02,.7,.1,1.38,.28,1.81-.41,.98-1.56,2.75-2.29,3.82-3.76,1.98-2.75,4.36-5.09,7.01-7.24,2.6-2.11,5.03-4.42,8.26-5.91-1.52-1.16-2.96-1.16-4.39-1.05-7.28,.57-14.52,1.56-21.85,1.32-.88-.03-1.77,.29-2.66,.42-.66,.1-.95,.42-.9,1.12,.04,.66,.24,1.07,.97,1.05,2-.06,2.14,1.37,2.09,3.11,2.42-1.53,4.3-3.34,6.6-4.5,1.45-.74,2.92-1.13,3.66,.72,.53,1.32,2.29,.99,2.61,2.41,.34,1.52-.97,2.45-1.2,3.75-.04,.21,0,.44,.06,.65,.58,1.92-1.09,2.42-1.99,2.05-2.41-.98-3.39,.72-4.72,1.92-1.25,1.13-2.43,2.35-3.75,3.39-.75,.6-1.69,.57-2.45-.2-.66-.66-.58-1.41-.26-2.18,.33-.78,1.15-1.28,1.27-2.44-3.13,3-6.07,5.9-9.1,8.69-2.5,2.3-3.28,2.12-5.02-.87-1.06,.57-1.92,1.59-3.28,1.45-1.24-.13-1.52-1.34-2.23-2.65-.87,1.06-1.39,1.8-2.01,2.44-.71,.73-1.53,1.49-2.64,1.06-1.29-.5-1.4-1.7-1.28-3.19-2.63,2.68-4.59,5.57-7.12,8.09Zm-13.03-21.96c-1.58-.55-2.71-.35-3.79,.36-1.68,1.12-3.44,2.14-5.03,3.37-2.83,2.19-3.46,4.74-2.16,8.91,.42-1.79,1.56-2.81,1.27-4.63-.28-1.82,2.3-3.65,4.06-3.05,.73,.25,1.19,.45,1.71-.19,1.26-1.54,2.53-3.07,3.94-4.77Zm19.76,1.23c1.54-1.09,2.93-2.07,4.77-3.38-2.99-.16-4.63,.5-4.77,3.38Zm6.2-3.67c.85,.91,1.43,1.53,2.15,2.29,.87-.94,1.93-1.52,2.37-2.81-1.54-.15-2.84,.19-4.52,.51Zm81.19,39.68c-.71-1.38-1.51-2.64-3.7-3.06,1.29,1.53,2.16,2.7,3.7,3.06Zm-70.87-38.86c.47,.17,.77-.13,1.09-.39,.41-.34,.91-.63,.91-1.24,0-.12-.24-.32-.39-.36-.72-.17-1.26,.1-1.56,.79-.17,.39-.37,.79-.05,1.2Z"/>
  <path class="cls-1" d="M140.46,53.08c3.78,2.61,7.27,3.11,10.93,.64,1.02-.69,2.1-1.31,3.18-1.9,1.16-.63,2.4-.96,3.34,.28,.87,1.16,.5,2.38-.32,3.42-1.64,2.07-3.61,3.83-6.26,4.29-2.54,.44-5.15,.62-7.59-.69-1-.53-2.06-.86-3.17-1.09-2.07-.41-3.93-1.01-5.85,.96-1.29,1.33-3.46,1.68-5.22,.12-.72,.75-.34,1.58-.53,2.29-.29,1.07-.85,1.93-2.04,1.87-1.15-.06-1.8-.92-1.97-1.98-.16-.99-.19-2.02-.18-3.03,.07-6.95-.41-13.92,.36-21.07-1.07,1.4-2.15,2.79-3.21,4.19-.41,.54-.73,1.14-1.15,1.66-1.26,1.57-2.38,1.97-3.38,1.16-1.41-1.15-.78-2.41-.03-3.6,3.11-4.93,5.95-10.04,9.79-14.47,.29-.34,.48-.79,.82-1.06,.91-.73,2.23-.19,2.22,.98-.04,5.93,1.26,11.81,.72,17.76-.25,2.8-.54,5.59-.84,8.38-.06,.57-.21,1.19,.31,1.54,.68,.47,1.33,.03,1.83-.4,4.66-4.04,9.53-7.92,11.98-13.86,.6-1.45,.9-2.99,.92-4.6,.05-4.32-.09-4.5-4.48-4.04-1,.1-1.99,.37-2.98,.59-.73,.16-1.35,.06-1.72-.65-.34-.66-.28-1.29,.23-1.85,1.35-1.5,2.57-3.15,4.08-4.48,3.5-3.07,7.52-1.85,8.93,2.54,1.7,5.29,.56,10.25-1.92,14.95-1.99,3.77-3.89,7.61-6.8,11.13Zm3.6-26.06c.27-.14,.63-.3,.62-.34-.1-.38-.45-.43-.77-.4-.28,.03-.73,.02-.65,.41,.03,.17,.55,.24,.8,.33Z"/>
  <path class="cls-1" d="M143.44,231.61c2.83-1.12,5.76-1.13,8.75-.43,2.31,.54,4.04,1.82,5.56,3.56,1.17,1.34,1.39,2.84,.86,4.4-.81,2.4-2.16,4.35-4.64,5.45-5.92,2.6-11.06,1-14.38-4.61-3.94-6.66-2.69-13.44,3.41-18.17,1.08-.84,1.93-1.87,2.88-2.83,1.58-1.6,3.49-2.41,5.75-2.32,1.3,.05,2.41,.59,3.25,1.55,1.31,1.48,.81,3.39-1.09,3.36-6.02-.1-8.32,3.89-10.18,8.56-.16,.4-.47,.75-.17,1.48Zm.9,6.09c2.53,2.2,4.84,1.03,7.11,.3,.52-.17,1.12-.53,1.02-1.17-.09-.55-.56-.97-1.15-1.13-2.61-.68-4.7,.39-6.98,2Z"/>
  <path class="cls-1" d="M251.97,137.74c-1.84,.18-3.35,.87-4.9,.15-.87-.41-1.65-.86-1.72-1.86-.07-1.01,.52-1.79,1.49-1.99,2.36-.49,2.34-2.96,3.48-4.4,.78-.99-.67-3.12-1.3-4.66-.39-.96-1.24-.76-2.01-.38-1.18,.58-2.21,.56-2.77-.82-.43-1.07,.34-2.22,1.93-2.55,1.53-.31,3.13-.55,4.68-.44,3.58,.26,6.27,3.81,5.78,7.4-.08,.55-.24,1.1-.42,1.63-.96,2.81-1.2,5.22,.95,7.96,2.04,2.6,.89,5.9-1.81,8.01-.88,.69-1.83,1.3-2.78,1.9-5.21,3.34-10.41,1.98-13.4-3.51-.41-.75-.46-1.49,.02-2.23,.5-.75,1.24-1,2.06-.78,.75,.2,1.46,.56,2.17,.89,4.81,2.22,6.93,1.25,8.55-4.31Z"/>
  <path class="cls-1" d="M36.14,154.47c-4.42,1.92-7.06,1.23-9.72-2.44-2.09-2.89-1.97-7.73,.42-10.32,1.84-1.99,3.88-3.79,6.96-3.39,1.07,.14,2.18,.3,1.96,1.69-.19,1.16-1.09,1.26-2.09,.82-.29-.13-.75-.31-.92-.19-1.81,1.38-3.39,2.95-3.83,5.31-.4,2.14,.06,3.98,1.91,5.36,1.37,1.03,2.45,.37,3.12-.72,1.08-1.78,2.38-3.47,2.38-5.78,0-1.92,.88-2.67,2.32-2.48,1.41,.19,2.29,1.32,1.81,3.01-1.24,4.36-.47,8.63,.02,12.97,.3,2.65,.25,5.37-.55,7.99-.17,.55-.37,1.14-1.03,1.16-.74,.01-.79-.68-.87-1.2-.63-3.86-1.24-7.73-1.89-11.78Z"/>
  <path class="cls-1" d="M238.41,84.7c-5.03,1.43-8.49,4.56-12.7,6.35-2.46,1.04-4.59,2.76-7.11,3.72-.89,.34-1.79,.84-2.3-.24-.57-1.21,.15-1.91,1.38-2.06,1.06-.13,2-.57,2.64-1.35,2.49-3.04,6.11-4.49,9.31-6.48,2.4-1.49,5.21-2.79,8.79,.06Z"/>
  <path class="cls-1" d="M206.78,45.91c-.02,.84-.5,1.2-.81,1.65-2.99,4.43-5.6,9.16-9.95,12.51-.66,.5-.95,1.24-1.27,1.95-.41,.89-1.09,1.17-1.91,.72-.87-.47-.83-1.24-.34-2.01,1.25-1.98,2.32-4.12,3.82-5.9,2.44-2.9,4.18-6.34,7.07-8.89,.76-.67,1.48-.89,2.4-.87,.7,.02,.99,.39,.99,.82Z"/>
  <path class="cls-1" d="M47.4,203.92c-.67,.02-1.13-.27-1.35-.84-.31-.76,.03-1.52,.7-1.62,3.16-.45,4.43-3.16,6.32-5.11,1.9-1.95,3.95-3.64,6.52-4.64,.74-.29,1.44-.62,2.25-.22,.85,.42,1.43,.91,.39,1.67-4.16,3.04-7.43,7.18-12.11,9.56-.9,.46-1.73,1.03-2.72,1.2Z"/>
  <path class="cls-1" d="M66.93,72.39c.47,.06,.87,.28,1.09,.68,2,3.56,5.2,6.09,7.8,9.14,.89,1.04,1.72,2.03,1.92,3.45,.08,.59,.96,1.13,.17,1.75-.76,.59-1.51,.21-2.12-.32-1.76-1.55-3.58-3.02-5.08-4.86-1.16-1.42-1.87-3.05-2.73-4.6-.61-1.09-1.31-2.07-2.08-3.03-.39-.48-.46-1.03-.07-1.54,.27-.35,.61-.66,1.11-.66Z"/>
  <path class="cls-1" d="M64.59,99.4c-.34,.71-.99,1.08-1.61,.99-5.36-.83-10.01-2.89-12.91-7.81-.23-.38-.45-.79-.57-1.21-.17-.61,.16-1.11,.65-1.4,.66-.39,1.51-.29,1.7,.42,1.08,4.06,4.93,4.08,7.83,5.37,1.97,.87,3.88,1.59,4.91,3.64Z"/>
  <path class="cls-1" d="M95.06,223.39c-.96,1.47-1.99,2.91-2.87,4.43-.69,1.19-1.53,2.11-2.69,2.87-1.3,.85-2.38,1.96-2.72,3.65-.15,.77-.83,1.39-1.78,.98-.89-.39-1.01-1.15-.61-1.96,.45-.9,.88-1.82,1.47-2.62,1.78-2.37,2.97-5.18,5.21-7.21,1.55-1.4,2.03-1.38,3.98-.15Z"/>
  <path class="cls-1" d="M250.5,182.35c-3.41-.38-6.87-.55-10.22-1.23-1.63-.33-3.25-.7-4.91-.94-.8-.12-1.57-.55-1.42-1.54,.18-1.2,1.1-1.37,2.04-1,2.39,.92,4.84,.64,7.29,.56,3.08-.1,5.58,.97,7.44,3.37-.08,.26-.15,.53-.23,.79Z"/>
  <path class="cls-1" d="M200.09,213.87c.83,.03,1.29,.53,1.57,1.16,.73,1.63,2,2.65,3.58,3.38,.62,.29,1.17,.73,1.43,1.37,.53,1.31,1.97,2.96,.81,3.96-1.18,1.01-2.08-1-3.08-1.72-2.25-1.59-3.45-4.1-5.29-6.04-.43-.46-.48-1.01-.11-1.53,.27-.38,.68-.57,1.1-.58Z"/>
  <path class="cls-5" d="M173.75,136.29c-.74-.58-1.57-.81-2.49-.57-1.45,.37-1.85,1.19-1.14,2.62,.69,1.38,1.53,2.68,2.3,4.01-.36,1.06-1.24,.57-1.92,.62-.85,.06-1.78-.15-2.24,.88-.99,.89-.46,2.33-1.28,3.35-.61,.75-.25,1.71,.49,2.38,.66,.59,1.34,1.17,2.01,1.76-.32,.92-1.65,.27-1.95,1.24-.65,.42-.74,1.08-.74,1.77,0,.65,1.09,1.47-.76,1.68-1.93,.22-2.15,1.51-.89,3.1,.34,.43,.83,.76,1.36,1.24-1.43,.51-2.83,1.09-2.12,3.03-.34,.07-.69,.13-1.03,.2-.68-.57-1.34-1.17-2.05-1.7-.57-.42-1.07-.08-1.46,.33-.35,.37-.32,.84-.02,1.21,.41,.53,.9,.99,1.35,1.48,4.57,4.99,9.96,8.96,15.79,12.32,2.63,1.51,5.08,3.23,7.37,5.2-.18,.17-.37,.35-.55,.52-3.63-2.67-7.58-4.77-11.58-6.85-4.58-2.38-8.91-5.23-13.35-7.88-1.06-.63-2.15-1.22-3.21-1.86-.73-.44-2.28-1.13-2.09-1.26,1.41-1.05-.26-2.67,1.1-3.89,6.35-5.69,9.31-13.68,13.66-20.74,1.23-1.99,1.79-4.09,2.04-6.41,.35-3.21,2.12-6.17,1.77-9.99,2.18,1.33,3.49,3.03,4.93,4.51,6.46,6.58,12.9,13.2,19.23,19.91,4.72,5,8.46,10.8,12.89,16.04,.65,.77,1.13,1.73,1.89,2.36,4.45,3.7,7.87,8.32,11.63,12.65,2.78,3.2,2.99,8.83,.38,12.15-.83,1.06-1.74,2.07-2.66,3.05-2.72,2.91-8.54,4.1-12.21,2.56-.6-.25-.96-.48-.75-1.19,.23-.79,.09-1.57-.26-2.3-.29-.61-.64-1.19-.98-1.82,2.31-.02,4.41,.2,5.52,2.64,.21,.46,.78,.83,1.27,1.06,1.32,.63,2.94-.39,2.4-1.62-.83-1.87,.13-3.39,.28-5.09,.48-.32,.8,.14,1.13,.32,1.12,.58,2.24,1.24,3.46,.39,1.34-.94,.31-2.2,.41-3.31,.42-4.57-2.39-7.37-5.01-10.41-10.29-11.93-20.29-24.12-30.9-35.77-2.12-2.33-4.2-4.71-6.59-6.77-.75-.65-1.6-1.37-2.71-.64-1.17,.77-1.25,1.77-.54,2.9-.16,.69-.72,.53-1.19,.57Z"/>
  <path class="cls-5" d="M90.43,143.1c2.53-2.52,4.5-5.42,7.12-8.09-.12,1.49-.01,2.69,1.28,3.19,1.12,.43,1.94-.33,2.64-1.06,.62-.64,1.15-1.38,2.01-2.44,.71,1.31,.99,2.52,2.23,2.65,1.37,.15,2.23-.88,3.28-1.45,1.74,2.99,2.52,3.17,5.02,.87,3.04-2.79,5.98-5.7,9.1-8.69-.12,1.16-.95,1.66-1.27,2.44-.32,.77-.4,1.53,.26,2.18,.76,.76,1.7,.79,2.45,.2,1.32-1.04,2.5-2.25,3.75-3.39,1.32-1.2,2.3-2.9,4.72-1.92,.9,.37,2.58-.13,1.99-2.05-.06-.2-.1-.44-.06-.65,.23-1.3,1.55-2.23,1.2-3.75-.32-1.41-2.09-1.09-2.61-2.41-.74-1.86-2.2-1.46-3.66-.72-2.3,1.16-4.18,2.97-6.6,4.5,.05-1.74-.09-3.17-2.09-3.11-.73,.02-.93-.39-.97-1.05-.04-.69,.24-1.02,.9-1.12,.89-.13,1.78-.45,2.66-.42,7.33,.24,14.57-.75,21.85-1.32,1.43-.11,2.87-.1,4.39,1.05-3.24,1.5-5.67,3.8-8.26,5.91-2.65,2.16-5.02,4.49-7.01,7.24-1.06,1.48-2.84,2.2-3.82,3.76-.43,.69-1.11,.5-1.81,.41-4.56-.64-8.56,.85-11.69,4.02-3.56,3.6-7.74,4.69-12.57,4.43-2.34-.13-4.62-.06-6.95,.82-2.29,.87-4.87,.1-7.49-.04Z"/>
  <path class="cls-5" d="M101.24,185.67c-.66,1.69-1.7,3.17-2.86,4.51-1.29,1.49-.25,3.4-1.29,5.01-1.45,2.24-2.45,4.77-3.61,7.19-.39,.8-.79,1.61-1.03,2.46-.25,.93,.01,1.81,.95,2.29,.79,.4,1.52,.18,2.15-.41,.25-.23,.54-.43,.71-.71,2.75-4.43,7.4-7.36,9.63-12.18,.85-1.83,2.32-2.84,4.17-3.43,.97,.1,.63,.85,.7,1.39-.69,1.4-1.47,2.77-2.05,4.21-.34,.85-.3,1.84,.61,2.4,.99,.61,1.97,.41,2.72-.45,.73-.84,1.4-1.75,2.03-2.67,1.59-2.3,3.15-4.63,4.72-6.95,.61-.03,.74,.44,.91,.87,.35,3.07,1.21,3.46,3.76,2.24,2.85-1.36,4.85-3.53,6.69-5.95,1.96-2.58,3.95-5.15,5.99-7.8,2.53,5.4,.05,11.66-5.57,14.39-2.46,1.2-5.14,1.75-7.8,1.92-2.84,.19-4.85,1.32-6.46,3.6-1.97,2.78-4.74,4.75-7.39,6.82-.53,.42-1.16,1.19-2.04,.41-1.35-1.21-2.52-.3-3.64,.41-2.28,1.46-4.69,2.67-7.17,3.72-2.19,.93-5.59-.37-6.64-2.41-.55-1.07-.04-2.04,.42-2.88,3.43-6.29,6.16-13.01,10.92-18.52,.16,.17,.31,.34,.47,.51Z"/>
  <path class="cls-5" d="M144.22,163.54c2.49-3.48,5.93-6.08,8.66-9.34,.65-.77,1.39-1.48,2.05-2.24,2.22-2.55,2.18-2.81-.66-4.59-1.31-.82-1.01-1.77-.35-2.84,1.37-2.19,2.53-4.54,4.1-6.58,1.4-1.82,2.1-3.95,3.18-5.89,.94-1.68,.55-2.57-1.36-3.22-.82-.28-.87-.69-1.15-1.31-.79-1.7-1.66-1.96-3.07-.75-.75,.64-1.33,1.16-2.32,.89-1.64-.44-2.79,.42-3.92,1.42-1.88,1.65-3.36,3.63-4.76,5.67-1.01,1.48-2.18,2.73-3.65,3.85-1.49,1.14-2.25,.86-3.29-.56,3.39-3.97,6.71-8.04,10.47-11.74,3.17-3.12,7.06-4.71,11.39-5.37,3.55-.55,5.55,1.02,5.22,4.66-.51,5.47-1.27,10.91-2.98,16.2-1.67,5.17-5.09,9.2-8.05,13.56-.31,.46-.73,.86-1.05,1.32-2.15,3.14-4.32,6.25-8.49,6.9l.04-.04Z"/>
  <path class="cls-5" d="M119.64,161.52c2.38-3.63,4.76-7.26,7.14-10.89,1.29-1.96,2.59-3.91,3.85-5.88,.57-.9,1.31-1.5,2.49-1.86,.12,1.02-.54,1.71-.94,2.42-2.75,4.86-5.53,9.7-8.35,14.52-.54,.92-.88,2.12-2.23,2.28-.61-.31-1.44,.09-1.95-.58Z"/>
  <path class="cls-5" d="M77.4,121.14c-1.4,1.7-2.67,3.24-3.94,4.77-.52,.64-.98,.44-1.71,.19-1.76-.6-4.34,1.23-4.06,3.05,.29,1.82-.85,2.84-1.27,4.63-1.29-4.17-.66-6.72,2.16-8.91,1.59-1.23,3.35-2.25,5.03-3.37,1.08-.72,2.21-.91,3.79-.36Z"/>
  <path class="cls-5" d="M74.98,143.13c-2.77-1.21-5.48-2.52-7.63-4.92,.9-.67,1.69-1.26,2.63-1.96,.63,.95,.59,2.4,1.97,2.8,1.12,.33,1.84-.51,2.74-.83,1.48,3.63,2.07,3.75,6.08,1.05-.25,1.13-.61,2.11-.17,3.06-1.67,1.68-3.77,.38-5.62,.8Z"/>
  <path class="cls-2" d="M119.64,161.52c.51,.68,1.34,.27,1.95,.58-2.82,.45-4.32,2.61-5.88,4.63-4.86,6.29-9.65,12.62-14.47,18.94-.16-.17-.31-.34-.47-.51,4.75-7.71,9.88-15.11,16.28-21.58,.78-.79,1.45-1.72,2.59-2.06Z"/>
  <path class="cls-5" d="M144.18,163.58c-3.26,.73-7.05,4.33-7.39,7.51-.19,1.75-.72,2.55-2.44,2.65-.29,.02-.56,.35-.84,.54-.14-.13-.34-.23-.43-.39-1.17-2.15-.53-3.71,1.47-4.99,.92-.59,1.67-1.51,2.4-2.36,1.67-1.94,3.18-4.15,6.32-2.72,.22,.1,.63-.18,.95-.28,0,0-.04,.04-.04,.04Z"/>
  <path class="cls-5" d="M80.83,124.19c.92-1.21,2.47-1.97,2.63-3.72,.07-.7,.57-.86,1.18-.86,2.18,0,4.37,0,7.19,0-1.67,1.82-2.9,3.17-4.34,4.74-.63-.94-.94-2.1-2.21-2.15-1-.03-1.66,.53-2.32,1.14-.48,.45-.92,.93-1.38,1.4-.4,.02-.71-.1-.76-.56Z"/>
  <path class="cls-2" d="M74.98,143.13c1.85-.43,3.95,.87,5.62-.8,1.21,1.26,2.39,1.51,3.61-.01,.32-.39,.78-.87,1.39-.43,.14,.1,.18,.4,.2,.61,.05,.64-.24,1.23-.89,1.14-3.3-.46-6.69,.91-9.93-.51Z"/>
  <path class="cls-5" d="M97.16,122.38c.14-2.88,1.78-3.54,4.77-3.38-1.84,1.3-3.23,2.29-4.77,3.38Z"/>
  <path class="cls-2" d="M167.53,152.58c.29-.97,1.62-.31,1.95-1.24,1.91,1.16,3.46,2.71,4.56,4.81-.97-.76-1.97-1.47-2.89-2.28-1.05-.92-2.18-1.5-3.62-1.29Z"/>
  <path class="cls-5" d="M103.36,118.7c1.68-.32,2.98-.67,4.52-.51-.45,1.29-1.51,1.86-2.37,2.81-.72-.77-1.3-1.39-2.15-2.29Z"/>
  <path class="cls-2" d="M119.71,189.2c-.17-.43-.31-.9-.91-.87,.54-1.51,1.62-2.59,3.12-3.94-.1,2.22-1.36,3.42-2.21,4.81Z"/>
  <path class="cls-4" d="M80.83,124.19c.05,.46,.36,.57,.76,.56-.54,1.42-1.73,2.23-3.39,3.67,.56-2.2,1.26-3.4,2.63-4.22Z"/>
  <path class="cls-2" d="M168.26,143.85c.46-1.03,1.4-.82,2.24-.88,.69-.04,1.56,.45,1.92-.62,.64,.3,.99,.8,1.03,1.85-1.75-.35-3.46-1.5-5.19-.36Z"/>
  <path class="cls-4" d="M184.55,158.38c-1.54-.35-2.41-1.53-3.7-3.06,2.19,.42,2.99,1.68,3.7,3.06Z"/>
  <path class="cls-2" d="M173.75,136.29c.47-.04,1.04,.13,1.19-.57,.95,.63,1.46,1.58,2.42,3.14-1.88-.75-2.74-1.68-3.61-2.58Z"/>
  <path class="cls-2" d="M110.77,191.79c-.07-.55,.26-1.3-.7-1.39,.61-1.13,1.34-2.13,3.08-2.97-.68,1.95-1.31,3.26-2.38,4.37Z"/>
  <path class="cls-2" d="M183.78,182.97c.18-.17,.37-.35,.55-.52,1.13,.47,2,1.25,2.92,2.6-1.59-.45-2.64-1.08-3.48-2.08Z"/>
  <path class="cls-2" d="M113.68,119.53c-.32-.42-.12-.81,.05-1.2,.3-.69,.83-.96,1.56-.79,.16,.04,.39,.23,.39,.36,0,.61-.5,.9-.91,1.24-.31,.26-.62,.56-1.09,.39Z"/>
  <path class="cls-2" d="M163.35,163.6c.34-.07,.69-.13,1.03-.2,.52,.24,1.14,.91,.79,1.13-.79,.49-1.41-.2-1.82-.93Z"/>
  <path class="cls-2" d="M144.06,27.03c-.25-.1-.77-.16-.8-.33-.08-.39,.37-.38,.65-.41,.33-.03,.67,.02,.77,.4,.01,.05-.35,.2-.62,.34Z"/>
  <path class="cls-5" d="M144.34,237.7c2.28-1.6,4.36-2.68,6.98-2,.59,.15,1.06,.57,1.15,1.13,.1,.64-.49,1.01-1.02,1.17-2.27,.73-4.58,1.89-7.11-.3Z"/>
</svg>