<?xml version="1.0" encoding="UTF-8"?>
<svg id="Layer_1" data-name="Layer 1" xmlns="http://www.w3.org/2000/svg" viewBox="0 0 94.87 42.46">
  <path d="M0,8.82l.41-.82,.41-.41,.82-.82,.82-.41,.41-.41,.41-.82,.82-.82,.41-.41,.82-.82,.41-.41,.82-1.23,.41-.41,.82-.82h.82V2.69h1.23l1.23-.41,1.23-.41,1.63-.41,1.23-.41,1.23-.41,2.04-.41h5.31l1.23,.41,1.23,.41,.82,.41,1.23,.41,1.23,.82,.82,.41,.82,.82,.82,.41,.41,.82,.82,.41,.41,.82,.82,.41,.41,.82,.41,.41v.41l.82,2.45-.41,.82-.41,1.23-.41,.82-.41,1.23-.41,.41v.41l-.41,.41-.41,1.23-.82,.82-.41,.82-.41,.82-.41,.82-.41,.82-.41,.82-.41,.82-.41,.82-.82,.82-.41,.82-.82,.82-.41,.82-.41,.82-.82,.82-.41,.82-.41,.82h8.58l.82,.41,.41,.82,.41,1.63-.41,3.68,.41,.41-.41,.82v0l-1.23,.82-.41-.41h-.82l-.82-.41h-2.45l-12.67,.82-.41-.41-2.86-.41-.41-.41-2.86-.41-.41-.82,.41-1.23,.41-.41,.82-1.23,.41-.41,.82-1.23,.41-.41,.41-1.23,.41-.82,.41-.82,.41-.82,.41-.82,.41-.82,.41-1.23,.41-2.45,.25-.72,2-2,1-2,2-2-2.8-1.46-.82-.41-.41-.82-.41-.82-.82-.41-.41-.82-.82-.41-.82-.41-.41,.41-.82,.41-.41,.41-.82,.82-.41,.41-.82,.82-.41,.41-.82,.82-.41,.41-.41,.41-.41,1.23-1.63,.82-.41-.82-.41-.82-.41-.82-.82-.41-.41-.82-.82-.41-.41-.82-.82-.41-.41-.82v-.41H.41l-.41-2.45ZM8.17,3.1h0Z"/>
  <path d="M33.84,20.81l.28-1.66,.69-1.69,.38-.44,.75-.88,.38-.44,.35-.85,.75-.88,.38-.44,.35-.85,.72-1.28,.38-.44,.35-.85,.32-1.25,.72-1.28-.82,.06-.12-1.63,.75-.88-.03-.41,.38-.44,.38-.44,2.01-.56,.82-.06-2.45,.18,4.11,.1,3.7,.13,3.7,.13,1.19-.5,.82-.06,1.28,.72,1.24,10.97,.62,2.82,1.03,2.79-.35,.85-.25,2.07-.06-.82,.27,9,.06,.82,.59,2.41,.03,.41,.47,.78,.03,.41-1.98,.97,1.6-.53-3.26,.25,1.22-.09-4.51-.07-.41,.03-.78,.47-.78,.47-.78,.47-.78,.47-.78,.47-.38,.44-.03-.41-.41,.03-.59-2.41-.03-.41,.54-3.73-.25,2.07,.38-5.77-.47-.78-.18-2.45,.35-.85,.35-.85,.38-.44-.06-.82h-5.33s-6.52,.48-6.52,.48l-.03-.41-1.63,.12-.41,.03-.59-2.41Zm14.18-7.63l.03,.41-.75,.88-.35,.85-.38,.44,2.1,.66,.75-.88-.5-1.19-.5-1.19-.41,.03Z"/>
  <path d="M69.19,0l1.39,.82,1.18,.32,1.29-.07,1.29-.07,1.68,.03,1.29-.07,1.29-.07,2.08,.14,5.13,1.39,1.08,.72,1.08,.72,.68,.61,1.08,.72,.97,1.11,.68,.61,.57,1,.68,.61,.18,.9,.68,.61,.18,.9,.68,.61,.18,.9,.29,.5-.11,.39,.15,2.58-.61,.68-.72,1.08-.61,.68-.72,1.08-.5,.29-.11,.39-.5,.29-.72,1.08-1,.57-.61,.68-.61,.68-.61,.68-.61,.68-.61,.68-.61,.68-.61,.68-1,.57-.61,.68-1,.57-.61,.68-.61,.68-1,.57-.61,.68-.61,.68,1.58,.43,6.71,1.82,.68,.61,.18,.9-.03,1.68-1.36,3.44,.29,.5-.61,.68,.21-.79-.21,.79-1.4,.47-.29-.5,1.58,.43-2.37-.64-.68-.61-2.37-.64-12.44-2.53-.29-.5-2.65-1.14-.41-1.31-1.93-.76-.79-.47,.72-1.08,.5-.29,1.11-.97,.5-.29,1.11-.97,.5-.29,.72-1.08,.61-.68,.61-.68,.61-.68,.61-.68,.61-.68,.72-1.08,1.04-2.26,1.89-.5,.93-1.86-.14-2.83,.72-1.08,1.11-.97-.68-.61-.18-.9-.18-.9-.68-.61-.18-.9-.68-.61-.68-.61-.5,.29-.9,.18-.5,.29-1,.57-.5,.29-1,.57-.5,.29-1,.57-.5,.29-.5,.29-.72,1.08-1.79,.36-.18-.9-.18-.9-.18-.9-.68-.61-.18-.9-.68-.61-.18-.9-.68-.61-.18-.9,.11-.39-.39-.11-.39-.11,.25-2.47,.61-.68,.5-.29,1-.57,.9-.18,.5-.29,.61-.68,1-.57,.5-.29,1-.57,.5-.29,1.37-.07Zm.89,1.11l.39,.11-.39-.11Z"/>
</svg>