<?xml version="1.0" encoding="UTF-8"?>
<svg id="Layer_1" data-name="Layer 1" xmlns="http://www.w3.org/2000/svg" viewBox="0 0 1920 1080">
  <defs>
    <style>
      .cls-1 {
        fill: #6b6154;
      }

      .cls-2 {
        fill: #685b4d;
      }

      .cls-3 {
        fill: #797571;
      }

      .cls-4 {
        fill: #615447;
      }

      .cls-5 {
        fill: #706556;
      }

      .cls-6 {
        fill: #80807f;
      }

      .cls-7 {
        fill: #6a5f50;
      }

      .cls-8 {
        fill: #5a4d43;
      }

      .cls-9 {
        fill: #766c5e;
      }

      .cls-10 {
        fill: #3e3e3e;
      }

      .cls-11 {
        fill: #797570;
      }

      .cls-12 {
        fill: #665b4e;
      }

      .cls-13 {
        fill: #695d4e;
      }

      .cls-14 {
        fill: #333;
      }

      .cls-15 {
        fill: gray;
      }

      .cls-16 {
        fill: #685d51;
      }

      .cls-17 {
        fill: #635548;
      }

      .cls-18 {
        fill: #756c5f;
      }

      .cls-19 {
        fill: #706657;
      }

      .cls-20 {
        fill: #695e50;
      }

      .cls-21 {
        fill: #6c6052;
      }

      .cls-22 {
        fill: #73695b;
      }

      .cls-23 {
        fill: #6f6556;
      }

      .cls-24 {
        fill: #6e6253;
      }

      .cls-25 {
        fill: #675b4e;
      }

      .cls-26 {
        fill: #6d6254;
      }

      .cls-27 {
        fill: #766d5e;
      }

      .cls-28 {
        fill: #7d7c7a;
      }

      .cls-29 {
        fill: #6e6355;
      }

      .cls-30 {
        fill: #716759;
      }

      .cls-31 {
        fill: #695b4d;
      }
    </style>
  </defs>
  <path class="cls-23" d="M490.2,.1H1675.29c1.44,1.71,.91,3.23-.13,4.99-7.63,12.8-20.61,18.59-35.06,15.45-4.51-.98-8.99-2.11-13.56-2.74-4.3-.59-8.66-.88-12.81,.49-4.33,1.43-8.5,2.21-13.08,1.16-3.49-.8-5.39,1.57-6.26,4.77-.86,3.16-1.31,6.46-1.35,9.67-.2,16.75-1.7,33.55,1.59,50.18,.09,.46,.13,.93,.24,1.38,.6,2.4,.91,5.19,3.69,6,3.17,.93,4.73-1.7,6.25-3.78,4.76-6.49,8.92-13.4,13.86-19.77,5.52-7.12,11.45-13.84,18.67-19.24,14.13-10.56,27.45-10.7,40.76,.75,10.37,8.92,20.48,9.46,32.22,3.3,8.42-4.42,16.44-9.64,25.66-12.61,12.23-3.94,23.49-1.44,32.29,8.22,3.63,3.99,4.02,5.58,1.57,10.4-11.91,23.42-25.46,45.72-42.74,65.6-13.42,15.45-28.32,29.01-46.95,37.68-11.78,5.48-24.08,9-37.3,9.39-9.26,.28-18.37-.08-27.5-1.41-6.07-.88-8.86,1.4-9.53,7.76-1.11,10.65-2.3,21.32-1.99,32.04,.23,8.26-.75,16.43-1.04,24.65-.17,4.84-4.36,8.63-10.56,9.96-1-.05-1.96,.27-2.94,.39-12.3,.23-24.65,.67-36.89-.15-10.01-.68-20.08-1.27-30.06-2.87-12.68-2.04-22.07-9.27-29.72-18.93-6.38-8.05-13.66-9.36-19.33,3.19-5.14,11.4-7.4,23.65-9.72,35.86-3.34,17.52-5.25,35.35-11.25,52.3-1.15,3.23-2.38,6.43-4.23,9.3-3.75,5.8-9.64,5.58-12.98,.25-4.65-7.41-6.71-15.64-8.56-23.97-4.39-19.75-5.71-39.94-8.37-59.95-1.51-11.39-3.24-22.75-6.83-33.74-2.63-8.02-7.66-11.96-16.21-12.64-12.54-1-25.2-.66-37.61-3.3-12.02-2.55-22.68-7.68-31.71-16.14-.79-.74-1.6-1.46-2.43-2.14-13.01-10.68-24.08-10.34-36.65,.98-8.48,7.63-15.18,16.75-21.15,26.35-11.21,18.04-21.19,36.78-29.67,56.31-2.85,6.57-1.97,7.99,5.16,8,34.14,.06,68.29,.19,102.43-.09,8.89-.07,10.29,3.67,10.19,10.45-.13,8.39-.15,16.78,.02,25.17,.08,3.92-1.42,6.32-4.84,8.13-8.59,4.54-17.56,8.27-26.19,12.73-13.42,6.94-26.85,13.84-39.86,21.53-6.06,3.58-11.8,5.09-18.7,1.98-5.49-2.47-8.98-.22-9.96,5.82-1.27,7.79-1.95,15.59-1.4,23.61,.68,9.75,.58,19.55,2.21,29.23,.7,4.14,1.5,8.25,2.98,12.2,1.99,5.31,5.33,9.39,10.35,12.01,2.73,1.43,5.42,2.91,7.99,4.64,4.42,2.97,6.32,2.48,8.32-2.66,2.77-7.11,5.96-14.01,10.02-20.43,6.33-10.01,14.33-18.06,26.81-19.2,10.45-.96,20.5,1.68,30.32,4.93,13.6,4.5,26.76,10.2,40.11,15.37,12.82,4.97,25.89,8.97,39.9,8.52,4.97-.16,9.77-.98,14.57-2.1,8.39-1.96,11.69-.17,15,8.11,3.13,7.83,4.72,16.06,5.86,24.4,.51,3.69,.96,7.39,1.42,11.09-.38,7.53-2.49,9.65-9.47,9.75-9.84,.14-19.62-1.35-29.48-1.01-5.71,.2-11.36,.52-16.96,1.66-9.03,1.84-18.01,1.94-26.9-.77-21.09-6.43-29.61-.4-39.84,17.83-1.66,2.95-2.12,7.03-6.41,7.84-3.03,1.28-6.2,1.46-9.44,1.52-13.6,.29-27.25-.98-40.8,1.06-5.24,.79-10.45,1.81-15.27,4.23-2.14,2.09-3.72,0-5.24-.91-19.86-11.85-40.04-23.15-60.11-34.63-27.29-15.62-54.85-30.75-82.44-45.82-40.99-22.39-82.48-43.81-124.3-64.57-29.67-14.73-59.68-28.74-90-42.07-2.21-.97-5.3-1.12-5.87-4.45,1.12-21.55,2.16-43.09,1.79-64.68-.11-6.38-.71-12.72-1.64-19.01-.81-5.44-2.52-6.54-7.83-5.59-3.1,.56-5.33-.27-7.13-2.91-3.14-4.6-6.15-9.29-9.72-13.59-4.38-5.29-9.58-7.46-16.64-6.75-15.96,1.6-31.89,.33-47.76-1.82-10.51-1.42-21.04-2.9-31.63-3.3-26.95-1.03-50.5,7.48-70.08,26.55-2.61,2.54-5.29,5.9-9.41,4.42-4.09-1.47-4.97-5.69-5.62-9.53-2.5-14.77-2.63-29.68-1.76-44.57,.65-11.14,1.53-22.32,4.87-33.09,.28-.89,.46-1.81,.79-2.68,4.69-12.16,7.61-18.34,24.54-17.86,23.2,.65,46.43,.16,69.64,.16,1.84,0,3.69,.04,5.53-.08,5.22-.34,7.5-2.41,7.55-6.83,.05-4.47-2.21-6.71-7.36-6.98-4.61-.24-9.23-.28-13.83,.11-13.04,1.12-26.08,1.14-39.12,0-2.91-.26-5.84-.21-8.76-.21-28.9,0-57.81,0-86.71,0-1.23,0-2.46-.05-3.69,.02-2.86,.18-6.22-.47-7.82,2.72-1.67,3.33,.24,6.3,1.88,9.13,.78,1.34,1.8,2.54,2.96,3.56,6.36,5.59,9.22,12.98,10.88,21.06,1.95,9.44,3.15,18.98,4.1,28.57,.83,3.44-2.85,5.01-3.18,7.98-.87,1.43-2.08,1.48-3.56,1.02-32.87-10.13-61.16,.75-87.71,19.55-.39,.28-.8,.42-1.26,.49-10.04,3.37-19.88,7.3-30.17,9.99-22.98,6-46.23,7.77-69.9,6.28-22.41-1.41-44.12-5.99-65.47-12.75-25.47-8.07-49.71-19.02-73.23-31.68-9.9-5.33-19.75-10.78-29.24-16.83-4.56-2.91-5.24-4.4-3.53-9.62,2.38-7.26,5.39-14.22,10.88-19.76,3.19-3.22,6.92-4.96,11.55-4.84,6.61,.18,13.23,.22,19.74-1.29,1.21,.05,2-1.03,3.13-1.18,5.14,1.07,10.35,1.74,15.47,2.91,1.18,.27,2.37,.44,3.55-.03,.73-.34,1.45-.65,2.23-.23,2.04,1.67,4.07,1.68,6.09-.07,4.56-1.22,8.65-3.13,10.97-7.64,2.41-.26,4.15-1.49,5.22-3.7,1.66-3.45,4.3-6.5,4.33-10.63,.09-1.43,.44-2.82,.49-4.26,1.09-1.88,4.19-2.58,3.22-5.66,1.06-4.49,2.33-8.91,3.72-13.3,.58-1.83,.88-3.97,3.18-4.65,1.37,.01,2.8-.49,4.11-.08,12.48,3.91,23.28-.79,33.74-6.82,8.41-4.85,16.58-10.13,25.34-14.35,3.03-1.46,6.05-2.73,9.52-1.96,2.58,.26,2.36,2.56,2.87,4.2,1.48,4.73,2.11,9.69,4.13,14.28,3.5,7.96,8.06,8.78,13.73,2.07,4.43-5.24,9.28-9.87,15.04-13.6,10.43-6.75,21.95-9.65,34.15-9.44,11.06,.2,22.05-1.95,33.13-.73,2.27,.25,4.23-.89,5.54-2.78,2.52-3.63,3.76-7.81,4.53-12.1,.46-2.55-.93-4.12-3.41-4.67-1.51-.33-3.06-.33-4.59-.31-7.53,.05-15,.14-22.37-2.15-4.48-1.4-9.12-.31-13.68,.57-7.97,1.55-15.87,3.48-24.11,3.49-12.68,.03-21.18-7.08-28.61-16.25-1.34-1.65-1.46-3.38,.49-4.79Z"/>
  <path class="cls-22" d="M1339.32,492.44c4.58-5.49,6.99-12.33,11.37-18.03,7.41-9.63,16.79-12.49,28.17-10.15,3.76,.77,7.48,1.79,11.2,2.77,5.6,1.48,11.35,1.84,16.93,.68,14.94-3.1,29.93-2.79,44.99-1.52,.77,.06,1.53,.09,2.3,.11q9.15,.26,11.49-8.35c1.99-.69,2.85,.36,3.2,2.14,.78,3.92,3.54,5.58,7.06,6.45,3.59,.89,7.19,1.74,10.84,2.27,11.62,1.69,21.39,7.25,30.71,14.14,15.5,11.47,30.9,23.18,48.87,30.62,18.53,7.67,36.02,6.66,51.9-6.78,6.85-5.79,13.96-11.05,22.28-14.74,11.6-5.14,23.58-5.62,35.73-4.22,15.02,1.74,29.35,6.8,44.04,10.16,8.12,1.86,16.26,3.63,24.63,3.24,6.44-.31,10.43,2.93,13.3,8.19,4.71,8.66,7.14,18.15,9.84,27.55,6.08,21.17,10.42,42.88,19.58,63.07,5.14,11.33,10.73,22.34,18.99,31.8,9.21,10.54,21.71,16.94,36.99,9.14,1.79-.91,3.73-1.46,5.58-2.22,3.12-.73,6.29-.27,9.43-.4,7.92,.01,15.85,.17,23.74,.87,14.23,1.25,25.53,8.27,35.14,18.5,1.35,1.44,1.45,3.58,2.25,5.34v49.42c-2.6,23.63-7.4,46.95-9.62,70.62-.25,2.61-1.27,5.09-1.18,7.75-1.17,1.26-2.76,1.48-4.26,1.28-8.07-1.08-16.25-.48-24.29-2.14-8.95-1.85-15.84-7.37-22.9-12.55-12.19-8.93-24.04-18.35-36.96-26.23-6.52-3.97-13.41-6.93-20.84-8.54-7.91-1.71-15.56-.73-23.01,2.48-4.23,1.82-8.46,3.68-13.15,4.14-7.39,.72-14.07-1.44-20.09-5.46-6.03-4.03-11.52-8.77-16.18-14.45-4.02-4.91-8.31-9.61-13.68-13.08-9.67-6.25-19.26-5.11-27.92,2.42-8.96,7.8-12.91,17.03-10.36,28.94,.85,3.95,.18,8.06,.34,12.09,.25,6.34,1.8,8.04,8.04,8.15,9.84,.17,19.68,0,29.51,.07,5.98,.04,6.65,.71,6.7,6.66,.05,4.66,.02,9.32,0,13.98,0,2.46-.5,4.64-2.93,5.85-2.09,.77-4.27,.54-6.41,.54-41.07-.02-82.14,.27-123.21-.17-11.02-.12-22.07-.73-33.12-.75-1.69,0-3.39-.06-5.07,.2-4.21,.63-5.53,2.7-4.41,6.85,2.39,8.85,8.87,13.74,17.97,13.57,5.6-.1,7.79,1.47,9.19,6.97,1.27,4.98,1.82,10.08,2.14,15.2,1.88,30.66-3.82,60.32-11.63,89.7-.92,3.46-2.26,6.77-3.84,9.98-3.8,7.71-8.48,9.97-16.9,8.11-4.03-.89-8.02-2.09-12.21-1.18-1.89,.79-3.22-.55-4.66-1.33-8.8-4.73-18.1-6.51-28.05-5.38-12.52,1.42-24.07,6.14-35.88,10.08-6.4,2.14-12.71,4.53-19.36,6.01-10.6,2.37-20.92,1.82-31.44-.67-29.18-6.93-57.82-15.87-86.9-23.18-19.86-4.99-39.93-8.84-60.33-10.6-15.18-1.31-30.34-.22-45.51,.94-16.85,1.29-33.76,.98-50.64,.07-3.99-.22-7.98-.28-11.97-.45-1.56-.07-3.51,.47-4.28-1.74-1.76-7.72-.88-15.5-.65-23.25-.72-1.44-.87-2.82-.21-4.42,1.24-3.01,2.05-6.18,3.2-9.23,1.91-5.1,4.36-6.29,9.25-3.95,5.87,2.82,11.91,5,18.3,6.19,14.23,2.65,27.83-.29,41.21-4.82,14-4.75,27.42-10.98,40.96-16.9,10.74-4.69,21.73-8.58,33.18-11.17,8.19-1.85,14.29,.42,19.17,7.37,3.91,5.57,7.72,11.22,11.82,16.65,1.21,1.6,2.37,3.26,3.75,4.72,4.23,4.46,8.4,4.66,12.81,.31,6.09-5.99,10.66-13.24,15.56-20.19,4.99-7.08,9.76-14.32,14.72-21.43,2.71-3.88,3.06-7.54,.61-11.66-3.08-5.19-5.56-10.72-8.65-15.92-2.07-3.48-4.53-6.6-7.21-9.58-1.25-2.82,.67-3.44,2.71-4.13,15.43-5.21,29.67-12.81,43.02-22.14,27.15-18.98,46.11-44.42,57.69-75.53,7.75-20.84,11.35-42.5,11.82-64.74,.12-5.74-2-9.48-6.89-12.57-16.03-10.14-32.15-20.12-48.15-30.31-1.77-1.13-5.16-1.48-4.03-5.14,7.96-9.69,17.72-16.96,29.98-19.5,11.4-2.36,19.7,3.91,26.59,12.37,1.17,1.44,2.17,3.02,3.4,4.4,2.88,3.24,5.22,2.94,6.89-1.11,2.85-6.94,3.94-14.35,4.88-21.74,2.25-17.59,3.03-35.22,1.11-52.91-.12-1.08-.11-2.18-.39-3.23-.9-3.27-3.1-4.28-5.33-1.75-4.24,4.8-8.12,3.75-13.04,1.15-9.83-5.19-20.58-7.2-31.61-7.37-12.13-.19-24.28-.17-36.41,0-7.13,.1-14.07-.74-20.93-2.71-6.53-1.87-9.07-.78-12.72,5.06-1.88,3.02-3.83,6-5.63,9.07-1.5,2.55-3.3,4.88-5.62,6.73-3.85,3.07-7.09,2.94-9.88-1.09-4.2-6.05-6.93-12.75-6.57-20.39Z"/>
  <path class="cls-1" d="M1716.82,791.78c1.64-5.8,.89-11.73,.71-17.59-.11-3.63-3.05-3.8-5.76-3.81-10.3-.03-20.6,0-30.9-.05-6.68-.03-7.28-.76-7.45-7.51-.23-8.84-.55-17.68-.89-26.52-.14-3.74,1.03-6.93,3.26-9.93,3.08-4.12,6.56-7.84,10.4-11.19,9.19-8.01,22.66-7.2,32.77,1.98,3.99,3.63,7.79,7.48,11.2,11.72,4.51,5.6,10.06,10.07,16.13,13.77,7.8,4.75,16.32,6.29,24.7,2.13,19.05-9.45,36.24-4.95,53.16,5.73,14.51,9.15,27.81,19.97,41.71,29.95,7.21,5.17,15.04,7.62,23.58,8.37,5.81,.51,11.65,.73,17.47,1.09,2.04-3.38,4.99-5.57,8.68-6.82,1.48-.5,2.92-.95,4.26,.3v154.79c-1.25,7.34-6.18,12.79-9.67,18.96-8.25,14.56-15.69,29.54-22.67,44.75-3.49,7.61-3.74,16.03-3.97,24.21-.44,15.68,.47,31.32,3.37,46.79,.46,2.42,1.67,5.13-1.22,7.03h-378.42c-1.09-1.13-1.94-2.3-2.38-3.95-1.31-4.92-3.06-6.23-8.12-6.65-2.45-.2-4.91-.12-7.37-.12-46.24,0-92.48,0-138.71-.02-1.99,0-3.99,.26-5.95-.24-2.64-2.81-2.68-6.5-3.15-10-1.46-10.94-3.32-21.8-6.33-32.43-.8-2.84-1.76-5.64-3.1-8.27-3.13-6.18-7.58-6.48-11.52-.69-2.71,3.99-4.53,8.45-6.3,12.94-4.1,10.38-7.65,20.99-13.31,30.69-2.12,3.64-4.86,6.8-7.1,10.31-6.3,9.88-26.59,10.5-33.83,.12-3.73-5.34-7.35-10.7-10.55-16.38-3.65-6.49-7.81-12.63-12.81-18.18-8.16-9.07-18.39-13.76-30.27-15.24-8.24-1.03-16.48-2.49-24.75-2.43-8.58,.06-17.21,.03-25.78,.79-15.37,1.37-30.39,.17-44.78-5.92-7.59-3.21-14.38-7.65-20.24-13.55-5.33-5.37-10.43-10.98-16.44-15.64-9.37-7.26-19.58-9.02-30.88-5.48-12.49,3.91-22.86,11.18-32.5,19.82-6.42,5.76-12.55,11.89-20.14,16.24-7.82,4.49-15.33,4.26-23.15-.09-27.1-15.08-54.62-29.24-84.31-38.55-16.24-5.09-32.79-8.27-49.84-8.49-7.48-.1-10.48-2.48-11.73-10.1-2.15-13.08-1.93-26.29-1.74-39.49,.04-3.1,1.71-4.43,4.64-4.47,1.69-.02,3.38-.04,5.07-.04,45.82,0,91.65,.02,137.47-.05,3.39,0,6.73,.62,10.12,.48,5.95-.85,11.91-.39,17.87-.22,17.72-.44,35.44-.21,53.16-.13,8.99-.11,17.99-.19,26.98,.02,13.26-.18,26.52-.11,39.78-.11,9.99,0,19.98,0,29.97,0,2.54,0,4.95,.12,6.7,2.32,13.68-.17,27.32,.96,41,1.11,14.95,.16,29.77-1.45,44.64-2.21,15.44-.78,30.68,.61,45.89,2.78,29.32,4.18,57.63,12.76,86.11,20.57,14.84,4.07,29.72,7.94,44.65,11.65,12.47,3.1,24.38,.95,36.28-2.72,13.07-4.03,25.58-9.72,39.08-12.52,14.24-2.95,27.47-1.4,39.83,6.53,2,.74,2.98,2.08,3.39,4.32,1.6,8.7,3.22,17.41,5.55,25.96,1.15,4.21,2.5,8.34,4.77,12.08,3.02,4.98,6.82,5.35,10.88,1.13,2.25-2.34,4.05-5.07,6.18-7.53,9.98-11.47,22.29-19.22,37.11-22.01,25.16-4.74,48.52-14.73,72.16-24,15.05-5.9,30.13-11.71,45.85-15.64,20.32-5.08,40.67-5.09,61.27-1.76,17.06,2.76,34.29,2.05,51.52,1.14,12.41-.66,24.84-1.62,37.31-1.25,7.64,.23,10.34-2.15,11.23-9.8,1.93-16.41,1.97-32.85-.04-49.26-.98-7.99-2.69-9.38-10.51-9.93-1.08-.08-2.21-.06-3.17-.54-6.94-3.48-13.72-2.06-20.58,.39-11.49,4.1-17.53,1.93-24.28-8.36-1.71-2.6-3.3-5.28-4.38-8.19-2.01-5.42-5.82-7.72-11.41-7.51-2.15,.08-4.31-.02-6.46,0-43.82,.3-87.62-1.16-131.44-1.2-15.18-.01-30.44,.01-45.62-.84-8.54-.48-16.8-.96-24.95,2.31-3.55,1.42-6.86-.39-8.97-3.21-5.08-6.81-6.36-15.01-7.47-23.2-.23-1.72,1.12-2.4,2.5-2.68,1.35-.27,2.76-.09,4.14-.09,42.6,0,85.2,0,127.79-.03,1.65,0,3.38,.49,4.96-.44Z"/>
  <path class="cls-26" d="M.11,941.91v-125.89c1.15-1.64,2.76-2.33,4.71-2.32,1.54,.01,3.07-.02,4.61-.02,84.09,0,168.19,0,252.28,0,2.84,0,5.71-.17,8.42,.93-11.18-3.22-19.93-10.82-29.55-16.84-7.96-4.99-15.56-10.56-24.24-14.31-11.83-5.12-23.02-4.57-34.45,1.85-13,7.3-25.4,15.85-39.61,20.85-11.32,3.98-22.67,5.78-34.14,.71-8.81-3.9-15.66-10.34-21.61-17.77-6.9-8.61-12.45-18.09-16.82-28.26-.25-.57-.51-1.13-.78-1.69-3.99-8.48-4.12-7.96-11.34-2.64-6.18,4.55-12.29,9.2-18.5,13.71-5.04,3.67-11.1,.92-13.95-5.88-3.2-7.61-4.93-15.66-6.13-23.83-2.84-19.36-3.59-38.92-5.6-58.36-.27-2.63-.69-5.24-1.36-7.79-1.2-4.61-3.13-6.16-7.9-6.03-1.68,.05-3.01-.13-4.03-1.53v-48.49c1.17-1.58,2.87-2.17,4.64-2.8,11.41-4.12,16.07-12.15,14.22-24.16-1.35-8.77-3.92-16.76-10.9-22.97-4.15-3.69-5.82-8.86-6.13-14.7-.59-11.05-2.01-22.06-.9-33.17,.29-2.94,1.34-4.59,4.47-4.28,28.91,.36,57.8-.8,86.68-1.29,17.02-.29,34.13,.45,51.13-1.35,19.6,1.12,39.25,.14,58.85,1.34,7.83,.48,15.65,.21,23.48,.34,3.22,.05,6.45-.19,9.65,.23,2.59,1.9,3.88,4.85,5.63,7.4,4.21,6.13,8.37,12.22,14.57,16.57,6.98,4.89,14.49,7.11,23.02,5.94,5.33-.73,10.58-1.69,15.81-2.98,13.67-3.37,27.39-2.41,41.09-.14,10.01,1.65,19.8,4.21,29.49,7.23,1.05,.33,1.91,.97,2.84,1.48,1.53,7.4-2.17,11.52-9.03,10.05-4.97-1.06-9.8-2.63-14.73-3.83-10.23-2.5-14.16-.07-15.68,10.33-1.88,12.81-.97,25.69-.52,38.57,.73,21.08,2.04,42.26-5.33,62.65-.32,.88-.48,1.84-.95,2.62-5.31,8.75-2.53,16.08,3.34,23.37,3.24,4.03,7.86,6.98,9.71,12.14-.56,.9-1.39,1.77-1.31,2.87,.73,11.08-.68,22.13-.59,33.21,.05,6.14-.35,12.41-1.65,18.51-.36,1.67-.7,3.35-1.31,4.95-2.08,5.49-5.2,7.46-11.01,7.01-1.53-.12-3.04-.46-4.58-.54-6.27-.33-10.19,2.11-12.73,7.94-2.04,4.67-.66,7.26,4.46,7.46,6.76,.27,13.48,1.02,20.21,1.6,11.17,.95,22.28,2.34,33.55,2.4,14.77,.07,28.68-2.85,41.81-9.68,2.13-1.11,4.67-3.46,6.86-1.36,2.18,2.09,.52,5.08-.35,7.58-4.57,13.21-9.82,26.08-17.05,38.13-8.75,14.59-21.33,19.76-37.58,17.17-.3-.05-.61-.14-.91-.14-27.64,0-55.26-2.71-82.92-.72-4.15,.3-8.3,.22-12.45,.17-28.17-.33-55.28,4.55-81.42,15.5-15.74,6.59-31.68,12.93-48.66,15.71-6.37,1.04-12.79,1.61-19.28,1.48-5.47-.11-7.05,1.28-8.42,6.59-2.3,8.9-2.6,17.8,.22,26.66,1.53,4.8,3.09,5.78,7.78,4.6,1.97-.49,3.95-.58,5.94-.58,14.61-.01,29.24-.53,43.82,.1,40.73,1.76,81.48-.25,122.18,1.04,24.14,.76,48.25,.3,72.38,.73,5.26,.09,10.39-.42,15.47-2.03,5.67-1.79,9.3-.08,12.23,5.32,3.77,6.93,5.21,14.54,6.17,22.27,0,.51-.03,1.03-.08,1.55-.44,1.87-2.02,1.71-3.31,1.71-29.14-.15-56.77,8.13-84.49,15.67-17.82,4.85-35.68,9.41-54,11.84-15.3,2.03-30.64,2.41-45.87-.47-5.3-1-9.66-.11-13.49,3.8-2.32,2.37-5.23,3.55-8.58,4.04-12.04,1.78-22.75,7.41-33.67,12.38-6.31,2.87-12.58,5.83-19.18,7.94-21.29,6.82-38.51,1.44-52.58-16.07-11.6-14.44-19.02-31.09-25.52-48.26-.99-2.61-1.89-5.26-3.07-7.79-3.05-6.56-6.52-7.33-11.59-2.29-4.73,4.69-9.54,9.21-15.18,12.8-3.01,1.92-6.21,3.37-9.52,4.66-1.87,.73-3.57,.81-5.18-.53Z"/>
  <path class="cls-13" d="M235.42,517.61c-30.76,.24-61.5-1.6-92.27-.92-1.14-2-.12-2.82,1.7-3.15,4.72-.86,6.25-4.12,6.06-8.46-.43-9.61-1-19.22-3.2-28.61-1.57-6.71-4.34-8.24-11.07-6.52-3.34,.86-6.75,.86-10.07,.41-5.97-.8-11.95-.58-17.93-.79-34.06-1.17-68.13-.93-102.2-.9-2.4,0-4.8,0-6.35-2.34v-65.27c1.49-3.69,4.8-4.97,8.09-6.41,19.39-8.47,39.37-10.83,59.93-5.47,13.81,3.6,25.61,11.18,36.42,20.38,2,1.7,3.94,3.48,6.09,4.99,3.99,2.81,6.78,2.01,8.75-2.54,2.01-4.63,2.25-9.65,2.92-14.57,1.64-11.99,2.1-24.14,4.55-36.03,.6-2.89,1.27-5.75,2.1-8.59,2.03-6.95,5.83-11.9,13.51-12.76,1.98-.22,3.95-.84,5.68-1.88,8.19-4.92,15.66-2.75,22.79,2.31,5.41,3.85,10.33,8.34,15.42,12.6,4.64,3.88,9.38,7.6,15.39,9.11,7.53,1.89,10.82-1.38,8.61-8.8-1.42-4.76-3.04-9.47-4.96-14.04-7.07-16.84-7.01-34.53-6.06-52.28,.29-5.4,.74-10.84,2.13-16.14,1.93-7.36,4.96-9.15,12.05-6.95,1.03,.32,2.07,.78,3.14,.73,10.29-.5,20.6-.04,30.89-.44,3.21-.12,4.42-2.12,3.34-5.12-3.95-10.94-7.64-22.04-14.55-31.58-3.71-5.12-7.04-5.95-12.25-2.56-16.39,10.64-34.01,11.68-52.36,7.19-10.48-2.56-20.61-6.25-30.77-9.87-13.65-4.87-27.37-9.33-42.15-9.26-7.39,.04-14.29,1.79-21.12,4.3-7.73,2.84-12.28,.78-15.19-7.12-3.42-9.29-4.23-19.12-4.57-28.87-.39-11.32-.56-22.68,.23-34,.15-2.09-2.45-4.43,.47-6.28,4.27-1.84,8.82-1.74,13.31-2.06,1.37,.03,2.71,.03,4.04,.64,18.23,8.41,36.15,5.69,53.36-2.66,23.16-11.24,45.23-24.51,65.11-41.07,11.88-9.9,21.38-22.22,31.16-34.18,9.39-11.48,18.65-23.07,28.22-34.4,3.74-4.43,7.88-8.52,12.74-11.77,8.3-.3,16.6-.18,24.89-.1,7.87,.08,15.63-.43,23.32-2.26,6.53-1.55,10.27,.45,13.75,6.42,4.14,7.11,5.74,15.02,7.08,22.98,3.23,19.16,4.39,38.5,4.62,57.9,.04,3.57-.07,7.14,.35,10.69,.22,1.82-.34,3.31-1.74,4.47-5.04,2.74-10.55,2.1-15.84,1.75-8.88-.59-14.64,3.48-18.58,11.03-1.94,3.71-3.76,7.46-5.12,11.45-1.19,3.51-.29,5.84,2.89,7.78,15.68,9.54,31.67,18.5,48.19,26.45,24.76,11.91,50.26,21.84,77.07,28.02,45.3,10.45,89.96,9.3,133.69-7.86,2.14-.84,4.39-1.43,6.58-2.14,2.43,.63,2.21,2.66,2.26,4.49,.3,12.12,.12,24.23-1.01,36.3-.39,4.18-1.45,8.24-3.57,11.96-1.81,3.16-4.47,4.84-7.99,4.38-19.88-2.64-39.88-2.17-59.84-2.85-13.99-.47-27.98-.21-41.95-.74-9.98-.38-19.99-1-29.8-2.88-10.71-2.05-19.68,1.43-28.06,7.59-6.84,5.02-13.53,10.26-20.72,14.78-5.06,3.18-10.39,5.02-16.52,4.93-7.92-.11-9.98,2.23-10.1,10.4-.13,9.01,.06,18.03-.06,27.04-.21,15.21-.71,30.41-2.68,45.53-.65,4.96-1.88,9.76-3.77,14.38-2.41,5.88-6.22,7.23-11.8,4.33-2.06-1.07-3.83-2.59-5.79-3.82-2.95-1.85-5.78-1.87-8.53,.39-1.8,1.49-3.67,2.72-6.1,3.02-5.48,.68-6.8,1.89-7.73,7.37-1.1,6.44-1.18,13.03-1.31,19.5-.31,16.15,.49,32.29,3.41,48.23,.5,2.76,1.21,5.46,2.17,8.09,2.57,7.03,6.65,9.67,14.05,9.5,24.93-.55,49.81-.31,74.46,4.28,2.31,.43,4.46,1.11,6.44,2.36,.64,.61,1.6,1.22,1.14,2.22-3.29,7.02-5.64,14.57-10.91,20.52-10.47,.97-20.65-2.31-31.03-2.34-9.61-.02-16.93,4.86-22.7,12.26-3.23,4.15-5.83,8.74-8.41,13.33-.43,.76-1.18,.91-1.93,1.11-10.59,.42-21.15,1.49-31.77,1.17-17.98-.55-35.92,1.55-53.9,.92-2.98-.1-5.87-.21-8.23-2.36Z"/>
  <path class="cls-2" d="M.11,941.91c11.57-3.78,20.93-10.83,29.22-19.65,6.07-6.46,10.1-5.79,13.78,2.4,3.93,8.76,7.2,17.81,10.95,26.66,4.74,11.18,10.76,21.62,18.49,31,11.98,14.55,26.78,20.74,45.45,15.84,11.25-2.95,21.49-8.37,31.98-13.14,8.45-3.84,17-7.2,26.19-8.65,3.56-.56,6.23-2.59,8.55-5.13,2.63-2.9,5.66-3.99,9.51-3.17,31.39,6.64,61.73,.13,91.89-7.82,26.31-6.93,52.37-14.89,79.54-17.89,6.14-.68,12.28-.3,18.42-.45,1.27-2.49,3.33-3.31,6.03-3.21,5.65,.21,11.37-.52,16.86,1.56,1.47,.56,3.05,.25,4.57,.25,58.54,.01,117.08-.03,175.62,.1,3.64,0,6.89-1.28,10.38-1.67,10.17-1.14,19.86,1.04,29.45,4.04,4.99,1.56,9.94,3.26,14.97,4.66,10.15,2.83,20.18,3.36,30.35-.3,7.57-2.72,10.9-.91,14.22,6.54,1.46,3.29,2.13,6.81,2.59,10.35,1.13,8.62,1.95,17.25,1.88,25.97-.12,14.44-.01,28.87-.05,43.31,0,2.31,.27,4.67-.74,6.87-1.16,3.33-3.79,3.5-6.73,3.36-2.84-.13-3.77-2-4.79-4.22-1.95-4.25-1.91-8.82-2.46-13.28-1.04-8.46-2.06-16.91-3.83-25.25-.26-1.21-.53-2.42-1-3.57-.64-1.6-1.32-3.31-3.28-3.53-2-.22-3,1.34-3.8,2.86-1.87,3.55-3.98,6.99-5.33,10.8-.78,2.2-1.65,4.37-2.94,6.29-6.61,9.81-4.9,9.31-15.93,6.64-12.52-1.18-25.04-1.04-37.55,.08-.82-.74-1.8-1.2-2.88-1.16-22.96,.8-45.92,.38-68.88,.17-1.13-.01-2.1,.36-3.12,.65-3.66-.1-7.33-.52-10.98,.19-6.25-.67-11.95,1.73-17.89,3.06-15.35,3.46-30.87,2.29-46.32,.58-14.21-1.57-28.35-3.63-42.71-1.42-18.09,2.78-32.23,12.36-44.44,25.48-6.11,6.57-10.92,14.23-17.2,20.68-6.81,7.01-14.91,10.34-24.64,10.4-12.32,.08-24.09-1.83-35.23-7.42-6.47-3.25-13.38-5.54-20.23-7.84-10.1-3.4-13.57-1.29-15.3,9.23-.45,2.73-1.29,5.04-3.45,6.77-81.74,0-163.48-.02-245.22,.08-3.14,0-4.1-.42-4.09-3.97,.16-44.71,.11-89.41,.11-134.12Z"/>
  <path class="cls-30" d="M516.04,1017.45c3.69,0,7.39,0,11.08,0,3.29,1.36,5.75,3.67,7.76,6.61,3.25,4.73,7.27,8.79,11.52,12.57,12.15,10.81,26.54,10.64,38.47-.4,3.61-3.34,7.09-6.84,9.94-10.91,2.19-3.13,4.56-6.06,7.99-7.9,12.92,0,25.85,.01,38.77,.02,3.71,1.29,5.29,4.32,6.07,7.86,1.24,5.6,2.21,11.28,4.13,16.7,2.5,7.05,6.11,7.88,11.52,2.75,2.46-2.34,4.65-4.98,7.34-7.05,3.75-2.89,6.51-2.54,8.74,1.49,.95,1.73,1.88,2.14,3.54,2.03,1.98-.14,3.99,.22,5.96-.22,3.57-2.89,6.68-1.28,9.46,1.23,3.67,3.31,7.21,6.79,10.37,10.6,1.88,2.26,3.81,4.48,5.78,6.66,8.38,9.28,14.44,8.23,19.78-3.02,4.46-9.39,7.01-19.6,12.41-28.56,2.42-4.02,4.65-8.56,10.27-7.96,5.31,.56,7.39,5.04,9.33,9.32,2.76,6.1,4.35,12.6,6.24,19.01,.46,1.57,.66,3.84,2.71,3.87,2.14,.03,2.22-2.28,2.61-3.86,2.24-9.06,3.56-18.29,4.74-27.53,2.01-15.74,6.25-31.08,8.24-46.79,1.59-12.51,1.47-25.11-1.08-37.57-.34-1.65-.37-3.77-2.36-4.16-2.11-.41-2.71,1.68-3.46,3.15-2.26,4.42-5.3,7-10.69,5.79-3.21-.72-6.41,.3-9.47,1.47-3.45,1.32-6.93,2.56-10.48,3.59-12.99,3.78-20.66,.64-27.34-11.33-1.74-3.11-3.47-6.24-5.04-9.43-1.88-3.84-4.8-5.44-8.87-5.45-2,0-4-.04-6-.04-29.23,0-58.45,.03-87.68-.04-2.57,0-5.67,.82-7-2.73,.2-.55,.47-1.05,.83-1.52,1.6-1.68,3.71-1.26,5.63-1.27,37.26-.05,74.51-.06,111.77-.02,2.75,0,5.47,.44,8.23,.45,1.97,0,3.54-.27,3.69-2.69,4.24-2.81,9.22-2.14,13.76-2.25,46.08-1.19,91.39-8.68,136.66-16.57,22.87-3.98,45.58-8.79,68.35-13.28,2.82-.56,5.67-1.62,8.61-.56,1.35,1.28,2.43,2.79,2.92,4.57,2.56,9.4,4.31,19,6.53,28.49,.42,1.79-.41,3.08-1.74,4.13-48.44,0-96.88,0-145.32,.02-8.5,0-8.74,.33-8.85,8.92-.14,10.89,.22,21.75,2,32.5,1.01,6.05,3.19,7.96,8.9,7.94,24.42-.09,47.4,6.53,69.93,15.21,22.76,8.76,44.27,20.19,65.58,31.99,7.48,4.14,14.46,4.21,21.76-.28,7.43-4.56,13.55-10.68,19.99-16.44,8.59-7.68,17.92-14.01,28.73-18.2,16.42-6.37,30.3-2.63,42.52,9.67,5.76,5.8,11.06,12.08,17.79,16.88,16.18,11.57,34.48,14.25,53.6,12.99,19.38-1.27,38.65-1.36,57.86,2.04,13.15,2.33,23.17,9.52,31.28,19.84,4.79,6.11,8.73,12.78,12.42,19.6,2.16,3.98,4.81,7.61,7.68,11.04,8.62,10.32,21.15,9.89,29.66-.59,9.58-11.79,14.35-25.94,19.76-39.8,2.26-5.8,4.64-11.53,8.43-16.5,4.28-5.61,9.29-5.3,12.74,.89,1.65,2.96,3.02,6.15,3.99,9.4,4.19,14.03,6.63,28.4,7.79,43,1.88,2.4-.31,3.29-1.69,4.27-5.67,4.06-11.66,7.49-18.62,8.79H509.58c-2.17-1.77-2.3-4.2-2.3-6.76-.01-15.96-.04-31.93,.02-47.89,.02-6.54,.63-7.11,6.99-7.35,.63-.02,1.21-.12,1.74-.46Z"/>
  <path class="cls-21" d="M1592.22,242.55c6.05-2.34,8.14-6.65,8.53-13.3,1.01-17.19,.31-34.47,2.51-51.61,1.21-9.46,3.62-11.72,12.97-10.11,38.22,6.58,70.3-5.64,97.55-32.46,22.5-22.15,39.01-48.64,53.54-76.53,1.98-3.8,1.34-6.66-1.61-9.54-7.32-7.14-15.87-10.03-25.78-7.37-5.92,1.59-11.66,3.78-17.02,7.01-6.98,4.21-14.02,8.37-22.06,10.36-7.96,1.96-14.87-.01-21.04-5.27-5.31-4.53-10.73-8.76-17.98-9.84-11.73-1.73-20.49,4.02-28.55,11.34-8.76,7.95-15.48,17.63-22.02,27.44-2.32,3.48-4.62,6.99-7.29,10.19-3.84,4.61-8.47,3.64-10.37-2.25-1.9-5.92-3.06-12.13-3.06-18.32-.02-15.05-1.07-30.13,.8-45.15,.27-2.14,.61-4.33,1.33-6.35,1.7-4.78,3.71-5.74,8.43-4.22,2.54,.81,5.1,1.56,7.67,.56,8.92-3.48,17.85-2.14,26.79-.23,2.85,.61,5.7,1.31,8.58,1.72,15.21,2.16,24.08-6.64,31.16-18.5h22.15c2.48,1.75,3.51,4.42,4.62,7.12,2.66,6.5,5.41,7.61,12.16,6.96,12.38-1.19,24.83-.75,37.24-.2,3.67,.16,7.34,.57,11.02,.57,15.2,0,30.4,.24,45.59-.06,18.12-.36,36.19,1.07,54.29,1.03,1.81,0,3.73-.15,5.02,1.61,1.48,2.18,1.26,4.68,1.26,7.12-.01,5.7,.11,11.39-.04,17.09-1.05,3.15-3.77,2.04-5.79,2.05-20.98,.11-41.96,.06-62.94,.07-1.84,0-3.68-.08-5.51,.1-4.41,.44-5.3,1.98-3.52,6.1,.37,.85,.78,1.66,.93,2.55,.09,.84,.71,1.07,1.46,1.22,5.91,4.3,12.46,7.16,19.72,6.68,16.21-1.07,26.82,6.59,33.58,20.8,1.75,3.69,3.51,7.25,7.77,8.62,1.73,.56,1.51,2.07,1.36,3.48-.14,1.18-1.04,1.52-1.96,1.59-5.3,.42-8.51,3.82-11.37,7.86-4.39,6.21-8.07,12.86-12.12,19.28-2.32,3.67-4.75,7.27-7.77,10.4-7.66,7.97-15.43,7.05-21.04-2.62-4-6.88-6.53-14.39-8.62-22.05-1.02-3.74-1.74-7.58-3.06-11.23-.72-2.01-1.2-4.63-3.79-4.75-2.88-.13-3.61,2.62-4.34,4.76-3.02,8.85-4.73,18.01-5.93,27.27-2.11,16.34-3.39,32.73-3.03,49.24,.16,7.32,1.62,13.81,7.75,18.56,2.37,1.84,3.69,4.65,4.18,7.61,2.21,13.2,3,26.51,2.87,39.89-.01,1.44-.72,2.29-1.64,3.15-2.03,1.6-4.43,1.05-6.68,1.02-16.45-.19-32.86,.55-49.25,1.91-7.22,.6-9.29,3.28-8.58,10.63,.38,3.95,2.41,7.32,3.36,11.06,.35,1.75-.68,2.92-1.68,4.1-16.95,20.02-37.99,29.67-64.41,26.79-15.93-1.74-31.36-6.19-47.24-8.13-5.22-.64-10.43-.58-15.64-.67-3.2-.06-4.89-1.48-4.84-4.81,.19-11.64-1.5-23.22-.95-34.87,.11-2.44,.1-4.83,2.33-6.44Z"/>
  <path class="cls-4" d="M60.11,142.77c.27,19.55-1.25,39.17,2.58,58.56,.24,1.22,.38,2.46,.7,3.66,2.83,10.64,6.36,13.21,16.37,9.15,14.68-5.96,29.62-3.86,44.4,.14,15.17,4.1,29.57,10.6,44.75,14.67,16.68,4.47,33.1,5.32,48.93-3.18,2.3-1.24,4.46-2.74,6.71-4.09,5.05-3.03,7.78-2.68,11.74,1.75,3.53,3.95,6.09,8.57,8.32,13.37,3.8,8.16,6.9,16.61,10.03,25.05,1.26,3.39,.56,4.9-3.24,4.95-11.22,.13-22.45-.52-33.65,.69-1.72,.19-3.6-.63-5.35-1.18-4.71-1.5-7-.48-8.26,4.37-1.97,7.55-2.31,15.33-2.82,23.08-1.25,18.84,2.46,36.77,9.7,54.07,1.31,3.13,2.24,6.45,3.12,9.75,1.18,4.44,.06,6.31-4.45,7.4-6.68,1.62-12.57-.82-17.77-4.59-6.24-4.52-12.04-9.65-18.03-14.51-2.64-2.14-5.33-4.19-8.36-5.78-5.17-2.73-10.27-2.94-15.4,0-2.3,1.32-4.76,2.25-7.38,2.55-6.18,.72-9.5,4.46-11.21,10.19-2.72,9.12-3.9,18.51-4.95,27.94-.93,8.33-1.89,16.67-2.9,24.99-.41,3.42-1.43,6.7-2.89,9.79-2.44,5.17-5.95,5.97-10.28,2.28-6.7-5.71-13.32-11.52-20.78-16.23-25.6-16.16-52.23-16.23-79.54-5.12-3.42,1.39-6.74,3.04-10.1,4.57,0-28.29,0-56.57,0-84.86,1.78-4.41,5.05-7.9,7.33-11.99,4.87-8.73,8.08-18.11,10.54-27.77,1.15-4.51,1.88-9.25,3.87-13.4,5.14-10.73,5.79-21.99,5.57-33.62-.33-17.71-.25-35.43-.02-53.14,.12-8.84,.82-17.68,2.67-26.37,.81-3.8,1.76-7.6,4.22-10.73,2.84-3.63,5.44-4.13,9.47-1.93,1.49,.81,2.96,1.66,4.35,2.64,2.9,2.05,5.94,3.29,9.5,1.83,1.15-.47,2.11-.4,2.49,1.04Z"/>
  <path class="cls-17" d="M1723.27,266.8c-3.92-3.94-6.22-15.97-4.01-20.97,1.3-2.95,3.98-3.03,6.61-3.23,19.72-1.54,39.47-2.19,59.25-1.92,2.5-2.06,3.48,.12,4.62,1.73,5.5,7.85,10.64,15.92,17.66,22.62,9.55,9.11,18.73,8.78,26.44-1.99,6.92-9.68,10.67-20.93,14.32-32.16,1.25-3.84,2.37-7.71,3.51-11.58,.67-2.24,1.57-4.37,3.19-6.13,3.24-3.51,6.88-3.72,10.43-.55,3.49,3.11,6.05,7.03,8.79,10.76,2.77,3.78,6.02,7.07,9.48,10.14,5.95,5.27,12.03,4.87,17.41-1.08,2.92-3.23,5.57-6.79,7.04-10.87,2.62-7.29,6.68-13.97,8.72-21.48,.51-1.88,1.25-2.88,3.14-1.37v192.09c-.96,2.19-2.58,3.07-4.98,3.37-20.92,2.61-40.14,9.63-57.03,22.64-1.59,1.23-3.29,2.28-5.46,1.98-8.78,.71-17.56,.73-26.33,0-2.72-2.22-2.79-5.61-3.51-8.63-3.49-14.67-4.03-15.17-18.67-15.16-33.16,0-66.31-.03-99.47,.05-3.02,0-6.1-.99-9.09,.32-10.13-.6-20.27-.14-30.4-.41-17.04-.45-34.07-1.22-51.12-.93-1.07,.02-2.15-.07-3.18-.41-1.95-.88-1.86-2.85-1.71-4.35,.82-8.24,2.46-16.28,7.33-23.22,2.42-3.45,5.69-5.55,9.92-3.82,6.49,2.66,13.07,2.37,19.89,2.14,13.82-.47,27.68-.3,41.51-.11,31.67,.44,57.69-11.69,78.51-35.6,1.93-2.22,3.86-4.44,4.85-7.27,.2-.91,.2-1.84,0-2.78-.34-3.09-2.16-5.47-3.7-7.97-7.16-11.63-14.74-22.93-24.53-32.55-4.49-4.42-9.42-8.03-15.86-8.84-1.67-.21-2.9-.86-3.56-2.46Z"/>
  <path class="cls-16" d="M338.84,115.73c-1.82-12-.72-24.13-1.73-36.19-1.33-15.92-2.44-31.84-6.28-47.41-.37-1.5-.77-3.01-1.28-4.47-4.12-11.86-6.95-13.54-19.06-10.9-5.47,1.19-10.98,1.04-16.5,1.05-9.36,.02-18.73,.01-28.09,.01-2.89,1.83-5.88,1.08-8.85,.33-8.99-2.28-18.2-3.68-27.37-3.34-13.67,.5-27.15,2.79-40.31,6.96-27.01,8.57-51.02,22.9-74.23,38.82-14.5,9.95-28.4,20.72-42.16,31.68-2.26,1.8-4.59,3.03-7.53,2.81-15.22-.15-30.35-2.07-45.56-2.2-4.46-.04-8.91,0-13.34,.67-2.46,.38-4.83,.31-6.44-2.08C.11,62.44,.17,33.4,.02,4.36,0,1,.56,0,4.19,0,166.19,.11,328.2,.1,490.2,.1c7.1,14.08,20.74,20.7,35.5,18.18,6.05-1.03,12.07-2.27,18.09-3.49,3.96-.8,8.11-1.45,11.89-.33,9.49,2.81,19.13,2.39,28.79,2.46,5.72,.04,6.65,1.24,5.04,6.74-1.47,5.04-2.68,10.22-5.56,14.73-1.58,2.48-3.56,4.33-6.79,3.81-13.5-2.17-26.92,.25-40.38,.62-13.03,.36-23.96,5.89-33.83,14.07-3.24,2.69-5.53,6.23-8.43,9.22-6.83,7.03-11.92,5.93-16.03-3.11-2.79-6.13-3.22-12.94-5.84-19.08-2.55-1.63-3.8-4.24-5.19-6.8-3.33-6.14-6.89-12.1-12.37-16.61-5.38-4.42-11.39-5.82-18.13-4.07-9.62,2.5-18.1,7.61-26.88,12.02-2.41,1.21-3.06,3.7-3.47,6.24-1.48,9.03-1.37,18.22-2.58,27.28-.28,2.09-.69,3.94-2.44,5.26-2.99,5.55-4.01,11.73-5.57,17.73-2.71,.97-2.68,3.31-2.74,5.6-.32,1.24-.64,2.48-.96,3.72-1.95,.56-2.61,2.41-3.22,3.91-1.76,4.33-4.87,7.82-6.9,11.96-2.99,4.15-7.08,6.48-12.01,7.44-2.16,.05-4.31-1.69-6.47,0h-1.84c-6.58-2.62-13.21-4.72-20.28-1.9-.93,0-1.86,.01-2.79,.02Z"/>
  <path class="cls-25" d="M1919.88,198.72c-3.5,10.76-7.76,21.19-13.66,30.85-1.35,2.22-3.13,4.23-4.97,6.08-5.23,5.26-12.61,5.59-18.24,.66-3.94-3.45-7.68-7.16-10.83-11.41-2.12-2.86-4.15-5.79-6.47-8.48-4.36-5.05-8.8-4.32-11.07,1.99-2.46,6.85-4.56,13.84-6.68,20.81-2.41,7.93-6.17,15.22-10.12,22.41-1.71,3.12-3.95,5.88-6.78,8.14-7.5,5.99-15.81,5.71-22.93-.76-7.37-6.7-13.45-14.45-18.79-22.85-1.24-1.95-2.8-3.68-4.21-5.51,.29-12.14-.89-24.19-2.05-36.24-.52-5.43-2.23-10.13-6.88-13.62-4.25-3.19-5.56-8.16-5.7-13.25-.72-25.86,.79-51.53,7.02-76.74,.94-3.78,2.22-7.44,4.01-10.89,.95-1.83,2.27-3.46,4.57-3.4,2.37,.06,3.54,1.85,4.18,3.8,1.55,4.71,3.03,9.45,4.29,14.25,2.01,7.68,4.42,15.21,8.1,22.25,5.31,10.16,12.47,10.79,19.69,1.83,5.66-7.02,9.66-15.13,14.62-22.61,2.14-3.22,4.48-6.3,6.71-9.46,2.66-3.76,6.54-4.29,10.67-4.17,1.08-2.61,2.82-1.96,4.81-1.15,6.28,2.56,10.82,7.48,15.87,11.69,4.01,3.34,7.75,7.03,12.2,9.82,8.12,5.09,14.15,3.95,19.9-3.71,1.02-1.35,1.92-2.79,3.1-4.02,4.04-4.2,6.94-3.8,9.65,1.37v92.32Z"/>
  <path class="cls-20" d="M1853.41,416.94c8.52-6.42,17.48-12.04,27.28-16.32,10.96-4.79,22.41-7.47,34.21-8.9,1.67-.2,3.32-.6,4.98-.91v224.73c-1.82,1.4-3.95,1.54-6.09,1.37-9.79-.78-19.26,1.36-28.77,3.15-3.85,.73-6.22,3.13-7.71,6.64-1.47,3.45-2.05,7.15-3.04,10.74-.61,2.21-2.01,3.73-4.34,3.68-3.65-.07-7.34,.6-10.96-.4l-10.15-.04c-1.8-.22-2.85-1.07-3.47-2.97-4.69-14.4-9.92-28.75-12.85-43.53-1.99-10.03-1.54-21.04,5.13-30.24,2.44-3.37,3.61-7.12,3.58-11.27,4.74-6.65,2.44-14.05,1.89-21.13-.3-3.94-3.41-5.82-6.82-5.38-4.55,3.23-8.49,7.15-12.38,11.13-2.06,2.11-4.28,4.03-6.85,5.46-5.56,3.11-11.83,1.73-15.48-3.44-2.87-4.07-4.95-8.57-6.77-13.2-.93-2.37-1.28-4.91-.74-7.33,2.02-9.13,4.8-18,10.44-25.63,4.89-6.62,10.16-8.2,17.76-5.5,.29,.1,.59,.19,.86,.32,12.36,6.17,21.93,.54,24.73-13.88,1.16-5.95,2-11.98,2.17-18.01,.31-10.85,1.64-21.67,1.1-32.55-.12-2.48-.1-4.98,2.28-6.61Z"/>
  <path class="cls-12" d="M.11,666.82c11.08-3.09,13.09-1.81,14.98,9.76,2.56,15.66,2.44,31.58,4.39,47.3,1.55,12.48,2.62,25.04,6.9,37.01,3.38,9.44,8.37,10.66,15.68,3.96,3.62-3.33,7.15-6.84,11.91-8.63,2.77-1.05,3.95-3.8,5.64-5.98,3.75-4.82,6.03-4.57,8.43,1.06,5.44,12.73,11.46,25.12,20.13,36,6.77,8.49,14.58,15.49,25.19,18.83,7.54,2.37,14.94,1.41,22.29-.51,9.91-2.59,18.92-7.3,27.71-12.52,6.49-3.86,13.16-7.43,19.71-11.18,14.12-8.09,27.59-4.73,40.81,2.39,10.06,5.42,19.21,12.3,28.78,18.52,7.51,4.88,15.19,9.31,23.55,13.19H.11v-149.2Z"/>
  <path class="cls-29" d="M516.04,1017.45c-5.48,.63-6.61,4.04-6.55,9.11,.23,17.78,.09,35.57,.09,53.35H249.31c.64-4.92,1.02-9.89,2.85-14.58,2.07-5.32,4.15-6.63,9.99-5.55,7.76,1.43,14.97,4.65,22.23,7.59,7.84,3.18,15.52,6.73,23.71,8.99,17.54,4.84,31.81-.09,42.93-14.45,8.63-11.14,17.45-21.97,29.16-30.15,17.11-11.96,36.17-13.78,56.02-12.03,15.14,1.33,30.16,3.91,45.46,3.4,7.77-.26,15.3-1.32,22.63-3.79,3.84-1.29,7.7-2.12,11.75-1.9Z"/>
  <path class="cls-8" d="M.11,91.48c22.2-2.82,44.29,1.19,66.45,.96,3.51,.67,4.82,2.89,5.12,6.42,1.07,12.32,2.2,24.64,3.29,36.96,.18,2.05,.46,4.08-1.95,5.09-4.3,.62-8.61,1.25-12.91,1.87-3.1,3.95-6.66,3.88-10.52,1.24-1.91-1.3-3.76-2.7-5.75-3.86-4.42-2.57-7.05-1.75-9.1,3.06-2.9,6.79-3.59,14.08-4.15,21.36-1.99,26.02-.55,52.08-.9,78.12-.06,4.58-.62,8.93-2.51,13.11-4.1,9.09-5.93,18.9-8.8,28.38-2.79,9.23-6.23,18.17-11.91,26.05-1.73,2.4-3.81,4.46-6.37,5.98V91.48Z"/>
  <path class="cls-4" d="M.11,466.34c26.86,0,53.74-.54,80.58,.22,15.93,.45,31.92-.11,47.82,1.52,3.77,.38,7.25-.56,10.78-1.82,4.84-1.73,7.82-.39,9.38,4.51,4.33,13.61,4.7,27.73,4.61,41.87-.01,2.12-1.38,2.96-3.32,3.07-2.3,.13-4.62,.09-6.8,.99-30.51,.33-61.04,.21-91.53,1.18-15.64,.5-31.27,.42-46.9,.71-1.53,.37-2.98,1.12-4.62,.92v-53.15Z"/>
  <path class="cls-19" d="M1919.88,106.4c-3.88-2.61-6.89-1.57-9.4,2.14-1.21,1.79-2.47,3.58-3.94,5.15-5.29,5.62-12.23,6.38-19.31,2.05-7.28-4.45-13.24-10.58-19.69-16.08-3.93-3.35-8.03-6.26-13.19-7.26-4.71-.79-7.28-3.75-9.05-8.13-6.01-14.86-16.49-23.03-33.04-21.73-7.48,.59-13.82-3.53-20.69-5.44,.8-1.95-3.21-1.53-1.83-3.77-1.57-2.65-3.2-5.28-4.69-7.97-1.32-2.38-.61-3.89,2.16-4.11,1.68-.13,3.37-.12,5.06-.12,25-.01,50-.01,75-.02,1.2-2.83,3.77-2.2,5.96-2.29,11.81-.52,23.56,.88,35.35,1.18,1.53,.04,3.1,.45,4.58,.15,3.39-.68,5.47,.71,6.72,3.77v62.48Z"/>
  <path class="cls-7" d="M1885.73,1079.91c-3.34-14.44-3.91-29.18-4.65-43.91-.89-17.78,2.2-34.54,11.07-50.13,7.34-12.91,13.06-26.74,21.56-39,2.02-2.92,4.11-5.79,6.17-8.69,0,46.16-.03,92.32,.08,138.47,0,2.78-.55,3.4-3.31,3.35-10.3-.21-20.61-.08-30.92-.08Z"/>
  <path class="cls-19" d="M1866.35,17.83c-36.35-1.14-72.71-.71-109.06-1.11-10.41-.11-20.83-.76-31.26-.78-5.07,0-10.11-.05-15.01,1.71-3.11,1.12-5.67,.04-7.72-2.56-3.46-4.41-4.7-9.68-5.86-14.99,72.93,0,145.85,.03,218.78-.09,3.22,0,3.97,.71,3.74,3.85-.33,4.32-.08,8.68-.08,13.02-1.41,3.21-4.16,4.01-7.3,4.17-6.61,.32-13.12-.23-19.53-2.02-7.59-2.12-15.22-3.7-22.93-.42-1.42,.6-2.61-.04-3.76-.78Z"/>
  <path class="cls-18" d="M1324.56,1079.91c6.7-4.46,13.91-8.12,20.31-13.06,50.57,0,101.15,0,151.72,0q10.7,0,10.72,10.72c0,.78,0,1.55,0,2.33h-182.75Z"/>
  <path class="cls-5" d="M1858.96,640.73c13.06-.09,12.15,.87,14.68-11.08,1.62-7.65,5.5-12.05,14.33-12.88,8.35-.78,16.62-2.51,25.1-2.17,2.31,.09,4.6,.18,6.81,.94v47.56c-11.55-12.57-24.88-21.57-42.62-21.89-6.1-.11-12.24,1.51-18.29-.48Z"/>
  <path class="cls-25" d="M1866.35,17.83c7.07-4.18,14.54-4.39,22.3-2.51,6.56,1.59,13.05,3.6,19.92,3.46,3.88-.08,7.66-.47,11.3-1.9v27.04c-5.1-2.26-10.6-1.27-15.86-1.63-12.22-.82-24.47-1.65-36.74-1.18-1.82-7.7-.54-15.53-.92-23.29Z"/>
  <path class="cls-12" d="M.11,519.49c1.54-.31,3.08-.61,4.62-.92-3.04,2.1-3.71,5.32-3.59,8.64,.36,9.78,.99,19.56,3.15,29.13,1.04,4.61,3.07,8.88,6.84,11.89,4.73,3.77,7.23,8.76,8.53,14.52,.72,3.18,1.44,6.36,1.96,9.58,2.29,14.21-7.13,25.57-21.52,26.01,0-32.95,0-65.9,0-98.84Z"/>
  <path class="cls-5" d="M1919.88,783.38c-4.31,2.17-8.63,4.34-12.94,6.51,2.18-17.87,4.33-35.74,7.05-53.54,1.25-8.17,5.05-15.62,5.89-23.85v70.87Z"/>
  <path class="cls-24" d="M1845.01,553.8c-1.41,4.61-3.17,9.03-6.22,12.84-1.66,2.08-2.81,4.53-3.09,7.17-.95,9.01-2.45,17.86,.82,27,4.68,13.08,8.25,26.57,12.29,39.89-16.24,10.46-31.78,7.69-44.12-7.38-15.58-19.02-23.92-41.47-30.55-64.72-4.38-15.37-8.05-30.95-12.98-46.17-.72-2.21-1.65-4.35-2.4-6.56-2.95-8.64-8.22-12.97-17.96-12.43-10.82,.6-21.24-3.06-31.69-5.64-14.17-3.49-28.11-8.03-42.94-8.2-15.29-.17-28.62,4.91-40.48,14.4-2.05,1.64-4.1,3.28-6.11,4.97-16.56,13.98-34.82,14.89-54.1,6.98-17.7-7.27-32.93-18.72-48.12-30.08-9.96-7.44-20.33-13.36-32.8-14.93-2.28-.29-4.5-1.1-6.79-1.34-7.07-.73-11.93-3.63-12-11.65-.9-11.18-2.48-22.24-6.41-32.81-2.86-7.7-5.5-9.08-13.4-7.17-15.48,3.75-30.62,1.92-45.36-3.35-15.36-5.5-30.53-11.52-45.77-17.37-8.4-3.23-17.09-5.22-25.98-6.2-14.66-1.61-24.56,5.91-32.02,17.73-4.82,7.64-7.91,16.12-11.69,24.28-3.14,6.78-3.63,6.77-8.53,1.52-2.37-2.55-5.38-4.14-8.46-5.56-6.58-3.03-10.68-8.15-12.98-14.96-2.46-7.28-3.52-14.84-3.93-22.43-.78-14.23-2.31-28.49,.24-42.72,1.66-9.26,5.18-11.47,13.79-7.89,4.92,2.05,9.29,2.23,14.03-.51,21.36-12.35,43.23-23.74,65.63-34.04,4.73-2.18,6.69-5.24,6.46-10.47-.32-7.29-.02-14.6-.12-21.9-.1-6.8-1.48-8.2-8.22-8.21-34.6-.04-69.21-.02-103.81-.03-1.69,0-3.39,.04-5.07-.03-4.78-.2-5.54-1.47-3.54-5.69,7.83-16.52,15.72-33.03,24.78-48.91,7.69-13.47,15.86-26.61,26.99-37.61,3.45-3.4,7.11-6.39,11.32-8.71,8.91-4.91,17.54-4.78,26.08,1.08,5.49,3.77,9.87,8.86,15.47,12.51,10.23,6.68,21.56,9.75,33.5,10.79,9.49,.82,19,1.47,28.51,1.9,7.7,.36,12.57,4.2,15.31,11.29,4.52,11.7,6.26,24.01,7.91,36.33,2.67,19.85,4.01,39.89,8.23,59.52,1.6,7.44,3.21,14.92,7,21.62,1.33,2.36,2.55,5.32,5.97,5.07,3.23-.23,4.6-2.93,5.73-5.48,4.56-10.28,7.03-21.18,9.08-32.19,3-16.18,5.08-32.55,9.56-48.42,1.98-7.01,3.95-14.07,8.47-20.01,5.29-6.96,10.95-7.34,16.98-1.02,2.88,3.02,5.63,6.16,8.39,9.28,9.18,10.38,21.56,12.3,34.31,13.52,15.66,1.5,31.35,.67,47.02,.92,2.76,.04,5.55-.13,8.2,.91-.38,3.16-2.93,2.23-4.66,2.27-8.45,.19-16.9,0-25.36,.11-8.15,.1-9.42,1.47-10.2,9.69-1.32,13.9-2.29,27.84-5.41,41.51-1.42,6.23-3.07,12.34-6.81,17.67-2.26,3.23-5.04,5.19-9.18,4.8-2.13-.2-4.3-.01-6.45-.14-6.98-.4-10.79,1.85-13.89,8.37-3.06,6.44-3.81,13.48-4.1,20.42-.45,10.53-.89,21.1,.73,31.61,1.22,7.9,3.01,9.37,10.73,9.68,29.64,1.21,59.29,.87,88.94,.89,2.56,0,5.15-.13,6.91,2.31,28.29,.33,56.59,.66,84.88,.99,2.41,1.2,3.35,3.4,4,5.85,.91,3.44,1.52,6.99,3.05,10.24,2.04,4.32,4.49,5.63,9.2,5.31,10.74-.73,21.48-.87,32.21,.17,5.21,.51,10.44,.28,15.67,.29,19.67,.02,39.34,.04,59.02-.03,2.96-.01,5.61,.49,7.95,2.34,8.91,.02,17.82,.04,26.72,.05,.29,16.44-.34,32.85-1.85,49.22-.49,5.28-1.49,10.42-3.32,15.41-3.46,9.43-12.65,13.79-21.93,10.35-13.54-5.03-18.07-3.04-24.18,10.11-2.37,5.1-3.96,10.42-5.29,15.83-1.41,5.69,4.42,19.82,9.39,22.65,3.69,2.11,7.39,1.52,10.91-.67,3.45-2.14,6.09-5.2,8.88-8.07,2.93-3.01,6.09-5.67,9.81-7.63,2.42,.75,3.52,2.62,4.4,4.89,2.66,6.85,4.01,13.91,4,21.26,0,1.19-.37,2.56,.8,3.51Z"/>
  <path class="cls-14" d="M968.32,881.35c-17.94,3.52-35.87,7.16-53.83,10.55-42.61,8.04-85.33,15.37-128.58,18.93-14.23,1.17-28.54,1.44-42.81,2.12-1.57,2.3-3.84,1.9-6.17,1.86-17.46-.28-34.73-1.81-51.58-6.8-7.87-2.33-15.2-5.95-22.47-9.59-33.45-16.77-66.86-33.63-100.25-50.51-2.87-1.45-5.51-3.35-8.53-4.5-8.26-4.67-16.9-8.61-25.23-13.14-14.74-8.02-29.69-15.61-44.39-23.7-36.42-20.04-72.65-40.39-107.34-63.41-14.51-9.63-28.87-19.46-41.83-31.21-1.53-1.39-2.83-2.87-2.83-5.11-4.78-5.24-9.98-10.1-13.72-16.24-3.48-5.72-4.14-11.14-.86-17.48,6.25-12.09,7.41-25.48,7.94-38.86,.68-17.07-1.02-34.1-.9-51.17,.04-6.21,0-12.42,1.24-18.54,1.96-9.74,6.24-12.57,15.7-10.34,4.78,1.13,9.52,2.46,14.28,3.67q7.7,1.95,10.11-5.78c-2.16-1.83-1.16-3.9-.38-5.89,3.7-9.46,6.99-19.1,11.91-28.04,.38-.69,.34-1.49,.41-2.26,2.7-5.56,5.38-11.13,7.85-16.81,1.36-3.12,2.9-6.17,6.34-7.54,3.33-6.55,6.67-13.09,10-19.64-1.39-1.77-.72-3.36,.23-5.11,17.46-32.14,36.98-62.91,59.55-91.66,3.36-4.28,6.34-8.92,10.5-12.49,1.2-1.03,.41-2.63,1.49-3.54,5.47-3.79,8.47-9.97,13.45-14.24,1.56-1.33,3.81-2.18,3.61-4.86,5.97-4.91,11.35-10.46,16.84-15.88,32.1-31.68,68.45-56.72,111.27-71.21,21.39-7.24,43.44-10.65,66.14-11.06,28.54-.52,55.92,5.22,83.12,12.77,45.48,12.62,89.36,29.73,132.67,48.43,2.83,1.22,5.57,2.59,7.01,5.6,26.82,12.08,53.61,24.24,80.07,37.12,57.92,28.19,114.85,58.31,171.22,89.51,37.22,20.6,74.22,41.58,110.9,63.13,.79,.47,1.65,.83,2.48,1.23,3.01-.51,5.65,.41,8.24,1.94,43.64,25.77,87.16,51.73,130.07,78.74,1.95,1.23,5.26,1.74,4.48,5.45,14.71,9.32,29.43,18.64,44.14,27.97,4.17,2.64,8.26,5.4,12.49,7.95,2.36,1.42,3.47,3.28,3.47,6.06-.17,70.05-26.83,124.96-89.24,159.44-8.65,4.78-17.77,8.5-26.99,12.01,.18,3.16-2.52,3.19-4.37,3.85-13.96,4.99-28.33,8.49-42.98,10.5-54.75,7.51-108.84,18.55-162.8,30.34-33.66,7.36-67.28,14.92-100.92,22.42-1.06,.24-2.11,.43-3.19,.44-6.89,1.7-14.01,2.54-20.6,5.43-2.76-.55-5.27,.45-7.9,1.08-13.61,3.25-27.33,5.97-41,8.91-2.63,.57-5.18,.68-7.56-.86Z"/>
  <path class="cls-26" d="M908.31,308.67c-26.25-11.08-52.5-22.16-79.3-31.84-34.5-12.46-69.32-23.94-105.58-29.85-42.54-6.93-83.66-1.27-123.18,16.11-39.85,17.53-73.25,44.1-103.29,75.37-1.28,1.33-2.66,2.58-3.99,3.86-3.9,1.5-7.97,1.4-12.05,1.4-12.14,0-24.28-.18-36.41,.09-5.84,.13-8.27,2.68-8.06,7.79,.19,4.49,2.4,6.7,7.54,6.89,9.06,.34,18.13,.01,27.19,.19,1.93,.04,4.54-.84,5.26,2.31-20.35,24.92-39.04,51.05-55.5,78.76-6.32,10.64-12.37,21.43-18.54,32.15-24.43-4.66-49.09-6.17-73.91-5.55-1.99,.05-3.99,.19-5.98,.41-8.35,.89-13.84-2.63-16.61-10.74-2.93-8.6-4.01-17.57-4.69-26.54-1.25-16.42-1.56-32.87-.03-49.3,.23-2.46,.74-4.93,1.43-7.3,1.04-3.54,3.2-5.72,7.2-4.59,3.21,.91,5.33-.58,7.1-3,2.56-3.5,5.54-3.44,8.79-1.06,2.36,1.73,4.6,3.67,7.1,5.17,4.16,2.49,6.94,1.53,8.85-2.94,1.9-4.45,2.97-9.14,3.58-13.94,2.97-23.48,2.9-47.08,2.83-70.69-.04-13.8,0-13.87,13.43-14.1,7.67-.13,13.74-4,19.73-8.16,7.34-5.1,14.15-10.95,21.88-15.51,6.53-3.85,13.47-5.08,20.87-3.94,17.83,2.76,35.78,3.06,53.77,3.53,26.1,.67,52.27-.22,78.28,2.94,5.07,.62,7.17-1,8.92-6.62,2.53-8.11,2.22-16.59,2.69-24.93,.42-7.59,.09-15.22,.09-22.83,19.98-14.18,41.38-24.47,66.49-24.22,8.82,.09,17.38,2,25.78,4.63,3.16-1.82,.16-5.21,1.86-7.4-1.48-9.35-2.33-18.8-4.3-28.08-1.72-8.11-4.65-15.32-11.38-20.69-4.38-3.5-5.24-8.98-6.04-14.23-.37-2.44,1.07-3.8,3.43-4.02,1.68-.16,3.38-.17,5.07-.17,32.76,0,65.52-.21,98.27,.11,10.9,.11,21.8,1.28,32.71,.75,9.06-.44,18.1-1.08,27.18-.88,6.5,.15,7.25,.83,7.36,7.16q.2,11.49-11.36,11.5c-25.53,0-51.06,0-76.59,0-10.64,0-14.04,2.39-18.11,12.4-3.55,8.73-4.96,17.92-6,27.2-2,17.82-2.16,35.64,.41,53.42,.5,3.45,.38,7.79,4.11,9.34,4.15,1.72,6.25-2.47,8.68-4.78,24.38-23.13,53.52-28.65,85.63-24.53,19.04,2.44,38.07,5.6,57.4,4.34,1.69-.11,3.45,.11,5.05-.31,9.44-2.46,16.09,1.64,21.38,9.03,2.52,3.52,5.06,7.04,7.41,10.68,2,3.09,4.19,4.07,7.72,2.26,4.81-2.46,6.56-1.59,7.87,3.73,1.76,7.11,2.27,14.42,2.37,21.72,.32,22.52-.1,45.03-1.81,67.5Z"/>
  <path class="cls-31" d="M1610.71,391.72c-24.61,0-49.22,.14-73.83-.05-9.2-.07-18.38-1.57-27.62-.26-3.1,.44-4.81-1.51-5.86-4.22-1.48-3.82-2.07-7.87-2.21-11.87-.47-13.96-1.24-27.96,1.42-41.82,.8-4.18,2.23-8.07,4.66-11.56,3.37-4.84,7.65-7.18,13.81-6.28,11.29,1.65,14.44-.38,17.99-11.56,4.3-13.55,5.7-27.65,6.95-41.74,.4-4.48,.88-8.98,.93-13.47,.05-4.58,2.1-6.39,6.51-6.35,12,.09,23.99,0,35.99,0,.92,0,1.84,.02,2.76,.02-.49,12.72,.72,25.4,.95,38.11,.05,2.88,.67,5.62,4.13,5.53,18.97-.52,37.02,5.29,55.49,8.12,15.1,2.32,29.62,1.34,43.64-5.25,10.88-5.11,19.04-13.42,26.84-22.26,8.11-.46,14.43,3.15,20.12,8.62,12.63,12.11,21.68,26.86,30.65,41.68-.21,1.97,.73,3.94,0,5.92-7.51,9.08-15.59,17.55-24.98,24.72-16.29,12.43-34.83,18.22-55.01,18.76-13.83,.37-27.67,.02-41.51,.1-3.99,.02-7.98,.28-11.95,.67-4.38,.42-8.5-.08-12.62-1.81-5.41-2.28-8.19-1.24-11.08,3.96-3.83,6.91-4.95,14.64-6.21,22.3Z"/>
  <path class="cls-9" d="M1107.78,216.43c-25.22,0-50.45-.16-75.66,.12-6.64,.07-10.56-2.64-13.5-8.34-5.56-10.78-9.22-22.37-14.31-33.34-1.65-3.55-3.4-6.97-6.15-9.77-2.78-2.84-5.89-3.45-9.04-.81-4.7,3.93-10.12,5.18-15.98,4.57-12.24-1.28-19.22,5.36-23.95,15.7-3.44,7.52-5.74,15.39-7.66,23.41-.78,3.25-1.1,7.04-5.32,7.91-3.38,.69-8.41-2.4-10.4-6.5-2.74-5.66-3.94-11.8-4.38-18.01-.83-11.76-1.55-23.55-.07-35.32,.25-2,.57-4,.99-5.97,.94-4.4,3.29-7.26,8.09-7.5,3.37-.17,6.74-.69,10.11-.7,26.6-.11,53.2-.33,79.77,.97,15.96,.78,31.92,1.78,47.9,1.74,23.41-.06,46.59-2.64,69.64-6.87,20.1-3.68,39.81-1.66,58.9,5.84,1.72,.68,3.4,1.48,5.15,2.03,3.09,.98,4.51,3.09,4.45,6.26-.33,18.21-1.32,36.34-6.83,53.86-2.47,7.86-6.36,10.67-14.71,10.68-25.68,.06-51.37,.02-77.05,.03Z"/>
  <path class="cls-27" d="M1415.77,585.8c-15.77-9.63-31.48-19.36-47.31-28.88-30.75-18.48-61.58-36.83-92.37-55.24-1.06-.63-2.07-1.34-3.1-2.01,7.93-5.2,16.94-5.92,25.99-6.25,13.45-.5,26.94,.87,40.35-.98,1.8,1.48,2.26,3.63,2.82,5.73,1.05,3.91,2.24,7.76,4.31,11.27,2.77,4.71,5.78,5.07,9.51,1.01,3.47-3.79,5.71-8.46,8.39-12.79,5.73-9.27,6.66-9.71,17.17-6.74,5.95,1.68,12.01,2.39,18.21,2.52,16.43,.33,32.89-1.1,49.28,.93,7.56,.94,14.83,3.14,21.43,6.83,4.47,2.5,7.36,1.63,10.33-2.01,1.38-1.69,2.44-4.63,5.21-3.84,3.02,.86,3.06,4.08,3.39,6.6,1.86,14.06,1.82,28.21,.92,42.31-.8,12.69-1.95,25.41-6.19,37.56-.51,1.46-.98,2.96-1.64,4.35-2.14,4.5-4.85,4.84-7.96,.93-1.92-2.42-3.56-5.07-5.47-7.5-10-12.73-21.91-14.94-35.8-6.72-6.26,3.71-11.63,8.65-17.48,12.92Z"/>
  <path class="cls-13" d="M401.6,67.22c.42-11.8,1.46-23.54,2.76-35.27,.27-2.45,1.02-4.55,3.42-5.65,7.69-3.54,15.26-7.37,23.1-10.54,13.48-5.45,23.28-2.46,31.93,9.34,4.22,5.75,8.19,11.67,9.84,18.8-8.77,1.77-15.92,7.03-23.55,11.25-5.37,2.97-10.56,6.28-15.99,9.12-10.07,5.24-20.56,6.93-31.52,2.95Z"/>
  <path class="cls-13" d="M630.49,34.59c-6.61,0-13.23-.09-19.83,.03-4.33,.08-6.07-1.85-6.03-6.19,.03-4.11,1.69-5.96,5.8-5.94,13.68,.07,27.37,.07,41.05,0,4.1-.02,5.76,1.82,5.8,5.94,.04,4.33-1.7,6.27-6.03,6.19-6.92-.12-13.84-.03-20.76-.03Z"/>
  <path class="cls-16" d="M341.63,115.71c6.35-3.91,15.77-3.03,20.28,1.89-6.76-.62-13.41-2.47-20.28-1.89Z"/>
  <path class="cls-16" d="M382.22,110.15c1.99-6.19,3.7-12.56,10.12-15.87-2.95,5.57-4.89,11.79-10.12,15.87Z"/>
  <path class="cls-6" d="M761.37,97.84c6.56-2.13,13.18-2.26,19.78,0h-19.78Z"/>
  <path class="cls-16" d="M363.75,117.6c2.15-3.69,4.31-2.21,6.47,0-2.15,.93-4.31,.93-6.47,0Z"/>
  <path class="cls-11" d="M661.86,165.21c.15,1.68,.34,3.35,.45,5.03,.11,1.63-.37,2.76-2.32,2.37,.49-2.5,.67-5.08,1.86-7.4Z"/>
  <path class="cls-16" d="M393.3,90.56c-.92-2.78-.74-5.01,2.74-5.6-.91,1.87-1.82,3.73-2.74,5.6Z"/>
  <path class="cls-30" d="M1716.82,791.78c-2.8,1.12-5.75,.92-8.66,.92-39.67,0-79.35,0-119.02,.01-1.84,0-3.69,.03-5.53,.1-2.69,.11-3.92,1.46-3.48,4.24,.9,5.7,2.17,11.31,4.63,16.54,2.48,5.27,5.98,6.79,11.28,4.54,5.78-2.44,11.74-2.45,17.7-1.85,5.68,.57,11.35,.6,17.04,.69,35.66,.58,71.33,.55,106.98,1.21,22.6,.42,45.19,.36,67.78,.55,5.06,.04,8.08,1.65,9.56,6.63,1.43,4.79,4.05,9.05,7.02,13.05,4.34,5.84,10.26,7.65,17.15,5.3,3.79-1.29,7.52-2.72,11.47-3.48,3.6-.7,7.02-.57,10.33,1.12,2.55,1.29,5.21,1.6,8.06,1.28,5.26-.59,7.44,.78,8.73,5.97,1.04,4.2,1.96,8.54,2.08,12.85,.41,14.57,1.31,29.18-.77,43.7-.33,2.29-.88,4.59-1.69,6.74-1.48,3.96-4.43,5.78-8.68,5.35-14.15-1.44-28.23,.56-42.34,1.01-17.98,.57-36.03,1.51-53.83-1.74-27.86-5.08-54.39,.04-80.53,9.44-22.6,8.13-44.58,17.9-67.31,25.67-11.1,3.79-22.78,5.16-33.97,8.67-12.85,4.04-22.81,11.87-31.21,22.14-2.05,2.51-3.93,5.22-6.27,7.43-3.79,3.57-8.13,2.9-10.88-1.58-3.01-4.91-5.11-10.24-6.59-15.84-2.66-10.07-4.39-20.34-6.4-30.54,3.54-1.83,7.08-1.31,10.76-.29,9.87,2.76,14.02,.97,17.49-8.85,6.9-19.54,10.55-39.9,13.18-60.39,1.82-14.19,1.69-28.51,.05-42.76-.3-2.61-.81-5.22-1.42-7.78-.81-3.36-2.95-4.71-6.47-4.49-9.52,.59-15.14-3-19.28-11.96-5.85-12.68-5.28-13.61,8.39-13.61,54.89,0,109.78,0,164.68,0Z"/>
  <path class="cls-27" d="M1044.96,864.65c29.09-6.56,58.14-13.32,87.28-19.64,32.36-7.01,64.75-13.9,97.23-20.33,27.33-5.4,54.85-9.77,82.46-13.58,16.27-2.25,32.1-6.68,47.7-11.87,2.7,.49,4.19,2.43,5.43,4.64,4.31,7.7,8.57,15.42,12.9,23.1,1.68,2.98,1.81,5.8-.24,8.7-9.57,13.49-18.38,27.54-28.65,40.52-1.15,1.45-2.43,2.8-3.72,4.12-6.22,6.32-11.79,6.13-17.32-1.04-5.2-6.72-10.17-13.64-14.93-20.68-4.19-6.2-9.53-7.99-16.72-6.46-16.7,3.54-31.97,10.86-47.54,17.48-15.56,6.62-30.98,13.69-48.03,15.76-12.97,1.57-25.42,.14-37.26-5.68-5.71-2.81-7.05-2.23-9.06,3.84-.97,2.94-1.69,5.96-2.52,8.94-3.55,5.86-9.35,5.24-14.76,4.79-6.73-.56-13.2-2.77-19.75-4.38-15.47-3.81-23.99-.4-33,13.04-2.62,3.91-4.41,8.62-9.1,10.78-8.92,0-17.83,0-26.75,0-1.26-1.12-2.29-2.38-2.36-4.19-.52-13.64-1.35-27.25-2.66-40.84-.23-2.39-.43-4.96,1.37-7.03Z"/>
  <path class="cls-30" d="M1075.36,916.72c4.3-7.88,8.25-16,15.36-21.87,7.08-5.85,15.1-7.32,23.87-5.24,4.94,1.17,9.89,2.34,14.77,3.72,7.65,2.16,15.17,2.17,22.61-.84,0,8.08,0,16.15,0,24.23-25.54,0-51.08,0-76.62,0Z"/>
  <path class="cls-30" d="M1044.96,864.65c1.77,7.7,2.04,15.61,2.45,23.42,.5,9.53,1.66,19.06,1.19,28.64-17.85,0-35.71,0-53.56,0-2.07-1.51-1.99-3.33-1.31-5.68,3.65-12.65,9.9-23.52,20-32.11,3.68-3.13,6.27-7.52,10.82-9.68,6.69-2.03,13.53-3.41,20.4-4.59Z"/>
  <path class="cls-27" d="M1024.56,869.25c-3.92,6.58-9.41,11.76-14.75,17.09-8.4,8.39-12.2,19.08-14.76,30.38-6.14,0-12.29,0-18.43,0-2.68-11.81-4.61-23.8-8.3-35.36,18.75-4.03,37.49-8.07,56.24-12.1Z"/>
  <path class="cls-22" d="M332.47,706.83c32.13,27.89,68.51,49.33,104.97,70.63,37.53,21.92,75.95,42.19,114.55,62.1,.95,.49,1.84,1.12,2.76,1.68,2.25,4.72,.6,9.55,.17,14.26-1.28,13.86-.44,27.6,1.36,41.33,.24,1.83,.46,4,2.55,4.6,2.4,.69,3.52-1.41,4.71-2.99,2.13-2.83,3.95-5.84,6.88-8.07,5.04-3.84,10.12-3.97,15.52-1.12,2.61,1.38,4.89,3.2,6.99,5.28,6.27,6.19,12.26,12.67,18.73,18.65,1.11,1.03,1.91,1.98,1.31,3.56,0,.31,0,.62,0,.92,.42,.63,1.38,.9,1.39,1.76,.07,6.35,.16,12.71-.21,19.05-.1,1.69-1.27,2.78-3.04,2.94-1.07,.09-2.15,.03-3.22,.03-73.1,0-146.2,0-219.3-.02-1.5,0-3.08,.42-4.51-.43-1.3-2.17-1.7-4.64-2.25-7.06-1.05-4.54-1.97-9.12-4.15-13.29-2.7-5.17-5.51-6.51-10.93-4.61-3.72,1.3-7.46,1.66-11.33,1.66-21.22-.04-42.46,.61-63.66-.17-41.2-1.52-82.41,.13-123.59-.99-17.52-.48-35.04-.46-52.55-.73-3.42-.05-6.68,.25-9.73,2.2-3.32,2.12-5.96,1.01-7.35-2.6-4.97-12.87-4.39-25.84-.44-38.82,.8-2.64,2.75-3.76,5.32-3.46,21.45,2.56,40.91-4.97,60.44-12.13,9.54-3.5,19.04-7.1,28.54-10.71,17.09-6.48,34.99-8.5,52.99-8.89,18.89-.41,37.82-2.31,56.68-.96,18.43,1.32,36.92-.52,55.28,1.66,13.4,1.59,23.14-3.64,30.47-14.86,8.14-12.46,13.24-26.25,18.18-40.14,.35-.98,1.03-2.19-.04-3.02-1-.78-2.07,.06-3,.53-8.26,4.27-16.77,7.78-26.05,8.99-14.11,1.85-28.22,1.16-42.32-.25-11.01-1.09-21.98-2.6-33.08-2.57-5.57,.01-6.49-1.64-4.31-6.94,.59-1.43,1.29-2.82,1.98-4.21,4.21-8.45,6.87-9.96,16.02-9.14,9.95,.89,11.89-.35,13.5-10.36,1.75-10.9,1.95-21.93,1.89-32.97-.04-6.82,.41-13.63,1.9-20.33Z"/>
  <path class="cls-29" d="M384.06,940.99c71.82,0,143.64,0,215.47,0,1.69,0,3.38,.01,5.08,0,6.67-.08,7.33-.78,7.44-7.53,.09-5.27-.44-10.58,.91-15.77,33.22,0,66.44,.1,99.66-.09,5.46-.03,8.81,1.3,10.84,6.92,1.82,5.03,4.45,9.9,7.98,14.1,4.81,5.74,10.69,8.27,18.06,6.08,4.42-1.31,8.8-2.79,13.15-4.33,3.51-1.24,7.04-2.52,10.79-1.81,4.23,.8,6.77-1.05,8.42-4.73,.19-.42,.34-.88,.59-1.26,1.58-2.45,1.84-7.01,5.68-6.26,3.4,.67,3.23,4.9,3.79,7.84,3.15,16.5,3.4,33.1-.11,49.51-4.09,19.16-6.61,38.57-9.95,57.85-.77,4.43-1.91,8.8-3.1,13.14-.51,1.85-.93,4.4-3.41,4.4-2.19,0-2.71-2.35-3.26-4.05-1.63-5.02-3.02-10.11-4.59-15.15-1.48-4.74-2.86-9.57-5.65-13.72-3.33-4.94-7.73-4.89-11.15,0-3.49,4.99-5.75,10.6-7.98,16.24-2.22,5.63-4.34,11.31-6.98,16.74-6.23,12.82-12.82,12.84-22.54,2.72-4.81-5-9-10.6-13.91-15.54-3.02-3.04-6.32-4.87-10.63-4.59-.68-.31-.68-.62,0-.94,0-17.7,.1-35.4-.04-53.1-.07-9.01-1.01-17.97-2.6-26.84-.52-2.92-1.36-5.74-2.86-8.31-1.88-3.22-4.74-4.83-8.17-3.36-14.9,6.41-29.26,2.93-43.53-2.12-10.11-3.58-20.36-5.24-31.16-5.21-72.07,.21-144.14,.1-216.21,.09,0-.3,0-.6,0-.91Z"/>
  <path class="cls-22" d="M380.42,516.7c-4.72,11.8-9.43,23.6-14.15,35.39-8.2-2.01-16.37-4.18-24.62-5.98-17.62-3.86-35.22-5.13-52.87,.26-4.97,1.52-10.28,1.99-15.51,1.94-10.89-.12-19.38-5.45-26.45-13.29-4.67-5.17-8.54-10.98-11.39-17.41,24.97-.33,49.94-.52,74.9-1.07,6.42-.14,12.83-.89,19.27-.79,1.95-1.66,4.21-2.28,6.75-2.29,12.24-.02,24.48-.09,36.72,.05,2.84,.03,5.84-.06,7.36,3.2Z"/>
  <path class="cls-4" d="M73.02,140.9c-1.27-13.89-2.54-27.78-3.79-41.68-.23-2.55-.97-4.85-2.67-6.79,2.68-.47,4.76-2.02,6.84-3.67,25.05-19.84,50.64-38.91,78.89-53.96,23.77-12.66,48.79-21.38,75.89-22.42,12.82-.49,25.39,1.86,37.72,5.44-19.59,20.85-36.45,44.05-55.23,65.59-14.56,16.69-32.69,28.56-51.26,39.92-9.34,5.71-18.73,11.34-28.69,15.88-13.37,6.09-27.19,9.82-42.05,7.12-5.49-1-10.71-2.78-15.63-5.43Z"/>
  <path class="cls-26" d="M380.42,516.7c-16.91-1.93-33.89-.46-50.82-.96,3.99-8.69,8.87-16.69,16.93-22.23,6.74-4.64,14.24-5.52,22.08-4.52,7.92,1.02,15.8,2.37,23.81,2.56-4,8.38-7.99,16.76-11.99,25.14Z"/>
  <path class="cls-29" d="M602.8,1017.44c-5.03,9.63-11.87,17.83-20.66,24-12.71,8.93-26.47,7.38-37.85-3.39-6.54-6.18-12.25-13.05-17.17-20.6,25.23,0,50.46-.01,75.68-.02Z"/>
  <path class="cls-29" d="M688.64,1040.74c0,.31,0,.62,0,.94-3.84,.06-7.6,.1-11.01-2.36-2.38-1.72-4.74-.57-6.66,1.25-2.79,2.65-5.44,5.46-8.23,8.12-4.75,4.54-8.67,3.93-11.68-1.99-3.34-6.57-4.37-13.84-5.79-20.97-.61-3.07-1.13-6.12-3.7-8.27,8.02,2.58,8.19,2.68,12.37-5,2.95-5.42,5.35-11.15,8.01-16.74,.53-1.12,.99-2.3,1.69-3.3,1.23-1.76,2.42-3.94,4.9-3.7,2.3,.22,3,2.5,3.8,4.3,3.96,8.95,4.27,18.69,5.78,28.17,.56,3.52,.86,7.09,1.18,10.64,.77,8.58,1.03,8.85,9.33,8.92Z"/>
  <path class="cls-27" d="M612.96,916.74c-6.12-3.53-10.18-9.35-15.26-14.05-3.17-2.93-6-6.27-9.37-8.92-8-6.3-14.94-5.09-20.81,3.26-1.6,2.27-3.15,4.59-4.83,6.8-1.22,1.61-2.6,3.29-4.94,2.68-2.1-.54-2.51-2.54-3.02-4.33-1.74-6.17-1.93-12.57-2.26-18.89-.74-14.08-1.34-28.19,2.28-42.05,21.02,10.61,42.03,21.25,63.07,31.83,15.82,7.95,31.79,15.59,47.47,23.81,19.25,10.09,39.87,14.1,61.25,15.21,5.52,.29,11.05,.57,16.57,.86-.43,2.59-2.1,3.63-4.54,3.7-1.84,.05-3.68,.08-5.52,.08-40.03,0-80.06,0-120.09,.01Z"/>
  <path class="cls-28" d="M1789.74,53.34c.87,1.13,3.39,1.44,1.83,3.77-.95-.41-1.91-.78-2.84-1.24-.76-.38-1.99-.71-1.7-1.71,.37-1.23,1.76-.63,2.71-.82Z"/>
  <path class="cls-20" d="M1826.69,416.89c-26.3,0-52.6,.21-78.89-.08-9.05-.1-18.1-1.02-27.18-.83-3.08,.06-6.12,.26-9.14,.98-5.6,1.34-8.12-.04-10.6-5.45-2.74-5.99-3.47-12.55-5.29-18.8,35.59-.01,71.18-.01,106.78-.05,3.06,0,6.13-.14,9.18-.43,5.63-.53,8.13,.91,10.34,6.25,2.46,5.91,2.91,12.35,4.8,18.41Z"/>
  <path class="cls-3" d="M1774.06,323.01c-.9-1.97-.94-3.94,0-5.92,1.52,1.97,2.1,3.94,0,5.92Z"/>
  <path class="cls-15" d="M1845.01,553.8c-1.57-.36-1.57-1.7-1.78-2.91-1.57-9.17-3.9-18.13-7.42-26.75,6.12-1.17,9.96,1.76,10.21,7.84,.3,7.3-.48,14.56-1.01,21.82Z"/>
  <path class="cls-10" d="M773.8,896.22c-16.82,.38-33.49-.81-49.95-4.59-9.39-2.16-18.1-6.07-26.67-10.29-34.15-16.8-68.37-33.47-102.28-50.76-49.97-25.49-99.73-51.42-147.53-80.95-20.21-12.49-40.08-25.52-58.16-41.12-5.3-4.57-9.98-9.69-13.95-15.46-3.71-5.4-4.35-10.85-1.23-17.04,5.55-11.03,6.76-23.14,7.24-35.32,.66-16.94-.91-33.84-.93-50.77,0-4.69,.45-9.33,1.43-13.88,1.74-8.11,6.14-10.87,14.13-9,5.09,1.19,10.18,2.43,15.22,3.83,3.86,1.08,5.92-.19,7.35-4.02,20.64-55.01,49.05-105.69,83.95-152.69,21.87-29.46,46.57-56.24,75.52-78.76,33.68-26.2,70.73-44.97,113.29-51.17,30.3-4.41,60.06-1.28,89.56,6.27,48.75,12.48,95.6,30.38,141.82,50.18,53.13,22.75,105.14,47.91,156.48,74.48,51.33,26.56,102.08,54.21,152.33,82.8,52.8,30.04,105.23,60.74,157.05,92.47,19.86,12.16,39.57,24.58,59.46,36.68,4.6,2.8,6.88,6.38,6.71,11.74-1.91,58.94-24.03,106.72-75.54,137.73-25.34,15.26-53.34,23.04-82.42,27.01-63.94,8.71-126.9,22.64-189.88,36.45-71.99,15.79-143.85,32.27-216.58,44.36-30.19,5.02-60.5,9.29-91.1,11.1-8.46,.5-16.89,.58-25.34,.71Z"/>
  <path class="cls-19" d="M476.45,361c-11.84-.01-23.68,.01-35.51-.05-6.13-.03-6.91-.88-7.03-6.99q-.25-12.57,12.14-12.57c13.07,0,26.14,0,39.2,0,2.61,0,5.24-.08,7.73,.94-5.51,6.22-11.02,12.45-16.53,18.67Z"/>
</svg>