<?xml version="1.0" encoding="UTF-8"?>
<svg id="Layer_1" data-name="Layer 1" xmlns="http://www.w3.org/2000/svg" xmlns:xlink="http://www.w3.org/1999/xlink" viewBox="0 0 601 302">
  <defs>
    <style>
      .cls-1 {
        fill: #373c18;
      }

      .cls-2 {
        fill: #555b28;
      }

      .cls-3 {
        fill: #313617;
      }

      .cls-4 {
        fill: #3d421a;
      }

      .cls-5 {
        fill: #383c17;
      }

      .cls-6 {
        fill: #5b612b;
      }

      .cls-7 {
        fill: #2c3110;
      }

      .cls-8 {
        fill: #5f662e;
      }

      .cls-9 {
        fill: #3a3e16;
      }

      .cls-10 {
        fill: #3f441b;
      }

      .cls-11 {
        fill: #515725;
      }

      .cls-12 {
        fill: #909090;
      }

      .cls-13 {
        fill: #2b2f11;
      }

      .cls-14 {
        fill: #545a26;
      }

      .cls-15 {
        fill: #4d5321;
      }

      .cls-16 {
        fill: #292e10;
      }

      .cls-17 {
        fill: #292e0f;
      }

      .cls-18 {
        fill: #4f5423;
      }

      .cls-19 {
        fill: #373d17;
      }

      .cls-20 {
        fill: #535927;
      }

      .cls-21 {
        fill: #525825;
      }

      .cls-22 {
        fill: #535925;
      }

      .cls-23 {
        fill: #303414;
      }

      .cls-24 {
        fill: #323715;
      }

      .cls-25 {
        clip-path: url(#clippath);
      }

      .cls-26 {
        fill: #4d5322;
      }

      .cls-27 {
        fill: none;
      }

      .cls-28 {
        fill: #4d5323;
      }

      .cls-29 {
        fill: #505524;
      }

      .cls-30 {
        fill: #252a0d;
      }

      .cls-31 {
        fill: #505625;
      }

      .cls-32 {
        fill: #515726;
      }

      .cls-33 {
        fill: #5d6431;
      }

      .cls-34 {
        fill: #3e4217;
      }

      .cls-35 {
        fill: #363b17;
      }

      .cls-36 {
        fill: #44491c;
      }
    </style>
    <clipPath id="clippath">
      <rect class="cls-27" width="601" height="302"/>
    </clipPath>
  </defs>
  <g class="cls-25">
    <g>
      <path class="cls-33" d="M592.74,49.85c.02,.87,.03,1.74,.05,2.6,.66,3.47-.11,7.13,1.43,10.48,.18,.62,.43,1.27,.3,1.9-1.8,8.78-.22,17.58-.22,26.37,0,49.61-.02,99.21,.01,148.82,0,6.77-.07,13.54-.58,20.29-.4,1.05,.16,2.73-1.78,2.79-1.32-.81-1.26-2.17-1.33-3.44-.13-2.04-.07-4.09-.07-6.14,0-64.3,0-128.61,0-192.91,0-7.4-.56-7.91-8-7.11-1.41,.15-2.77,.22-4.17-.02-5.35-.9-10.72-.25-16.09-.21-21.01,.16-42.03,.54-63.01-.09-16.47-.5-32.91,.92-49.37,0-4.06-.23-8.18,.16-12.27,.15-29.72-.08-59.44-.02-89.16-.13-10.44-.04-20.88-.09-31.33,.09-12.38,.21-24.77,.01-37.15,.02-22.83,.01-45.67,.11-68.5,0-21.53-.1-43.06,.03-64.59,.01-28.86-.03-57.73,.06-86.59-.02-2.32,0-4.78,.44-6.89-1.07-.97-1.2-2.27-1.44-3.74-1.43-12.15,.02-24.29-.03-36.44,.04-3.41,.02-4.15,.83-5.01,4.2-1.25,4.88-.65,9.84-.79,14.76-.06,2.36,.07,4.73-.06,7.09-.07,1.15-.15,2.52-2,1.92-1.28-1.31-1.02-2.99-1.07-4.57-.09-2.89-.08-5.79,.03-8.69,.05-1.34,.37-2.54,1.38-3.48,.04-3.1,.12-6.19,.09-9.29-.01-1.77,.35-3.38,1.39-4.82,1.3-.69,2.7-.63,4.1-.63,155.34-.01,310.68-.03,466.02-.04,36.09,0,72.17,.03,108.26,.06,2.64,0,5.53-.54,7.14,2.49Z"/>
      <path class="cls-8" d="M53.67,51.14c1.15,.81,2.47,.64,3.75,.64,23.8,0,47.6,0,71.4,0,10.09,0,20.18,0,30.27,0,9.74,0,19.49,0,29.23,0h57.42c13.54,0,27.08,0,40.62,0,11.17,0,22.35,.28,33.51-.09,9.55-.31,19.08,.1,28.64-.19,10.58-.32,21.23,.26,31.85,.27,20.11,.01,40.22,0,60.33,0,10.74,0,21.48,.07,32.22-.03,6.2-.06,12.43-.92,18.59-.51,16.36,1.1,32.71,.23,49.06,.52,7,.12,14.06,.62,20.98-.13,9.34-1,18.65,1.5,27.93-.39,1.75-.36,2.61,.6,2.6,2.37,0,1.08,.01,2.15,.01,3.23,0,66.97,0,133.95,0,200.92,0,1.83,.04,3.66,.06,5.49,.42,.22,.41,.39-.06,.51-.46,.34-.93,.68-1.39,1.01-6.87,.12-13.74,.23-20.61,.35-6.76,.14-13.49,.72-20.27,.38-7.09-.36-14.22-.38-21.31,.01-4.32,.24-8.59-.18-12.88-.13-39.05,.48-78.11,.39-117.16,.25-20-.07-40.01-.42-60.02-.24-74.41,.67-148.81,.11-223.22,.28-19.69,.04-39.38,.02-59.07,.03-13.33,0-26.67,.05-39.99-.33-.64-.02-1.3,.07-1.91-.24-.26-.08-.51-.16-.77-.23-1.13-.37-2.33-.27-3.48-.32-2.36-.1-3.51-1.21-3.77-3.45-.16-1.4-.1-2.8-.1-4.2,0-57.48-.15-114.96,.13-172.44,.05-10.29,.46-20.61,.49-30.92,0-2.01,.79-3.06,2.81-3.07,14.21-.02,28.42-.08,42.63,.03,.56,0,1.05,.19,1.45,.6Z"/>
      <path class="cls-12" d="M14.28,265.14c23.7-.03,47.39-.08,71.09-.08,160.72-.01,321.44-.02,482.16-.02,.86,0,1.72,.06,2.58,.09-1.85,1.01-3.86,.43-5.79,.58-10.74,1.08-21.53-.96-32.19,.15-9.15,.96-18.24,.07-27.33,.22-36.78,.61-73.58,.48-110.37,.16-18.48-.16-36.95-.84-55.43-.5-75.49,1.38-150.99,.2-226.49,.59-19.25,.1-38.49,.02-57.74,.02-8.81,0-17.62,.26-26.41-.11-4.68-.2-9.44-.07-14.07-1.1Z"/>
      <path class="cls-33" d="M7.13,261.82c1.12,3.11,4.35,1.86,6.39,3.09-2.41-.23-5.05,1.05-7.16-1.11-.21-.66-.43-1.32-.64-1.98,0,0,.25,.03,.25,.03,.38-.41,.77-.4,1.17-.03Z"/>
      <path class="cls-6" d="M7.13,261.82c-.39,0-.78,.02-1.17,.03-.05-14.63-.13-29.26-.14-43.88-.01-45.18,0-90.36,.02-135.54,0-1.18,.05-2.37,.08-3.55,.73-1.18,.55-2.49,.55-3.77,.01-7.2,.06-14.41-.01-21.61-.02-2.42,.97-3.63,3.4-3.63,14.62,0,29.24,0,43.87,.01,.73,0,1.51,0,2.17,.75-.61,.81-1.5,.38-2.23,.51-13.89,0-27.78,0-41.67,0-4.74,0-4.86,.12-4.86,4.93,0,68.58,0,137.17,0,205.75Z"/>
      <path class="cls-14" d="M277.32,98.32c10.34,0,20.68,0,31.02,0,2.64,.52,5.26,.61,7.87-.17,.63-.19,1.25-.25,1.83,.17,3.45,0,6.89,0,10.34,0,.47,.33,1,.32,1.54,.32,12.98,0,25.96,0,38.94,0,.54,0,1.07,.01,1.54-.32,6.89,0,13.79,0,20.68,0,3.17,.7,6.38,.32,9.57,.29,7.15-.08,14.31,.44,21.46-.29,6.95,0,13.9,0,20.85,0,1.27,0,2.58-.16,3.73,.63,2.41,4.15,2.45,8.7,2.64,13.34,1.12,27.44,.54,54.88,.48,82.32-.03,10.73-.59,21.5-2.42,32.14-1.45,4.73-5.17,7.59-9.89,7.6-10.55,.01-21.11,.02-31.66,0-1.76,0-3.45,.05-4.81,1.38-1.04,1.02-2.38,.89-3.66,.89-39.42,.01-78.83,.06-118.25-.07-4.19-.01-8.38-.2-12.56,.1-6.35,.45-12.55-1.39-18.92-1.05-9.02,.48-18.07-.26-27.09,.12-27.21,1.14-54.43,.87-81.64,.93-2.51,0-4.75-.45-7.1-1.58-2.82-1.36-6.2-1.42-9.03,.05-4.01,2.08-7.74,2.23-11.57-.15-.46-.29-.95-.55-1.5-.54-5.91,.09-11.82-.46-17.72,.31-2.99,.39-5.92,.3-8.95-.25-5.85-1.05-11.81-.27-17.72-.42-2.08-.05-4.09-.19-5.79-1.55-1.49-.98-2.37-3.09-4.7-2.55-4.17-2.02-4.99-4.39-2.39-7.82,.79-1.05,.25-2.01,.61-2.95,4.6-3.06,9.39-5.73,15.19-4.63,3.1,.59,5.94-.71,8.95-.66,1.03,.02,1.76-.77,2.08-1.78,.76-2.45,2.5-2.61,4.63-2.12,1.66,.38,2.93,1.25,2.85,2.98-.09,2.09-.81,4.15-3.13,4.79-5.52,1.52-11.19,2.4-16.88,1.9-3.25-.29-5.18,.46-6.16,3.76,1.84,.15,3.28-.34,4.64-1.62,2.23-2.12,3.56-2.02,5.58,.45,1.34,1.64,2.93,2.47,5.01,2.45,2.27-.02,4.51,.28,6.74,.65,3.1,.51,6.17,.73,9.26-.29,1.63-.54,3.42-.31,5.14-.32,13.36-.02,26.71-.01,40.07,0,2.52,0,4.77-.51,7.07-1.76,2.51-1.36,5.57-1.4,8.07,.07,2.39,1.41,4.81,1.69,7.41,1.69,27.25,0,54.51,0,81.76,0,47.5,0,95.01,0,142.51,0,3.03,0,5.84-.26,8.67-1.85,2.4-1.35,5.46-1.21,8.07,.24,4.01,2.23,7.91,2.21,11.95,.04,2.81-1.51,5.89-1.55,8.65-.04,2.09,1.15,4.17,1.59,6.47,1.6,3.01,0,6.03-.07,9.04,.17,3.5,.28,5.16-.9,6.06-4.34,.63-2.4,.77-4.9,.94-7.36,1.24-17.6,2.87-35.22,1.96-52.87-.55-10.77-.09-21.53-.64-32.28-.34-6.76-.41-13.55-1.25-20.29-.39-3.11-1.63-4.36-4.78-4.61-1.83-.15-3.66-.07-5.49-.07-64.96,0-129.91,0-194.87,0-53.1,0-106.2-.05-159.29,.05-8.49,.02-16.99,.4-25.46,1.12-1.5,.13-3.05,.31-4.51,.03-4.82-.91-9.09,1.33-13.58,2.21-1.56,.31-2.22,1.55-2.46,3.06-1.59,9.76-3.24,19.52-2.69,29.48,.15,2.68,.05,5.34-1.69,7.72-.97,1.33-.85,3.08-.85,4.7-.03,12.82-.02,25.63,0,38.45,0,2.2,.27,4.3,1.62,6.13,.97,1.31,.86,2.86,.94,4.35,.12,2.05,.99,3.24,3.19,3.17,1.33-.05,2.54,.36,3.69,1.02,2.45,1.4,2.93,2.7,1.94,5.31-1.67,4.42-.06,7.3,4.56,8.3,2.8,.6,5.64,.98,8.43,1.63,1.29,1.1,.19,1.8-.41,2.63-.93,1.29-1.77,2.45-.97,4.36,.69,1.63-.04,3.47-1.72,4.43-1.62,.93-3.32,.88-4.67-.64-1.45-1.64-3.31-1.7-5.29-1.65-1.44,.03-3.01,.72-4.28-.59-.77-1.11-.22-2.3-.24-3.4-1.9,.92-3.78,1.74-5.91,1.65-2.19-.1-4.27-1.21-4.01-3.29,.46-3.65-1.17-6.66-2.58-9.47-1.71-3.42-1.71-6.8-1.7-10.31,0-2.72-.03-5.36-1.59-7.76-.74-1.13-.57-2.5-.57-3.78-.04-14.53-.05-29.07,0-43.6,0-1.73,.1-3.43,.8-5.06,.43-1,.69-2.19,.36-3.17-1.39-4.07,.35-8.05,.19-12.07-.07-1.63,.25-3.29,.96-4.71,2-3.99,1.83-8.15,1.2-12.32-1.05-6.94,.6-10.26,9.34-10.73,10.85-.59,21.73-.53,32.59-.37,2.95,.04,5.78-.18,8.44-1.56,2.89-.17,5.81,.11,8.65-.68,3.42,.4,6.85,.29,10.28,.24,4.92,.64,9.85,.07,14.75,.19,13.64,.33,27.29-.06,40.93,.38,8.6,.28,17.21,.21,25.82-.08,5.34-.18,10.7-.14,16.06,.05,9.67,.34,19.37,.4,29.05-.08,8.28-.42,16.56,.53,24.85,.22,1.16-.04,2.37,.29,3.49-.31,6.89,0,13.79,0,20.68,0,3.45,.53,6.9,.53,10.34,0Z"/>
      <path class="cls-21" d="M446.02,226.28c1.31-8.4,1.49-16.88,1.97-25.34,1.37-24.29,.44-48.61,.48-72.91,.01-6.85-.36-13.74-.58-20.61-.1-3.16-.73-6.26-4.49-7.35,.89-1.59,2.22-.93,3.28-1.13,.64,0,1.29,.01,1.93,.02,2.82,1.51,3.06,4.24,3.2,6.94,1.71,32.49,.9,65,.75,97.5-.05,10.34-1.26,20.75-3.8,30.9-.73,2.93-.73,5.97-1.29,8.94-.53,2.81-2.06,4.35-4.84,4.86-1.6,.3-3.2,.38-4.82,.39-24.33,.03-48.67,.02-73,0-2.48,0-4.94-.36-7.42-.25-4.01-2.07-8.34-1.61-12.61-1.61-8.18-.01-16.37-.26-24.55,.06-10.42,.41-20.82-.13-31.24-.11-61.34,.09-122.68,.2-184.02-.08-11.8-.05-23.61-.73-35.43-.86-2.14-.02-4.35-.1-6.41,.15-5.9,.71-11.17-1.86-16.72-2.85-2.59-.46-5.07-2.19-7.47-3.62-3.15-1.87-6.36-3.64-10.15-3.85-.86-.05-1.78-.11-2.43-.73-3.44-3.22-7.31-6.05-9.52-10.39,0-6.04,0-12.08,0-18.13,1.31-2.04,.17-4.2,.32-6.29,.09-1.27-.69-3.29,1.26-3.44,1.98-.15,1.92,1.96,2.15,3.37,.33,2.02,.28,4.11,.05,6.1-.46,3.89,1.45,7.07,2.8,10.37,.79,1.94,1.49,3.76,1.34,5.84-.18,2.5,1.28,4.01,3.4,4.37,2.02,.34,3.59,1.28,5.22,2.28,1.16,.24,2.34-.11,3.5,.11,3.2,0,6.47-.51,8.94,2.46,.65,.78,2.05,.42,3.11,.17,2.63-.63,5.29-.29,7.58,.81,2.86,1.38,5.77,1.57,8.78,1.64,6.77,.17,13.53,.05,20.31,.49,7.27,.47,14.62-.27,21.94-.19,1.63,.02,3.06,.28,4.57,1.14,3.18,1.8,6.56,1.67,9.87,.02,3.56-1.77,7.17-1.88,10.7,.02,1.48,.79,2.98,1.12,4.63,1.12,20.79-.02,41.6,.64,62.35-.3,9.75-.44,19.51-.83,29.27-.98,4.52-.07,9.04-.01,13.55-.04,6.54-.04,13.07,1.04,19.52,1.1,44.58,.38,89.17,.2,133.75,.2,2.25,0,4.51,.25,6.32-1.66,.88-.94,2.24-.59,3.4-.6,10-.06,20.01,.05,30.01-.07,7.06-.08,8.71-1.27,10.51-8.02Z"/>
      <path class="cls-36" d="M357.47,246.96c26.69,0,53.39,0,80.08,0,.65,0,1.29,.01,1.94,0,5.16-.17,5.86-.77,6.85-5.76,3.29-16.68,5.13-33.48,4.93-50.53-.27-22.49,.14-44.99-.2-67.48-.1-6.51,.02-13.11-1.12-19.59-.28-1.57-.88-3.09-1.33-4.63,1.51,0,3.02,.02,4.53,.03,1,.78,1.49,1.82,1.45,3.08-.15,4.52,.66,8.99,.7,13.5,.02,3.14,.26,6.22,1.43,9.17,.58,1.45,.39,2.95,.24,4.46-.12,1.21-.21,2.58,1.41,2.75,1.49,.16,2-1.04,2.18-2.29,1.11-7.74,2.44-15.45,2.1-23.34-.11-2.48-.64-5.22,1.48-7.33,1.72,0,3.44-.02,5.17-.03,.68,.72,.81,1.6,.31,2.37-1.59,2.43-1.36,5.14-1.33,7.81,.16,13.94-.84,27.86-.66,41.79,.02,1.29-.04,2.58,.06,3.86,.29,3.71,1.8,4.99,5.46,4.41,2.38-.38,4.7,.34,7.05,.08,.62-.07,1.19,.43,1.55,1.01-.5,3.45-.62,3.54-5.92,4.47-3.46-1.33-6.95,.62-10.47-.15-1.88-.41-2.21,1.27-2.23,2.78-.06,3.98-.08,7.97-.02,11.95,.04,2.97-.67,5.52-2.99,7.51-.74,.63-1.62,1.38-1.67,2.32-.23,4.1-2.19,7.86-2.38,11.92-.25,5.4-1.07,10.7-1.98,16-1.37,8.03-2.44,16.1-3.5,24.17-.41,3.14-2.22,5.99-1.59,9.38,.22,1.22-1.19,2.2-2.63,2.37-1.18,.14-2.37,.08-3.55,.08-19.71,0-39.42,.06-59.13-.04-5.18-.03-10.3,.51-15.45,.91-.38,.07-.75,.16-1.13,.26-3.31,1.32-6.42,.04-9.15-1.38-1.88-.98-3.37-1.24-5.08-.37-1.9,.97-3.81,1.32-5.91,.99-1.05-.17-2.15-.04-3.22-.04-76.52,0-153.05,.02-229.57-.07-3.27,0-6.31,1.08-9.56,1.1-2.22,.01-3.36-1.55-5.01-2.31-1.78-.83-1.83,3.04-4.18,2.58-.83-.16-1.8,.21-2.56-.13-4.4-1.96-9-1.16-13.56-1.23-7.31-.11-14.62-.08-21.91-.74-5.05-.45-10.12,.02-15.16-.34-3.81-.27-4.85-2.11-3.45-5.93,1.29-1.05,2.85-.9,4.33-.9,18.92,.02,37.84,.43,56.76,.61,3.97,.04,7.95,.24,11.93,.24,54.04,.02,108.07-.04,162.11,.06,10.81,.02,21.63,.14,32.43,.22,15.47,.11,30.94-.31,46.42-.26,1.61,0,3.24-.13,4.74,.64Z"/>
      <path class="cls-32" d="M56.29,93.12c-.88-1.12-.66-2.44-.67-3.7-.02-6.73-.03-13.47-.04-20.2-.49-2.57-1.11-5.13-.02-7.7,.9-1.42,2.34-1.34,3.75-1.33,30.23,.01,60.47,.03,90.7,.05,.88,1.74-.28,3.35-.35,5.04-.23,6.26,0,12.47,1.9,18.51,.36,1.15,.51,2.3,.51,3.49,.01,4.36-1.13,5.56-5.47,5.56-28.5,.02-57.01,0-85.51,.01-1.61,0-3.23-.16-4.81,.29Z"/>
      <path class="cls-2" d="M186.18,71.82c.06-2.58,.04-5.16,.19-7.73,.17-2.81,1.57-4.02,4.59-3.98,11.17,.15,22.35,.06,33.53,.06,19.99,0,39.98,.03,59.97,.04,.11,1.06-.57,1.63-1.4,1.91-2.58,.84-2.89,2.86-2.9,5.14-.03,5.1,.94,10.04,2.21,14.95,.51,1.98,1.03,3.95,.89,6.03-.23,3.51-1.24,4.54-4.81,4.56-6.02,.05-12.04,.01-18.07,.01-22.15,0-44.31,0-66.46,.01-2.14,0-4.3-.16-6.43,.3-.23-.21-.47-.42-.7-.64,.24-5.85-.5-11.69-.31-17.54,.03-1.04,.32-2.14-.3-3.14Z"/>
      <path class="cls-31" d="M488.64,93.17c-1.04-1.48-1.24-3.17-1.24-4.92,0-7.86-.02-15.71,0-23.57,.01-3.81,.7-4.49,4.58-4.5,15.71,0,31.43,.02,47.14,.04,1.19,1.85,3.08,1.21,4.72,1.23,5.63,.08,7.22,1.4,7.05,7.08-.16,5.23,1.03,10.26,1.64,15.37,.09,.75,.24,1.49,.29,2.24,.36,5.86-1.02,7.23-6.79,6.55-1.51-.18-3.01-.19-4.51-.19-16.05-.01-32.1,0-48.15,0-1.61,0-3.24-.13-4.74,.67Z"/>
      <path class="cls-26" d="M488.02,253.44c-.87-1.25-.63-2.69-.62-4.06,.07-8.47-.17-16.94,.36-25.41,.15-2.41,1.62-2.18,3.07-2.19,7.52-.04,15.04,0,22.56-.02,4.94,0,5.02-.09,5.02-5.07,0-6.98,0-13.97,0-20.95,0-1.28-.17-2.59,.57-3.76,2.04,2.51,.94,5.55,1.3,8.33,.59,4.58,.26,9.23,.37,13.85,.11,4.84,1.94,6.58,6.68,6.64,3.86,.05,7.7,.05,11.56-.52,3.24-.48,6.41,.52,9.41,1.73,1.89,.76,2.89,2.47,2.5,4.43-1.06,5.3,.01,10.71-1.02,16.02-1.05,5.37-1.59,6.01-7.16,6.04-15.27,.07-30.54,.07-45.81,0-3.62-.02-6.99-.09-8.01,4.41-.07,.3-.48,.4-.77,.55Z"/>
      <path class="cls-4" d="M581.69,162.28c-.93,.72-2.03,.63-3.1,.63-28.95,0-57.9,0-86.84,0-1.16,0-2.54,.26-3.22-.97-.82-1.5-.75-3.03,1.15-3.66,2.13-.71,3.6-1.19,2.5-4.2-.83-2.29,1.82-3.65,3.28-5.14,2.7-2.77,6.55-3.47,10.08-1.95,1.25,.54,2.53,.49,3.81,.45,2.21-.07,4.3,.14,6.03,1.74,.3,.28,.77,.64,1.11,.59,6.39-.81,11.81,4.26,18.34,2.92,2.49-.51,5.43,.74,7.63-.47,2.42-1.33,.99-4.52,1.77-6.82,3.12-9.14,4.09-18.58,4.07-28.25-.01-4.38,.67-8.75-.15-13.13-.12-.63,.01-1.42-.33-1.88-2.75-3.65,.23-3.13,2.29-3.14,5.81-.03,11.62,.02,17.43,.03,1.82,5.57,2.32,11.05-.75,16.42-1.23,2.15-1.24,4.75-2.32,7-.67,1.4-1.36,2.57-2.78,3.38-2.98,1.71-4.84,4.17-5.89,7.63-2.34,7.65-3.17,15.51-4.08,23.37-.45,3.92-1.31,4.73-5.31,4.83-2.04,.05-4.08,0-6.13,.1,12.49-.99,25-.22,37.49-.39,1.36-.02,2.84-.32,3.92,.93Z"/>
      <path class="cls-20" d="M318.04,85.39c0-2.59,0-5.17,0-7.76,.81-.99,1.85-1.29,3.12-1.32,6.76-.13,13.52-.57,20.28,.15,1.51,.16,3.1-.03,4.45-.58,3.17-1.3,6.28-2.53,9.79-2.71,2.01-.1,2.57-1.96,2.8-3.8,.72-5.79,1.1-6.15,7.01-6.19,10.75-.06,21.49-.04,32.24,0,1.72,0,3.43,.08,5.07,.72,1.3,.51,2.39,1.27,2.45,2.7,.28,6.41,2.55,12.34,4.28,18.41,.93,3.27,.05,5.93-3.08,7.63-1.17,.24-2.36,.17-3.54,.17-26.71,0-53.41,0-80.12,0-1.4,0-2.8,.09-4.17-.31-.58-.78-.58-1.69-.58-2.6,1.64-2.15,4.08-1.54,6.19-1.56,24.4-.23,48.8,.17,73.19,0,1.39,0,2.81,.15,4.16-.32,.52-.18,.97-.51,.95-1.15-.02-.63-.5-.92-1.01-1.1-.72-.26-1.49-.19-2.24-.18-17.75,.09-35.5,0-53.26,.04-1.95,0-3.9,.09-5.72,.82-4.13,1.66-8.51,.93-12.76,1.39-1.69,.18-3.48,.15-5.1,.54-2.82,.69-4.05-.38-4.4-3.01Z"/>
      <path class="cls-34" d="M367.19,253.51c.21-.03,.41-.06,.62-.09,1.02-1.02,2.31-.97,3.62-.97,17.21,0,34.42-.08,51.62,.05,6.64,.05,13.28,.28,19.92,.28,5.28,0,5.19-.16,5.89-5.23,.7-5.09,1.28-10.2,2.37-15.24,.97-4.47,2.11-8.93,2.3-13.54,.1-2.38,1.07-3.93,3.48-4.78,2.56-.91,4.18-2.76,4.45-5.75,.26-2.78,2.16-5.04,4-6.79,3.18-3.03,3.31-6.72,3.74-10.57,.71-6.45-.23-12.86-.14-19.29,.08-6.24,.8-7.18,6.7-8.65,2.33,.02,4.7,.11,5.8-2.61-1.39-1.03-1.47-2.56-1.48-4.08-.1-17.33-.11-34.66,.03-51.99,.01-1.58-.35-3.62,2.12-4.02,0,40.07,0,80.14,0,120.22-.9,1.11-2.02,1.43-3.44,1.17-2.97-.54-5.99-.07-8.99-.44-2.53-.31-4.68,2.01-4.29,4.86,.78,5.72,1.86,11.38,1.68,17.2-.05,1.61,.8,2.4,2.59,2.54,3.62,.29,7.08,1.83,10.8,1.54,.7-.06,1.16,.48,1.63,.93,.13,6.66-1.84,8.21-8.42,6.63-.21-.05-.41-.11-.62-.16,.02-1.71,1.23-.95,2.09-1.06-5.02,.62-7.65-3.23-10.55-6.04-2.52-2.43-1.27-6.36-2.03-9.56-.29-1.23-.12-2.56-.5-3.82-.38-1.28-.78-2.54-2.41-2.6-1.56-.06-3.17,.15-3.83,1.79-1.71,4.22-2.48,8.65-2.37,13.19,.04,1.48,1.24,2.39,2.21,3.42,1.72,1.84,1.48,3.32-.57,4.98-1.91,.02-3.81,0-5.71,0-25.87,0-51.73,0-77.6-.01-1.16,0-2.36,.27-3.49-.29-.41,0-.83,0-1.24,0-.41-.41-.37-.82,.01-1.23Z"/>
      <path class="cls-11" d="M406.59,91.82c3.18-3.73,1.66-7.77,0-11.22-1.86-3.86-2.15-7.86-2.45-11.86-.2-2.65-1.27-3.71-3.62-3.88-1.93-.14-3.86-.15-5.8-.15-10.11-.01-20.21-.02-30.32,0-3.99,0-4.27,.31-4.34,4.15-.09,5.69-.5,6.11-6.38,6.17-1.66,.02-3.08,.36-4.51,1.35-2.48,1.72-5.48,1.99-8.34,1.69-5.8-.61-11.56-.57-17.35-.07-1.79,.15-3.62-.23-5.43-.36,0-4.52,.11-9.05-.06-13.56-.11-2.98,1.09-3.96,3.99-3.94,14.97,.09,29.94,.04,44.9,.05,20.57,0,41.14,.03,61.7,.04-.13,1.99-1.7,1.94-3.04,2.05-3,.23-6,.04-9.01,.14-3.48,.12-4.34,.99-4.5,4.43-.22,4.64,.31,9.2,1.3,13.73,.5,2.3,1.19,4.59,1.16,6.96-.02,1.76,.51,4.06-1.57,4.84-2.02,.75-4.36,1.17-6.34-.54Z"/>
      <path class="cls-10" d="M367.19,253.51c0,.41,0,.82-.01,1.23,0,0,0,0,0,0-1.13,.56-2.33,.29-3.5,.29-114.23,.01-228.46,.01-342.7,0-1.16,0-2.37,.3-3.48-.31-1.23-2.49-.51-5.15-.65-7.73,.71-.9,1.62-1.37,2.77-1.43,5.49-.24,10.98-.23,16.47,0,1.1,.04,2.15,.28,2.71,1.42,.33,3.22,2.17,4.01,5.27,3.94,10.31-.21,20.6,.52,30.9,1.11,4.46,.26,8.96-.66,13.46,.07,1.57,.25,3.15-.06,4.45,1.35,.85,.92,2.52,1.12,3.22,.2,1-1.32-.92-1.14-1.42-1.75-.94-1.15,.14-1.52,.91-1.71,2.5-.62,5.05-.76,7.55-.52,.54,1.53-2,2.36-.92,3.15,1.03,.75,2.99,.88,4.3,.48,7.3-2.23,14.76-1.08,22.12-1.09,68.02-.11,136.05-.06,204.07-.07,8.6,0,17.27,.67,25.61-2.3,.58-.21,1.24-.16,1.92-.24,.2,1.41-2.01,1.27-1.49,2.51,.46,1.1,1.78,.41,2.61,.8,1.89,.89,3.76,1.65,5.84,.61Z"/>
      <path class="cls-14" d="M482.22,100.25c-.96,1.35-.63,2.9-.63,4.37-.02,18.57-.02,37.14-.03,55.72-3.39,1.23-6.97,.03-10.49,.96-2.76,.73-4.91-2.02-4.97-5.79-.1-6.67-.22-13.35,.02-20.01,.31-8.56,.66-17.11,.55-25.67-.05-3.88-.27-7.71,2.61-10.85,3.45-1.22,7.01-.55,10.53-.53,1.13,0,2.05,.61,2.41,1.8Z"/>
      <path class="cls-30" d="M581.75,222.41c.62,.94,.7,2,.7,3.08-.03,9.3-.07,18.61-.1,27.91-.9,.95-2.06,1.01-3.27,1-7.31-.02-14.61,.03-21.92-.02-3.92-.03-7.85-4.22-6.96-7.89,1.23-5.08,.61-10.28,1.58-15.35,.1-.52,.07-1.07,.16-1.6,1.04-6.61,2.03-7.46,8.61-7.46,6.45,0,12.89,0,19.34,0,.63,0,1.3-.11,1.86,.33Z"/>
      <path class="cls-15" d="M38.8,246.97c-7.32,0-14.63,.01-21.95,.02,0-7.54,0-15.08,0-22.62,3.44,1.94,5.86,5.04,8.66,7.7,.94,.89,1.84,2.06,3.24,1.89,3.6-.45,6.62,1.36,9.37,2.96,4.76,2.77,9.8,4.26,14.98,5.94,5.38,1.74,10.52,1.46,15.8,1.49,13.12,.07,26.21,1.23,39.31,1.27,54.6,.14,109.2,.06,163.81,.06,10.96,0,21.91,0,32.87,0,15.8,0,31.61,0,47.41,0,1.82,0,3.7-.19,5.16,1.29-8.29,0-16.61-.36-24.88,.11-8.68,.48-17.37,.31-26.03,.32-6.38,0-12.84-.29-19.24-.31-82.84-.17-165.68-.11-248.52-.11Z"/>
      <path class="cls-3" d="M520.37,191.42c9.23-.04,18.47-.09,27.7-.1,1.24,0,2.66-.26,3.36,1.27,.61,9.13,.13,18.26,.25,27.4,.02,1.66-1.13,2.46-2.58,2.04-7.39-2.15-14.97-.35-22.43-1.18-3.64-.4-5.6-1.53-5.69-5.19-.19-7.71-.63-15.4-1.15-23.09-.03-.43,.25-.81,.53-1.15Z"/>
      <path class="cls-9" d="M520.37,191.42c1.01,7.33,2.47,14.59,2,22.09-.31,4.97,1.1,5.78,5.9,6.4,6.98,.9,13.99,.09,20.95,.84,2.61,.28,2.12-1.57,2.13-2.95,.06-8.4,.06-16.8,.08-25.2,1.04,2.37,.5,4.87,.54,7.31,.08,6.12,.12,12.24-.01,18.35-.06,2.64,.85,3.62,3.53,3.57,7.51-.13,15.03-.07,22.54-.06,1.27,0,2.6-.23,3.72,.65-7.73,0-15.46,.06-23.19-.01-2-.02-3.03,.6-3.72,2.62-1.59,4.64-1.92,9.42-2.16,14.24-.09,1.92,.22,3.9-.56,5.73-.9,2.12-.17,3.61,.96,5.56,1.83,3.16,4.22,3.68,7.45,3.58,5.58-.18,11.17-.06,16.75-.02,1.73,.01,3.43-.1,5.07-.71-.2,.67-.61,1.16-1.31,1.26-.63,.09-1.28,.12-1.93,.13-17.3,.18-34.61,.75-51.9,.4-11.93-.24-23.85-.28-35.77-.42-1.32-.02-2.61-.04-3.42-1.33,.08-7.03-.74-6.47,6.38-6.47,16.37,0,32.73-.07,49.1,.06,3.01,.02,4.26-1.05,4.61-3.93,.45-3.74,1.15-7.45,.18-11.21-.22-.86,.08-1.67,.38-2.5,1.61-4.41,.24-6.55-4.41-7.6-3.68-.83-7.26,.16-10.88,.07-3.8-.1-7.72,.71-11.37-1.14-2.13-1.08-3.05-2.66-3.01-5.16,.12-7.86,0-15.72-.03-23.58,.46-.18,.92-.37,1.38-.55Z"/>
      <path class="cls-17" d="M582.43,116.42c.01,13.95,.03,27.91,.03,41.86,0,1.17,.11,2.38-.57,3.44-9.55,.56-19.11,.1-28.66,.24-1.47,.02-2.44-.8-2.11-2.17,1.17-4.81,1.29-9.74,1.87-14.62,.58-4.92,4.84-5.2,8.25-6.24,2.45-.74,4.91-1.11,7.23-2.46,6-3.48,7.77-9.02,8.55-15.37,.71-5.86,1.49-11.69,1.39-17.62-.02-1.31,.29-2.88,1.94-2.85,1.73,.04,1.64,1.69,1.71,2.95,.23,4.27-.41,8.56,.36,12.81Z"/>
      <path class="cls-24" d="M582.43,116.42c-1.41-3.54-.33-7.24-.67-10.84-.13-1.4,.28-2.98-1.1-4.03-1.06,.56-.88,1.41-.81,2.09,.61,6.59-.78,13.05-1.4,19.54-.77,8.05-6.67,16.38-16.6,17.21-5.82,.48-7.51,2.6-7.92,8.39-.18,2.56-.62,5.12-1.09,7.65-.97,5.23-1.01,5.22,4.19,5.23,8.29,.02,16.58,.05,24.87,.07-.05,.19-.12,.37-.2,.55-15.36,0-30.71,0-46.93,0,2.38-1.83,4.33-1.26,6.06-1.21,11.97,.32,9.63-1.67,10.33-9.75,.66-7.58,2.26-14.83,4.17-22.09,.34-1.28,1.19-1.9,2.27-2.53,2.78-1.62,5.72-3.32,6.1-6.9,.41-3.81,3.34-6.67,3.58-10.52,.12-1.94,.5-3.81-.47-5.66-.88-1.67,.18-3.11,.73-4.59,3.96-.02,7.93,.02,11.89-.09,2.19-.06,3.12,.84,3.08,3.03-.08,4.82-.06,9.64-.08,14.46Z"/>
      <path class="cls-1" d="M56.29,93.12c.98-1.99,2.82-1.22,4.31-1.23,28-.05,56-.03,84-.04,5.84,0,7.25-2.15,5.38-7.81-2.17-6.55-2.1-13.34-1.82-20.12,.06-1.47,1.05-2.56,1.86-3.7,9.02,0,18.03,.02,27.04-.02,2.69-.01,4.06,.38,4.21,3.89,.21,4.71,.14,9.42,.34,14.12-2.31,.86-2.48-.87-2.64-2.32-.3-2.78-.06-5.59-.18-8.38-.13-3.06-.8-3.7-3.91-3.83-.86-.04-1.72-.03-2.58,0-3.24,.15-4.03,.83-3.96,4.09,.11,5.85-.92,11.55-2.06,17.25-.81,4.04,.04,5.2,4.07,5.26,2.9,.04,5.81,.16,8.7-.19,1.24-.15,2.51-.21,2.04,1.73-.03,.21-.07,.43-.1,.64-.6,1.11-1.58,1.27-2.74,1.23-13.43-.48-26.84-.3-40.26,.37-4.93,.25-9.81-.67-14.75-.65-21.17,.11-42.33,.05-63.5,.03-1.16,0-2.37,.3-3.48-.31l.03-.03Z"/>
      <path class="cls-35" d="M187.49,93.13c.97-1.99,2.81-1.24,4.3-1.24,27.76-.04,55.52-.15,83.27,.05,7.17,.05,7.74-1.75,6-8.12-1.85-6.81-2.49-13.71-2.7-20.71-.05-1.59,.61-2.14,2.01-2.25,1.38-.11,2.82,.18,4.08-.65,5.14,0,10.29,0,15.43,.01,1.51,.78,1.21,1.93,.41,2.93-1.24,1.54-1.44,3.3-1.4,5.15,.14,5.91-.23,11.75-1.55,17.55-.72,3.18,.32,4.35,3.65,4.43,3.1,.08,6.21,.19,9.31-.18,1.91-.23,2.63,.52,1.93,2.41v.06c-.49,.64-1.1,1.02-1.94,.95-8.27-.73-16.5,.67-24.79,.39-30.56-1.01-61.14-.22-91.71-.43-2.12-.02-4.28,.81-6.34-.33l.02-.02Z"/>
      <path class="cls-5" d="M406.59,91.82c7.09,.08,7.46-.23,5.92-7.21-1.46-6.62-2.27-13.26-2.09-20.05,.07-2.77,1.09-3.73,3.82-3.79,4.78-.12,9.61,.72,14.35-.55,.41,0,.83,0,1.24,0,1.56,.4,2.2,1.33,1.35,2.81-1.19,2.08-1.12,4.33-1.07,6.58,.13,5.17-.4,10.26-1.52,15.31-.92,4.15,.06,5.33,4.25,5.38,2.89,.03,5.79,.15,8.68-.15,1.85-.19,2.72,.39,1.87,2.34-.21,.21-.41,.41-.62,.62-1.21,.7-2.53,.34-3.79,.34-37.24,.02-74.48,.03-111.72,0-2.87,0-5.77,.69-8.61-.29-.01-.22-.02-.43-.04-.65,1.35-.96,2.9-.64,4.38-.65,27.86-.03,55.72-.04,83.58-.05Z"/>
      <path class="cls-22" d="M33.63,230.16c-2.34-.99-4.74-1.86-6.99-3.02-1.32-.68-2.73-1.88-2.84-3.35-.47-6.36-4.67-11.75-4.55-18.22,.03-1.49,.17-2.99,.13-4.47-.04-1.3,.42-2.81-1.26-3.87-1.01,1.57-.61,3.11-.3,4.64,.33,1.61,.64,3.21-.98,4.39,0-34.41-.02-68.83-.02-103.24,0-1.49-.22-3.07,1.3-4.09,2.94-1.65,5.97-.7,8.97-.28,2.82,.17,5.67-.35,8.47,.31,.22,0,.44,0,.66-.01,2.85-1.37,5.94-1.25,8.86-.81,4.64,.7,9.18,.47,13.79-.04,3.32-.37,6.65-.02,9.97,.23,1.2,.13,2.52-.34,3.56,.65-1.33,2.07-3.51,1.86-5.49,1.9-4.95,.1-9.92,.2-14.86,0-6.8-.28-13.52,.87-20.31,.76-1.47-.02-2.96,.5-4.41,.9-3.21,.89-4.56,3.04-4.01,6.33,.93,5.59,.68,10.91-1.22,16.46-1.38,4.04-1.8,8.67-.88,13.16,.3,1.44,.48,3.19-.07,4.47-1.6,3.76-1.06,7.63-1.08,11.46-.07,10.45-.04,20.9-.02,31.34,0,4.6-.41,9.22,1.57,13.66,.61,1.38,.53,3.22,.31,4.78-.69,4.91,1.25,9.04,3.64,13.01,1.05,1.75,1.04,3.47,.74,5.28-.35,2.11,.67,2.79,2.53,2.64,1.6-.13,3.35,0,4.61-1.17,1.94-1.81,4.26-1.59,6.76-1.28-1.33,.77-2.67,1.54-4,2.31-.76,1.06-1.3,2.16-1.29,3.53,0,.78,.06,1.84-1.31,1.64Z"/>
      <path class="cls-16" d="M581.73,60.85c.86,.99,.74,2.2,.75,3.37,0,8.26,.02,16.53,0,24.79-.01,3.86-.35,4.17-4.29,4.2-2.47,.01-4.94-.04-7.41-.07-.41-1.15,.32-1.75,1.06-2.43,2.35-2.14,2.26-3.01-.18-4.99-4.04-3.28-8.86-4.78-13.79-5.87-2.97-.66-4.57-2.4-5.01-5.15-.53-3.31,.15-6.62,.73-9.88,.26-1.44,1.62-2.41,3.04-2.6,8.33-1.09,16.66-2.46,25.11-1.38Z"/>
      <path class="cls-13" d="M49.78,91.86c-.22,.39-.43,.79-.65,1.18-.17,.13-.35,.36-.52,.36-10.15-.03-20.31,.37-30.46-.2-1.46-1.04-1.25-2.6-1.26-4.09-.04-7.71-.07-15.41-.11-23.12-1.26-1.92-1.11-3.71,.51-5.35,5.79-.31,11.59-.04,17.38-.15,1.35-.02,2.22,.49,1.84,1.86-1.25,4.55-.45,9.19-.75,13.78-.19,2.91-1.02,5.7-1.55,8.55-.77,4.19,.33,5.52,4.6,5.6,2.79,.05,5.58,0,8.38,0,1.13,0,2.51-.27,2.58,1.55Z"/>
      <path class="cls-19" d="M581.73,60.85c-8.27-.88-16.18,1.51-24.23,2.71-1.09,.16-2.43,.6-2.51,1.72-.27,3.48-1.46,6.96-.24,10.48,.56,1.62,1.81,2.2,3.41,2.56,5.17,1.15,10.16,2.74,14.44,6.09,1.64,1.29,3.46,2.35,3.24,4.79-.2,2.24-2.26,2.3-3.74,3.04-.47,.24-.88,.6-1.32,.91-24.82,1.21-49.64-.6-74.46,.04-2.56,.07-5.12,0-7.68-.02,.85-1.85,2.55-1.3,3.96-1.3,17.96-.03,35.91-.01,53.87-.02,4.45,0,5.4-.91,4.83-5.33-.86-6.69-2.33-13.3-1.95-20.12,.13-2.31-1.4-3.5-3.69-3.6-1.82-.08-3.67,.03-5.47-.18-1.44-.16-2.75-.7-1.07-2.4,3.64,.42,7.55-1.16,10.89,1.54,.23,.19,.83,0,1.22-.12,9.99-2.93,20.14-1.13,30.23-.97,.09,0,.18,.11,.27,.17Z"/>
      <path class="cls-23" d="M482.22,89.27c-.01,1.32,.05,2.65-.65,3.85-1.97,.74-4.02,.3-6.03,.32-7.5,.06-15,.04-22.5,.01-1.05,0-2.15,.29-3.14-.32h.01c-.56-.66-.38-1.39-.1-2.09,1.39-3.49,.7-6.88-.52-10.23,0-5.27,0-10.55,0-15.82,0-1.4-.09-2.81,.62-4.1,6.29-.84,12.61-.21,18.91-.33,1.87-.04,1.9,1.43,1.08,2.43-1.82,2.24-1.69,4.79-1.65,7.36,.09,4.85-.23,9.62-1.53,14.35-1.1,4,.29,5.5,4.53,5.6,.54,.01,1.07,0,1.61,.01q6.15,.01,7.31-5.9c.19-1,.47-2.23,1.51-2.19,1.46,.05,.81,1.49,.8,2.3,0,1.58,.4,3.21-.28,4.75Z"/>
      <path class="cls-28" d="M49.78,91.86c-4.38,0-8.76,.05-13.14,.02-4-.03-4.36-.44-4.3-4.52,.01-.86-.06-1.77,.19-2.56,1.93-6.05,1.84-12.28,1.73-18.52-.01-.64-.19-1.4,.08-1.91,2.36-4.49-1.07-3.5-3.32-3.52-4.51-.03-9.03,0-13.54,.01-.16-.22-.17-.44,0-.66,9.42-.01,18.83-.01,28.25-.04,1.87,0,3.69-.01,4.71,1.97,1.63,1.72,1.63,3.44,.01,5.17,0,6.95,0,13.9,0,20.85,0,1.27,.18,2.59-.66,3.71Z"/>
      <path class="cls-29" d="M482.22,89.27v-5.76c-.2,0-.41,0-.61-.01,0,1.84-.05,3.68,.01,5.52,.07,2.08-.9,2.88-2.93,2.84-3.55-.07-7.09-.05-10.64-.01-2.15,.03-3.2-1.02-3.24-3.1-.03-1.29-.25-2.69,.16-3.84,2.07-5.83,1.77-11.86,1.7-17.86-.03-2.29,.18-4.34,2.88-5.3-.11-.29-.21-.58-.32-.87-6.44,0-12.88,0-19.32,0,.9-.77,1.99-.7,3.06-.7,8.58,0,17.16,.05,25.74-.03,2.38-.02,3.87,.96,3.91,3.23,.13,8.34,.53,16.69,0,25.03-.02,.29-.27,.57-.42,.86Z"/>
      <path class="cls-11" d="M443.4,92.49c.01-.75-.13-1.13-1.1-.96-4.14,.71-8.33,.18-12.49,.32-2.37,.08-3.12-1.12-3.21-3.36-.13-3.07,.99-5.9,1.42-8.86,.52-3.53,.5-7.04,.56-10.56,.04-2.52-.53-5.18,1.73-7.22,.62-.56-.05-1.15-.47-1.63,3.54-.01,7.08-.02,10.62-.04,2.14,0,3.59,.88,3.6,3.17,.04,9.12,.02,18.23-.02,27.35,0,.59-.41,1.19-.63,1.78Z"/>
      <path class="cls-20" d="M312.25,92.5c-.09-.62-.07-1.43-1.04-1.17-3.9,1.06-7.87,.38-11.81,.48-3.29,.08-4.21-.92-3.93-4.26,.2-2.33,.77-4.63,1.23-6.93,.85-4.24,.66-8.52,.62-12.79-.02-2.41-.1-4.74,2.43-6.15,.51-.28,.36-.95,.13-1.46,3.22,0,6.44-.04,9.65-.02,2.04,.02,3.28,1.04,3.29,3.14,.02,9.22,0,18.45-.04,27.67,0,.5-.36,.99-.54,1.49Z"/>
      <path class="cls-6" d="M318.04,85.39c.93,2.02,2.5,2.69,4.47,1.76,2.14-1.02,4.4-.72,6.6-1.05,22.56-3.36,45.25-1.56,67.89-2.01,1.39-.03,2.77-.26,4.16-.4,2.04-.21,4.7,1.72,4.61,3.52-.12,2.53-2.04,2.7-3.96,2.7-20.13,0-40.28,.41-60.39-.21-7.83-.24-15.59,.44-23.38,.22,0-1.51,0-3.02,0-4.53Z"/>
      <path class="cls-2" d="M181.09,91.83c-3.96,0-7.93,.03-11.89,.02-4.41-.01-5.66-1.53-4.78-5.98,1.32-6.73,3.04-13.38,2.03-20.37-.32-2.23,1.48-3.22,3.5-3.32,2.57-.12,5.15,0,7.73-.04,1.93-.04,2.7,.87,2.69,2.74-.04,3.44-.02,6.87,.02,10.31,.01,1.14-.25,2.44,1.22,3.03-.21,4.54,.7,9.12-.52,13.62Z"/>
      <path class="cls-10" d="M464.12,99c-.08,6.1-.13,12.2-.24,18.31-.08,4.71-1.92,9.2-1.75,13.97,.14,3.67-3.12,2.64-4.99,3.01-2.28,.45-2.24-1.66-2.02-3.08,1-6.59-1.88-12.78-1.72-19.36,.1-4.23-.09-8.57-.26-12.85,3.66,0,7.32,0,10.98,0Z"/>
      <path class="cls-7" d="M455.79,254.67c.07-1.82-.38-3.33-2.06-4.39-1.13-.71-1.77-1.97-1.78-3.29-.06-5.2,.73-10.3,2.81-15.06,1.15-2.63,4.11-1.98,6.32-2.15,1.81-.14,2.23,1.81,2.45,3.29,.5,3.38,.95,6.78,1.22,10.19,.16,2.09,.94,3.53,2.62,4.85,3.51,2.77,6.64,6.17,11.81,5.5-1.99,.93-4.19-.15-6,1.12,0,0-.31,.01-.31,.01h-.31c-5.59,.46-11.17,.57-16.76-.07Z"/>
      <path class="cls-36" d="M17.5,254.71c113.97,0,227.95,0,341.92,0,2.59,0,5.17,.02,7.76,.02-1.16,.76-2.48,.6-3.76,.6-113.95,0-227.9,0-341.84-.01-1.38,0-2.82,.29-4.07-.62Z"/>
      <path class="cls-10" d="M482.2,248.26c-4.09,.37-8.11-.56-12.17-.69-2.4-.08-3.97-1.42-3.89-3.81,.2-5.94-.79-11.7-1.85-17.52-.99-5.38,1.14-7.23,6.4-6.21,3.84,.75,7.7,.25,11.55,.43,0,9.26-.01,18.53-.02,27.79Z"/>
      <path class="cls-6" d="M246.29,98.32c-1.15,.81-2.47,.64-3.75,.64-49.21,0-98.42,0-147.64,0-1.28,0-2.6,.17-3.75-.64,1.72-1.17,3.45-.26,5.17,0,1.29-.8,2.59-.3,3.88,0,5.6-.68,11.2-1.16,16.8,0,1.29-.8,2.59-.3,3.88,0,7.13-.72,14.29-.16,21.43-.29,1.47-.03,2.99-.35,4.42,.29,8.4,0,16.81,0,25.21,0,5.39-.31,10.77-.87,16.16,0,9.7,0,19.39,0,29.09,0,4.09-.53,8.19-.53,12.28,0h16.81Z"/>
      <path class="cls-6" d="M56.26,93.15c40.33,.01,80.66,.03,120.99,.05,1.3,0,2.59-.04,3.75-.72-.34,1.61-1.37,1.85-2.87,1.76-10.04-.65-20.08-.8-30.13,.1-2.55,.23-5.14,.08-7.71,.11-3.01-.26-6.09,.56-9.03-.62-23.96,0-47.93-.01-71.89-.02-1.08,0-2.16,.04-3.1-.65Z"/>
      <path class="cls-6" d="M187.47,93.15c40.22,.02,80.44,.03,120.67,.05,1.4,0,2.8,0,4.1-.64-.42,1.24-1.33,1.41-2.52,1.39-4.56-.09-9.12-.09-13.67-.13-4.3,1.37-8.6,.69-12.91,0-29.23,0-58.45,.02-87.68-.08-2.65,0-5.52,1.91-8-.6Z"/>
      <path class="cls-14" d="M318.66,93.16c41.37-.02,82.74-.04,124.12-.05-1.44,1.07-3.11,.68-4.69,.68-36.61,.02-73.21,.05-109.82-.04-3.19,0-6.54,1.65-9.61-.59Z"/>
      <path class="cls-36" d="M368.42,254.74c27.16,0,54.33-.02,81.49-.03,.15,.08,.3,.17,.46,.25-.15,.09-.3,.18-.44,.27-26.34,.03-52.69,.07-79.03,.07-.83,0-1.65-.36-2.48-.56Z"/>
      <path class="cls-33" d="M69.18,98.95c-10.98,0-21.97,0-32.95-.01,2.99-2.91,6.61-2.21,10.02-1.39,3.22,.79,6.36,1.11,9.52,.23,4.91-1.37,9.8-.46,14.7-.11,.41,1.27-.99,.73-1.29,1.28Z"/>
      <path class="cls-6" d="M370.4,98.32c-.94,.68-2.02,.64-3.1,.64-11.94,0-23.88,0-35.82,0-1.08,0-2.16,.03-3.1-.64,14.01,0,28.01,0,42.02,0Z"/>
      <path class="cls-14" d="M449.29,80.81c2.91,3.42,3.28,6.84,1.2,10.53-.3,.54-.39,1.2-.58,1.8-1.41-4.05-.39-8.22-.62-12.33Z"/>
      <path class="cls-33" d="M50.45,67.29c0-1.72,0-3.45-.01-5.17,1.76,.21,3.76,2.46,5.13-.62,0,2.57,.01,5.14,.02,7.7-.53-3.79-2.92-2.61-5.13-1.92Z"/>
      <path class="cls-14" d="M449.9,93.13c10.56,0,21.11,0,31.67,0-.82,.65-1.79,.67-2.76,.67-8.71,0-17.43,0-26.14,0-.98,0-1.94-.03-2.76-.67Z"/>
      <path class="cls-6" d="M18.15,93.21c10.33-.05,20.65-.11,30.98-.16-.78,.71-1.74,.75-2.72,.75-8.6,0-17.19,0-25.79,0-.87,0-1.72-.08-2.47-.59Z"/>
      <path class="cls-6" d="M422.11,98.32c-10.34,1.07-20.69,1.07-31.03,0,10.34,0,20.69,0,31.03,0Z"/>
      <path class="cls-6" d="M186.18,71.82c.8,1.13,.63,2.43,.64,3.7,.02,3.61-.3,7.26,.72,10.76,.66,2.26-.55,4.14-.74,6.21-1.21-2.66-.5-5.47-.58-8.2-.13-4.15-.03-8.32-.03-12.47Z"/>
      <path class="cls-33" d="M117.01,98.31c-5.6,0-11.2,0-16.8,0,5.6-1.4,11.2-2.31,16.8,0Z"/>
      <path class="cls-33" d="M146.75,98.31c-8.62,0-17.24,0-25.85,0,1.04-.75,2.24-.64,3.42-.64,6.34,0,12.68,0,19.01,0,1.18,0,2.38-.11,3.42,.64Z"/>
      <path class="cls-33" d="M283.14,93.82c4.3,0,8.6,0,12.91,0-1.36,1.94-3.59,1.35-5.38,1.53-2.55,.24-5.16-.31-7.53-1.53Z"/>
      <path class="cls-33" d="M96.33,98.31c-1.72,0-3.45,0-5.17,0-3.45,0-6.89,0-10.34,0-1.06,.58-1.95,.47-2.59-.65,1.26-.87,2.65-.72,4.01-.43,2.96,.62,5.93,.65,8.88,.1,1.89-.35,3.57,.09,5.2,.98Z"/>
      <path class="cls-10" d="M449.92,255.24c0-.17,0-.34-.01-.52,1.96-.02,3.92-.03,5.88-.05,5.59,.02,11.17,.05,16.76,.07-2.67,1.15-5.48,.49-8.22,.54-4.8,.1-9.6-.02-14.4-.05Z"/>
      <path class="cls-33" d="M27.16,98.94c-3.01,0-6.02-.01-9.03-.02,2.8-3.39,5.96-1.48,9.04-.6,.44,.21,.44,.42-.01,.62Z"/>
      <path class="cls-6" d="M78.23,97.67c.86,.22,1.72,.43,2.59,.65-2.72,1.25-5.61,.38-8.4,.65-1.08,0-2.15,0-3.23-.01,.43-.43,.86-.86,1.29-1.28,2.59,0,5.17,0,7.76,0Z"/>
      <path class="cls-33" d="M188.11,98.31c-5.39,0-10.77,0-16.16,0,2.23-1.2,4.64-.48,6.97-.62,1.92-.12,3.86,.09,5.76-.44,1.33-.37,2.57-.22,3.43,1.06Z"/>
      <path class="cls-33" d="M131.25,93.82c3.01,.25,6.1-.67,9.03,.62-3.08,.83-6.15,1.4-9.03-.62Z"/>
      <path class="cls-33" d="M17.48,60.2c0,.22,0,.44,0,.66-.92,1.62-.49,3.43-.7,5.14-2.21-.52-1.75-2.08-1.33-3.55,.3-1.05-.22-2.93,2.03-2.25Z"/>
      <path class="cls-33" d="M229.48,98.31c-4.09,0-8.19,0-12.28,0,4.09-1.02,8.19-1.02,12.28,0Z"/>
      <path class="cls-6" d="M318.04,98.32c-3.23,.46-6.46,1.36-9.7,0,3.23,.47,6.46-.85,9.7,0Z"/>
      <path class="cls-6" d="M277.32,98.32c-3.45,1.02-6.9,1.02-10.34,0,3.45,0,6.9,0,10.34,0Z"/>
      <path class="cls-6" d="M27.16,98.94c0-.21,0-.41,.01-.62,2.8,.27,5.68-.63,8.4,.63-2.8,0-5.61,0-8.41-.01Z"/>
      <path class="cls-6" d="M53.02,220.46c-1.09,0-2.15,.08-3.05,.82-.41,.34-1.07,.85-1.43,.46-2.12-2.33-5.26-1.58-7.75-2.7-3.8-1.71-5.39-7.3-2.63-9.97,1.11-1.07,.77-1.87-.34-2.58-1.68-1.07-3.4-1.8-5.47-1.05-2.26,.82-3.29-.27-3.2-2.49,.11-2.95-.09-5.73-2.08-8.21-.58-.72-.51-2.06-.51-3.12-.03-13.89-.02-27.79-.02-41.68,0-1.19-.21-2.57,.59-3.44,2.5-2.72,2.06-6,1.97-9.18-.23-8.52,1.36-16.85,2.17-25.26,.56-5.84,2.73-6.77,7.62-8.24,6.13-1.85,12.15-.81,18.16-1.34,7.02-.63,14.16-.91,21.26-.91,47.18,0,94.37,0,141.55,0,72.36,0,144.72,0,217.07,0,.97,0,1.94-.03,2.91,.02,4.07,.2,5.23,1.46,5.55,5.53,1.19,14.92,1.05,29.87,1.45,44.81,.24,9.14,.63,18.28,.42,27.42-.31,13.53-1.37,27.03-2.62,40.5-.49,5.26-3.5,7.29-8.59,6.64-2.65-.34-5.38-.14-8.07-.17-2.77-.03-5.36,.07-7.9-1.91-1.89-1.47-4.72-1.21-6.99,.32-3.32,2.25-9.59,2.18-12.99,0-2.57-1.63-5.36-1.69-7.82,.17-1.41,1.06-2.81,1.41-4.48,1.41-77.13-.01-154.26-.01-231.39,0-1.41,0-2.71-.14-3.95-1.06-2.93-2.19-5.91-2.21-8.8,0-1.45,1.1-2.99,1.07-4.59,1.07-14.33,0-28.65,.01-42.98,0-1.95,0-3.86,.11-5.72,.79-1.77,.65-3.58,.55-5.42,.26-3.29-.51-6.57-1.31-9.93-1.02-2.69,.23-4.61-.55-5.54-3.25-.28-.8-.77-1.68-1.79-1.64-1.08,.05-.81,1.05-.97,1.74-.06,.3-.21,.66-.44,.82-2.22,1.54-4.96,1.12-7.42,1.8-1.37,.38-2.37-1.47-3.43-2.99,2.33-.43,4.44-.44,4.84-3.55,.19-1.47,2.58-2.22,4.69-1.6,4.74,1.37,9.42,.28,14.09-.64,.63-.12,1.28-.42,1.88-.35,2.72,.31,4.41-1.29,4.45-3.54,.05-2.68-2.8-1.3-4.34-2.33,1.04,3.6,.03,5.03-3.6,5.06-3.92,.03-7.79,.98-11.76,.18-2.35-.48-4.71,.01-6.6,1.83-1.68,1.62-4.54,.61-6.07,2.63h0Z"/>
      <path class="cls-22" d="M446.02,226.28c-.62,6.45-3.4,9.03-9.77,9.04-10.02,.01-20.03,.02-30.05,0-1.77,0-3.42,.13-4.74,1.53-1.07,1.13-2.52,1.06-3.93,1.06-45.67,0-91.34,0-137.01,0-7.02-2.63-14.34-1.9-21.59-1.93-10.12-.03-20.43-1.24-30.32,.25-23.37,3.51-46.76,.56-70.1,1.67-2.57,.12-4.85-.24-7.27-1.8-2.45-1.57-5.78-1.52-8.53,.37-2.88,1.98-8.52,2.14-11.17,.11-1.2-.92-2.44-1.26-3.88-1.25-15.82,.1-31.68,.76-47.45-.09-4.73-.25-10.25-1.35-14.63-3.33-3.41-1.55-7.01-.41-9.98-2.4-.35-.44-.35-.87,.01-1.3,3.67-.85,7.09-.99,10.21,1.89,1.62,1.5,3.89,.3,3.94-2.24,.05-3.08,1.55-5.23,3.29-7.4,0,0,0,0,0,0,.7,.22,.9,.74,.36,1.18-2.82,2.28-1.94,4.24,.42,6.14,.41,.33,.77,.72,1.16,1.09,1.32,1.1,3.16,.96,4.53,1.94,2.42,1.64,5.1,1.94,7.98,2,6.09,.12,12.13,.04,18.28,.92,6.71,.97,13.69-.6,20.59-.37,2.39,.08,4.68,.21,6.92,1.21,2.47,1.11,5.05,1.03,7.55,.02,4.4-1.79,8.78-1.76,13.17,.03,1.42,.58,2.91,.72,4.43,.72,20.03-.01,40.09,.55,60.1-.17,18.19-.65,36.37-.1,54.55-.44,3.53-.07,7.07,.57,10.61,.58,43.48,.04,86.96,.03,130.44,.03,2.7,0,5.37,.07,7.81-1.45,1.13-.7,2.51-.49,3.8-.49,9.48,0,18.97-.3,28.43,.11,5.9,.25,10.13-1.16,11.88-7.22Z"/>
      <path class="cls-15" d="M35.59,228.22c0,.43,0,.86-.01,1.3-.54,.53-.62,2.47-1.95,.65,1.05-1.63,.51-4.06,2.59-5.17-.21,1.08-.42,2.15-.63,3.23Z"/>
      <path class="cls-15" d="M59.49,230.81c-1.82,.09-3.54-.07-4.53-1.94,1.72,.16,3.58-.03,4.53,1.94Z"/>
      <path class="cls-10" d="M475.75,162.95c-3.76,1.82-5.56,4.54-5.26,8.98,.46,6.72,.86,13.51,.3,20.19-.29,3.4,.27,7.48-3.91,10.21-2.08,1.36-4.25,4.38-4.12,7.86,.14,3.67-3.05,4.48-5.53,5.41-2.11,.79-2.75,1.85-2.86,3.97-.26,4.97-1.94,9.69-2.85,14.54-.98,5.23-2.81,10.43-.7,15.83,.52,1.34-.59,1.78-1.67,2.24-5.09,2.16-10.42,1.11-15.64,1.16-4.15,.04-8.31-.51-12.47-.53-15.94-.07-31.88-.02-47.82-.04-1.85,0-3.65,.13-5.43,.66,.99-1.93,2.81-1.26,4.32-1.26,23.57-.04,47.14-.04,70.71,0,3.01,0,4.31-.1,5.08-4.26,1.51-8.22,2.84-16.48,4.14-24.72,1.18-7.51,2.08-15.09,2.41-22.72,.18-4.13,2.64-7.9,2.17-12.2-.05-.48,.55-1.26,1.05-1.53,3.75-2.05,4-5.45,3.9-9.18-.15-5.45-.04-10.92-.04-17.29,4.6,4.74,9.61,2.17,14.22,2.68Z"/>
      <path class="cls-10" d="M462.05,147.56v5.05c-.11,0-.22,0-.32,0v-5.15c.11,.03,.22,.07,.32,.1Z"/>
      <path class="cls-18" d="M481.57,234.8c0,2.69,0,5.38-.01,8.07,0,.75,.16,1.71-.22,2.21-2.62,3.36-6.36,1.39-9.6,1.84-1.93,.27-2.97-.76-3.18-2.75-.57-5.44-1.39-10.86-1.78-16.31-.27-3.78,1.45-5.38,5.08-5.45q9.73-.19,9.72,9.49c0,.97,0,1.94,0,2.91Z"/>
    </g>
  </g>
</svg>