<?xml version="1.0" encoding="UTF-8"?>
<svg id="Layer_1" data-name="Layer 1" xmlns="http://www.w3.org/2000/svg" viewBox="0 0 55.27 279.75">
  <defs>
    <style>
      .cls-1 {
        fill: #070606;
      }

      .cls-2 {
        fill: #868686;
      }

      .cls-3 {
        fill: #fdfdfd;
      }

      .cls-4 {
        fill: #eef1f1;
      }
    </style>
  </defs>
  <path class="cls-1" d="M52.25,218.43c-.44-1.7-.88-3.44-1.48-5.11-.57-1.57-1.24-1.36-1.94-.06-.16,.3-.42,.5-.85,.45-1.44-2.61-2.28-5.5-3.26-8.32-.29-.84-.5-1.66-1.16-2.36-2.8-2.96-2.64-4.26,.69-6.27,2.69-1.64,2.99-4.14,.71-6.35-.64-.62-1.41-1.09-2.11-1.64-.51-.4-1.24-.69-1.13-1.5,.47-3.56,.15-7.14,.28-10.7,.03-.72,.38-1.43,.11-2.22-.58-1.69-.83-3.31-.32-5.17,.49-1.81-.17-2.21-2.3-2.6-1.43-.26-2.85-.42-4.3-.43-2.5-.03-3.97-1.37-4.31-3.92-.26-1.99-.41-4-.63-5.99-.06-.55-.29-1.14,.13-1.6,1.54-1.67,1.27-3.73,1.26-5.71-.06-9.27,.87-18.51,.62-27.78-.02-.84-.29-1.89,.86-2.28,1.67-.57,1.67-1.94,1.58-3.29-.14-2.11-.32-4.23-.57-6.33-.76-6.42-2.24-12.78-2.38-19.25-.23-10.27,0-20.53,.35-30.8,.65-19.55,1.15-39.63-.12-59.16-.26,.03-.67,0-.93,0h-5.6c.46,2.4,1.25,4.99,.67,7.48,.29,13.15,.58,26.31,.87,39.46,.39,1.77,.2,3.51-.19,6.04-.6-2.53-1.33-4.25-.99-6.18-.24-1.99-.42-4-.73-5.98-.94-6-.65-11.99-.22-18.02,.36-5.11,.27-10.26,.37-15.39-.28-2.42,.05-4.99,.21-7.42-.72-.06-2.27,0-2.8,0-3.21-.05-5.6,0-8.73,0-.04,.58,.11,1.19,.31,1.8,.1,.32,.11,.67,.23,.98,2.75,7.62,4.07,15.45,4.27,23.57,.23,9.7,.86,19.35-.13,29.07-1.08,10.54-2,21.1-2.34,31.71-.35,11.05-.3,22.1-.26,33.15,0,.78,.06,1.56,.05,2.34,0,.53,.15,1.23-.57,1.39-2.21,.48-1.99,1.65-.98,3.12,.75,1.09,.56,2.37,.58,3.58,.11,6.26,.58,12.49,1.33,18.69,.59,4.86,1.54,9.68,3.99,14.05,2.71,.16,2.94,0,3.28-2.33,.06-.43-.15-1.08,.08-1.28,2.61-2.31,1.2-5.19,1.03-7.79-.18-2.65-.45-5.28-.21-7.93-.35-1.16-.38-2.31,.15-3.52,.56,1.21,.46,2.36,.2,3.52,.72,6.58,1.43,13.16,2.16,19.88-2.79,.21-5.4,.41-8,.61-1.3,.29-2.6,.62-3.91,.87-.82,.16-1.77,.48-1.85,1.22-.26,2.34-2.01,3.61-3.3,5.25-1.83,2.32-2,4.2-.13,6.29,1.19,1.34,.72,2-.12,3-1.79,2.14-2.08,4.35-.23,6.66,1.05,1.31,.92,2.68-.13,3.95-1.65,2.01-1.47,4.29-.41,6.29,1.43,2.7,1.77,4.88,.12,7.82-.93,1.66-2.96,1.84-3.24,3.19-.28,1.37,1.39,2.76,.48,4.57-.96,1.89-.96,4.1-1.32,6.19-.32,1.86-.62,3.72-1.06,5.56-.22,.93-.51,2.07-1.99,1.17-.79-.48-1.59-.23-1.89,.68-.27,.84,.04,1.68,.98,1.77,2.43,.25,2.13,2.04,1.82,3.47-1.32,6.16-.03,12.46-1.12,18.64-.72,4.05,.83,7.95,1.75,11.82,1.66,6.96,5.28,12.27,12.59,14.74,6,2.02,11.72,2.8,17.91,.78,5.5-1.79,10.28-4.36,13.61-9.12,2.77-3.96,4.6-8.43,5.66-13.12,1.62-7.2,2.03-14.53,1.97-21.91-.04-5.53-1.65-10.75-3.02-16ZM21.85,98.06c-.73,6.94,.05,13.92-1.24,20.77-.02,.11-.37,.16-.93,.39,.07-14.37-.29-28.59,.8-42.8-.03-.55-.1-1.09-.08-1.64,.02-.43,.16-.85,.27-1.42,.62,1.06,.7,2.01,.36,3,.35,7.24,1.57,14.57,.82,21.7Zm-5.65,75.7c.14-1.03,.88-1.32,1.6-1.39,2.31-.22,4.54-1.16,6.71-.77,3.21-.16,6.13,.89,9.14,.69,.41-.03,.85,.23,1.26,.39,1.11,.41,2.52,.53,2.34,2.26-.12,1.16-1.73,2.18-3.42,1.86-1.64-.31-3.29-.45-4.93-.71-3.43-.53-6.83-.69-10.28-.22-1.89,.26-2.64-.56-2.43-2.12Zm-.32,8.21c.19-.62,1-.51,1.39-.09,3.35,3.6,7.72,2.77,11.89,2.84,.63,.01,1.31-.19,2.19,.65-4.39,1-8.43,2.42-12.8,2.18-.99-.05-2.24,.02-2.64-1-.58-1.45-.48-3.08-.03-4.57Zm6.86,10.93c3.53,.18,7.02-.91,10.59-.72,1.15,.06,2.56-.55,3.12,1.02,.47,1.31-.35,2.48-2.42,2.91-3.84,.8-7.43,2.62-11.6,2.21-2.54-.25-4.65-1.11-7.22-2.12,2.38-2.44,4.61-3.44,7.53-3.3Zm10.71,28.5c.13,.3,.29,.63,.29,.95,0,4.11,.46,8.25-.61,12.3-.15,.56-.44,1.02-.93,1.07,0-2.5,.03-5.01-.01-7.52-.02-1.51,.36-3.4-1.78-3.76-2.06-.34-2.41,1.59-3.15,2.89-.25,.44-.45,.88-.62,1.32-.35-.79-.86-1.46-1.47-1.85-1.2-.75-2.2-.18-2.85,.84-1.86,2.93-2.91,6.01-1.28,9.44,.42,.89,1.07,1.76,.49,2.82-.37,.69-.73,1.44-1.68,1.41-1.07-.02-1.22-.97-1.27-1.67-.18-2.44-.06-4.88,.08-7.33,.25-4.17,.92-8.26,.75-12.55-.2-4.81,.05-9.76,.35-14.64,.05-.86,.39-1.5,1.41-1.48,2.8,.03,5.45-.93,8.3-1.32,.08,.51,.22,.94,.19,1.35-.52,6.29,1.32,12.08,3.78,17.73Zm-6.82,12.03c.1,.26,.22,.52,.36,.78,.72,1.36,.51,1.47-.4,3.26-.27-1.35-.44-2.67,.04-4.05Zm24.95,6.36c-.64,7.77-1.02,15.52-4.34,22.81-2.75,6.04-7.01,9.93-13.37,12.15-7.02,2.45-13.37,1.09-19.69-1.85-2.65-1.23-4.36-3.55-5.41-6.16-2.47-6.15-4.08-12.47-2.77-19.2,.62-3.21-.18-6.44,.11-9.68,.42-4.64,.68-9.29,1.9-13.82,.46-1.72,.95-3.43,1.11-5.23,.06-.64,.23-1.51,.67-1.83,1.67-1.19,1.74-3,2.05-4.7,.37-2.02-.45-4.25,1.73-5.9,.9-.68,.21-2.34,.32-3.82,4.09,.79,4.41,1.27,2.98,4.92-.33,.84-.8,1.66-.74,2.53,.29,4.22-.93,8.36-.25,12.66,.42,2.66-.37,5.52-.7,8.27-.4,3.23-.56,6.47-.12,9.68,.51,3.73,3.17,5.3,6.43,4.29,1.74-.54,2.17-2.72,3.8-2.99,1.57-.26,3.13-.29,4.22-1.58,.58-.68,1.11-.75,1.99-.71,2.59,.13,4.17-.97,4.97-3.51,.53-1.69,.88-3.48,.99-5.24,.37-6.06-.07-12.04-2.25-17.78-1.37-3.61-1.12-7.46-1.81-11.17-.36-1.95,1.52-1.81,2.58-2.38,.93,.56,.88,1.54,1.24,2.33,.23,.5,.45,1.3,.83,1.4,2.78,.74,2.71,3.14,3.19,5.23,.76,3.29,2.3,6.24,4.04,9.1,.51,.85,1.04,2.04,2.07,2.02,1.99-.03,2.11,1.46,2.29,2.63,.89,5.81,2.42,11.53,1.93,17.52Z"/>
  <path class="cls-4" d="M24.9,144.14c.72,6.58,1.43,13.16,2.16,19.88-2.79,.21-5.4,.41-8,.61,.44-.39,.87-.78,1.31-1.16,2.71,.16,2.94,0,3.28-2.33,.06-.43-.15-1.08,.08-1.28,2.61-2.31,1.2-5.19,1.03-7.79-.18-2.65-.45-5.28-.21-7.93l.17,.1,.18-.1Z"/>
  <path class="cls-3" d="M13.89,202.58c4.09,.79,4.41,1.27,2.98,4.92-.33,.84-.8,1.66-.74,2.53,.29,4.22-.93,8.36-.25,12.66,.42,2.66-.37,5.52-.7,8.27-.4,3.23-.56,6.47-.12,9.68,.51,3.73,3.17,5.3,6.43,4.29,1.74-.54,2.17-2.72,3.8-2.99,1.57-.26,3.13-.29,4.22-1.58,.58-.68,1.11-.75,1.99-.71,2.59,.13,4.17-.97,4.97-3.51,.53-1.69,.88-3.48,.99-5.24,.37-6.06-.07-12.04-2.25-17.78-1.37-3.61-1.12-7.46-1.81-11.17-.36-1.95,1.52-1.81,2.58-2.38,.93,.56,.88,1.54,1.24,2.33,.23,.5,.45,1.3,.83,1.4,2.78,.74,2.71,3.14,3.19,5.23,.76,3.29,2.3,6.24,4.04,9.1,.51,.85,1.04,2.04,2.07,2.02,1.99-.03,2.11,1.46,2.29,2.63,.89,5.81,2.42,11.53,1.93,17.52-.64,7.77-1.02,15.52-4.34,22.81-2.75,6.04-7.01,9.93-13.37,12.15-7.02,2.45-13.37,1.09-19.69-1.85-2.65-1.23-4.36-3.55-5.41-6.16-2.47-6.15-4.08-12.47-2.77-19.2,.62-3.21-.18-6.44,.11-9.68,.42-4.64,.68-9.29,1.9-13.82,.46-1.72,.95-3.43,1.11-5.23,.06-.64,.23-1.51,.67-1.83,1.67-1.19,1.74-3,2.05-4.7,.37-2.02-.45-4.25,1.73-5.9,.9-.68,.21-2.34,.32-3.82Z"/>
  <path class="cls-4" d="M32.2,235.72c0-2.5,.03-5.01-.01-7.52-.02-1.51,.36-3.4-1.78-3.76-2.06-.34-2.41,1.59-3.15,2.89-1.27,2.24-1.56,4.46-.26,6.88,.72,1.36,.51,1.47-.4,3.26-.31-1.52-.48-2.99,.24-4.54,.9-1.94,0-5.09-1.67-6.14-1.2-.75-2.2-.18-2.85,.84-1.86,2.93-2.91,6.01-1.28,9.44,.42,.89,1.07,1.76,.49,2.82-.37,.69-.73,1.44-1.68,1.41-1.07-.02-1.22-.97-1.27-1.67-.18-2.44-.06-4.88,.08-7.33,.25-4.17,.92-8.26,.75-12.55-.2-4.81,.05-9.76,.35-14.64,.05-.86,.39-1.5,1.41-1.48,2.8,.03,5.45-.93,8.3-1.32,.08,.51,.22,.94,.19,1.35-.52,6.29,1.32,12.08,3.78,17.73,.13,.3,.29,.63,.29,.95,0,4.11,.46,8.25-.61,12.3-.15,.56-.44,1.02-.93,1.07Z"/>
  <path class="cls-4" d="M15.21,196.2c2.38-2.44,4.61-3.44,7.53-3.3,3.53,.18,7.02-.91,10.59-.72,1.15,.06,2.56-.55,3.12,1.02,.47,1.31-.35,2.48-2.42,2.91-3.84,.8-7.43,2.62-11.6,2.21-2.54-.25-4.65-1.11-7.22-2.12Z"/>
  <path class="cls-4" d="M24.5,171.6c3.21-.16,6.13,.89,9.14,.69,.41-.03,.85,.23,1.26,.39,1.11,.41,2.52,.53,2.34,2.26-.12,1.16-1.73,2.18-3.42,1.86-1.64-.31-3.29-.45-4.93-.71-3.43-.53-6.83-.69-10.28-.22-1.89,.26-2.64-.56-2.43-2.12,.14-1.03,.88-1.32,1.6-1.39,2.31-.22,4.54-1.16,6.71-.77Z"/>
  <path class="cls-4" d="M31.34,185.36c-4.39,1-8.43,2.42-12.8,2.18-.99-.05-2.24,.02-2.64-1-.58-1.45-.48-3.08-.03-4.57,.19-.62,1-.51,1.39-.09,3.35,3.6,7.72,2.77,11.89,2.84,.63,.01,1.31-.19,2.19,.65Z"/>
  <path class="cls-2" d="M24.9,144.14l-.18,.1-.17-.1c-.35-1.16-.38-2.31,.15-3.52,.56,1.21,.46,2.36,.2,3.52Z"/>
</svg>