<?xml version="1.0" encoding="UTF-8"?>
<svg id="Layer_1" data-name="Layer 1" xmlns="http://www.w3.org/2000/svg" viewBox="0 0 281.35 247.25">
  <defs>
    <style>
      .cls-1 {
        fill: #fff;
      }

      .cls-2 {
        fill: #070606;
      }

      .cls-3 {
        fill: #868686;
      }

      .cls-4 {
        fill: #454545;
      }

      .cls-5 {
        fill: #eef1f1;
      }
    </style>
  </defs>
  <path class="cls-3" d="M197.42,17.83c.33,2.57-.4,4.99-1.97,8.14,3.31-1.79,5.54-3.29,8.15-4.06,2.2-.65,4.34-.92,6.02,.79,1.15,1.17,1.96,.7,2.95,.1,2.34-1.42,4.83-2.55,7.51-3.08,4.46-.88,6.65,1.3,5.74,5.72-.81,3.92-3.19,7.01-5.93,9.77-1.28,1.29-1.77,2.11-.36,3.79,1.4,1.66,.78,3.93-.07,5.72-2.01,4.27-4.43,8.3-8.49,11.03-1.98,.19-3.1-1.14-4.32-2.37-2.27-2.3-2.4-2.35-4.06,.35-.8,1.3-2.05,1.62-3.18,1.94-3.75,1.05-6.78,3.14-9.14,6.11-2.97,3.74-6.62,6.72-10.28,9.7-1.13,.92-2.25,1.92-2.44,3.41-.17,1.31-.28,2.44-1.63,3.17-.66,.36-.71,1.2-.27,1.9,.42,.69,1.09,.88,1.85,.8,1.62-.19,2.9-1.16,4.27-1.94,.69,3.01-1.45,4.27-3.47,5.61-1.55-1.04-3.04-2.17-4.64-3.1-10.35-6.03-21.35-8.95-33.35-6.57-3.5,.69-6.97,1.64-10.4,2.64-1.77,.52-2.93,.27-3.98-1.34-3.2-4.92-6.63-9.7-9.75-14.67-1.81-2.88-4.93-4.34-6.92-6.98-.42-.56-1.34-.74-2-.44-1.78,.8-2.98,.26-3.92-1.33-.65-1.11-1.4-2.51-2.92-1.3-1.42,1.13-.37,2.28,.43,3.32,.26,.33,.46,.71,.69,1.07l.05-.05c-1.45-.1-2.78,.13-4.15,.8-5.42,2.67-10.51,5.86-15.42,9.37-1.3,.93-2.53,1.9-3.54,3.12-1.75,2.12-1.57,3.74,.92,4.7,2.65,1.03,4.18,3.1,5.4,5.27,2.08,3.69,4.64,6.85,7.81,9.64,2.26,1.98,4.17,4.36,6.38,6.4,1.29,1.18,1.2,2.04,.08,3.18-2.99,3.04-4.58,6.93-6.31,10.7-2.73,5.93-3.43,12.28-2.04,18.53,1.42,6.41,3.03,12.85,5.54,18.96,.83,2.03,.7,3.22-1.46,3.92-.68,.22-1.32,.61-2.02,.73-8.03,1.31-11.85,8.09-17,13.12-.48,.46-.91,1.3-.86,1.91,.23,2.58-1.61,4.2-2.61,6.21-.28,.41-.57,.82-.85,1.23-.46-.33-.91-.68-1.39-.98-1.06-.64-2.18-1.01-2.87,.4-.55,1.11,.16,1.87,1.12,2.4,.25,.14,.49,.29,.76,.38,3.22,1.05,5.19,3.25,6.18,6.46,.23,.75,.52,1.79,1.59,1.71,3.07-.23,4.79,1.91,6.75,3.68-2.02,.25-4.09,.35-5.92-.61-1.52-.8-2.47-.58-3.73,.54-2.37,2.12-5.08,4.16-8.38,3.92-3-.22-4.31,1.32-5.74,3.41-2.78,4.05-5.97,7.77-10.4,10.12-2.81,1.49-6.11,3.12-8.95,1.15-3.17-2.2-2.16-5.97-1.45-9.18,1.1-4.94,3.09-9.63,5.72-13.88,3.14-5.1,2.33-10.71,3.61-16.42-1.66,.43-2.73,.76-3.83,.99-4.44,.95-7-1.24-6.67-5.77,.15-2.15,.66-4.25,1.44-6.27,1.8-4.7,3.92-9.25,6.44-13.61,1.18-2.05,2.34-4.11,3.51-6.17-1.8,.65-3.14,1.69-4.59,2.55-2.86,1.68-5.78,3.17-9.27,3.09-2.31-.05-4.19-.68-5.29-2.86-.74-3.93-.26-7.65,1.38-11.34,1.89-4.23,4.51-7.99,7-11.85,.57-.88,1.81-1.57,1.26-2.95-4.14-1.08-4.82-2.07-4.56-6.25,.12-1.92,.86-3.61,1.6-5.33,2.85-6.65,7.07-12.49,11.02-18.48,.58-.88,1.48-1.62,1.78-3.4-6.49,4.73-11.71,10.43-19.62,11.31,0-5.37-.09-10.75,.75-16.08,2.29-3.03,4.59-6.07,7.36-9.74-3.27,.73-4.63,3.24-7.1,3.51-.58-1.37-.31-2.83-.39-4.25-.21-4-.16-8.04-.65-12-.41-3.36-1.43-6.64-2.18-9.96-3.49-1.11-2.8-4.07-2.95-6.66,2.12-1.43,4.24-2.86,6.35-4.28,6.96-1.71,14.06-2.65,21.11-3.84,1.12-.19,2.27-.44,3.35,.21,.97,1.99-.79,3.82-.36,6.27,3.47-2.36,6.7-4.57,9.93-6.77,6.28-.48,12.54-1.32,18.85-1.23,.15,5.3-3.04,9.22-5.62,13.46,3.01-1.72,5.79-3.65,8.67-5.42,4.99-3.06,9.91-6.3,15.55-8.12,4.37-1.41,6.14-.69,8.41,3.35,4.01-2.72,8-5.43,11.99-8.14,5.69-.78,11.39-1.35,17.14-1.14,.5,5.43-3.37,9.08-5.46,13.58,1.75-1.01,3.22-2.24,4.66-3.52,2.71-2.4,5.66-4.41,9.08-5.64,2.05-.74,4.05-1.23,6.27-.35,2.05,.82,1.77,2.96,2.84,4.88,4.18-4.29,9.29-6.81,12.89-11.18,9.01-.76,17.97,.21,26.95,.69Z"/>
  <path class="cls-2" d="M197.42,17.83c-8.98-.48-17.94-1.45-26.95-.69-5.28,.31-10.59,.41-15.84,.99-4.81,.53-9.7-.04-14.44,1.25-5.75-.2-11.46,.37-17.14,1.14-1-.03-2-.17-2.99-.08-5.83,.53-11.67,1.07-17.45,2.05-6.18,1.04-12.37,1.94-18.56,2.91-6.32-.09-12.57,.75-18.85,1.23-3.2-.11-6.43-.65-9.56,.5-1.08-.65-2.23-.4-3.35-.21-7.05,1.19-14.15,2.13-21.11,3.84-1.81,.02-3.63,.05-5.44,.04-1.27,0-1.81,.57-1.55,1.82,.17,.82,.42,1.62,.63,2.43,.15,2.59-.53,5.55,2.95,6.66,.75,3.32,1.77,6.6,2.18,9.96,.49,3.97,.44,8,.65,12,.07,1.42-.19,2.87,.39,4.25-.64,2.05-.73,4.13-.27,6.23-.85,5.33-.75,10.71-.75,16.08-.47,5.27-1,10.54-1.39,15.82-.79,10.84-2.14,21.68-.11,32.53,0,.86-.06,1.72,.03,2.57,.99,9.56,2.28,19.1,2.81,28.7,.48,8.6,1.17,17.19,.59,25.82-.14,2.02-.08,4.46-1.78,5.56-2.42,1.56-2.1,3.5-1.69,5.57,.71,3.63,.64,7.38,1.82,11.11,6.01-.72,11.95-1.48,17.9-2.15,8.71-.98,17.4-1.7,26.2-.69,10.55,1.2,21.14,2.07,31.73,2.98,9.87,.85,19.74,1.76,29.63,2.28,7.88,.42,15.74,1.37,23.65,.96l10.52,.86c15.2,1.09,30.4,1.96,45.59,3.26,13.45,1.15,26.91,2.48,40.46,2.11,2.11-.06,3.07-.33,2.9-2.77-.46-6.88-.67-13.78-.97-20.67-.06-3.76-.11-7.51-.17-11.27,.88-28.44,2.39-56.86,2.71-85.32,.17-14.81-1.26-29.57-1.29-44.37-.02-10.08-1.71-20.03-2.33-30.06-.14-2.28-.53-4.56-.95-6.81-.32-1.75,.05-3.43,.18-5.14,.1-1.28,.73-2.15,2.05-2.42,1.33-.27,2.26,.37,2.85,1.45,1.67,3.07,2.35,6.44,2.94,9.85,1.43,8.24,1.38,16.59,1.93,24.9,1.27,18.96,1.31,37.91,.6,56.88-.14,3.71-.5,7.48,.83,11.11,.23,.64,.44,1.66,.11,2.07-1.95,2.45-1.08,5.26-1.12,7.9-.25,16.67-.4,33.34-.58,50.01-.06,5.46,.59,11.05-.14,16.35-1.17,8.48,.59,16.81-.02,25.2-.25,3.45-.02,3.47,3.54,4.12,.85,.16,1.69,.36,2.54,.51,1.47,.26,2.39,1.1,2.26,2.62-.13,1.59-1.39,2.08-2.77,2.15-1.29,.07-2.58,.02-3.87-.03-1.3-.05-1.8,.57-1.74,1.82,.07,1.44,.1,2.87,.12,4.31,.02,1.15,.1,2.31-.03,3.44-.29,2.58-1.52,4.09-3.19,3.86-2.2-.3-2.51-2.04-2.6-3.85-.12-2.58-.29-5.17-.33-7.75-.03-1.77-.66-2.71-2.57-2.48-.85,.1-1.72,.07-2.58,.11-12.35,.58-24.69,1.2-37.04,1.73-5.6,.24-11.2,.25-16.8-.4-2.84-.33-5.74-.34-8.61-.27-15.38,.35-30.74,1.02-46.08,2.26-5.87,.48-11.77,.59-17.66,.86-21.25,.98-42.5,2.09-63.76,2.87-15.52,.57-31.05,.72-46.55-.56-1.77-.15-3.46,.12-5.04,.84-1.24,.56-2.37,.64-2.78-.82-.42-1.46,.78-1.88,1.94-2.29,1.38-.49,2.81-.56,4.24-.7,6.3-.61,12.63-.84,18.95-.8,28.34,.16,56.61-1.52,84.89-3.08,7.75-.43,15.51-.73,23.26-1.09,2.58,.29,5.13,.27,7.62-.61-2.54-.38-5.07-.84-7.64-.38-12.78-.97-25.58-.71-38.37-.87-6.75-.08-13.5-.66-20.25-.72-15.39-.13-30.75,.6-46.12,1.41-6.88,.36-13.79,.16-20.66,.99-3.55,.43-7.08,1.37-10.71,.86-.57-.08-1.15-.02-1.72-.07-3.25-.28-5.1-1.51-5.25-3.48-.14-1.82,1.21-3.1,4.43-3.84,7.14-1.63,13.76-4.88,20.98-6.2-1.1-6.91-2.05-13.41-2.63-19.96-.47-5.28-2.01-10.39-2.49-15.71-.91-10.08,.3-20.11,.06-30.16-.36-15.52-.68-31.04-1.04-46.56-.17-7.18-.29-14.37-.62-21.55-.58-12.76-1.3-25.51-1.95-38.26-.08-1.58-.09-3.16-.03-4.74,.04-1.17,.28-2.52,1.6-2.77,2.24-.43,2.22-1.8,1.82-3.46-.49-2.03,.59-4.62-2.41-5.77-.93-.35-.1-1.53,.3-2.24,.64-1.12,1.94-1.89,2.89-1.26,5.25,3.47,9.77-.15,14.62-1.65-1.58-.14-3.16-.33-4.75-.4-1.58-.07-3.16,0-4.74-.03-1.58-.02-3.16,.02-4.73-.12-1.23-.11-2.26-.8-2.34-2.12-.09-1.52,.88-2.4,2.34-2.57,1.85-.22,3.72-.32,5.59-.45,10.05-.75,19.86-3.12,29.83-4.37,22.68-2.85,45.35-5.77,68.27-5.59,2.88,.02,5.79-.2,8.62,.21,10.3,1.5,20.31-.36,30.33-2.29C184.34,3.13,204.87,.93,225.62,.39c10.21-.26,20.39-.8,30.58,.14,7.43,.69,14.92,.91,22.27,2.39,1.92,.39,3.27,1.02,2.78,3.61-13.5,.13-26.92-2-40.4-1.8-13.37,.2-26.73,.8-40.07,1.8-2.61-.16-5.22-.38-7.67,.88,0,0-.06,.01-.06,.01-3-.11-5.86,.83-8.81,1.13-4.9,.68-9.86,1.03-15.55,2.96,4.76,.02,8.47,.71,12.17-.12,4.43,.64,8.81,.14,13.17-.65,6.14,.38,12.28-.38,18.42,.16,3.14,.27,6.26,.56,9.26,1.61,1.41,.49,2.67,1.13,2.57,2.94-.12,2.08-1.63,2.6-3.28,2.62-5.43,.05-10.87,0-16.3-.05-2.43-.02-4.85-.14-7.28-.22Zm-8.73,211.35c3.73,.16,7.47,.43,11.18-.78-3.08-.13-6.16-.26-9.25-.39-4.03-1.18-8.07-.64-12.12-.17,3.45,.12,6.7,1.74,10.18,1.34ZM26.24,162.05c.19-1.17,.57-2.42-1.07-3.04-.51,1.18-.38,2.14,.02,3.08,.33,8.81,1.72,17.55,1.75,26.38,.95-8.85-.44-17.62-.71-26.43Zm111.7,63.7c1.44,.83,3.04,.71,4.62,.79,6.59,.32,13.19-.14,19.78,.72,3.78,.5,7.69,.09,11.54,.09,0-.31,0-.62-.01-.93-3.58,0-7.23,.48-10.72-.1-8.4-1.38-16.92-.05-25.29-1.47-4.68,.35-9.25-1.2-13.93-.78-7.03-.29-14.05-.83-21.05-1.57-9.71-1.03-19.44-1.96-29.17-2.78-14.3-1.2-28.38,.9-42.46,2.98-4.61,.68-9.21,1.52-13.48,3.63,27.09-.75,54.13-2.59,81.22-1.4,2.07,.73,4.23,.61,6.36,.63,10.86,.1,21.72,.14,32.58,.21ZM24.37,70.62c-.6,1.05-.5,2.22-.55,3.36-.32,6.44-.02,12.87,.59,19.3,.56-7.56,1.7-15.09,1.01-22.71,.38-6.73,.78-13.46,1.14-20.18,.07-1.32-.22-2.54-1.4-3.35-1.18,3.08-.62,6.29-.8,9.42-.27,4.71-.69,9.44,.02,14.16ZM123.65,13.91c-13.11,.28-25.86,.55-38.54,2.13-12.49,1.55-25.03,2.82-37.41,5.16,2.17,.8,4.32,.76,6.45,.44,17.04-2.54,34.25-3.27,51.4-4.75,5.96-.52,11.94-1.01,18.1-2.97Z"/>
  <path class="cls-2" d="M83.61,187.5c-1.95-1.76-3.68-3.9-6.75-3.68-1.08,.08-1.36-.96-1.59-1.71-.99-3.21-2.96-5.41-6.18-6.46-.27-.09-.51-.24-.76-.38-.96-.53-1.66-1.29-1.12-2.4,.69-1.4,1.81-1.04,2.87-.4,.48,.29,.93,.65,1.39,.98,.83,.77,1.72,.54,2.65,.19-.37-.8-1.56-.49-1.79-1.41,1-2.01,2.84-3.64,2.61-6.21-.06-.62,.38-1.45,.86-1.91,5.15-5.03,8.96-11.81,17-13.12,.69-.11,1.34-.51,2.02-.73,2.16-.7,2.29-1.89,1.46-3.92-2.51-6.11-4.11-12.55-5.54-18.96-1.39-6.26-.69-12.6,2.04-18.53,1.74-3.77,3.32-7.66,6.31-10.7,1.12-1.14,1.21-2-.08-3.18-2.22-2.04-4.13-4.42-6.38-6.4-3.17-2.79-5.74-5.94-7.81-9.64-1.22-2.17-2.75-4.24-5.4-5.27-2.49-.96-2.67-2.58-.92-4.7,1.01-1.22,2.24-2.2,3.54-3.12,4.91-3.51,9.99-6.7,15.42-9.37,1.36-.67,2.69-.9,4.15-.8,0,.51,.26,.86,.68,1.11,.1,1.34-.12,2.53-1.3,3.42-2.62,1.98-5.16,4.08-7.81,6.02-2.51,1.84-5.13,3.54-8,5.51,7.84,5.85,13.52,13.3,19.18,21.3,5.14-5.81,12.26-8.44,17.93-13.2-.97-.83-1.9-1.36-2.46-2.14-3.57-5.03-7.92-9.41-11.93-14.05-1.97-2.28-2.95-5.23-5.29-7.18-.23-.43-.55-.71-1.06-.73-.23-.36-.43-.73-.69-1.07-.8-1.04-1.84-2.19-.43-3.32,1.52-1.22,2.27,.19,2.92,1.3,.94,1.59,2.14,2.13,3.92,1.33,.66-.3,1.58-.12,2,.44,1.99,2.64,5.11,4.1,6.92,6.98,3.12,4.97,6.55,9.75,9.75,14.67,1.05,1.61,2.21,1.86,3.98,1.34,3.43-1.01,6.89-1.95,10.4-2.64,11.99-2.38,23,.54,33.35,6.57,1.61,.94,3.1,2.06,4.64,3.1,4.58,3.41,8.46,7.51,11.51,12.52,1.28-1.48,2.34-2.42,3.42-3.36,5.09-4.45,10.82-7.98,16.32-11.85,3.67-2.71,7.76-4.77,12.15-7.42-2.38-1.43-3.03-3.91-5.3-4.85-.84-1.21-1.71-2.36-3.34-2.51-1.31-2.47-3.8-3.29-6.1-4.39q-3.53-2.12-6.11,.38c-1.76,1.68-3.57,3.32-5.28,5.03-4.18,4.19-9.5,6.86-13.79,10.86-1.36,.78-2.64,1.74-4.27,1.94-.75,.09-1.42-.1-1.85-.8-.43-.71-.39-1.54,.27-1.9,1.34-.73,1.46-1.86,1.63-3.17,.19-1.49,1.31-2.49,2.44-3.41,3.66-2.98,7.31-5.96,10.28-9.7,2.36-2.97,5.39-5.06,9.14-6.11,1.13-.32,2.39-.64,3.18-1.94,1.66-2.7,1.79-2.65,4.06-.35,1.22,1.23,2.34,2.55,4.32,2.37,1.66,2.85,4.76,4.04,7.07,6.14,2.03,2.9,5.55,4.57,6.78,8.14,.3,.87,.9,.93,1.67,.62,.97-.39,1.61,.27,2.29,.79,.12,1.06-.68,2.07-.17,3.15q.61,2.69-2.54,3.65c-2.56-2.24-2.65-2.26-3.42,.74-.35,1.39-1.1,2.22-2.28,2.88-3,1.68-5.59,3.91-8.14,6.18-.63-.22-.98-.11-.76,.66l-.08,.05c-.55-.33-1.09-.25-1.6,.09-5.59,3.77-10.9,7.9-16.15,12.13-1.35,1.09-.97,2.1-.65,3.39,1.65,6.6,2.07,13.24,1.15,20.03-.83,6.15-2.44,12.06-4.48,17.88-1.08,3.09-.98,2.97,1.68,5.05,3.14,2.47,6.94,4.27,9.22,7.63,2.66,3.91,5.73,7.48,8.6,11.21,.11,1,.69,1.76,1.24,2.53,.79,1.35,1.65,2.66,2.33,4.06,.46,.94,.38,1.97-.38,2.81-.75,.83-1.86,1.31-2.67,.58-1.55-1.38-1.92,.04-2.92,.72-6.63,4.55-11.75,11.35-20,13.5-.26,.07-.48,.29-.71,.46q-3.44,2.47-6.59-.14c-.88-.73-1.75-1.49-2.57-2.29-4.31-4.18-8.62-8.37-12.91-12.57-.81-.79-1.5-1.87-2.88-.98-2.05,.31-3.98,1-5.85,1.85-4.99-.23-10.03,.34-14.95-1.01-.65-.18-1.44-.02-2.13,.11-6.48,1.24-12.83,.91-18.98-1.64-1.18-.49-2.08-.3-3.11,.56-5.92,4.95-11.92,9.81-17.89,14.7-.93,.64-1.91,1.23-2.79,1.94-2.08,1.66-4.05,1.62-6.17-.01-1.79-1.39-3.74-2.58-5.63-3.85Zm33.55-25.69c.42,.7,.79,1.47,1.87,1.24-.27-1.03-1.08-1.12-1.91-1.19-1.74-2.87-4.82-4.07-7.23-6.11,1.81,2.79,4.02,5.08,7.28,6.06Zm65.48,24.23c1.04,1.58,2.21,2.27,3.77,.6,.68-.73,1.49-1.36,1.81-2.37,1.63-.13,2.26-1.66,3.44-2.41,4.73-3,8.2-7.89,14.42-9.34-8.88-5.55-14.19-13.84-19.58-22.7-3.75,7.39-9.14,12.91-14.86,18.46,4.73,2.9,8.4,6.28,11.24,10.51,1.19,1.76,1.93,3.52,.85,5.59-.24,.1-.48,.21-.73,.32-1.44,.08-1.15,.64-.37,1.34Zm-25.78-24.26c.24-.26,.48-.52,.71-.78,8.29-4.78,14.95-11.13,18.7-20.07,1.56-3.71,2.68-7.85,1.85-11.76-2.51-11.83-6.3-23.24-13.2-33.39-1.49-2.18-3.39-3.81-5.58-5.27-7.53-5.06-15.95-5.07-24.48-4.52-1.02,.07-2.07,.36-2.78,1.06-1.39,1.37-3.04,1.43-4.8,1.38-1.15-.04-2.29-.03-3.38,.49-6.61,3.18-12.21,7.49-15.83,14.03-3.31,5.98-5.05,12.36-5.98,19.15-.82,5.98-.24,11.68,1.09,17.43,.48,2.07,1.64,3.54,3.42,4.73,2.89,1.94,6.1,3.21,9.12,4.84,1.09,.59,3.57,.39,2.81,2.41-.66,1.74-2.49,.32-3.81,.18-.36-.04-.53,.2-.45,.62,.18,.24,.39,.62,.7,.9,5.17,4.57,10.85,8.47,16.54,12.34,1.59,1.08,3.36,1.57,5.32,1.28,2.12-.32,4.25-.57,6.38-.85,4.89-.17,9.53-1.17,13.56-4.15l.07-.06Zm22.59-10.19c.46-.1,.7-.4,.79-.84,5.17-8.57,8.25-17.91,9.23-27.79,1.04-10.46,.04-20.37-7.94-28.69-6.96-7.26-14.67-12.64-24.68-14.4-5.08-1.73-10.24-.64-15.43-.42,5.12,1.49,10.57,1.55,15.45,3.85,1.93,.71,3.85,1.41,5.78,2.12,.27,.49,.44,1.1,.83,1.47,3.41,3.12,6.4,6.55,8.82,10.53,4.1,6.74,8.61,13.26,9.83,21.33,.05,.31,.6,.53,.92,.8,.08,1.72,.14,3.43,.26,5.15,.62,9.39,.8,18.69-5.11,26.83-2.09,1.88-4.21,3.73-5.71,6.16-3.96,4.06-8.58,7.15-13.79,9.39-1.44,.62-2.81,1.44-4.16,2.25-1.21,.73-2.74,1.08-3.74,2.88,9.37-1.24,17.02-4.56,22.31-12.19,2.75-2.28,4.75-5.13,6.28-8.33l.06-.06Zm-70.06,16.35c-.95-1.83-2.45-3.16-4.05-4.39-.2-.69-.27-1.46-1.13-1.73-.99-2.11-1.94-4.23-3.37-6.09q-1.72-2.61-4.37,.09c-7.32,4.97-13.49,11.31-20.92,17.4,5.64,1.47,9.36,5.16,13.84,7.6,1.09,1.78,3.18,2.34,4.59,3.78,1.45,1.49,2.2,.28,2.75-1.06,3.5-2.45,7.67-4.06,10.08-7.9,1.53-1.25,3.04-2.52,4.6-3.73,1.44-1.12,1.17-2.06-.2-2.94-.59-.37-1.21-.69-1.82-1.04Zm21.88,4.04c-2.63-1.37-7.4-2.3-10.53-2.05,3.48,1.64,6.77,2.07,10.53,2.05Z"/>
  <path class="cls-3" d="M161.1,174.86c1.38-.89,2.07,.19,2.88,.98,4.3,4.19,8.6,8.39,12.91,12.57,.82,.8,1.69,1.55,2.57,2.29q3.15,2.62,6.59,.14c.23-.17,.45-.39,.71-.46,8.25-2.15,13.37-8.96,20-13.5,1-.68,1.37-2.1,2.92-.72,.82,.73,1.92,.25,2.67-.58,.76-.84,.84-1.87,.38-2.81-.69-1.4-1.55-2.71-2.33-4.06,1.79-.07,2.68-1.54,3.84-2.55,7.33-6.41,14.63-12.87,21.94-19.31,2.73-2.4,5.78-4.22,9.39-4.93,4.88-.95,7.07,1.6,5.48,6.37-1.06,3.19-3.01,5.85-5.09,8.41-2.8,3.45-5.69,6.82-8.52,10.24-1,1.21-2.2,2.28-2.63,3.87-.74,.39-1.76,1.43-1.49,1.67,1.02,.91,1.56-.36,2.23-.93,2.93-1.13,5.5-3.05,8.56-3.92,2.69-.77,5.72-1.59,7.69,.68,2.06,2.38,1.08,5.46-.25,8.09-2.08,4.12-5.06,7.62-7.95,11.17-1.96,2.41-4.18,4.64-5.63,7.44,1.06,.67,1.78-.03,2.58-.23,1.38-.35,2.91-1.18,4.15-.88,4.5,1.09,8.65-.86,12.97-1.1,.06,3.76,.11,7.51,.17,11.27-2.77,2.06-4.72,4.91-7.13,7.32-3.29,3.29-6.93,5.95-11.56,7.08-2.07,.5-4.48,.65-5.72-.77-1.88-2.15-3.11-1.4-4.97-.3-3.32,1.98-6.73,3.87-10.74,4.06-4.56,.22-6.61-1.8-6.59-6.37,0-2.04,.48-3.97,1.28-5.83,.61-1.42,1.23-2.83,2.26-5.2-4.33,3.22-7.81,5.85-11.34,8.43-2.8,2.05-5.85,3.63-9.32,4.18-3.73,.59-5.74-1.02-6.13-4.7-.1-.9,.57-1.95-.57-2.82-1.55,1.27-3.13,2.47-4.61,3.78-3.97,3.51-8.69,5.95-12.84,9.2-3.51-.29-7.01-.57-10.52-.86-3.25-5.33,.05-10.1,1.64-15.09-1.62,.06-2.3,1.09-3.23,1.69-2.44,1.56-4.96,2.94-7.9,3.17-3.9,.31-5.9-1.79-5.51-5.66,.23-2.29,.82-4.48,1.72-6.62,2.74-6.54,6.72-12.31,10.95-17.95,1.44-1.92,3.44-3.48,4.09-5.96Z"/>
  <path class="cls-3" d="M209.17,166.16c-2.87-3.73-5.94-7.29-8.6-11.21-2.28-3.36-6.08-5.16-9.22-7.63-2.65-2.08-2.76-1.96-1.68-5.05,2.04-5.82,3.65-11.73,4.48-17.88,.92-6.79,.49-13.43-1.15-20.03-.32-1.29-.7-2.3,.65-3.39,5.25-4.23,10.57-8.35,16.15-12.13,.5-.34,1.04-.43,1.6-.09,.94,1.45,1.61,.28,2.27-.27,4.14-3.41,7.94-7.22,12.41-10.23q3.15-.96,2.54-3.65c1.47,.4,2.41-.64,3.47-1.32,2.18-1.41,4.48-2.52,7-3.24,1.94-.55,3.83-.58,5.25,.84,1.43,1.42,1.34,3.28,.71,5.22-1.1,3.37-3.01,6.16-5.45,8.65-3.89,3.99-7.79,7.99-11.71,12.01,1.33,.51,2.07-.63,2.99-1.13,3.78-2.08,7.61-4.04,11.89-4.9,4.9-.98,7.51,1.9,5.98,6.69-1.06,3.33-3.02,6.2-5.41,8.71-4.26,4.46-8.63,8.83-12.9,13.28-.93,.96-2.31,1.7-2.21,3.56,1.77,.35,2.62-1.03,3.69-1.82,3.23-2.38,6.33-4.98,10.22-6.27,1.22-.4,2.45-.87,3.72-1.05,3.17-.47,5.3,1.6,4.93,4.79-.22,1.86-.89,3.61-1.89,5.22-1.6,2.57-3.39,4.98-5.53,7.12-5.78,5.79-11.45,11.7-17.36,17.36-5.91,5.67-11.06,12.03-16.81,17.84Zm17.2-40.82c.25-.27,.25-.56-.09-.71-.84-.39-1.22,.33-1.67,.78-.31,.32-.32,.94,.09,.99,.72,.08,1.28-.44,1.66-1.06Z"/>
  <path class="cls-3" d="M228.78,71.44c-.67-.52-1.31-1.19-2.29-.79-.77,.31-1.37,.25-1.67-.62-1.23-3.57-4.75-5.24-6.78-8.14,1.92-.72,3.29-2.21,4.87-3.4,2.64-1.98,5.43-3.71,8.71-4.36,4.86-.97,7.18,1.63,5.58,6.32-1.56,4.58-4.63,8.08-8.42,11Z"/>
  <path class="cls-3" d="M194.03,10.76c-4.36,.78-8.74,1.28-13.17,.65,.78-1.36,2.26-1.89,3.38-2.85,2.95-.3,5.81-1.24,8.81-1.13,.41,1.09,1.24,2.05,.98,3.33Z"/>
  <path class="cls-3" d="M143.11,230.8c2.57-.46,5.09,0,7.64,.38-2.49,.88-5.04,.9-7.62,.61,.07-.22,.17-.44,.19-.67,.01-.1-.14-.22-.21-.33Z"/>
  <path class="cls-3" d="M193.11,7.41c2.44-1.27,5.06-1.04,7.67-.88-2.54,.4-5.04,1.22-7.67,.88Z"/>
  <path class="cls-4" d="M209.54,81.72c-5.49,3.87-11.23,7.4-16.32,11.85-1.08,.94-2.13,1.88-3.42,3.36-3.05-5.01-6.93-9.11-11.51-12.52,2.02-1.33,4.16-2.6,3.47-5.61,4.29-4,9.61-6.67,13.79-10.86,1.7-1.71,3.52-3.35,5.28-5.03q2.59-2.49,6.11-.38c-1.26,.11-2,.88-2.67,1.89-2.28,3.46-4.95,6.62-7.43,9.92-1.95,2.59-4.62,4.7-5.65,7.95-1.57,.38-2.46,1.4-3.27,3.24,1.81-.84,2.75-1.81,3.51-2.97,3.94-1.77,6.75-5.1,10.28-7.44,3.89-2.58,7.08-6.12,11.32-8.21,1.63,.15,2.51,1.31,3.34,2.51-.6,1.45-1.38,2.78-2.48,3.92-1.28,1.32-2.7,2.54-3.78,4.01-.9,1.23-2.5,2.63-.59,4.35Z"/>
  <path class="cls-4" d="M72.33,172.23c.23,.92,1.42,.62,1.79,1.41-.93,.36-1.82,.59-2.65-.19,.29-.41,.57-.82,.86-1.23Z"/>
  <path class="cls-5" d="M99,224.91c-27.09-1.19-54.13,.65-81.22,1.4,4.27-2.11,8.86-2.95,13.48-3.63,14.07-2.07,28.16-4.18,42.46-2.98,9.73,.82,19.46,1.76,29.17,2.78,7,.74,14.02,1.28,21.05,1.57-1.35,1.16-2.99,.65-4.5,.68-6.81,.11-13.62,.12-20.44,.17Z"/>
  <path class="cls-5" d="M123.65,13.91c-6.16,1.97-12.14,2.46-18.1,2.97-17.14,1.49-34.35,2.21-51.4,4.75-2.13,.32-4.28,.36-6.45-.44,12.38-2.33,24.92-3.6,37.41-5.16,12.67-1.58,25.43-1.85,38.54-2.13Z"/>
  <path class="cls-3" d="M24.37,70.62c-.71-4.72-.28-9.46-.02-14.16,.18-3.12-.38-6.34,.8-9.42,1.19,.8,1.47,2.03,1.4,3.35-.36,6.73-.76,13.46-1.14,20.18-.33,.37-.67,.5-1.04,.05Z"/>
  <path class="cls-5" d="M24.37,70.62c.37,.46,.71,.32,1.04-.05,.69,7.62-.45,15.15-1.01,22.71-.6-6.43-.9-12.85-.59-19.3,.06-1.14-.04-2.31,.55-3.36Z"/>
  <path class="cls-4" d="M137.86,224.85c8.37,1.43,16.89,.09,25.29,1.47,3.48,.57,7.14,.1,10.72,.1,0,.31,0,.62,.01,.93-3.85,0-7.75,.41-11.54-.09-6.6-.86-13.2-.4-19.78-.72-1.58-.08-3.18,.04-4.62-.79-.03-.3-.05-.6-.08-.9Z"/>
  <path class="cls-3" d="M137.86,224.85c.03,.3,.05,.6,.08,.9-10.86-.06-21.72-.11-32.58-.21-2.13-.02-4.29,.1-6.36-.63,6.81-.05,13.63-.06,20.44-.17,1.51-.02,3.14,.49,4.5-.68,4.68-.42,9.25,1.14,13.93,.78Z"/>
  <path class="cls-5" d="M184.24,8.56c-1.12,.96-2.6,1.49-3.38,2.85-3.7,.83-7.42,.14-12.17,.12,5.69-1.93,10.65-2.28,15.55-2.96Z"/>
  <path class="cls-3" d="M26.24,162.05c.27,8.81,1.66,17.58,.71,26.43-.03-8.83-1.42-17.57-1.75-26.38,.35-.02,.7-.03,1.05-.05Z"/>
  <path class="cls-4" d="M188.68,229.17c-3.48,.4-6.73-1.22-10.18-1.34,4.05-.47,8.08-1.01,12.12,.17-.7,.3-1.73,.05-1.93,1.17Z"/>
  <path class="cls-3" d="M188.68,229.17c.2-1.12,1.23-.87,1.93-1.17,3.08,.13,6.16,.26,9.25,.39-3.71,1.22-7.45,.94-11.18,.78Z"/>
  <path class="cls-4" d="M26.24,162.05c-.35,.02-.7,.03-1.05,.05-.4-.95-.53-1.91-.02-3.08,1.64,.62,1.26,1.86,1.07,3.04Z"/>
  <path class="cls-4" d="M143.23,166c-2.13,.28-4.26,.54-6.38,.85-1.96,.29-3.73-.19-5.32-1.28-5.69-3.87-11.37-7.76-16.54-12.34-.31-.27-.52-.66-.7-.9-.08-.42,.09-.66,.45-.62,1.32,.14,3.15,1.56,3.81-.18,.76-2.02-1.73-1.82-2.81-2.41-3.03-1.64-6.23-2.91-9.12-4.84-1.78-1.2-2.94-2.66-3.42-4.73-1.34-5.75-1.91-11.45-1.09-17.43,.93-6.79,2.66-13.17,5.98-19.15,3.63-6.54,9.23-10.85,15.83-14.03,1.08-.52,2.23-.53,3.38-.49,1.75,.06,3.41,0,4.8-1.38,.71-.7,1.75-.99,2.78-1.06,8.54-.56,16.95-.54,24.48,4.52,2.18,1.47,4.09,3.09,5.58,5.27,6.91,10.14,10.7,21.55,13.2,33.39,.83,3.91-.3,8.04-1.85,11.76-3.75,8.95-10.41,15.29-18.7,20.07-.24,.26-.48,.52-.71,.78,0,0-.07,.06-.07,.06-4.62,1.06-9.2,2.26-13.56,4.15Zm-7.15-25.72c6.55-.45,12.1-2.29,17.05-5.63,4.11-2.77,5.82-8.72,4.73-13.72-.95-4.34-4.31-7.43-5.56-11.57-.24-.8-1.05-.87-1.7-1.14-5.03-2.11-10.21-1.77-15.05,.09-6.94,2.67-12.04,7.56-14.98,14.57-2.13,5.08-.32,11.73,4.54,14.26,3.54,1.84,7.57,2.46,10.96,3.14Zm26.29-4.83c-4.53,4.86-9.81,7.43-14.27,11.16,3.4-.72,6.66-1.65,9.89-2.66,4.66-1.45,5.13-2.27,4.38-8.5Z"/>
  <path class="cls-3" d="M155.25,176.71c-1.72,3.37-4.7,5.71-7.06,8.54-4.49,5.39-8.62,11.1-13.69,16.01-2.08,2.02-4.33,3.78-6.98,4.94-5.17,2.27-7.4,1.5-10.04-3.38-2.26,.8-4.28,2.25-6.82,2.38-4.22,.22-5.82-1.19-5.79-5.36,.01-2.03,.36-3.98,1.22-5.84,1.01-2.17,1.92-4.38,3.33-7.64-4.03,2.46-7.42,3.88-11.24,3.07,5.97-4.89,11.97-9.76,17.89-14.7,1.03-.86,1.93-1.04,3.11-.56,6.15,2.55,12.49,2.88,18.98,1.64,.7-.13,1.48-.29,2.13-.11,4.92,1.35,9.96,.78,14.95,1.01Z"/>
  <path class="cls-4" d="M102.61,56.45c2.35,1.95,3.32,4.9,5.29,7.18,4.01,4.64,8.36,9.02,11.93,14.05,.56,.78,1.48,1.31,2.46,2.14-5.67,4.76-12.79,7.4-17.93,13.2-5.66-8-11.34-15.44-19.18-21.3,2.87-1.97,5.48-3.67,8-5.51,2.65-1.94,5.18-4.04,7.81-6.02,1.19-.9,1.4-2.08,1.3-3.42,.11-.11,.22-.22,.32-.33Z"/>
  <path class="cls-4" d="M183.73,184.39c1.09-2.07,.34-3.83-.85-5.59-2.85-4.24-6.51-7.61-11.24-10.51,5.73-5.54,11.12-11.07,14.86-18.46,5.39,8.85,10.7,17.15,19.58,22.7-6.22,1.45-9.69,6.34-14.42,9.34-1.18,.75-1.81,2.29-3.44,2.41-1.5,.04-2.99,.08-4.49,.12Z"/>
  <path class="cls-3" d="M178.19,151.51c5.92-8.14,5.74-17.44,5.12-26.83-.11-1.71-.17-3.43-.26-5.15,1.37-2.46,.55-5,.23-7.49-.94-7.43-4.25-14-8.43-19.96-2.76-3.95-6.85-6.79-12.19-6.67-1.93-.71-3.85-1.41-5.78-2.12,0-1.14-.02-2.28-.03-3.43,10,1.76,17.71,7.14,24.68,14.4,7.98,8.32,8.98,18.23,7.94,28.69-.98,9.88-4.06,19.22-9.23,27.79-.47,.09-.76,.35-.79,.84,0,0-.06,.06-.06,.06-.4-.05-.8-.1-1.2-.15Z"/>
  <path class="cls-4" d="M100.83,155.74c1.43,1.86,2.39,3.98,3.37,6.09,0,.58-.01,1.17-.02,1.75,0,0,.03-.03,.03-.03-2.75,.92-3.38,3.7-4.82,5.71-2.99,4.18-5.51,8.72-10.01,11.57-4.47-2.44-8.19-6.13-13.84-7.6,7.43-6.09,13.6-12.42,20.92-17.4,.29,.9-.41,1.98,.62,2.85,1.42-.73,3.33-.83,3.75-2.94Z"/>
  <path class="cls-4" d="M162.65,85.42c5.34-.12,9.43,2.72,12.19,6.67,4.18,5.97,7.49,12.53,8.43,19.96,.32,2.49,1.14,5.04-.23,7.49-.32-.26-.87-.49-.91-.8-1.22-8.07-5.72-14.59-9.83-21.33-2.42-3.98-5.41-7.41-8.82-10.53-.39-.36-.56-.97-.83-1.47Z"/>
  <path class="cls-3" d="M213.05,66.94c-4.24,2.09-7.43,5.63-11.32,8.21-3.53,2.34-6.34,5.67-10.28,7.44l-.24-.27c1.03-3.25,3.7-5.35,5.65-7.95,2.48-3.3,5.15-6.47,7.43-9.92,.67-1.01,1.4-1.79,2.67-1.89,2.3,1.1,4.79,1.92,6.1,4.39Z"/>
  <path class="cls-4" d="M106.8,175.66c-2.41,3.84-6.58,5.45-10.08,7.9-.52-1.43-.22-2.77,.39-4.12,1.17-2.58,2.32-5.18,3.42-7.79,1.15-2.73,3.09-5.11,3.69-8.1,0,0-.03,.03-.03,.03,.38,0,.76-.02,1.14-.03,1.6,1.23,3.1,2.56,4.05,4.39-.16,1.93-1.46,3.39-2.12,5.12-.31,.81-1.61,1.5-.47,2.59Z"/>
  <path class="cls-3" d="M173.1,159.99c-5.3,7.63-12.95,10.95-22.31,12.19,1-1.79,2.53-2.15,3.74-2.88,1.35-.81,2.72-1.63,4.16-2.25,5.21-2.24,9.82-5.33,13.79-9.39,.97,.57,.51,1.52,.63,2.32Z"/>
  <path class="cls-3" d="M104.22,163.55c-.61,2.98-2.54,5.36-3.69,8.1-1.1,2.61-2.25,5.21-3.42,7.79-.61,1.34-.91,2.68-.39,4.12-.54,1.34-1.29,2.54-2.74,1.06-1.41-1.44-3.5-2-4.59-3.78,4.5-2.86,7.02-7.39,10.01-11.57,1.44-2.01,2.07-4.79,4.82-5.71Z"/>
  <path class="cls-3" d="M209.54,81.72c-1.91-1.72-.31-3.12,.59-4.35,1.08-1.47,2.5-2.69,3.78-4.01,1.1-1.13,1.87-2.47,2.48-3.92,2.27,.94,2.92,3.43,5.3,4.85-4.39,2.65-8.48,4.71-12.15,7.42Z"/>
  <path class="cls-5" d="M226.07,78.25c-4.46,3.02-8.27,6.82-12.41,10.23-.66,.55-1.34,1.72-2.27,.27,0,0,.08-.05,.08-.05,.59,.17,.82-.08,.76-.66,2.55-2.28,5.14-4.51,8.14-6.18,1.18-.66,1.93-1.49,2.28-2.88,.77-3,.85-2.98,3.42-.74Z"/>
  <path class="cls-4" d="M156.84,79.87c0,1.14,.02,2.28,.03,3.43-4.88-2.3-10.33-2.36-15.45-3.85,5.18-.22,10.35-1.3,15.43,.42Z"/>
  <path class="cls-3" d="M106.8,175.66c-1.14-1.08,.16-1.78,.47-2.59,.65-1.73,1.96-3.19,2.12-5.12,.61,.34,1.23,.66,1.82,1.04,1.37,.88,1.65,1.82,.2,2.94-1.56,1.21-3.07,2.49-4.6,3.73Z"/>
  <path class="cls-4" d="M173.1,159.99c-.12-.8,.34-1.75-.63-2.32,1.5-2.43,3.62-4.28,5.71-6.16,.4,.05,.8,.1,1.2,.15-1.54,3.2-3.53,6.05-6.28,8.33Z"/>
  <path class="cls-3" d="M143.23,166c4.36-1.9,8.94-3.1,13.56-4.15-4.03,2.99-8.67,3.98-13.56,4.15Z"/>
  <path class="cls-3" d="M100.83,155.74c-.42,2.1-2.33,2.2-3.75,2.94-1.02-.86-.33-1.95-.62-2.85q2.65-2.7,4.37-.09Z"/>
  <path class="cls-4" d="M131.26,171.99c-3.76,.02-7.05-.41-10.53-2.05,3.13-.25,7.89,.68,10.53,2.05Z"/>
  <path class="cls-3" d="M183.73,184.39c1.5-.04,2.99-.08,4.49-.12-.32,1.01-1.13,1.64-1.81,2.37-1.56,1.67-2.73,.98-3.77-.6,.12-.45,.25-.89,.37-1.34,.24-.11,.48-.21,.73-.32Z"/>
  <path class="cls-4" d="M117.16,161.81c-3.26-.97-5.46-3.27-7.28-6.06,2.41,2.03,5.49,3.24,7.23,6.11l.04-.05Z"/>
  <path class="cls-4" d="M117.11,161.87c.83,.07,1.64,.15,1.91,1.19-1.07,.23-1.45-.54-1.87-1.24,0,0-.04,.05-.04,.05Z"/>
  <path class="cls-3" d="M105.33,163.56c-.38,0-.76,.02-1.14,.03,0-.58,.01-1.17,.02-1.75,.85,.27,.93,1.03,1.13,1.73Z"/>
  <path class="cls-4" d="M183.01,184.7c-.12,.45-.25,.89-.37,1.34-.78-.7-1.07-1.26,.37-1.34Z"/>
  <path class="cls-3" d="M156.86,161.79c.24-.26,.48-.52,.71-.78-.24,.26-.48,.52-.71,.78Z"/>
  <path class="cls-3" d="M212.23,88.04c.06,.58-.17,.83-.76,.66-.23-.77,.13-.88,.76-.66Z"/>
  <path class="cls-4" d="M179.45,151.6c.03-.5,.31-.76,.79-.84-.09,.44-.33,.75-.79,.84Z"/>
  <path class="cls-4" d="M101.54,55.72c.51,.02,.83,.31,1.06,.73-.1,.11-.21,.22-.32,.33-.42-.25-.69-.6-.69-1.11,0,0-.05,.05-.05,.05Z"/>
  <path class="cls-1" d="M235.56,171.54c-.67,.57-1.21,1.84-2.23,.93-.27-.24,.74-1.28,1.49-1.67,.24,.25,.49,.49,.74,.74Z"/>
  <path class="cls-3" d="M191.45,82.58c-.76,1.16-1.7,2.13-3.51,2.97,.81-1.85,1.7-2.87,3.27-3.24,0,0,.24,.27,.24,.27Z"/>
  <path class="cls-2" d="M136.08,140.28c-3.39-.68-7.42-1.3-10.96-3.14-4.86-2.52-6.67-9.18-4.54-14.26,2.94-7.01,8.04-11.91,14.98-14.57,4.84-1.86,10.02-2.2,15.05-.09,.65,.27,1.46,.34,1.7,1.14,1.25,4.14,4.61,7.23,5.56,11.57,1.09,5-.62,10.95-4.73,13.72-4.94,3.34-10.49,5.17-17.05,5.63Z"/>
  <path class="cls-3" d="M162.36,135.45c.76,6.24,.28,7.06-4.38,8.5-3.23,1-6.49,1.94-9.89,2.66,4.45-3.72,9.74-6.29,14.27-11.16Z"/>
</svg>