<?xml version="1.0" encoding="UTF-8"?>
<svg id="Layer_2" data-name="Layer 2" xmlns="http://www.w3.org/2000/svg" viewBox="0 0 1920 1080">
  <defs>
    <style>
      .cls-1 {
        fill: #9d9076;
      }

      .cls-2 {
        fill: #dbd5c7;
      }

      .cls-3 {
        fill: #a5977f;
      }

      .cls-4 {
        fill: #96856c;
      }

      .cls-5 {
        fill: #b5aa90;
      }

      .cls-6 {
        fill: #c4baa4;
      }

      .cls-7 {
        fill: #403021;
      }

      .cls-8 {
        fill: #82735d;
      }

      .cls-9 {
        fill: #948467;
      }

      .cls-10 {
        fill: #cfc9b4;
      }

      .cls-11 {
        fill: #7e6c50;
      }

      .cls-12 {
        fill: #c2b8a2;
      }

      .cls-13 {
        fill: #d7d2bd;
      }

      .cls-14 {
        fill: #d1cbb6;
      }

      .cls-15 {
        fill: #c8bfa9;
      }

      .cls-16 {
        fill: #bbaf98;
      }

      .cls-17 {
        fill: #bdb79a;
      }

      .cls-18 {
        fill: #beb5a3;
      }

      .cls-19 {
        fill: #695639;
      }

      .cls-20 {
        fill: #dedac4;
      }

      .cls-21 {
        fill: #b0a58e;
      }

      .cls-22 {
        fill: #c7baa0;
      }

      .cls-23 {
        fill: #e8e4d1;
      }

      .cls-24 {
        fill: #cac1ab;
      }

      .cls-25 {
        fill: #cfc8b3;
      }

      .cls-26 {
        fill: #d2cab4;
      }

      .cls-27 {
        fill: #8a795c;
      }

      .cls-28 {
        fill: #9f9074;
      }

      .cls-29 {
        fill: #978b74;
      }

      .cls-30 {
        fill: #d3ceb9;
      }

      .cls-31 {
        fill: #857156;
      }

      .cls-32 {
        fill: #745e42;
      }

      .cls-33 {
        fill: #bfb496;
      }

      .cls-34 {
        fill: #e0dbcd;
      }

      .cls-35 {
        fill: #9d9079;
      }
    </style>
  </defs>
  <path class="cls-13" d="M373.16,992.31c-2.88-3-1.71-6.76-1.71-10.18-.04-307.87-.02-615.75,0-923.62,0-19.21,4.84-24.01,24.08-24.01,376.86-.04,753.72-.07,1130.58-.04,3.75,0,7.82-1.22,11.2,1.68-2.88,3.33-6.88,3.28-10.7,3.28-38.61,.01-77.21,.46-115.82-.18-97.09,.46-194.19,.51-291.28,0-65.58,.44-131.15,.3-196.72,.21-45.59-.54-91.2-.51-136.8,.07-13.87,.18-26.59,7.87-40.59,8.88-2.24,.16-2.83,2.47-2.99,4.46-.76,9.88-7.22,15.92-15.04,20.04-6.19,3.27-9.17,7.56-10.02,14.18-.92,7.13-3.88,12.38-12.45,11.53-2.36-.23-5.09,.28-4.45,3.47,1.48,7.4-2.19,11.66-8.68,15.27,14.26,2.19,28.24,2.35,42.12,3.51,37.76,3.16,75.65,.84,113.42,2.32,32.59,1.27,65.17,1.16,97.74,2.01,37.41,.97,74.71,4.65,112.14,5.6,4.27,.11,9.2,.57,10.24,5.54,1.17,5.59-3.56,7.7-7.87,9.44-2.4,.97-4.93,2.85-7.23,2.62-10.67-1.11-15.97,4.84-19.43,13.68-4.58,2.2-9.5,1.78-14.32,1.78-165.33,.03-330.66,.03-495.99,.01-3.88,0-7.77,.09-11.58-.68-10.2-4.6-16.99-13.65-25.83-20.07-5.64-4.09-10.23-10.25-18.41-9.07-4.96,2.73-3.04,7.48-3.05,11.35-.16,33.64-.07,67.27-.11,100.91,0,4.83,.48,9.73-1.41,14.38-4.91,5.67-9.95,10.89-18.48,10.59-4.05-.14-5.03,2.23-4.33,6.51,1.84,11.21-3.78,16.98-15.05,15.29-5.87-.88-5.67,3-6.22,6.22-1.05,6.1-1.33,11.72-10.59,8.91-5.6-1.7-3.91,4.41-4.65,7.25-2.55,9.84-7.41,11.94-15.65,6.39-1.7,3.1-3.24,6.26-2.75,9.91,.65,4.89-.47,8.91-4.77,11.8-4.16,2.79-3.73,7.22-3.73,11.39,.11,68.78-.31,137.57,.22,206.38,.27,87.28,.48,174.54-.08,261.8,.63,52.81,.21,105.62,.2,158.42,0,3.83,.03,7.82-3.16,10.78Z"/>
  <path class="cls-15" d="M373.16,992.31c.07-56.36,.13-112.72,.2-169.07,3.52-5.44,9.74-7.9,13.62-13.48,5.03-7.24,10.44-13.21,8.69-23.12-.78-4.43,14.76-14.17,21.51-13.45,8.8,.94,11.58-2.21,11.04-10.87-.56-8.92,4.59-15.14,13.32-17.68,4.44-1.29,8.32-3.38,12.11-5.93,3.06-2.06,6.42-3.77,8.89,1.01,1.32,4.43,.85,8.96,.86,13.45,.04,46.36,0,92.72,.07,139.09,0,3.78-.95,7.75,1.3,11.23,12.43-1.91,20.53-11.26,30.36-17.55,3.26-2.09,6-4.88,10.13-5.27,5.84-.65,11.67-.45,17.49-.45,228.84-.01,457.69-.02,686.53,.03,6.43,0,12.97-.89,19.21,1.58,4.5,5.08-.93,6.13-3.51,7.02-6.41,2.2-13.15,3.22-20.01,2.71-3.26-.24-6.62-.42-9.15,2.06-14.56,14.25-32.8,17.41-52.12,17.75-33.09,.58-66.16,2.45-99.27,1.94-2.93-.05-5.79,.27-8.57,1.22-18.09,1.51-36.22,.7-54.33,.78-54.06,.24-108.11-.16-162.17,.18-29.09,.19-58.16,2.27-87.28,2.03-9.39-.08-18.76,.55-22.53,12.3-1.58,4.93-7.16,4.75-11.84,4.29-18.21-1.81-18.07-1.74-25.67,14.03-2.47,5.13-6.02,9.32-5,16,.76,4.94-4.53,3.66-7.22,2.72-8.83-3.08-14.55-1.1-16.49,8.64-.25,1.25-1.01,2.37-1.88,3.36-2.6,2.96-7.69,4.86-4.79,10.24,3.07,5.68,7.26,10.2,14.36,9.83,15.18-.79,30.35-.47,45.52,.18,4.43,.19,9.19-.77,12.77,3.06,.01,.56,.02,1.12,.03,1.69-105.54-.02-211.09-.05-316.63-.08-8.73,0-17.19-.51-19.54-11.44Z"/>
  <path class="cls-5" d="M1546.81,992.28c-.57,5.7-3.69,8.97-9.37,9.78-3.43,1.46-7.04,.73-10.55,.73-101.95,.04-203.89,.02-305.84,.09-3.45,0-7.13-1.14-10.37,1.13l-.06-.19c-1.75,1.53-3.78,2.62-6.08,2.65-20.55,.27-41.12,1.56-61.61-.8-2.19-4.73-2-5.41,3.92-6.12,9.31-1.12,18.61-2.21,27.83-3.93,6.01-1.12,12.19-1.7,15.5-8.26,1.53-3.03,4.9-2.72,7.84-2.2,5.07,.89,8.55-2.03,7.39-6.23-5.69-20.66,10.94-26.23,23.16-33.6,7.55-4.56,12.75-11.84,20.86-15.43,2.39-1.06,2.61-4.26,3.43-6.72,2.71-8.13,7.63-12.04,15.99-10.43,9.68,1.86,18.58-.07,27.63-2.62,23.29-1.48,46.59-.49,69.87-.66,25.56-.19,51.13,0,76.69-.1,3.5-.01,7.13,.82,10.47-.99,.83-.82,1.53-1.73,2.05-2.78,1.65-4.39,.98-8.95,1.01-13.42,.31-49.28-.52-98.56,.43-147.81,4.48-8.46,6.29-17.48,5.69-27.07-.39-6.27,1.81-11.4,7.45-14.75,2.88-1.72,4.78-4.3,5.98-7.41,2.49-6.46,6.78-7.03,13.41-2.95-3.37-5.1-4.04-9.65-2.77-14.37,1.44-5.34,6.53-5.31,10.43-7.39,8.31-4.42,17.9-6.79,23.28-16.16,3.68-6.4,11.01-9.84,16.7-14.57,4.6-3.83,6.95,.59,7.79,4.68,.96,4.71,.35,9.73,2.62,14.22,.22,4.08,.16,8.15,.04,12.23-3.72,6.61-1.04,13.2,.1,19.81-.03,97.05,0,194.09-.05,291.12,0,3.5,.83,7.12-.84,10.51Z"/>
  <path class="cls-6" d="M1546.81,992.28c-.08-101.7-.16-203.41-.24-305.11-2.43-5.18-2.43-10.36,0-15.54,0-4.53,0-9.07,0-13.6-3-9.38-2.54-19.14-2.56-28.72-.18-87.92-.28-175.84,.09-263.76,.06-12.8-2.97-24.93-4.54-37.37-.43-3.41-2.01-6.26-5.67-7.07-4.04-.89-6.9,1.56-9.16,4.28-4.33,5.2-7.3,11.37-11.88,16.47-4.41,4.91-8.81,8.48-15.89,6.33-4.14-1.26-6.06,.6-6.05,4.83,0,3.23-.31,6.46-.63,9.67-1.03,10.45-6.02,14.04-17.24,12.42-1.24,8.85-4.69,17.09-7.46,25.51-.96,2.91-2.81,7.05-7.55,3.67-2.23-4.95-1.41-10.19-1.41-15.31-.06-81.12-.03-162.23-.06-243.35,0-4.83,.5-9.7-.76-14.44-2.29-4.52-6.49-4.88-10.78-4.74-24.5,.83-48.87-3.11-73.38-1.95-2.89,.14-5.83,.06-8.67-.62-7.37-1.76-9.32-5.22-5.42-11.69,3.96-6.56,3.79-13.48,3.88-20.56,.08-6.27,.1-12.54,8.16-14.41,2.66-.62,2.66-3.35,3.45-5.41,1.24-3.25,3.62-5.87,6.96-6.03,7.08-.35,10.33-5.37,15.26-9.15,6.56-5.03,10.63-10.09,12.78-17.56,.33-1.13,1.84-1.75,2.72-2.69,42.18-.09,84.36-.17,126.54-.26,6,.9,8.52,4.93,10.01,10.39,1.13,4.17,1.08,8.31,1.08,12.5,.04,307.03,.07,614.06,.03,921.09,0,4.06,1.37,8.45-1.61,12.17Z"/>
  <path class="cls-23" d="M623.82,1058.24c-3.75-10.23-1.9-20.78-1.74-31.23,3.07-2.07,6.21-.86,9.33-.2,27.84,5.9,56.15,7.33,84.43,9.36,30.16,2.16,60.41,2.5,90.59,4.39,.95,.19,1.87,.5,2.8,.69,12.99,2.65,16.11,7.48,13.34,20.66-1.27,6.02-4.46,9.82-11.06,9.86-2.89,.02-5.77,.04-8.65,.05-53.54-.7-106.96-3.32-160.16-9.78-6.4-.78-12.44-3.21-18.86-3.8Z"/>
  <path class="cls-28" d="M1140.69,1003.83c23.31,0,46.62,0,69.93,0,.04,2.58,.07,5.16,.11,7.74-4.93,3.14-10.49,2.99-15.98,2.89-33.57-.63-67.14-.03-100.71-.02-42.98,.02-85.96,.15-128.94,.03-80.5-.23-161,.33-241.5-.12-4.88-.03-9.73,.03-14.05-2.76-.07-2.59-.15-5.18-.22-7.77,0,0,.4,.16,.4,.16,3.23-3.55,7.61-3.23,11.74-3.23,49.08-.03,98.15-.3,147.23,.07,47.24-.24,94.48-.16,141.72-.17,38.51,0,77.02-.05,115.52,.06,5.06,.01,10.48-.95,14.75,3.11Z"/>
  <path class="cls-18" d="M623.82,1058.24c7.11-3.1,13.51,1.48,20.17,2.31,34.44,4.3,68.98,6.16,103.61,7.89,18.34,.91,36.64,.92,54.96,1.51,7.7,2.93,15.07-.99,22.62-1.05,14.73-.13,29.46-.38,44.18,.14,13.84-.1,27.69,.14,41.54-.1,3.97-.07,9.67,1.73,11.22-2.99,1.64-5,1.05-10.8-2.82-15.5-1.59-1.93-5.57-2.82-3.34-6.72,11.11-3.92,22.45-1.91,33.73-1.34,9.16,2.68,18.56,1.17,27.84,1.43,13.51,.39,18.09,4.96,15.17,17.83-1.85,8.16,1.1,9.31,8,9.26,21.57-.15,43.14-.25,64.72,.01,8.39,.6,17.24-2.65,25,3.02-3.19,2.32-6.88,1.45-10.35,1.45-79.57,.05-159.15,.87-238.7-.26-54.54-.77-109.15-2.58-163.51-7.55-18.15-1.66-36.9-1.32-54.04-9.37Z"/>
  <path class="cls-9" d="M709.56,1011.6c9.29,0,18.58,0,27.87,0,60.49,0,120.98,0,181.47,0,32.83,0,65.67,.45,98.49-.19,16.68-.32,33.32,.22,49.97,.17,32.76-.1,65.52-.74,98.25-1.09,14.88-.16,30.09,.05,45.12,1.09,1.35,.56,2.69,1.13,4.04,1.69-.98,1.76-2.54,2.78-4.36,3.49-4.94,2.86-10.34,3.42-15.93,3.42-136.62,0-273.24,.09-409.85-.1-21.92-.03-43.85,.68-65.76-.57-3.33-.19-6.37-.96-9.08-2.94-1.01-.98-1.28-2.14-.83-3.47,.08-.55,.28-1.05,.6-1.5Z"/>
  <path class="cls-33" d="M708.96,1013.1c.2,.81,.4,1.63,.6,2.44,1.46,1.77,2.19,3.81,2.34,6.09,.41,2.2,.15,4.46,.68,6.65,3.76,5.06,9.32,3.48,14.17,3.5,43.2,.16,86.39,.07,129.59,.12,5.13,0,10.34-.52,15.3,1.51,4.24,2.89,5.59,6.64,3.42,11.44-.92,.87-2,1.5-3.21,1.89-17.44,.79-34.97,3.34-52.1-2.67-4.22-1.48-8.92,.56-13.21-1.21-34.82-1.37-69.71-1.75-104.43-4.44-26.83-2.08-54.1-2.48-80.04-11.4,.71-5.25,5.21-4.98,8.74-5.73,25.76-5.42,51.93-7.05,78.15-8.19Z"/>
  <path class="cls-3" d="M1090.41,1073.97c-8.45-.15-16.91-.29-25.36-.44-4.82-10.66,.55-20.03,3.73-29.7,6.6-3.51,13.75-1.86,20.67-2.07,5.44-.17,10.78-.97,16.16-1.64,6.57-.24,13.23-1.5,19.49,1.71,3.43,3.74,2.67,8.34,2.58,12.8-.21,9.68,1.66,11.88,11.57,12.24,11.24,.41,22.5-.08,33.74,.22,4.34,.12,9.15-.91,12.68,2.97-2.15,.48-4.3,1.32-6.47,1.39-29.59,.9-59.19,1.69-88.79,2.51Z"/>
  <path class="cls-32" d="M1297.91,1027.12c.3,9.84,2.44,19.76-1.26,29.44-19.17,7.02-39.32,7.7-59.34,8.75-5.64,.29-7.7-5.52-7.21-9.73,1.12-9.67-2.71-14.75-11.85-16.58,.26-4.65,4.06-4.61,7.02-4.69,23.19-.66,46.14-3.29,68.88-7.84,1.27-.25,2.55,.12,3.74,.65Z"/>
  <path class="cls-31" d="M1218.31,1038.72c2.26,.04,4.53,.27,6.76,.09,7.07-.57,9.97,.96,7.63,9.25-3.13,11.09,1.46,16.41,12.66,15.81,17.28-.92,34.39-3.44,51.28-7.32-2.71,4.04-7.32,3.98-11.28,4.67-14.96,2.63-29.98,5.06-45.25,4.97-18.93,.53-37.74,3.27-56.75,2.83-6.88-.16-9.48-3.62-9.49-9.44-.01-7.12,.73-14.26,6.61-19.51,5.86-3.56,12.81-.98,18.9-3.34,6.39-.14,13.02-2.51,18.92,1.99Z"/>
  <path class="cls-7" d="M1218.31,1038.72c-6.45,.03-12.9,.06-19.35,.08-2.04,1.4-3.93,1.02-4.41-1.34-.57-2.82,1.77-3.91,4.05-4.45,4.37-1.03,9.33-1.21,9.32-7.58,.09-2.07,.07-4.14,.3-6.2,.55-2.06,.93-4.22,2.97-5.46,1.19-.17,2.39-.34,3.58-.51,25.09,1.02,50.11,2.73,74.73,8.05,3.41,.74,8.19,.15,8.41,5.8-12.88,5.85-26.93,5.58-40.49,7.98-12.99,2.3-26.32-.16-39.1,3.63Z"/>
  <path class="cls-4" d="M1181.37,1040.97c-1.19,2.65-3.02,5.2-3.48,7.97-2.55,15.4-4.31,19.87,14.89,19.13,15.78-.6,31.48-3.71,47.35-1.87-18.04,2.95-36.21,3.92-54.46,3.87-16.1-.06-32.21-.08-48.32-.2-11.11-.08-13.84-3.5-12.44-14.5,.52-4.12,.15-8.36,.19-12.55,18.11-4.46,36.35-6.64,54.91-3.18,.53,.1,.92,.86,1.37,1.33Z"/>
  <path class="cls-16" d="M1210.68,1004.02c2.04-3,5.19-2.11,7.97-2.11,106.26,.02,212.52,.09,318.78,.15-3.74,2.89-8.12,1.63-12.2,1.63-97.73,.07-195.47,.04-293.2,.05-7.12,0-14.23,.18-21.35,.28Z"/>
  <path class="cls-24" d="M1410.77,36.39c-.68,3.94-4.04,7.29-2.11,11.86,.69,1.64-.11,5.28-1.58,5.02-11.85-2.11-9.39,14.64-19.61,14.48-6.78-.11-15.73-2.51-10.88,10.47,1.3,3.49-3.34,2.97-5.46,2.22-4.92-1.73-6.6,.51-6.96,4.87-.87,10.63,3,22.18-6.57,31.14-1.83,1.71,.57,3.58,2.44,4.12,2.44,.69,5.04,1.32,7.54,1.2,26.18-1.3,52.22,2.96,78.38,2.01,4.32-.16,8.42,.27,11.46,3.87-.45,.4-.89,.8-1.34,1.21-1.07,.56-2.21,.91-3.41,1.07-58.17,1.44-116.39,1.67-174.52,.24-49.7-1.22-99.38-1.96-149.07-1.55-22.32,.18-44.48-2.24-66.75-2.26-6.19,0-11.62-1.62-13.23-8.79-1.81-8.08,1.8-18.98,8.41-20.75,8.74-2.35,12.55-7.89,15.06-15.76,3.41-10.7,9.05-18.36,21.89-20.06,9.39-1.24,17.36-7.05,20.09-17.46,.76-2.9,2.53-5.2,4.8-7.13,97.14,0,194.28,0,291.42,0Z"/>
  <path class="cls-25" d="M1119.34,36.4c-2.24,19.2-13.96,27.89-32.35,29.09-3.26,.21-5.59,1.3-6.47,4.66-1.94,7.46-7.52,13.38-8.23,21.57-.54,6.21-7.09,5.55-11.5,6.68-6.15,1.57-10.26,9.31-9.51,18.09,.65,7.59,6.19,6.99,11.34,7.29,49.7,2.89,99.47,.9,149.17,2.15,73.86,1.85,147.71,1.68,221.57,1.74,7.38,0,14.76,.03,22.14,.05,1.07,3.6-1.52,5.44-3.82,6.99-12.27,8.28-22.39,19.05-33.57,28.59-2.83-3.94-7.03-2.49-10.7-2.5-52.64-.19-105.28-.28-157.92-.4-2.46-7.47-1.74-13.48,7.33-15.4,3.74-.79,5.81-2.84,5.38-6.72-.51-4.58-4.17-3.88-7.37-4.3-14.82-1.94-29.71-1.19-44.57-1.59-50.11-1.34-100.25-1.34-150.34-2.48-32.62-.75-65.28-1.21-97.89-2.52-26.82-1.08-53.62-1.16-80.42-1.91-12.07-.34-24.31,.1-36.29-2.63-3.84-.87-7.97-1.01-9.29-5.6-1.44-5,.42-9.39,4.69-11.71,11.16-6.05,16.56-18.17,26.98-24.9,2.18-1.41,2.32-3.44,2.09-5.93-1.07-12.05,2.15-17.22,13.71-20.11,4.82-1.2,8.16-2.36,9.53-7.72,1.1-4.3,5.59-4.75,9.38-5.79,6.21-1.7,12.83-1.77,18.72-4.7,66.07,0,132.14,0,198.21,0Z"/>
  <path class="cls-10" d="M460.57,737.66c-7.72,3.46-14.07,9.21-23.11,10.91-3.76,.71-8.67,7.68-6.78,15.22,2.49,9.96-2.09,14.69-11.99,11.75-7.55-2.24-9.09,5.74-13.98,6.17-8.72,.76-7.01,5.68-6.39,11.4,.55,5.15,1.95,11.44-6.09,13.14-1.24,.26-2.81,2.07-3.05,3.38-1.64,8.89-9.04,10.84-15.82,13.6,0-88.08-.02-176.16-.03-264.24,4.23-2.73,7.72-5.44,5.63-11.65-1.6-4.75,1.24-6.75,6.17-7.3,8.17-.91,10.04-4.41,7.59-12.47-2.48-8.13-1.15-10.35,7.7-10.66,5.48-.19,6.53-1.47,4.92-6.96-2.66-9.07,1.19-13.22,10.92-12.96,13.34,.37,20.93-9.86,30.49-16.43,1-.69,1.49-2.6,.94-3.6-5.34-9.6,1.77-16.15,5.51-23.58,3.01-5.98,4.82-6.01,9.8,.18,1.83,19.69,.9,39.4,.76,59.08-.49,70.09-.18,140.17-.39,210.26-.01,5,1.39,10.45-2.79,14.75Z"/>
  <path class="cls-26" d="M921.13,36.39c-5.08,5.78-12.27,6.59-19.13,7.59-5.14,.75-9.26,1.28-7.06,8.07,1.88,5.79-1.74,6.5-5.64,5.01-8.28-3.15-12.22,4.28-17.42,7.4-3.26,1.95-1.58,7.73,1.93,11.04,3.04,2.86,2.34,5.39-1.37,6.4-7.17,1.97-10.72,7.57-15.05,12.86-3.98,4.86-7.9,10.12-14.66,12.2-4.04,1.25-5.71,5.05-4.96,9.46,.72,4.25,4.28,2.78,6.87,3.55,16.57,4.89,33.62,3.1,50.48,3.79,50.07,2.06,100.23,.65,150.26,2.44,38.74,1.39,77.5-.55,116.11,1.86,26.52,1.66,52.95,.73,79.41,1.58,6.68,.22,13.14,2.95,20.08,1.31,1.61-.38,5.48-.24,4.44,4.26-1.05,4.55,2.4,13.2-4.65,12.37-12.19-1.43-8.76,7.6-11.27,12.8-71.89,0-143.78,0-215.67,0,.13-3.23-.14-6.53,.49-9.66,.67-3.34,3.37-7.22,6.58-5.29,7.57,4.56,12.84-2.59,19.4-2.55,2.99,.02,5.83-2.3,5.7-5.52-.15-3.9-3.73-3.82-6.66-3.85-15.15-.16-30.25-.43-45.42-1.74-44.08-3.82-88.35-3.12-132.53-4.56-35.72-1.16-71.42-.63-107.11-1.61-26.66-.73-53.29-2.48-79.94-3.83-3.17-.16-6.14-1.14-8.86-3.01,1.12-3.12,3.27-5.46,6.01-6.09,7.96-1.82,9.38-4.46,4.36-11.84-3.96-5.81,3.79-6.64,6.02-5.79,11.38,4.36,12.73-3.15,13.14-10.78,.4-7.59,3.89-10.39,10.72-13.71,6.59-3.2,16.2-7.6,13.13-19.22-1.26-4.79,1.84-7.98,6.52-7.03,9.02,1.82,17.11-1.87,24.83-4.56,9.56-3.34,18.94-3.37,28.57-3.38,40.79-.03,81.58,0,122.38,.01Z"/>
  <path class="cls-30" d="M460.62,450.15c-1.88,.14-5.5,.65-4.95,1.6,5.38,9.37-13.69,9.73-6.86,19.6,4.3,6.22,2.18,11.17-4.31,15.12-6.28,3.82-13.13,6.86-18.31,12.45-2.55,2.75-5.9,1.72-9.05,.5-3.71-1.44-7.38-.62-9.66,2.37-2.37,3.1-1.59,6.66,.96,9.74,1.25,1.52,4.29,3.2,.63,5.12-2.5,1.31-3.67,6.25-7.88,3.22-2.37-1.71-4.7-2.34-6.91,0-2.3,2.44-1.11,4.3,.8,6.63,2.92,3.54,3.55,7.93-.09,11.3-2.69,2.49-3.82,8.06-10.44,4.37-3.97-2.21-4.98,2.05-3.23,5.8,3.95,8.43,.2,11.35-7.99,11.02-.02-69.59-.05-139.19-.07-208.78,0-4.15-.85-8.42,5.51-9.28,4.03-.54,4.67-3.93,3.14-7.54-3.54-8.36,4.45-12.34,5.65-21.26,3.42,5.43-.37,11.56,5.82,11.32,5.66-.22,7.12-4.62,7.1-9.68-.01-2.57-.37-5.41,.57-7.65,1.33-3.18,3.43-7.33,7.19-1.65,1.27,1.92,2.44,4.19,5.25,2.76,2.69-1.37,2.02-3.64,1.08-5.87-1.24-2.93,1.88-4.78,2.01-7.08,.41-7.77,2.29-10.17,8.53-3.48,3.49,3.74,6.64,1.3,8.93-1.63,2.52-3.23,7.88-6.49,2.47-11.22-5.61-4.91-1.81-8.64,2.22-8.72,8.41-.17,14.95-4.12,21.92-7.53,3.64,3.62,3.15,8.33,3.16,12.78,.09,54.3,.1,108.59,0,162.89,0,4.45,.48,9.16-3.17,12.78Z"/>
  <path class="cls-35" d="M460.62,450.15c0-62.81,0-125.63,0-188.44,.06-41.85,.27-83.71,.06-125.56-.04-7.36,1.72-8.71,7.6-4.37,13.11,7.58,25.23,16.29,33.62,29.29-.14,3.87-.39,7.75-.39,11.62-.04,115.8-.05,231.61-.08,347.41,0,3.23-.19,6.46-.3,9.69-2.22,2.79-3.83,5.98-5.89,8.88-2.97,4.16-6.08,5.6-11.5,4.01-10.98-3.22-17.71,1.8-17.97,13.22-.29,12.26-.92,24.56,.91,36.8,1.6,10.68-1.26,21.21-1.23,31.9,.24,90.21,.12,180.42,.16,270.64,0,4.53-.04,9.04-.93,13.5-1.39,1.27-3.12,1.83-3.57-.45-.56-2.81-.4-5.78-.41-8.68-.06-53.99-.1-107.97-.14-161.96,.02-95.84,.03-191.67,.05-287.51Z"/>
  <path class="cls-17" d="M501.92,161.07c-11.21-9.77-22.42-19.53-33.62-29.29,2.88-.23,5.88-.84,8.33,1.32,10.28,9.05,22.25,16.2,30.75,27.25-1.82,.24-3.64,.48-5.46,.72Z"/>
  <path class="cls-12" d="M868.69,1003.79c-52.99,.06-105.97,.13-158.96,.19-2.83-3.15-6.61-2.04-10.05-2.06-16.65-.1-33.31-.02-49.96-.06-6.5-.02-16.77-8.43-17.91-14.6-.17-.94-.46-2.51-.02-2.81,7.54-5.27,8.18-15.45,14.93-21.09,6.69-5.59,12.44,2.98,20.07,1.96-5.38-5.55-6.91-10.63,.84-14.59,1.81-.92,2.4-2.79,2.85-4.81,3.03-13.65,10.74-19.03,23.29-15.48,8.84,2.5,15.47,2.99,15.83-9.01,.12-4.09,3.56-4.42,6.97-5.12,12.79-2.64,25.71-1.4,38.58-1.88,93.52-3.47,187.08-1.29,280.62-1.91,1.01-.87,1.79-.7,2.35,.51-6.48,7.01-15.5,4.21-23.34,5.76-5.62,1.11-11.56,.06-17.35,.6-6.7,.64-11.38,3.47-13.6,10.31-2.61,8.06-7.23,14.77-15.19,18.6-6.25-6.32-.1-11.3,1.77-16.7,1.2-.34-.41,.1,.37-.86,.69-.85,.33-1.2-.23-.33-1.07,1.64-2.3,3.9-4.1,3.88-10.03-.14-13.81,8.24-19.68,13.81-1.14,1.08-3.22,1.69-3,3.47,1.94,15.47-9.98,16.89-20.18,19.86-3.16,.92-2.62,3.03-2.87,5.23-1.2,10.39-4.56,13.41-14.83,13.13-2.61-.07-5.77-.88-7.27,1.42-6.82,10.45-17.71,10.54-28.24,11.71-.63,.07-1.19,.38-1.67,.86Z"/>
  <path class="cls-29" d="M464.7,908.74c-3.31-2.79-2.02-6.61-2.03-10-.06-94.39-.53-188.78,.34-283.16,.19-20.22-1.42-40.38-.5-60.6,.67-14.63,11.4-21.27,23.98-13.84,3.8,2.24,4.34,.1,5.29-2.56,1.61-4.5,4.45-7.77,9.37-8.78,.11,27.17,.31,54.35,.31,81.52,.02,87.37-.03,174.74-.03,262.11,0,3.23,.24,6.46,.37,9.69-10.85,10.74-24.13,17.96-37.11,25.62Z"/>
  <path class="cls-22" d="M1037.73,912.54c-.65,0-1.31-.01-1.96-.02,2.54-2.96,6-1.88,9.1-1.89,20.86-.09,41.85,1.44,62.54-.47,20.55-1.89,41.22-.03,61.67-3.3,4.75-.76,5.89-6.03,8.84-6.37,7.94-.91,12.8-4.99,17.24-11.06,1.92-2.62,5.68-1.31,9-.97,8.92,.9,17.86,.22,25.83-4.78,59.1-.12,118.21-.21,177.31-.4,3.7-.01,7.86,1.33,10.82-2.36,14.01,8.61,27.93,17.33,39.2,29.56-3.11,3.54-7.28,1.97-10.95,1.98-50.73,.11-101.46,.08-152.19,.08-16.14,3.5-32.68,2.49-48.89,2.75-63.62,1.02-127.27,.46-190.9,.35-5.66,0-11.75,1.32-16.66-3.1Z"/>
  <path class="cls-16" d="M1459.34,405.49c5.86-10.24,11.7-20.54,8.9-33.05-.5-2.23-.57-3.9,1.62-4.73,2.18-.83,2.81,.95,3.02,2.59,.53,4.08,3.27,4.73,6.32,3.57,3.82-1.45,9.49-3.1,8.29-7.91-1.54-6.17,3.01-11.81-.18-18-1.97-3.83,1.6-4.84,4.95-4.32,4.35,.67,9.43,5.57,12.62,2.43,5.37-5.28,11.89-10.32,14.23-17.96,1.96-6.41,7.32-9.64,12.24-11.2,4.96-1.58,11.15,2.36,11.09,8.08-.14,12.65,4.68,24.35,4.6,37.15-.64,98.63-.41,197.27-.45,295.9-4.85-2.5-3.49-7.07-3.71-11.11-.13-2.51,.66-5.77-2.29-6.8-2.88-1.01-3.04,2.57-4.53,4-6.52,6.27-13.75,11.32-19.17,19.36-2.71,4.02-12.27,8.93-20.22,10.09-8.61,1.26-11.41,8.61-5.64,15.62,1.94,2.36,4.75,4.58,2.05,7.22-3.44,3.38-4.55-1.28-6.39-2.93-3.81-3.43-6.67-3.93-7.98,2.13-1,4.59-2.97,8.02-8.15,9.65-5.66,1.78-5.28,7.17-5.46,12.15-.3,8.38,2.31,17.58-5.74,24.16-3.44-3.39-2.71-7.79-2.71-11.9-.07-104.09-.07-208.19,0-312.28,0-4.11-.73-8.52,2.72-11.9Z"/>
  <path class="cls-16" d="M1037.73,912.54c85.48,0,170.97,0,256.45,0-7.34,4-15.05,4.8-23.19,2.99-9.78-2.17-14.16,.85-15.71,10.52-.65,4.04-1.69,7.51-6.73,8.05-1.82,.19-4.37,.93-5.17,2.27-7.12,11.86-21.01,14.35-30.92,22.4-4.96,4.04-6.67,6.94-4.6,12.68,1.45,4.01,1.41,8.31,0,12.36-1.52,4.38-3.72,7.69-9.2,4.41-4.19-2.51-7.47-2.47-7.56,3.74-.05,3.5-2.56,3.69-5.28,4.22-13.23,2.56-26.38,5.56-39.94,5.74-1.98,.03-3.88,.17-5.2,1.93-90.67-.01-181.33-.03-272-.04,3.37-2.79,7.58-2.95,11.57-4.05,5.59-1.54,11.9-2,14.77-8.94,1.82-4.41,5.91-4.8,10.7-3.59,8.46,2.15,13-2.49,12.36-11.14-.38-5.09-1.58-11.42,7.76-6.79,5.49,2.72,5.48-6.57,11.35-6.65,6.48-.1,5.88-5.35,3.93-10.11-.55-1.35-2.09-3.96-.51-4.18,8.64-1.17,8.81-11.83,14.67-13.78,6.38-2.12,12.73-3.38,18.16-7.73,1.07-.85,3.42,.87,3.25,2.57-.3,2.92,24.92-4.47,24.28-1.41-5.05,8.76-26.78,21.5-31,31-1.73,4.16,11.54,29.04,9,33-1.7,2.65-19.68,2.89-18,5,3.97,4.99-4.42-12.2,1.19-8.57,2.92,1.89,5.81,2.97,8.93,.96,4.18-2.69,.92-5.57-.06-8.36-3.28-7.62-6.21-15.32-5.91-23.8,.12-3.44-.28-7.07,2.77-9.69,5.22-4.93,11.55-9.58,12.79-16.88,2.16-12.77,10.83-14.34,21.1-14.24,12.13,.13,24.21-.17,35.93-3.88Z"/>
  <path class="cls-2" d="M1457.31,910.47c-13.42-9.39-27.62-17.74-39.2-29.56-.11-66.94-.25-133.88-.31-200.81-.06-65.65-.04-131.3-.02-196.94,0-3.21,.36-6.42,.55-9.64,2.87-4.78,1.61-10.48,3.74-15.58,4.66-11.15,9.41-21.78,22.53-25.44,3.26-.91,3.91-4.91,6.03-7.2,2.48-2.67,5.76-7.05,7.7,.63-.04,157.11,0,314.19-.06,471.28,0,3.82,.89,7.76-.85,11.46,0,.6-.04,1.21-.11,1.81Z"/>
  <path class="cls-24" d="M1457.43,908.67c-.02-158.03-.03-316.06-.05-474.09,0-3.88-.04-7.76-.07-11.63-3.31-3.75-3.06-8.38-3.06-12.87-.07-89.47-.05-178.93-.04-268.4,0-4.91,.37-9.69,3.13-13.96,0,0,.08-.07,.08-.07,3.3,3.22,1.85,7.35,1.85,11.05,.09,88.93,.07,177.86,.08,266.79,0,112.03,0,224.05,0,336.08-.01,52.01,0,104.02-.1,156.03,0,3.71,1.41,7.82-1.8,11.07Z"/>
  <path class="cls-16" d="M1546.57,671.63c0,5.18,0,10.36,0,15.54-5.5-5.18-5.5-10.36,0-15.54Z"/>
  <path class="cls-20" d="M806.54,1042.85c21.97,.68,43.94,1.35,65.92,2.03,2.82,2.78,3.13,6.39,1.88,9.62-2.17,5.6-1.29,11.76-3.78,17.22-19.62,.02-39.25,.07-58.87,0-3.1-.01-6.51,.98-9.12-1.78,17.13-.23,18.19-1.57,17.68-18.16-.17-5.55-2.07-7.67-7.44-7.18-2.23,.2-4.59,.27-6.27-1.75Z"/>
  <path class="cls-21" d="M1068.75,1044.75c1.6,9.96-4.82,18.88-3.7,28.78-24.22,.08-48.45,.09-72.68,.29-5.93,.05-8.04-1.16-4.03-6.94,1.57-2.26,2.18-5.4,2.59-8.23,1.24-8.39-1.87-11.58-10.23-12.14-10.17-.69-20.55,2.23-30.52-1.73,8.03-5.72,17.12-2.34,25.73-3.02,27.36-.57,54.71-.21,82.07-.18,3.82,0,7.82-.07,10.76,3.17Z"/>
  <path class="cls-14" d="M870.55,1071.72c-5.16-9.36,4.52-17.67,1.9-26.84,.75-.16,1.51-.31,2.27-.47,13.55-4.36,27.06-4.94,40.52,.37,6.91,3.39,13.49,17.14,11.47,23.96-1.16,3.92-4.46,3.02-7.16,3.03-16.33,.05-32.67-.01-49-.04Z"/>
  <path class="cls-1" d="M915.24,1044.78c-13.51-.12-27.02-.25-40.52-.37-.77-3.06-1.54-6.11-2.31-9.16,2.83-3.46,6.88-3.34,10.71-3.37,27.52-.17,55.04-.16,82.56-.02,3.24,.02,6.49,.27,9.39,2.02,3.31,3.36,3.29,6.91,.6,10.62-8.49,.1-16.99,.19-25.49,.29-11.65,0-23.3,0-34.95,0Z"/>
  <path class="cls-27" d="M1211.19,1013.78c-.24,1.87-.48,3.74-.71,5.61-3.18,5.76-8.81,4.6-13.81,4.63-41.37,.28-82.75,.18-124.12,.15-116.69-.1-233.38,.06-350.06-.13-4.43,0-9.17,.99-12.89-2.66-.01-1.94-.03-3.89-.04-5.83,20.72,1.69,41.42,2.99,62.23,1.02,5.35-.51,10.84,.82,16.27,.82,134.49,.05,268.99,.01,403.48,.13,6.91,0,13.47-.57,19.67-3.74Z"/>
  <path class="cls-19" d="M975.38,1035.13c-34.32,.04-68.65,.08-102.97,.12-51.15-.09-102.29-.22-153.44-.25-5.47,0-10.96,.57-9.3-7.75,3.76-3.91,8.68-3.99,13.54-3.94,39.67,.44,79.34,.07,119.01,.62,22.89,.32,45.83-.98,68.75-.24,28.04,.9,56.06-1.33,84.13,.36,19.34,1.17,38.78-1.81,58.17-.7,27.72,1.58,55.44-.23,83.18,.45,20.89,.51,41.93,.09,62.9-.46,3.78-.1,7.83-.93,11.21,1.84,1.54,8.05-2.09,10.79-9.78,9.9-1.62-.19-4.91-1.29-4.24,2.64,.08,.49,1.58,.74,2.42,1.09-5.47,3.92-11.81,.8-17.6,2.16-18.76,.62-37.52,1.24-56.27,1.86-6.45-.05-12.9-.1-19.35-.15-4.61-5.45-11.02-4.6-17.03-4.62-32.83-.11-65.65-.01-98.48-.08-5.09-.01-10.39,.65-14.85-2.84Z"/>
  <path class="cls-11" d="M1210.57,1025.17c-22.69,1.68-45.45-1.42-68.18,1.67-8.09,1.1-16.66-1.85-24.93-1.45-29.76,1.44-59.56-1.43-89.21,.27-18.08,1.04-35.94-.51-53.85-.14-32.88,.67-65.73-.35-98.59-.25-23.06,.07-46.12,1-69.16,.71-17.33-.22-34.62,.15-51.9,.37-15,.19-30.06-1.58-45.07,.9-.03-1.96-.05-3.92-.08-5.88,162.55-.02,325.1-.03,487.65-.07,4.48,0,9.12,.76,13.23-1.92,.03,1.93,.06,3.86,.09,5.78Z"/>
  <path class="cls-8" d="M975.38,1035.13c40.9-.04,81.8,.02,122.7-.23,5.94-.04,8.38,1.95,7.65,7.78-12.16,3.7-24.68,1-36.99,2.09-31.03-.08-62.05-.17-93.08-.26-.1-3.12-.19-6.25-.29-9.37Z"/>
  <path class="cls-34" d="M1457.33,127.71c0,98.41-.01,196.82-.02,295.23-.63,.11-1.72,.08-1.82,.37-3.41,10.25-13.62,12.35-21.03,17.86-7.51,5.59-7.16,15.68-11.95,22.98-1.82,2.77-1.3,6.88-4.17,9.38-.17-2.24-.5-4.49-.5-6.73-.04-99.56-.05-199.11-.04-298.67,0-1.61,.21-3.22,.32-4.82,5.37-12.33,17.85-17.5,26.65-26.39,3.31-3.34,8.54-4.51,10.74-9.19,.61-.02,1.22-.02,1.83,0Z"/>
  <path class="cls-24" d="M1095.97,48.54c-1.25,4.21-2.31,9.31-7.98,10.39-2.13,.4-3.3-2.12-2.11-4.16,2.57-4.43-.22-12.06,6.65-13.47,3.35-.69,3.39,3.84,3.45,7.24Z"/>
  <path class="cls-12" d="M925.4,981.15c3.56,1.65,5.11,4.86,5.05,8.44-.06,3.06-2.33,5.86-5.45,5.62-4.44-.34-3.77-4.41-3.81-7.53-.04-2.97,.25-5.88,4.22-6.53Z"/>
</svg>