<?xml version="1.0" encoding="utf-8"?>
<!-- Generator: Adobe Illustrator 26.5.0, SVG Export Plug-In . SVG Version: 6.00 Build 0)  -->
<svg version="1.1" id="Layer_2_00000168819386872674175780000017646384111328001961_"
	 xmlns="http://www.w3.org/2000/svg" xmlns:xlink="http://www.w3.org/1999/xlink" x="0px" y="0px" viewBox="0 0 293.3 250.4"
	 style="enable-background:new 0 0 293.3 250.4;" xml:space="preserve">
<style type="text/css">
	.st0{fill:#31719D;}
	.st1{fill:#3B759A;}
	.st2{fill:#476F8C;}
	.st3{fill:#A0A0A1;}
	.st4{fill:#517B95;}
	.st5{fill:#417EA7;}
	.st6{fill:#467DA0;}
	.st7{fill:#A09FA1;}
	.st8{fill:#537588;}
	.st9{fill:#53748D;}
	.st10{fill:#A2A2A3;}
	.st11{fill:#5690A4;}
	.st12{fill:#3F3E41;}
	.st13{fill:#667F93;}
	.st14{fill:#387288;}
	.st15{fill:#215A7A;}
	.st16{fill:#4B8EA6;}
	.st17{fill:#2D6486;}
	.st18{fill:#23628D;}
	.st19{fill:#216695;}
	.st20{fill:#327DB1;}
	.st21{fill:#4788A7;}
	.st22{fill:#4B869B;}
	.st23{fill:#F4F4F6;}
	.st24{fill:#95C4D5;}
	.st25{fill:#3C6B83;}
	.st26{fill:#579AB4;}
	.st27{fill:#F8F8FA;}
	.st28{fill:#BFBFC4;}
	.st29{fill:#848386;}
	.st30{fill:#5C5B61;}
	.st31{fill:#605F66;}
	.st32{fill:#86858A;}
	.st33{fill:#69696D;}
	.st34{fill:#31647E;}
	.st35{fill:#40819D;}
	.st36{fill:#5394AF;}
	.st37{fill:#6CB4CE;}
	.st38{fill:#5CACCC;}
	.st39{fill:#72CCE8;}
	.st40{fill:#65AAC4;}
	.st41{fill:#7EC7DE;}
	.st42{fill:#78BED4;}
	.st43{fill:#63A6BB;}
	.st44{fill:#64A4BA;}
	.st45{fill:#67AABF;}
	.st46{fill:#908F95;}
</style>
<path class="st0" d="M243.4,14c1.9,1.2,3.6,2.7,5.3,4.2c0.6,0.6,1.3,1.1,2,1.7c-0.2,1.1-0.8,0.5-1.2,0.3c-0.7-0.5-1.4-1.1-2.1-1.7
	c-1.1-1-2.4-1.5-3.7-2c-0.5-0.2-1.1-0.4-1.5-0.1c-1.4,0.9-3.1,1.6-4.1,3c-2.1,2.9-4.6,5.5-7,8.1c-2.1,2.2-4.3,4.4-6.6,6.5
	c-0.7,0.7-0.8,2-2.1,2c1.1,0.5,2,1.2,2.9,2c0.7,0.6,1.3,1.3,2,2c1.3,1.4,2.8,2.5,4,4c0.5,0.6,0.9,0.5,1.5,0.1c1.6-1,2.8-2.5,4.1-3.7
	c2.3-2.2,4.4-4.5,6.6-6.9c1.4-1.6,2.1-3.6,3-5.5c0.5-0.9,1-1.7,2.2-1.5c1.9,1.3,2.1,1.8,0.4,3.3c-2.1,2-4,4.2-5.8,6.4
	c-0.8,1-1.6,1.9-2.7,2.7c-0.8,0.6-1.3,1.3-1.1,2.4c-0.5,1.3-1.9,1.8-2.9,2.6c-1.1,0.9-1.8,2.2-2.7,3.3c-0.4,0.5-0.2,1-0.1,1.5
	c0.6,2.1,0.2,2.6-2.1,2.3c-0.1,0-0.2,0-0.3,0c-0.6-0.2-0.9-0.7-1.2-1.2c-0.2-0.3-0.3-0.7,0-1c0.3-0.4,0.7-0.2,1,0
	c0.3,0.2,0.6,0.5,0.9-0.1c0.2-0.4,0.4-0.8,0.2-1.2c-0.2-0.4-0.5-0.2-0.8,0c-1.4,1.2-2.8,2.3-4,3.6c-0.6,0.6-1.1,1.8-2.1,1.2
	c-1-0.6-1.8-1.7-1.8-3c-0.5,0.2,0.8-1-0.1-0.2c-0.5,0.4-1-0.9-1.5,0.2c-0.2,0.5-1.2-0.1-1.9-0.5c0,0.4,0.1,0.8,0.4,1.1
	c1.4,1.1,1.9,2.7,2.6,4.3c0.3,0.6,0.1,1.1-0.2,1.6c-0.9,1.6-2.2,2.8-3.6,4c-0.9,0.8-1.8,0.5-2.3-0.6c-0.6-1.2-0.9-2.5-2.7-1.8
	c-0.6,0.2-0.9-0.8-2.1-1c2.1,1.7,3.6,3.3,1.5,5.6c0.9,0.6,1.7-1.2,2.5,0.2c-0.7,1.9-2.2,3.3-3.5,4.7c-0.4,0.4-0.8,0.7-1.4,0.5
	c-0.4-0.2-0.7-0.5-0.8-0.9c-0.1-0.7-0.4-1.1-1.1-1c-0.7,0.1-1.3,0.3-1.5,1.1c-0.2,0.8-0.4,1.7-1.6,1.4c-0.4-0.3-0.2-0.8-0.1-1.2
	c0.2-1,0.2-1.7-0.9-2.2c-0.9-0.4-0.6-1.1,0-1.5c1.1-0.8,1.6-1.9,2-3.1c0.1-0.3,0.2-0.6,0.3-0.8c0.4-0.9,1.1-1.3,2.3-1
	c-1.1-0.7-2-1.2-2.9-1.9c-0.5-0.6-0.4-1.2,0.1-1.7c1.3-0.2,1.3,1.4,2.4,1.5c-0.9-1-1.5-2-0.6-3.4c0.2-0.3,0-0.8-0.1-1.2
	c-0.1-0.6,0-1.1,0.5-1.4c0.9-0.7,1.9-1.4,2.6-2.3c0.3-0.4,0.7-0.4,1.1-0.2c0.6,0.5,1.5,0.5,2.1,1.2c0.6,0.6,1.2,0.6,2,0
	c-0.9-0.8-1.3-1.8-0.8-2.9c0.1-0.2,0.1-0.6,0-0.8c-1.2-1.7-0.2-2.4,1.2-3.1c0.5-0.2,0.8-0.7,1.2-1c1.1-1,2-0.9,3.1,0
	c-0.4-1.2-2.2-1.3-2.3-2.9c0-0.1,0.1-0.2,0-0.2c-1.7,0.8-4.1-1.5-5.4,1.2c-1.7,0.4-2.4,1.7-2.9,3.2c-0.3,0.9-1.1,1.5-2,1.6
	c-2.5,0.3-3.4,2.4-4.8,4c-0.3,0.4-0.4,1-0.9,1.3c-0.6,0.5-0.4,0.9,0,1.5c0.5,0.7,1.1,1.2,1.5,2c-0.7,1.7-2.4,2.1-3.5,0.8
	c-0.5-0.6-1.2-1.2-1.5-2c0.2-1.2,1-0.9,2-0.7c-0.4-0.7-0.4-1.3-0.1-1.9c1.5-2.7,2.9-5.4,6.1-6.5c0.9-0.3,1.6-0.9,1.9-1.8
	c0.8-2.5,3-3.8,5.1-5c0.8-0.5,1.6-1.1,2.5-1.3c2.5,0.7,4.2-0.3,6-2.2c3.2-3.4,6.3-6.9,9.7-10.1c0.5-0.2,0.9-0.7,1.3-1
	c0.7-0.4,1.4-0.7,1.7-1.5c1.2-2.2,3.5-3.4,5-5.3C242,13.1,242.7,13.8,243.4,14L243.4,14z"/>
<path class="st1" d="M225.2,38.2c-1.3-0.3-2-1.8-3.5-1.7c-0.2,0-0.3-0.3-0.1-0.5c0.2-0.3,0.5-0.7,0.9-0.6c0.7,0.2,0.6-0.2,0.9-0.6
	c1-1.3,2.1-2.5,3.2-3.6c3.5-3.1,6.7-6.6,9.7-10.2c1.6-1.9,3.3-3.5,5.3-4.9c0.5-0.3,0.9-0.4,1.4-0.3c2.5,0.6,4.4,2.1,6.3,3.7
	c0.3,0.3,0.6,1.2,1.3,0.4c2.4,1.5,3.9,3.6,4.8,6.3c1,2.7,0.6,4.5-1.5,6.4c-0.6,0.5-1.2,1-1.9,1.4c-0.7,0.5-1.2,1.1-1.9,1.6
	c-0.6,0.6-1.3,1.2-1.9,1.9c-0.9,0.4-0.9-0.4-0.9-0.9c-0.2-3.4,0-3.8,3.2-5.2c0.4-0.2,0.8-0.5,0.6-0.9c-0.3-0.7-0.9-0.4-1.2,0
	c-1.6,1.9-3.6,3.2-5.2,5.1c-0.8,1-1.6,1.9-2.5,2.6c-0.9,0.8-1.9,1.6-2.3,2.8c-0.1,0.4-0.4,0.8-0.9,0.4c-0.6-0.9-0.3-1.6,0.5-2.2
	c2.4-1.8,4.2-4.1,5.9-6.5c0.8-1.1,2-1.8,2.9-2.8c1.4-1.6,1.5-1.5,0.2-3.1c0-0.1,0.1-0.2,0-0.3c-0.8-0.7-0.7-1.4,0.2-2
	c-0.1-0.4-0.5-0.3-0.7-0.5c-1.2-0.8-2-0.7-2.2,0.6c-0.4,2.4-2.1,2.9-3.9,3.4c-1.7,0.5-3.4,1-4.8,2.3c-0.1,0.1-0.2,0.2-0.3,0.1
	c-1.5-0.7-1.5,0.9-2.2,1.5c-0.9,0.1-1.9-0.2-2.6,0.5c-0.9,0.1-1.7,1.1-2.8,0.7c0.1,0.6,0.2,1.3,0.2,2s-0.2,1.1-1,1.1
	c-0.5,0-1,0.1-1.5,0.4c-1.7,0.9-2,0.7-2.1-1.4c-0.2,0.7,0,1.4,0.6,2c0.5,0.5,0.2,0.8-0.3,1C225.3,38.2,225.3,38.2,225.2,38.2
	L225.2,38.2z"/>
<path class="st2" d="M121.1,162c-0.4-0.1-0.7-0.3-1-0.6c-0.2-1.6,0.8-2.5,2.1-3.1c1,0.3,1.9,0.7,2.9,0.3c1.2,0.6,2.1,0.3,3-0.6
	c2.3-2.4,4.2-5.1,6.6-7.5c0.7-0.7,1.4-1.3,2.1-2c3.6-3.4,7.2-6.6,10.8-10c3.1-3,6.2-6,9.1-9.2c1.9-2.1,3.4-4.6,5.4-6.6
	c4.2-4.2,8.1-8.7,12.5-12.5c6.1-5.3,11.5-11.4,17.5-16.8c6.3-5.6,11.4-12.3,17.4-18.1c0.6-0.6,1.1-1.3,1.2-2.2
	c0.1-0.8,0.6-1.3,1.2-1.8c2.6-1.1,4.2-3.2,5.8-5.4c1.1-1.6,1.3-3.9,3.6-4.5c1.1,0.4,2.2,0.3,2.9-0.8c0.2-0.3,0.6-0.4,1-0.4
	c0.3,0.1,0.8,0.2,0.6,0.8c-1.4,2.2-2.9,4.3-5.5,5.1c-0.4,0.1-0.6,0.5-0.7,0.8c-1.2,3.1-3.3,5.5-6.5,6.7c-0.5,0.2-0.7,0.6-0.8,1.1
	c-0.2,1.3-1,2.3-1.9,3.2c-7.1,7.3-14.1,14.9-21.5,21.9c-5.3,5-10.7,9.8-16.1,14.8c-4.7,4.3-8.9,9.2-13.1,14.1
	c-4.9,5.6-10.1,10.9-15.5,16.1c-4.9,4.7-9.7,9.4-14.5,14.1c-1,1-2.1,1.8-3.6,0.9c-0.6-0.4-1.2-0.2-1.7,0.4c-0.5,0.6-1.1,1.2-1.6,1.8
	c-0.3,0.3-0.6,0.8-1.2,0.3c-0.3-0.4-0.3-0.8-0.1-1.3C121.3,161.3,121.4,161.7,121.1,162L121.1,162z"/>
<path class="st3" d="M55.7,212c0.5-1.1,1.5-1.8,2.3-2.6c5.9-6.1,11.8-12.3,17.6-18.4c7.7-8.1,15.4-16.1,23-24.2
	c3.9-4.2,7.8-8.4,11.8-12.6c0.4-0.4,0.8-0.8,0.6-1.4c0.1-0.1,0.2-0.2,0.4-0.1c0.7,0.7,1.6,1,2.7,1.1c0.4,0.9-0.1,1.5-0.5,2.2
	c-1.8,1.8-3.4,3.7-5.3,5.5c-2.3,2.2-4.3,4.8-6.5,7.1c-2.1,2.3-4.3,4.5-6.5,6.7c-7.7,8.2-15.5,16.3-23.3,24.4
	c-4.3,4.5-8.5,9.1-13,13.4c-0.4,0.1-0.8-0.1-1-0.3C57.3,212,56.7,211.4,55.7,212L55.7,212z"/>
<path class="st4" d="M217.6,34.3c-1.9,1.2-4,2.1-5.7,3.7c-0.8,0.7-1.3,1.5-1.5,2.5c-0.3,1-1,1.7-1.9,2c-3.3,0.9-4.6,3.8-6.2,6.3
	c-0.5,0.9,0.2,1.6,0.4,2.4c-0.9-0.2-1.7-1.1-2.5-0.1c-0.1,0.3-0.3,0.6-0.6,0.7c-2.2,1-2.7,2.9-3,5c-0.1,0.7-0.4,0.9-1,1
	c-1.4,0.3-2.4,1.1-3.4,2.2c-1,1-2.2,1.9-3.5,2.4c-1.9,0.8-2.6,2.5-3.5,4.1c-0.2,0.3-0.2,0.7-0.4,1c-0.2,0.4-0.6,0.8-1.1,0.8
	c-2.1,0.2-2.6,1.9-3.5,3.4c-0.4,0.6,0.3,1.3-0.1,1.9c-0.3,0.4-0.4,0.9-0.8,1.3c-0.2,0.2-0.5,0.4-0.9,0.3c-1.8-0.7-2.4-0.6-3.6,0.7
	c-1,1-1.9,2-2.9,3c-0.3,0.3-0.5,0.6-0.8,0.8c-1,0.9-0.8,2.7-2.6,3.3c-1.2,0.4-2.2,2.1-3.2,3.2c-1.9,2-3.3,4.4-5.1,6.5
	c-2.6,3.2-5.2,6.4-8,9.4c-0.4,0.5-0.8,1.3-1.8,0.9c-0.2-0.5,0.3-0.8,0.4-1.3c6.7-7.9,13.2-15.9,20-23.7c6.1-7,12.4-13.7,19.1-20
	c2.2-2,4.3-3.8,5.9-6.3c1-1.5,2.3-2.8,4.1-3.3c0.6-0.2,0.8-0.6,1-1.1c0.7-2,2.3-3.3,3.7-4.7c0.3-0.3,0.8-0.6,1.2-0.7
	c1.4-0.2,2.3-0.9,2.6-2.4c0.1-0.7,0.6-1.1,1-1.6c2.2-2.3,4.5-4.4,7-6.4C217.4,32.4,218.3,33,217.6,34.3L217.6,34.3z"/>
<path class="st3" d="M55.7,212c0.8-0.9,1.5-0.7,2.2,0.2c0.2,0.3,0.6,0.6,1,0.8c0.2,0,0.4,0.1,0.6,0.2c0.3,0.3,0.6,0.6,0.6,1.1
	c-0.5,1.6-2.2,2.3-2.9,3.5c1-0.8,1.9-2.1,3.2-3.1c0.1-0.1,0.3-0.1,0.4-0.1c0.8,0.2,1.4,0.7,2.1,1.2c0.2,0.2,0.5,0.3,0.7,0.5
	c0.3,0.4,0.9,0.7,0.4,1.3c-2.8,3.5-6.9,5.4-10.4,8c-0.5-0.7-0.6-0.8,0.1-1.3c1.3-0.9,2.3-2.2,3.5-2.9c0.4-0.3,0.5,0,0.3-0.2
	c0,0-0.1,0-0.1,0c-2.7,2-5,4.4-7.5,6.7c-0.4,0.3-0.7,0.7-0.8,1.2c-0.9,0.9-1.9,1.8-2.8,2.7c-1.1,1.1-1.7,0.1-2.3-0.5
	c-0.6-0.5-1.2-1-0.4-2c3-3.4,5.7-7,8-10.9C52.8,216.3,53.6,213.8,55.7,212L55.7,212z"/>
<path class="st5" d="M225.8,61c-0.2-0.2-0.4-0.4-0.6-0.6c-0.9-2.1-0.5-2.9,1.6-3.7c0.4-0.2,0.8-0.3,1-0.7c0.6-1,1.5-1.6,2.4-2.2
	c0.9-0.7,1.4-1.5,1.3-2.7c0-0.1,0-0.2,0-0.2c0.1-0.8,0.4-0.2,0.7-0.2c1,0.2,1.8-0.3,1.5-1.1c-0.3-0.8-1.1-1.6-0.5-2.3
	c0.9-1.1,1.4-2.5,2.6-3.4c1.1-0.8,2.2-1.7,3.3-2.6c0.1,0,0.3,0,0.3-0.1c0.6-2.1,2.7-3,3.8-4.6c1.7-2.4,4.3-3.9,6-6.2
	c0.4-0.5,1-1,1.7-1c0.5,0,0.7,0.6,0.8,1.1c0.2,0.7-0.1,1.2-0.9,1.3c-2.4,0.4-2.9,1.1-2.9,3.4c0,0.3-0.2,0.7-0.2,1.1
	c-0.1,0.5-0.2,1.1,0.6,1.2c-3.5,4.1-7.3,8-11.3,11.7c-2.6,2.4-4.5,5.3-7,7.7c-0.3,0.3-0.6,0.8-1,1C227.4,58.4,226.7,59.8,225.8,61
	L225.8,61z"/>
<path class="st6" d="M217.6,34.3c0.3-1.1-0.9-1.7-1-2.7c2.4-2.8,4.9-5.5,7.4-8.2c2.5-2.7,5.1-5.2,7.6-7.8c1.1,0.9,0.4,1.7-0.1,2.4
	c-0.5,0.8-0.6,1.1,0.5,1.3c1.3,0.2,2,1.6,1.5,2.7c-3.1,3.4-6.2,6.9-9.6,10.1c-0.6,0.6-1.1,1.3-1.7,1.9
	C220.8,35.2,219.2,34.7,217.6,34.3L217.6,34.3z"/>
<path class="st7" d="M119.2,160.7c-0.7-0.1-0.9,0.4-1.3,0.8C107.6,172.2,97.3,183,87,193.7c-3.7,3.9-7.5,7.8-11.3,11.7
	c-0.4,0.2-0.8,0-1-0.3c0-1.2,1.1-1.6,1.8-2.3c3.8-4.5,8.2-8.5,12.3-12.8c1.8-1.8,3.5-3.7,5.2-5.7c1.9-2.3,4-4.4,6.1-6.6
	c1.9-1.7,3.7-3.4,5.3-5.4c1-1.2,2.2-2.4,3.4-3.5c2.6-2.6,4.8-5.6,7.5-8.1c0.8-0.7,1.5-1.2,2.5-0.8
	C119,160.2,119.3,160.3,119.2,160.7L119.2,160.7z"/>
<path class="st8" d="M111.2,152.8c-0.1,0-0.2,0-0.4,0c-0.1-0.1-0.2-0.1-0.2-0.2c-1.8-2.4-1.9-2.4,0.3-4.6c0.7-0.7,1-1.4,0.6-2.3
	c-0.5-1.1-0.2-2.1,0.6-2.9c3.4-4.1,6.9-8.1,10.5-12c0.4-0.3,0.7-0.7,1.3-0.4c0.4,1-0.6,1.7-0.6,2.6c-1.3,2.8-4.1,4-6,6.2
	c-1.4,1.6-2.9,3.2-4.3,4.8c-0.5,0.6-0.6,1.2-0.3,1.9c0.4,0.8,1.2,1,1.9,0.5c0.4-0.3,0.6-1,1.3-0.6c0.3,0.8,0,1.6-0.1,2.3
	c-0.1,0.7,0.1,1.4,0.4,2c0.2,0.6,0.4,1.2-0.3,1.5c-0.6,0.3-1.2,0.4-1.8-0.4c-0.8-1.1-2-1.1-2.5-0.2
	C111.1,151.7,111.7,152.3,111.2,152.8L111.2,152.8z"/>
<path class="st6" d="M236.3,19.4c0.1,1.1-0.9,1.1-1.6,1.6c-0.8-0.4-1.2-1-1.1-1.9c0.1-0.4,0.1-0.9-0.3-1.1c-0.9-0.6-0.9-1.1,0.1-1.5
	c0.5-0.2,0.1-0.5,0-0.7c-0.2-0.5-0.8-0.7-1.1-1.1c0.8-1.2,1.8-2.1,2.9-2.8c2-1.2,4.9-0.7,7,1.3C240,14.9,238,17,236.3,19.4
	L236.3,19.4z"/>
<path class="st9" d="M123.9,130.5c-0.5,0.1-0.9,0.2-1.4,0.3c2.2-2.8,4.7-5.3,7.1-7.8c4.4-4.5,8.8-9,13.4-13.4
	c1.7-1.6,3.1-3.4,4.9-4.8c0.9-0.2,1.2-1.4,2.3-1.3c0.4,1.3-0.7,1.8-1.3,2.4c-5.4,5.6-11.3,10.8-16.5,16.6c-0.7,0.8-1.6,1.4-2.4,2.1
	c-1.6,1.5-2.9,3.3-4.5,4.9C125.2,130,124.7,130.5,123.9,130.5L123.9,130.5z"/>
<path class="st10" d="M74.7,205.1c0.3,0.1,0.6,0.2,1,0.3c-3.7,4.4-7.8,8.3-11.8,12.4c0.2-0.6-0.4-0.8-0.7-1.2
	c0.5-1.1,1.5-1.8,2.3-2.6c2.4-2.7,5.1-5.1,7.5-7.9C73.5,205.6,73.9,204.9,74.7,205.1L74.7,205.1z"/>
<path class="st11" d="M119.2,160.7c-0.1-0.3-0.4-0.3-0.6-0.4c-0.8-0.7-1.9-1.1-2.4-2.2c0.5-1.2,0.8-2.6,2.2-3.4
	c0.9-1.1,1.7-0.6,2.4,0.1c0.1,0.3-0.1,0.4-0.2,0.6c-0.6,0.3-1.1,0.5-0.2,1.1c0.7,0.5,1.9,0.6,2.1,1.8c-1.1,0.7-1.9,1.7-2.2,2.9
	C119.8,161.1,119.5,160.9,119.2,160.7L119.2,160.7z"/>
<path class="st1" d="M232.4,14.6c1.1-0.1,1.4,0.7,1.7,1.5c0.3,0.9-0.8,0.5-1.1,1.1c1.1,0.3,1.6,0.9,1.1,2.1c-0.3,0.7,0.7,1,0.7,1.6
	c-0.4,0.3-0.6,1-1.3,1c-0.6-0.9-0.2-2.7-2.1-2.3c-0.4,0.1-0.7,0-0.9-0.4c-0.2-0.5,0.1-0.8,0.4-1.1c0.7-0.7,1.3-1.5,0.8-2.6
	C231.8,15.2,232.1,14.9,232.4,14.6L232.4,14.6z"/>
<path class="st12" d="M49,229.2c-0.1-0.3-0.7-0.4-0.2-0.9c3.1-2.6,5.9-5.7,9.3-7.9c0,0,0.1,0,0.4,0.1c-1.5,1.4-3,2.7-4.4,3.9
	c-0.4,0.3-1.2,0.4-0.6,1.2C52.1,227,50.7,228.2,49,229.2L49,229.2z"/>
<path class="st1" d="M236.3,19.4c0.2-1.8,2-2.6,2.9-3.9c0.7-1.1,1.6-2.2,3.1-2.4c0.4,0.3,0.9,0.4,1.1,0.9c-1-0.3-1.6-0.1-2.4,0.8
	C239.5,16.4,237.8,17.8,236.3,19.4L236.3,19.4z"/>
<path class="st13" d="M150.3,103.5c-0.8,0.3-1.2,1.4-2.3,1.2c1-1,1.9-2,2.9-2.9c-0.1,0.5-0.2,0.9-0.3,1.4
	C150.7,103.5,150.6,103.6,150.3,103.5L150.3,103.5z"/>
<path class="st14" d="M121.1,162c-0.4-1,0.3-1.4,1.2-2.1c0,1.1-0.7,1.7-0.6,2.5C121.5,162.2,121.3,162.1,121.1,162z"/>
<path class="st5" d="M250.3,35.6c0.5-0.7,0.9-1.4,1.9-1.6C251.6,34.7,251.1,35.4,250.3,35.6z"/>
<path class="st15" d="M211.9,71.5c-0.6,2.7-2.4,4.5-4.2,6.3c-2.2,2.2-4.1,4.7-6.3,6.9c-2.1,2.1-3.6,4.8-5.9,6.5
	c-5.4,4-9.4,9.3-14.4,13.7c-2.6,2.3-5,4.8-7.7,6.9c-2,1.6-3.5,3.7-5.4,5.5c-3.3,3.2-6.8,6.3-9.4,10.2c-1.3,1.9-3.1,3.3-4.5,5.1
	c-1.2,1.6-3,2.9-4.4,4.4c-2.4,2.6-5.3,4.7-7.7,7.2c-3.7,3.8-7.9,7.1-11.2,11.4c-0.8,1.1-1.7,2.3-2.8,3.2c-0.9,0.7-1.9,1.3-2.9,0.1
	c-1.2-1-1.3-1.8-0.1-2.6c3.7-2.8,6.9-6.2,10-9.6c3.4-3.6,6.7-7.3,10-11c2-2.2,4-4.3,6.2-6.3c1.8-1.7,3.3-3.7,5-5.5
	c0.3-0.3,0.5-0.7,0.8-1c1.1-1.2,2.2-2.3,2.5-4.1c0.1-0.9,0.9-1.6,1.2-2.4c3.8-4.3,7.3-8.9,11.6-12.8c1.2-0.8,2.3-1.6,3.3-2.8
	c1.1-1.3,2.2-2.8,3.5-4c0.8-0.8,2.2-1,3.4-1c0.6,0,1-0.2,1.4-0.5c0.5-0.4,1-0.9,1.5-1.4c3.4-4,7.3-7.4,10.9-11.2
	c3.1-3.3,6.3-6.5,9.5-9.7c0.4-0.4,0.7-0.8,1-1.2c1.2-1.8,2.6-3.3,4.4-4.5c1.9-0.8,2.6-2.6,3.9-4c0.3-0.3,0.4-0.9,0.9-1.1
	c1.1-0.1,1.6,0.4,1.4,1.5c-0.1,0.4-0.1,0.7-0.1,1.1c0.2,2.1-1.1,3.2-2.8,3.9C212.9,69,212,69.9,211.9,71.5L211.9,71.5z"/>
<path class="st16" d="M184.6,67.7c0.6-2.4,1.6-4.4,4.1-5.6c1.6-0.8,3.1-1.9,4.4-3.3c0.6-0.8,1.5-1.1,2.5-1.2c0.4,0,1-0.2,0.7-0.6
	c-0.6-0.9,0.2-1.3,0.3-1.9c0.3-2.2,1.8-3.2,3.6-3.9c0.5,0.5,1,0.9,1.4,1.4c1.1,1.5,2.2,1.5,3.3-0.1c0.9,0.5,1.9,0.7,2.2,1.9
	c-0.1,0.5-0.4,1,0,1.6c1.5,0.8,0.6,2.1,0.6,3.2c0,0.3-0.1,0.5-0.3,0.6c-0.4,0-0.7-0.3-1.1-0.4c-0.4-0.2-0.6-0.6-0.6-1
	c0-0.1,0.1-0.3,0.1-0.4c0.5-0.9-0.1-1.2-0.8-1.5c-0.2-0.1-0.5-0.2-0.5-0.5c-0.3-1.4-0.4-1.4-1.6-0.5c-1.4,0.1-1.7,1.3-2,2.2
	c-0.4,1.3-1.1,2.2-1.8,3.2c-0.1,0.3,0,0.7-0.1,1c-0.5,1.5-0.6,3.2-1.5,4.6c-0.2,0.3-0.2,0.6-0.1,0.9c0.8,1.4,0,2.4-0.9,3.3
	c-0.8,0.8-1.2,1.9-2.1,2.5c-0.2,0.3-0.4,0.6-0.6,0.9c-0.2,0.1,0-0.1-0.1,0.1c-1.4,1.6-2.8,2.6-4.9,1.1c-0.3-0.2-1-0.2-1.2,0.1
	c-0.6,0.9-1.4-0.1-2.1,0.2c-0.3,0.2-0.4-0.5-0.5-0.8c-0.3-1-0.2-2.2-1.4-2.8c-0.6-0.3-0.4-1.2-0.1-1.7c0.4-0.6,0.9-0.6,1.5-0.3
	c0.7,0.4,1.3,0.7,1.6-0.3c0.3-0.9-0.2-1.4-1.1-1.5C185.1,68.1,184.8,68,184.6,67.7L184.6,67.7z"/>
<path class="st17" d="M211.2,67c-0.1,0.2-0.1,0.5-0.3,0.7c-4.2,4.5-8.4,9-12.7,13.4c-2.9,3.1-5.9,6.1-9,9c-2,1.8-3.2,4.2-5.5,5.7
	c-0.2,0.2-0.2,0.7-0.7,0.5c-2.5-0.9-3.7,0.7-5.1,2.4c-1.6,1.8-2.8,4.1-5.4,4.8c-0.1-0.1-0.1-0.2-0.1-0.3c1.9-2.2,2.9-5,4.8-7.2
	c0.1-0.2,0.3-0.3,0.5-0.4c1.3-0.4,2.1-1.3,3.2-2.1c1.2-0.9,2.4-1.9,3.4-3c2.6-2.6,4.8-5.5,7.2-8.1c0.5-0.6,0-1.1-0.1-1.6
	c-0.1-0.3-0.1-0.6,0.1-0.9c0.3-0.2,0.6-0.2,0.9,0c1.1,1.3,1.9,0.3,2.5-0.4c1.6-1.9,3.1-3.9,4.9-5.6c0.9-0.9,0.8-1.8-0.3-2.5
	c-0.6-0.4-0.6-0.8-0.4-1.4c0.2-0.5,0.4-1,0.3-1.5c0-0.2,0-0.5,0.1-0.7c0.6-0.8,3.3-1.8,3.6-1.2c0.8,1.8,2.1,0.7,3.1,0.9
	c0.9,0.1,1.1-0.5,1.3-1.3c0.2-1.1,1.7-1.9,2.8-1.6c0.4,0.1,0.7,0.3,0.5,0.8C210.5,66.3,211.1,66.6,211.2,67L211.2,67z"/>
<path class="st18" d="M207.1,54.3c-0.6-0.8-1.8-0.9-2.2-1.9c-1.2-0.4-1.5-1.7-2.3-2.5c-0.2-0.2-0.2-0.5,0-0.7c1.5-1.7,3-3.5,4.5-5.2
	c0.4-0.5,1-0.5,1.6-0.6c1.5-0.2,2.4-1,2.6-2.5c0.1-0.4,0.2-1,0.4-1.1c1.8-0.9,2.9-2.8,5.1-2.9c0.2,0,0.4-0.1,0.4,0
	c1.1,1.4,2.1,0.7,2.9-0.4c0.4,0.7-0.2,0.9-0.4,1.2c-0.1,0.4-0.2,0.8,0.3,0.9c1.6,0.3,1.6,2.2,2.9,2.8c-0.7,0.1-1.1-0.2-1.5-0.6
	c-1-1-1.9-0.5-2.8,0.2c-0.2,0.2-0.4,0.5-0.7,0.7c-1.4,0.7-2.8,1.3-1.4,3.2c0.3,0.4,0,0.7-0.2,1c-0.4,0.7-0.4,1.6,0.5,1.8
	c0.7,0.2,0.3,0.5,0.4,0.8c0.1,0.4-0.1,0.6-0.5,0.6c-0.8,0-1.7,0.8-2.3-0.5c-0.3-0.7-1.2-0.4-1.8-0.9c-1.1-1-0.9,0.5-1.3,0.7
	c-0.5,0.3-1,0.8-1.5,1.1c-0.9,0.5-1.3,1-0.9,2c0.1,0.3,0.2,0.9,0,1.1c-1.1,1.2-0.3,2,0.5,2.9c0.3,0.3,0.7,0.7,0.3,1.1
	c-0.4,0.4-0.6-0.3-0.9-0.3C208.1,56.1,208,54.7,207.1,54.3L207.1,54.3z"/>
<path class="st19" d="M211.9,71.5c-0.5-1.3-0.1-2.3,1.2-2.9c1.3-0.6,2.7-0.9,3.5-2.4c0.6-1.1-0.3-2.3,0.4-3.4
	c0.1-0.2-0.7-0.5-1.1-0.8c-0.6-0.7-0.9,0.1-1.3,0.3c-0.5,0.3-1,0.6-1.4,0.1c-0.3-0.4,0-0.9,0.3-1.3c1.1-1.5,0.9-2.3-0.4-3.4
	c-0.1-0.1-0.2-0.2-0.4-0.3c-0.4-0.4-1.2-0.7-0.7-1.4c0.6-0.7,1.1,0,1.5,0.4c0.4,0.5,0.6,0.7,1.4,0.3c0.9-0.5,1.5,0.3,1.9,1
	c0.2,0.3,0.3,0.8,0.4,1.1c0.4,1.3,1.1,1.2,1.9,0.5c0.9-0.8,1.8-1.7,2.6-2.6c1.2-1.3,1-3.6-0.3-5.3c-0.4-0.5-0.8-1-1.3-1.3
	c-0.7-0.4-0.6-0.9-0.3-1.5c0.4-0.7,0.7,0.2,1.1,0.1c0.3,0,0.6,0.2,0.9,0.3c0.5-0.5-0.1-1,0.3-1.6c0.1,2,2.1,0.3,2.6,1.6
	c-1.6,0-0.2,1-0.4,1.4c-0.1,0.1,0.7,0.6,0.9,1c0.3,0.9,0.9,0.8,1.3,0.2c1.4-1.9,3.4-3.1,4.9-4.8c0.3-0.3,0.5-0.5,0.9-0.3
	c0.4,0.2,0.6,0.4,0.6,0.9c0,0.7-0.2,1.4-0.6,2c-0.4,0.8-0.7,0.2-1-0.2c-0.2-0.2-0.4-0.6-0.7-0.4c-0.3,0.2-0.1,0.6,0.1,0.8
	c0.3,0.4,0.4,1,1,1.2l0,0c-0.1,1.7-1.4,2.6-2.4,3.6c-1,1-2.2,1.9-3.9,1.9c-0.7,0-0.9,0.5-0.9,1.1c-0.1,2.2-1.1,3.6-3,4.2
	c-1.9,1-2.6,3-3.5,4.8c-0.2,0.4-0.4,0.8-0.8,1.2c-1,1.1-2.3,1.9-3.1,3.2C213.5,71.6,212.6,71.5,211.9,71.5L211.9,71.5z"/>
<path class="st20" d="M232.2,32.1c0.7-1,1.6-1.1,2.5-0.3c0.9-0.5,3.4-0.4,4,0.1c0.3,0.3,0.5,1.1,1,0.7c0.7-0.6,1.9-0.1,2.3-1.2
	c0.3-1,1.1-1.4,1.9-1.7c0.6-0.2,1.1-0.6,1.5-1.1c0.4-0.5,0.8-0.9,1.4-0.4c-0.3,0.6-0.7,1.3-1,1.9c-1.6,3.7-4.8,6.2-7.4,9.1
	c-1.9,2-3.9,3.9-6,5.7c-0.2,0.2-0.5,0.6-0.7,0.2c-1.3-1.8-3-3.1-4.5-4.7c-0.1-0.1,0-0.3,0-0.5c0-0.1,0.1-0.1,0.1-0.2
	c0.2-0.2,0.8-0.4,0.7-0.5c-0.2-2.2,1.2-1.1,2.2-1c-1-0.4-0.9-1.1-0.7-1.7c0.2-0.6,0.4-1.3,1.1-1.4c0.7-0.1,0.6,0.7,0.9,1.4
	c-0.5-1.9-0.1-2.8,1.3-2.6c0.2,0.1,0-0.3,0-0.1c-0.7,0-1.3-0.3-0.8-1.1C232,32.5,232.2,32.4,232.2,32.1L232.2,32.1z"/>
<path class="st5" d="M246.8,28.3c-1.4,0.9-3.7,1.6-4.1,2.9c-0.6,1.8-2.2,1-2.9,2c-0.1,0.1-0.8,0-0.8-0.1c-1-1.9-2.7-1-4.2-1.2
	c0.1-1.1,1-1.8,1.6-3c0.2,1.5,0.5,1.8,1.4,0.6c0.7-0.9,2.1-1.1,3.1-1.5c0.9-0.3,1.8-0.8,2.9-0.9c0.7,0,1.9-0.3,1.7-1.8
	c-0.1-0.6,0.2-1.6,1-2c0.7-0.3,1.3-1,1.9,0.2c0.3,0.6,1,0.3,1.5,0.5c-0.2,1-1.2,1-1.8,1.5c0.4,0.6,1.6-0.1,1.6,0.9
	c0,0.4-0.5,0.3-0.8,0.3C247.6,26.7,247,27.3,246.8,28.3L246.8,28.3z"/>
<path class="st21" d="M206.1,67.7c-1,0.7-2.1,0.8-3.2,0.5c-0.4-0.6,0.9-0.6,0.3-1.1c-0.4-0.3-0.9-0.2-1.3,0.1
	c-0.6,0.6-1.8-0.5-2.1,0.8c-0.8,0.2-0.8,0.2-0.8-0.7c0.1-1,0.9-1.9,0.8-2.9c0.3-1.9,0.4-2,2.1-1.5c1.3,0.4,3.3-0.9,4-2.5
	c0.2-0.4,0.2-0.9,0.6-1.3c0.5,0,0.8,0.2,1,0.7c-0.3,1.3-0.4,2.8-2,3.3c-0.2,0.1-0.4,0.5-0.4,0.8c0,0.4,0.4,0.1,0.6,0.2
	c0.9,0.5,1.1,1.3,0.9,2.2C206.5,66.7,206.3,67.2,206.1,67.7L206.1,67.7z"/>
<path class="st21" d="M207.7,59.1c-0.2-0.2-0.6-0.6-0.5-0.7c0.7-0.9,0.2-1.7-0.1-2.5c1.3,0.6,2.5,1.3,3.4,2.6
	C209.4,57.9,208.4,57.9,207.7,59.1z"/>
<path class="st20" d="M227.1,40.1c-1-0.3-1.4-1.2-1.9-1.9l0,0c0.4-0.3,0.9-0.1,1.4,0C227.9,38.4,228,38.9,227.1,40.1L227.1,40.1
	L227.1,40.1z"/>
<path class="st0" d="M227.1,40.1c0.5-0.9,0.6-1.5-0.8-1.5c-0.4,0-0.8-0.2-1.1-0.4c-0.1-0.3,1.1-0.7,0-0.8c-1-0.1-1-0.7-0.7-1.2
	c0.3-0.7-0.1-1.9,0.5-1.9c1.3,0,0,1.1,0.4,1.7c0.4,0.7,0.4,1.4,1.2,0.4c0.2-0.2,0.5-0.5,0.8-0.5c0.7,0.1,1.7-0.2,1.8-0.5
	c0.2-0.7,0.1-1.6-0.2-2.2c-0.2-0.5-0.2-0.9,0.1-1.1c0.6-0.4,0.4,0.4,0.6,0.6c0.5,0.4,0.9-0.3,1.4-0.3c0.4-0.1,0.7-0.5,1.1-0.2
	c0.2,0.2,0.7,0.3,0.7,0.5c0,0.6-0.7,0.1-0.9,0.5c0.3,1,1.1,0.2,1.6,0.5c-0.4,0.4-0.7,0.7-1.1,1c-0.1,0.1-0.1,0.2-0.2,0.2
	c-1,0.3-1.1,0.6-0.4,2.2c-0.5-0.4-0.9-0.9-1.3-1.7c-0.5,0.5-0.8,1-0.9,1.6c-0.1,0.5-0.2,1.1,0.7,0.8c0.2,0,0.7-0.1,0.6,0.5
	c-0.1,0.4-0.4,0.6-0.8,0.5c-0.6-0.2-1.2-0.3-2-0.5C229.1,39.6,228.1,39.8,227.1,40.1L227.1,40.1z"/>
<path class="st14" d="M161.1,116.2c-1.1,4.1-3.7,7.2-6.6,10.1c-1.4,1.4-2.8,2.7-4,4.1c-2.1,2.4-4.7,4.4-6.5,6.9
	c-1.5,2.1-3.6,3.7-5.2,5.7c-2.3,3-5.2,5.4-7.7,8.3c-1.5,1.8-3.4,3.2-5.3,4.6c-1.2,0.9-1.4,1.6-0.5,2.7c-1.1,0.4-2,0.3-2.8-0.3
	c-0.6-0.8-1.5-1-2.3-1.5c-0.4-0.3-1-0.3-0.9-1c0.1-0.9,0.7-0.6,1.3-0.7c0.7,0.2,0.9-0.4,1.3-0.8c2.8-3.1,6.3-5.5,9.1-8.6
	c0.2-0.3,0.6-0.5,0.9-0.6c1.8-0.5,2.6-2.1,3.5-3.5c1.2-2,2.7-3.8,4.9-5c1.3-0.7,2.4-1.8,3.4-2.8c2.3-2.5,4.9-4.8,7.4-7.1
	c1.3-1.2,2.2-2.8,3.5-4c1.8-1.7,3.7-3.3,4.9-5.5C159.6,116.8,160,115.8,161.1,116.2L161.1,116.2z"/>
<path class="st0" d="M221.4,61.6c0.2-0.4,0.5-0.5,0.8-0.7c1.4-0.5,2.3-1.2,1.8-3c-0.3-1.1-0.3-2.2,1.5-2c1.5,0.1,2.6-1,3.6-2
	c0.9-0.9,1.6-2,2.4-3.1c1.1,1.2,0.3,2.2-0.6,2.9c-1.1,0.9-2.3,1.6-3,2.8c-0.2,0.3-0.6,0.6-0.9,0.6c-2-0.2-1.9,1.1-1.8,2.4
	c0,0.3,0,0.5,0,0.8c-0.3,0.2-0.8,0.4-1,0.7C223.4,62.5,222.5,62.4,221.4,61.6L221.4,61.6z"/>
<path class="st22" d="M111.2,152.8c-0.4-0.9-0.9-1.9,0.4-2.6c1-0.5,1.9-0.6,2.4,0.5c0.4,1,1.1,0.9,1.6,0.6c0.8-0.4,0-1-0.2-1.4
	c-0.8-1.4,0.1-2.7,0.2-4.1c-0.4-0.4-0.4-0.9,0-1.2c1.7-1.2,2.7-3.1,4.2-4.6c0.1-0.1,0.2-0.3,0.2-0.4c1.2-3.2,4-5,6.6-6.9
	c0.8-0.6,1.4-1.5,2.1-2.3c0.7-0.8,1.5-1.6,2.3-2.3c2.2-1.1,3.8-2.9,5-5c0.2-0.4,0.3-0.8,0.7-1.1c2.1-1.3,3.3-3.3,4.6-5.4
	c0.1-0.1,0.2-0.2,0.3-0.3c1.9-1.3,2.9-3.4,4.4-5.1c3.7-4,7.5-8,11.1-12.1c2.8-3.2,5.9-6.2,8.6-9.5c2.3-2.9,4.9-5.4,7.4-8.2
	c0.5-0.6,0.9-1.1,1-1.9c0.2-1,0.7-1.9,1.5-2.6c1.2-1.1,1.6-1.1,2.7,0.2c0.5,0.6,1.4,0.6,1.9,1.2c0.1-0.5,0.1-1.1,0.5-1.6
	c1.4-0.1,1.9,0.6,1.7,2.4c-0.1,0.1-0.2,0.2-0.3,0.3c-0.6,0.2-1.2,0.5-1.9,0.4c-0.3-0.1-0.6-0.2-0.8-0.2c-0.6-0.1-1.1-0.3-1.6-0.6
	c-0.3-0.2-0.5-0.4-0.9,0.1c-0.4,0.4-0.5,0.6-0.1,1.1c0.4,0.5,0.7,1.1,0.5,1.7c-0.1,0.1-0.1,0.3-0.2,0.4c-1.5,1-2.1,2.8-3.6,3.9
	c-0.4,0.6-1.2,0.9-1.4,1.8c-0.2,1.1-1.3,1.8-1.6,2.9c-0.2,0.4-0.6,0.5-1,0.5c-0.2,0-0.5,0-0.6,0.2c-1.6,1.6-2.4,3.8-4.5,5
	c-0.2,0.1-0.1,0.6-0.1,0.9c0.1,1-0.9,1.4-1.3,2.1c-1.4,2.5-3.9,4.1-5.8,6.3c-1,1.2-2.2,2.3-3.1,3.6c-0.9,1.3-2.3,2.1-3.5,3.1
	c-0.4,0-0.8-0.4-1,0.3c-0.3,0.8-1.2,1.3-1.5,2c-0.8,1.8-2.4,2.8-3.6,4.2c-1,1.2-2,2.4-3,3.6c-1.4,1.5-2.9,3-4,4.8
	c-0.3,0.5-0.7,1-1.3,1.2c-1.4,1.6-3.4,2.7-4.6,4.6c-0.2,0.4-0.4,0.7-0.3,1.2c0,0.4-0.2,0.7-0.7,0.8c-1.1,0.4-1.6,1.5-2.2,2.3
	c-1,1.2-2.6,1.9-3.3,3.3c-0.1,0.1-0.2,0.2-0.3,0.3c-0.7,0.5-1.3,1.1-1.5,1.9c-0.1,0.1-0.2,0.2-0.3,0.3c-2,2-4.4,3.8-5.6,6.6
	c-0.2,0.7-0.6,1.4-0.2,2.1c0.1,0.3,0,0.6-0.4,0.8c-1.4-0.9-2.2,0.4-3.3,0.8C112.5,154.8,112.2,154.7,111.2,152.8L111.2,152.8z"/>
<path class="st23" d="M59.1,213.4c-0.1-0.1-0.2-0.2-0.3-0.3c0-0.7,0.5-1,0.9-1.4c6.1-6.3,12.2-12.6,18.3-18.9
	c9.1-9.5,18.2-18.9,27.2-28.6c2.6-2.8,5.4-5.5,8-8.4c0.3-0.1,0.6,0,0.8,0.3c-0.2,1.7-1.7,2.5-2.7,3.6c-3.4,3.8-6.9,7.4-10.5,11
	c-4,4.1-7.8,8.3-11.7,12.5c-2.3,2.5-4.8,4.9-7.2,7.4c-2.2,2.3-4.4,4.6-6.5,6.9c-1,1.1-2,2.2-3,3.2c-3.9,4-7.9,8-11.7,12.1
	C60.2,213.1,59.9,213.8,59.1,213.4L59.1,213.4z"/>
<path class="st24" d="M113.8,156.2c-0.1-0.3-0.4-0.4-0.7-0.4c0.2-0.7,0.8-1.3,0.6-2.1c0.2-0.2,0.5-0.4,0.6-0.7
	c0.8-1.3,1.6-1.3,2.6-0.2c0.4,0.1,0.9,0.4,0.8,0.8c-0.1,0.7,0.4,0.2,0.6,0.4c0.2,0.4,0.6,0.8,0.2,1.2c-1.5,0.4-1.2,2.1-2.2,2.9
	c-0.4,0.2-0.7-0.1-0.9-0.3c-0.1-0.1-0.2-0.1-0.4-0.2C114.4,157.3,113.9,156.9,113.8,156.2L113.8,156.2z"/>
<path class="st25" d="M180.7,76.9c-0.1,0.6-0.1,1.1-0.2,1.9c-1-0.6-2.2-0.5-2.9-1.8c-0.7-1.2-1.5,0.3-2.1,0.7
	c-0.5,0.3-0.9,1.1-0.9,1.7c-0.3,2-1.9,3-3.2,4.3c-1,1-1.8,2.3-2.9,3.2c-1.7,1.4-2.6,3.4-4.3,4.9c-1.3,1.1-2.2,2.6-3.5,3.8
	c-1.9,1.8-3.3,4.2-5.4,5.9c-0.4,0.3-0.5,0.8-0.8,1.1c-1.6,1.9-3.4,3.5-5,5.4c-1.4,1.7-3.1,3.2-4.4,5.1c-0.9,1.3-1.7,2.9-3.5,3.5
	c-0.6-0.7-0.2-1.3,0.3-1.8c0.4-0.4,0.8-0.7,1-1.6c-1.6,1.9-3.2,3.4-4.9,4.9c-4.2,3.6-7.8,7.8-11.9,11.6c-0.8,0.7-1.4,1.6-1.9,2.5
	c-0.3,0.6-0.6,1.2-1.4,0.9c-0.2-1,0.4-1.8,1-2.5c2.1-1.6,3.6-3.8,5.4-5.6c4.5-4.4,8.9-9,13.5-13.4c2.4-2.2,4.4-4.8,6.8-6.9
	c0.3-0.3,0.6-0.6,0.6-1.1c0.1-0.1,0.2-0.2,0.3-0.3c2.8-2.5,5-5.6,7.5-8.4c2.6-2.9,4.6-6.4,7.4-9.1c0.9-0.9,2-1.7,2.7-2.9
	c0.4-0.7,0.9-1,1.6-0.2c0-2.6,2.2-3.7,3.4-5.3c1.3-1.8,2.9-2.9,5.5-3.1c0,0-1.1,1.6,0.5,0.8c0.2,0.1,0.3,0.3,0.4,0.5
	c0.1,0.6,0.6,0.9,1.1,1.2C180.7,76.8,180.7,76.9,180.7,76.9L180.7,76.9z"/>
<path class="st26" d="M179.2,75.6c0-0.2,0-0.4,0-0.6c0-0.9,1.5-1.6,0.4-2.7c-0.1-0.2,2.1-3.4,2.4-3.5c0.9-0.4,1.8-0.7,2.7-1.1
	c0.5,0.1,0.9,0.1,1.4,0.1c0.7,0,1,0.6,1.2,1.2c0.3,0.8-0.3,1.3-0.7,1.8c-0.6,0.5-0.9,0-1.3-0.3c-0.4-0.4-1-0.8-1.4,0
	c-0.1,0.3-1,1.4,0.5,1.3c0.5,0,0.4,0.6,0.5,0.9c0.3,0.9,0.5,1.9,0.8,2.8c0.5-0.1,0.1-0.7,0.5-0.9c0.2,0.4,0.4,0.7,0.5,1.1
	c0.5-1.2,1.9-1.2,2.5-0.8c1.7,1.4,2.8,0.8,3.9-0.7c0.2-0.3,0.5-0.3,0.8-0.2c1-0.5,2-0.5,2.6,0.5c0.6,0.9-0.1,1.7-0.7,2.4
	c-1,1.1-2.4,1.5-3.7,2.1c-1,0.4-2,0.8-2.8,1.7c-1.1,1.1-1.9,1.1-2.7,0.3c-1.1-0.1-2-0.9-3.2-0.6c-0.4,0.1-1-0.4-1.4-0.9
	c0.4-1.3,0.3-2.2-1.3-2.5h0C180.2,76.4,179.9,75.8,179.2,75.6z"/>
<path class="st27" d="M60.8,214.9c-0.1,0-0.2,0-0.3,0c-0.5,0.1-0.4-0.3-0.5-0.6c-0.2-0.7,0.3-1.2,0.7-1.7c1.9-2.1,4.1-3.9,6-6.1
	c3-3.3,6.2-6.4,9.3-9.7c1.7-1.8,3.3-3.6,5-5.3c3.5-3.5,6.8-7.2,10.3-10.7c2.1-2.1,4.1-4.3,6.2-6.4c3.7-3.8,7.3-7.7,10.9-11.5
	c1.8-1.9,3.7-3.6,5.6-5.4c0.4-0.4,0.8-0.5,1.3-0.2h0.1c0.1,0.8-0.5,1.4-1,1.9c-3.5,3.6-6.9,7.4-10.3,11.1
	c-4.9,5.2-9.8,10.3-14.7,15.5c-0.1,0.1-0.2,0.2-0.3,0.4c-1.2,1.4-2.7,2.4-3.8,3.9c-0.1,0.1-0.2,0.2-0.3,0.3c-1.7,1.5-3,3.4-4.6,5
	c-4.1,4.7-8.4,9.1-12.8,13.4c-1.7,1.7-3.4,3.4-5.2,5.1C61.9,214.5,61.6,215.1,60.8,214.9L60.8,214.9z"/>
<path class="st28" d="M115.4,157.5c-1.5,0.1-2,1.5-2.8,2.3c-1.6,1.6-3.3,3.1-4.8,4.7c-4,4.3-8.2,8.4-12.2,12.6
	c-3.2,3.4-6.6,6.7-9.7,10.1c-2.9,3.2-6.1,6-9,9.2c-3,3.3-6.3,6.3-9.2,9.7c-2,2.4-4.4,4.4-6.6,6.6c-0.4,0.4-0.9,0.7-1,1.4
	c-0.1,0.1-0.2,0.1-0.2-0.1c-0.2-0.3-0.5-0.6-0.7-0.9c1.2-0.8,2-1.9,3-2.9c4-4.1,8-8.1,11.9-12.2c6.3-6.9,13-13.4,19.3-20.2
	c4.5-5,9.3-9.7,14-14.6c2.2-2.3,4.3-4.8,6.4-7.1C114.3,156.7,114.8,157.1,115.4,157.5L115.4,157.5z"/>
<path class="st29" d="M74.7,205.1c-3.1,3.2-6.3,6.4-9.4,9.7c-0.6,0.7-1.3,1.3-2.1,1.8c-0.2-0.1-0.4-0.2-0.6-0.4
	c-0.4-1.1,0.6-1.5,1.1-2.1c3.9-3.8,7.5-8,11.4-11.8c2.8-2.8,5.4-5.8,8.2-8.5c2.4-2.5,4.7-5.3,7.5-7.5c0.7-0.6,1-1.6,1.7-2.3
	c0.8-0.8,1.1-0.8,1.5,0.4c0,0.3,0,0.6-0.2,0.9c-2.1,2.1-4.2,4.2-6.2,6.3c-3.6,3.8-7.5,7.4-11,11.4C76.1,203.8,75.2,204.2,74.7,205.1
	L74.7,205.1z"/>
<path class="st30" d="M83.6,194c-1.7,1.7-3.5,3.4-5,5.2c-2.8,3.4-6.2,6.2-9,9.5c-2,2.4-4.3,4.5-6.4,6.8c-0.2,0.2-0.4,0.4-0.5,0.8
	c-0.6-0.4-1.2-0.9-1.9-1.3c2.7-2.2,5.1-4.9,7.6-7.4c3.5-3.6,7-7.3,10.5-10.9c0.4-0.4,0.8-0.9,1.3-1.4c0.8-0.4,1.3-1.1,1.9-1.7
	c0.4-0.4,0.8-0.8,1.5-0.6C83.9,193.3,83.9,193.6,83.6,194L83.6,194z"/>
<path class="st31" d="M59.9,214.3c0.1,0,0.2,0,0.2,0.1c0.1,0.2,0.2,0.4,0.3,0.6c-1.2,1.4-2.5,2.8-4.2,4.2c0.2-1.8,1.5-2.3,2.2-3.2
	C59,215.4,59.7,215,59.9,214.3L59.9,214.3z"/>
<path class="st32" d="M89,186c0.5-1.4,1.7-2.1,2.7-3c5.5-5.6,10.9-11.4,16.2-17.2c2.5-2.7,5.2-5.3,7.5-8.3c0.3,0.2,0.6,0.4,0.9,0.6
	c0.8,0.7,1.8,1.2,2.2,2.2c-0.6-0.1-1.1-0.4-1.7,0.3c-2.7,2.9-5.5,5.7-8.1,8.7c-2.5,2.9-5.2,5.6-8,8.3c-0.2,0.2-0.4,0.3-0.6,0.4
	c-0.5-0.3-0.9,0.9-1.3,0.1c-0.3-0.6,0.3-1,0.7-1.3c0.5-0.5,1-0.9,1.4-1.5c-2.2,2.4-4.6,4.7-6.9,7c-1.2,1.1-2.5,2.1-3.5,3.4
	C90.1,186.2,89.6,186.6,89,186L89,186z"/>
<path class="st33" d="M89,186c0.4,0.1,0.8,0.1,1-0.2c2.6-3.4,6.5-5.6,8.9-9.2c0.6-0.9,1.8-1.5,2.7-2.2c0.1,0.1,0.3,0.2,0.4,0.3
	c-1.1,1.1-2.1,2.2-3.2,3.3c0.4,0.5,0.9-0.6,1.2,0.1c-1.6,1.7-3.2,3.3-4.7,5.1c-0.4,0.5-0.8,0.9-1.3,1.3c-1.1,0.4-0.2-0.6-0.7-0.8
	c-2.8,3.8-6.7,6.7-9.8,10.3c0-0.4,0.1-0.8-0.3-1c-0.5-0.6,0-0.9,0.3-1.3c0.4-0.5,1-0.9,1.3-1.5h0C86.6,189.1,87.8,187.6,89,186
	L89,186L89,186z"/>
<path class="st34" d="M123,133c0.2-0.1,0.6-0.2,0.7-0.4c1.1-2.8,3.5-4.5,5.5-6.5c3.4-3.3,6.5-7,10.3-9.8c1-0.8,1.7-1.8,2.5-2.8
	c0.3-0.3,0.7-1.1,1.2-0.5c0.4,0.4,0,1-0.3,1.4c-0.3,0.5-1.2,0.6-1.3,1.3c0,0.3,0,0.5,0,0.8l0,0c-3.5,3.9-6.7,8.1-10.5,11.7
	c-0.7,1.1-1.8,1.8-2.5,2.9c-1.1,1.8-3.1,2.9-4.7,4.1c-1.9,1.4-2.6,3.3-3.8,5c-1.1,1.5-2.6,2.7-3.6,4.3c-0.2,0.4-1.3,0.2-0.9,1.2
	c-0.4,0.1-0.5,0.5-0.7,0.8c-0.7,1.1-1.5,1-2.3,0.1c-0.8-0.8-0.9-1.8-0.3-2.5c2-2.4,4.1-4.7,6.1-7c0.2-0.3,0.5-0.5,0.9-0.6
	c1.1-0.2,1.8-0.8,2.2-1.9C121.7,133.9,122.3,133.5,123,133L123,133z"/>
<path class="st35" d="M186.8,80.7c0.8,1.3,1.9,0.2,2.1-0.2c1.1-1.8,3.2-1.5,4.6-2.6c0.1-0.1,0.6-0.3,0.9-0.5c1.1-0.5,2-1.3,1.8-2.5
	c-0.2-1.1-1.6-0.7-2.4-0.8c0-0.4-0.1-0.7,0.3-1c0.4-0.4,0.9-0.1,1.4-0.2c1.6-0.3,2.7-1.1,3-2.8c0.1-0.7,0.3-1.5,1.3-1.5
	c-0.2,0.4,0.7,0.8-0.2,1.3c-0.6,0.3-0.1,1.1,0.6,1.1c0.5,0,0.4,0.3,0.5,0.6c0.2,1.3,0.2,2.3-1.2,3.2c-0.9,0.6-1.7,1.8-2.3,2.9
	c-0.5,1-1.7,1.7-2.4,2.6c-0.5,0.6-1.3,0.5-1.8,1.1c-0.4,0.5-0.5-0.4-0.6-0.8c-0.1-0.3-0.2-0.5-0.5-0.5c-0.3,0-0.4,0.2-0.3,0.4
	c1.5,1.9-0.5,2.8-1.3,3.9c-1.6,2-3.3,3.8-5,5.7c-1,1.1-2,2.5-3.2,3.1c-1.6,0.8-2.3,2.8-4.4,2.8c-0.6,0-1.5,1.3-1.8,2.1
	c-0.7,2.1-2.2,3.6-3.5,5.3c-0.9,1.5-2.3,2.6-3.5,3.9c-2.5,2.6-4.6,5.6-7.2,8.2c-0.2,0.2-0.5,0.4-0.7,0.6c-1.7,0.6-2.1,2.5-3.2,3.7
	c-1.2,1.4-2.7,2.5-3.8,3.9c-3.1,3.9-7.2,6.8-10.5,10.6c-1.2,1.3-2.6,2.5-4.3,3.3c-1.5,0.7-2.6,2.2-3.5,3.6c-1,1.8-1.9,3.6-4,4.3
	c-0.8,0.2-1,1.1-1.5,1.5c-2.9,2.6-5.8,5.1-8.5,7.9c-0.3,0.4-0.8,0.8-1.3,0.2c0.1-0.1,0.2-0.2,0.3-0.3c0-0.1,0-0.1,0.1-0.2
	c0.8-1.3,2.5-1.9,2.8-3.6c0.2-0.5,0.6-0.8,1-1.2c2.2-2.4,4.6-4.7,6.7-7.3c0.1-0.1,0.2-0.2,0.3-0.3c1.5-1.6,3.2-3,4.6-4.7
	c2-2.5,4.3-4.7,6.6-6.9c1.4-1.4,2.8-2.9,3.7-4.7c1-1.8,2.7-3,3.9-4.5c0.3-0.4,0.8-0.8,0.9-1.3c0.4-1.2,1.2-1.8,2.5-2.3
	c1.5-0.6,2.4-2.1,3.4-3.4c0.4-0.5,0.6-0.9,1.2-1.1c0.5-0.1,0.9-0.4,1.2-0.8c1.5-2.2,3.9-3.6,4.7-6.2c0.9-2.3,3.1-3.6,4.4-5.5
	c1.1-1.6,2.3-3.3,3.9-4.3c2-1.3,2.9-3.7,4.8-5.1c0.3-0.2,0.6-0.4,0.5-0.8c-0.1-1.9,1.4-2.7,2.5-3.6c0.7-0.6,1.1-1.1,1-2.1
	c-0.2-1.2,0.2-2.1,1.7-2.3C184.4,82.4,185.4,81,186.8,80.7L186.8,80.7z"/>
<path class="st36" d="M131.6,142.6c-0.2,0.9-0.7,1.6-1.4,2.2c-2.3,1.9-3.9,4.4-6.2,6.4c-1.2,1.1-2.3,2.4-3.2,3.8l0,0
	c-0.8,0.1-1.7-1.1-2.3,0.3c-0.1-0.4-0.2-0.8-0.3-1.3c0.2-1.2,0.9-2.1,2.2-2.5c1.1-0.4,1.9-1.2,2.9-1.8c1.9-1.1,2.8-3.2,4.5-4.5
	c0.8-0.6,1.5-1.3,2.1-2.1C130.4,142.6,130.8,142.1,131.6,142.6L131.6,142.6z"/>
<path class="st37" d="M199.8,68.6c-0.4,0.3-0.8,0.6-0.9,1.2c-0.6,2.9-1.9,3.8-4.8,3.2c1-1.2,2-2.4,3.1-3.6c0.5-0.5,0.4-0.9,0.1-1.4
	c-0.5-0.8-0.4-1.5,0.2-2.3c0.9-1.2,0.5-2.9,1.4-4.1c0.2-0.1,0.4,0.3,0.4,0.2c0.2-0.1,0-0.2-0.1-0.3c-0.2-0.2-0.3-0.6-0.7-0.8
	c1.5-1.2,1.9-3,2.6-4.6c0.3-0.8,0.8-1.3,1.8-0.9c0.2,0.4-0.1,0.8-0.3,1c-1.1,1-0.8,2.8-1.8,3.9c-0.4,0.5,0.3,0.9,0.3,1.4
	c0,0.6-0.5,0.8-0.9,1.1c-0.6,0.5-0.8,1.1-0.2,1.8c0.3,1.2-0.7,2.1-0.8,3.2c-0.1,0.6,0.2,0.4,0.5,0.4
	C199.8,68.2,199.8,68.4,199.8,68.6L199.8,68.6z"/>
<path class="st38" d="M200.1,64.5c-1.2-0.5-1.4-1-0.2-1.8c0.4-0.3,1-0.5,1.2-1c0.5-1.8,2.2-2.6,3.2-3.9c0.5-0.7,1.1,0,1.5,0.4
	c0.2,0.3,0.4,0.6,0.6,0.9c0,1.2-0.2,2.2-1.5,3c-0.8,0.5-1.2,1.6-2.5,1.4c-0.2,0-0.5,0-0.6-0.1C200.1,62,200.3,63.6,200.1,64.5
	L200.1,64.5z"/>
<path class="st39" d="M205.8,58.2c-0.6,0-1.7-1-1.6,0.7c-1.7,0.1-1.9,2-3.1,2.7c0,0-0.1,0-0.1,0c-0.6-0.8-1.6-1.7,0.1-2.3
	c-0.3-1.3,0.4-2.2,1.1-3.2c0.2-0.3,0.4-0.6,0.6-0.9c0.1-0.5,0.4-1,0.8-1c0.5,0,0.9,0.8,1.5,0.4c0.2,0.3-0.1,0.5-0.2,0.7
	c-0.4,0.4-0.3,0.7,0.1,1C205.8,56.8,206.1,57.4,205.8,58.2L205.8,58.2L205.8,58.2z"/>
<path class="st38" d="M205.8,58.1c-0.2-0.6-0.4-1.2-0.7-1.9c1.2-0.6,0.8,1.2,1.7,1.1C206.8,57.9,206.2,57.9,205.8,58.1L205.8,58.1z"
	/>
<path class="st39" d="M198.6,60.7c1.1,0.7,1.2,1.3,0.5,2c-0.4-0.3,0.4-0.8-0.1-1.1C198.8,61.3,198.7,61,198.6,60.7L198.6,60.7z"/>
<path class="st15" d="M210.2,67.2c-0.1,0.5-0.6,0.8-1.1,0.7c-0.7-0.1-1.3-0.6-1.3-1.3c-0.1-0.7,0.5-0.8,1.1-0.8
	C209.7,65.8,210.3,66.4,210.2,67.2z"/>
<path class="st40" d="M131.6,142.6c-1,0-1.3,0.9-1.9,1.4c-1.6,1.6-3.5,3-4.8,4.9c-0.3,0.5-0.9,0.9-1.6,0.9c-0.7-2,0.8-3.2,1.8-4.4
	c0.7-0.9,1.4-1.9,2.5-2.3c0.1-0.1,0.4-0.1,0.3-0.2c-1.1-1.7,0.9-1.8,1.4-2.6c0.1-0.2-0.1,0,0.1-0.1c0.7-0.8,1.6-1.4,1.6-2.6
	c0-0.3,1.9-2,2.5-2.2c0.2-0.1,0.2-0.2,0.2-0.4c0.6-2.2,3-2.8,4-4.6c1.1,0.2,0.9-0.9,1.4-1.3c1-0.8,0.8-2.6,2.5-2.8
	c0.2,0,0.3-0.1,0.3-0.3c1.2-2.9,3.6-4.8,5.3-7.4c0.3-0.4,0.6-0.8,1.2-0.9c0.8-0.1,1.2-0.6,1.4-1.3c0.2-0.7,0.6-1.3,1.2-1.6
	c2-0.9,2.8-2.9,4.2-4.4c0.2-0.3,0.3-0.7,0.7-0.8c2.3-1.2,3.5-3.4,5.1-5.3c0.3-0.3,0.7-0.6,0.2-1.2c-0.2-0.3,0.1-0.7,0.5-0.8
	c1.4-0.4,3.9-2.3,4.4-3.6c0.4-1,1.3-1.6,1.9-2.3c1.6-1.7,2.8-3.8,4.8-5.2c0.4-0.3,0.5-0.8,0.8-1.2c0.5-0.5,0.1-2,1.6-1.6
	c0.1-0.5,0.4-1,0.5-1.6c0.1-0.8,0.6-1.3,1.3-1.7c0.5-0.2,0.5-0.2,0.4,0.8c0.7-0.6-0.1-1.6,0.8-2.1c0.7-0.3,1.5,0,1.9-0.6
	c-1.2-0.3-2.2,1.2-3.6,0.6c-0.1-0.6,0-1.1,0.4-1.6l0,0c1.2-0.6,1.4-2.1,2.6-2.8c0.2,0,0.5,0.1,0.6,0.3c0.7,0.1,1.3,0.1,1.9-0.3l0,0
	c0.8-0.1,1.5,1.3,2.4,0.2c0.6,0.7,1.8,0.2,2.3,1c-1.3,0.9-2.3,2.3-4.2,2.3c-0.9,0-1.2,1.2-0.8,1.8c0.5,0.9,0,1.4-0.4,1.9
	c-0.4,0.6-1.8,0.3-1.4,1.8c0.1,0.4-0.8-0.2-1.1,0c-0.7,0.2,1.4,1.3-0.5,1.1c-0.1,0-0.2,0.2-0.2,0.2c1,1.6-0.7,1.8-1.4,2.4
	c-0.6,0.6-1,1.2-1.2,2c-0.5,1.4-2.1,1.7-3.1,2.7c-1.5,1.8-3.1,3.4-4.4,5.3c-1.1,1.5-2.7,2.4-3.5,4.1c-1.1,0.9-1.8,2.3-3.2,3
	c-0.5,0.2-0.5,1.1-1.2,1.6c-1,0.6-1.4,2.2-3,2c0.1,1.3-1.4,0.9-1.7,1.6c-0.8,1.9-2.8,2.3-4.2,3.4c-0.5,0.4-0.8,0.6-1,1.3
	c-0.3,1-0.6,2.1-1.6,2.7c-0.8,0.5-0.7,1.5-1.2,2.2c-2.4,2.8-4.9,5.6-7.2,8.5c-1,1.2-2.6,1.8-3.1,3.5c-0.1,0.3-0.5,0.6-0.8,0.7
	c-0.8,0.3-1.1,0.9-1.4,1.8c-0.3,0.9-1.3,1.8-2,2.5C132.5,141.5,132,142,131.6,142.6L131.6,142.6L131.6,142.6z"/>
<path class="st41" d="M176.6,83.8c1.2-0.8,2.7-0.5,4-1.4c-0.2,0.7-0.1,1.4-1,1.4c-1.1,0.1-1.6,0.5-1.6,1.6c0,0.5-0.4,0.9-1.1,1.2
	c-0.2-0.6,0.7-0.7,0.5-1.3c-1.6,0.3-1,2.1-1.9,2.9c-0.2,0.1,0,1.4-0.7,0.3c-0.1-0.1-0.3,0.2-0.4,0.4c-0.4,1.2-0.7,2.2-2,3
	c-1,0.6-1.6,2-2.6,2.9c-1.1,1-2,2.3-2.9,3.4c-0.8,0.9-1.4,2-2.4,2.8c-0.1,0.1-0.2,0.4-0.4,0.4c-1.4-0.1-1.1,0.8-0.9,1.8
	c-0.6,0.1-0.6-0.6-0.9-0.7c-0.2-0.1-0.5-0.2-0.7,0c-0.2,0.3-0.1,0.5,0.2,0.6c0.6,0.2,0.2,0.4,0,0.7c-0.9,2-2.9,3.2-4.1,5.1
	c-0.2,0.4-0.8,0.8-1.4,0.8c-0.3,0-0.5,0.1-0.6,0.4c-1.2,2-2.4,3.8-4.5,4.9c-0.3,0.2-0.9,0.5-0.9,1c-0.2,1.2-0.7,1.7-2,2.1
	c-1.1,0.3-1.9,1.8-2.6,3c-0.7,1.2-1.2,2.3-2.5,3c-1.2,0.6-0.1,2.4-1.1,2.5c-1.4,0.2-1.7,0.7-1.7,1.9c-1.3-0.1-0.6,1.6-1.6,1.9
	c-0.2,0.1-0.3,0.6-0.4,0.9c-0.3-0.2,0-0.6-0.5-0.7c0.3,1.4-1.1,1.7-1.7,2.1c-1.1,0.7-1.6,1.5-2.1,2.5c-0.1,0.2-0.1,1.5-0.9,0.4
	c0,0-0.1,0-0.1,0c-0.1,1.1-1.5,1.6-1.6,2.1c-0.2,1.4-1.1,2-1.8,2.8c-0.8-0.1-1.7,0.2-1.8-1c0.1-1.2,0.6-2.1,1.7-2.6
	c0.7-0.4,1.1-1,1.1-1.7c0.4,0,0.6-0.2,0.6-0.7c2.1-1.6,3.6-3.7,5.1-5.7c0.3-0.4,0.6-0.8,1-1.3c0.2-0.7,0.3,0.8,0.7,0
	c0.8-1.6,2.2-2.8,3.3-4.2c2.4-3.1,5.6-5.5,7.6-9c0.4-0.8,1.3-1.1,1.8-1.8c1.9-1.8,3.7-3.7,5.4-5.8c1.1-1.4,2.7-2.3,3.4-4.1
	c0.1-0.3,1,0.4,1.4-0.5c0.8-1.7,2.4-2.8,3.2-4.5c2.4-1.6,3.8-4.1,5.4-6.4c0.3-0.1,0.7,0.1,0.9-0.3c0.5-0.5,0.6-1.3,1.5-1.5
	c0.6-0.1,0.1-0.9,0.4-1.2c0.1-0.6,0.6-1,0.9-1.5c0.7-0.4,0.8,0.6,1.3,0.6c0.5-0.9,0.9-1.9,1.3-2.9C176,84.1,176.2,83.7,176.6,83.8
	L176.6,83.8z"/>
<path class="st42" d="M128,139.4c0.2,0.9,1.3,0.3,1.6,1c-0.1,0.2-0.2,0.5-0.4,0.7c-1.1,1-1.1,1-0.7,2.6c-2-0.5-2.5,1.5-3.5,2.4
	c-1,0.9-1.9,2.3-1.8,3.9c-0.2,1-1.3,1.4-1.9,1.5c-1.5,0.4-2.3,1.4-3.2,2.6c-1.1,0.3-0.7-1-1.3-1.2c0.2-0.9-0.3-2,0.3-2.9
	c1.2-1.5,2.9-2.6,3.9-4.3c0.2-0.3,0.5-0.6,0.8-0.7c0.8-0.2,1.2-0.8,1.3-1.7l0,0c0.8-0.6,1-1.5,1.6-2.2l0,0c0.7-0.3,1.1-1,1.8-1.4
	C127.1,139.3,127.5,138.9,128,139.4L128,139.4z"/>
<path class="st43" d="M150.6,112.4c0,0.3,0.1,0.7-0.1,0.9c-2.2,2.6-4.5,5.1-6.7,7.6c-2,2.3-4.3,4.4-6,7.1c-0.2-0.2-0.4-0.5-0.5-0.7
	c1.2-2,2.7-3.7,4.4-5.3c0.4-0.4,0.7-0.9,1-1.4c0.8-1.3,1.8-2.6,2.9-3.4c1-0.8,1.3-1.7,2-2.4c0.8-0.9,1.7-1.4,2.1-2.7
	C149.8,111.3,150.3,111.9,150.6,112.4L150.6,112.4z"/>
<path class="st25" d="M131.2,128.3c0-0.4,0-0.8,0.4-1.1c2.7-1.9,4.3-4.9,6.6-7.2c1.1-1.1,2.3-2.3,3.4-3.4c-1,2.2-2.3,4.2-4.4,5.5
	c-0.4,0.2-0.5,0.5-0.7,1c-0.8,2-2.7,3.3-4,4.9C132.3,128.3,131.7,128.4,131.2,128.3L131.2,128.3z"/>
<path class="st44" d="M136.3,128.6c-0.2,1.8-1.7,2.7-2.7,3.9c-0.6,0.7-1,1.9-2.4,1.8c-0.3-0.2-0.8-0.5-0.4-0.8
	c1.2-0.7,1.6-2.2,2.8-2.8c0.7-0.4,1.7-0.7,1.6-2C135.3,128.1,135.9,128.4,136.3,128.6z"/>
<path class="st45" d="M169.3,91.2c0.4,1-0.5,1.6-0.9,2.1c-1.1,1.3-2.1,2.8-3.4,4c-0.4,0.4-0.7,0.2-1.1,0.3c-0.2-1.2,0.2-1.7,1.3-2.2
	c1.3-0.5,1.7-2,2.4-3C168.1,91.8,168.3,90.8,169.3,91.2L169.3,91.2z"/>
<path class="st26" d="M179.5,79.4c-0.3,1-1.1,1.8-1.6,2.7c-0.3,0.4-0.6,0.3-0.9,0.2c0.2-0.9-0.4-1.6-0.9-2.3
	c-0.3-0.5-0.3-0.5,0.4-0.8c0.9-0.3-0.5-0.9,0.2-1.3C177.5,78.5,178.4,79.1,179.5,79.4L179.5,79.4z"/>
<path class="st40" d="M123.3,143.2c0.5,0.9,0.1,1.6-0.7,1.8c-0.9,0.2-1.2,1-1.7,1.6c-1,1.2-2.1,2.5-3.6,3.2c0.8-2,2.3-3.5,3.9-4.9
	C121.8,144.4,122,143,123.3,143.2z"/>
<path class="st40" d="M128,139.4c-1.1,0-1.5,0.9-2.2,1.4c-0.3,0.3-0.6,0.4-0.9,0.2c0.3-0.8,0.7-1.4,1.6-1.9c1.2-0.8,2.5-2,3.2-3.6
	c0.2-0.6,0.4-0.8,1-0.5c0.5,0.8,0.8,1.4-0.6,1.8C128.9,137.1,128.3,138.2,128,139.4z"/>
<path class="st26" d="M176.6,83.8c-0.2,0.2-0.4,0.4-0.6,0.6c-0.6-0.2-0.4,0.4-0.6,0.7c-0.6,0.7-0.9,1.7-2.2,1.1
	c0-0.1-0.1-0.1-0.1-0.2c1.3-0.9,1.7-2.6,3-3.6c0.4-0.3,0.5-0.4,0.8-0.2C177,82.8,176.9,83.3,176.6,83.8L176.6,83.8z"/>
<path class="st40" d="M172.5,88.3c-0.2,0.6,0.4,1.9-1.2,1.6c-0.2-0.1-0.3,1-1,1c-0.1-1.3,1.3-1.8,1.6-2.8
	C172.1,88,172.3,88.1,172.5,88.3L172.5,88.3z"/>
<path class="st40" d="M124.9,141c0.2,0.9-0.6,1.4-0.7,2.1c-0.1,0.6-0.6,0.1-0.9,0.1C123.1,142,123.9,141.4,124.9,141L124.9,141z"/>
<path class="st26" d="M172.5,88.3c-0.3,0-0.5-0.1-0.6-0.3c-0.1-0.3-0.5-0.8,0.2-0.9c0.6-0.1,0.7-0.7,1.1-1l0,0
	c0.2,0.2,0.2,0.4,0,0.7C172.9,87.3,172.7,87.8,172.5,88.3L172.5,88.3z"/>
<path class="st26" d="M182,79.4c-0.1,0.3,0.6,1.3-0.6,0.7c-0.5-0.3-0.9,0.1-1.4-0.1c0,0-0.1-0.1-0.1-0.1c0-0.1,0.1-0.1,0.1-0.1
	C180.8,79.8,181.3,78.9,182,79.4L182,79.4z"/>
<path class="st4" d="M179.2,75.6c1.3-0.5,1.2,0.6,1.5,1.3C179.8,76.9,179.3,76.5,179.2,75.6z"/>
<path class="st32" d="M89,186c-0.5,2-2.3,2.9-3.4,4.3c-0.1,0.1-0.5-0.1-0.7-0.2C86,188.5,87.5,187.3,89,186L89,186z"/>
<path class="st46" d="M84.9,190.2c0.2,0.6-0.3,0.9-0.7,1.3c-0.4,0.4-1,0.8-0.9,1.6c-1.3,0.3-1.7,2-3.2,2.2
	C81.7,193.6,83,191.6,84.9,190.2z"/>
<path class="st36" d="M131.6,142.6c-0.1-0.7,0.1-1.2,0.8-1.6c0.7-0.4,0.8-1.4,1.2-1.7c0.9-0.7,0.9-2,1.4-2.3
	c1.2-0.7,2.3-1.3,2.6-2.8c0-0.2,0.7-0.5,1.1-0.6c0.6-0.1,1-0.1,0.6-0.8c-0.1-0.2-0.1-0.4,0.1-0.5c2.4-1.5,3.8-3.9,5.5-6
	c0.7-0.8,1.9-1.4,2.2-2.4c0.6-2,3.1-3,2.9-5.4c0-0.2,0.1-0.5,0.3-0.5c1.4,0,1.9-1.6,3.2-1.7c0.5-0.1,0.8-0.5,1.2-0.9
	c0.5-0.6,0.5-2.1,2-1.6c0,0,0.1,0,0.1-0.1c0.4-1.6,2.5-1.3,3.1-2.9c0.2-0.4,0.8-1.7,2.1-2c0.9-0.3,1.5-1.9,2.7-2.3
	c-0.5,1.8-1.5,3.3-3.1,4.4c-0.8,0.6-0.8,1.8-1.7,2.2c-1.7,0.7-2.5,2.3-3.8,3.5c-1,0.9-1.5,2.4-3.2,2.2c-0.2,0-0.5,0.3-0.5,0.5
	c-0.7,2.1-2.4,3.4-3.8,5c-1.5,1.7-2.6,3.7-4,5.5c-0.5,0.6-0.9,1.1-1.4,1.6c-2,2.1-4.2,4-5.9,6.2c-1.3,1.7-3,2.9-4.3,4.6
	C132.4,142.3,132.1,142.6,131.6,142.6L131.6,142.6z"/>
<path class="st11" d="M120.8,154.9c0.4-1.8,1.4-3.1,3.2-3.8C123.7,153.1,121.9,153.8,120.8,154.9z"/>
<path class="st40" d="M173.2,86.7c0-0.2,0-0.4,0-0.7c1.1,0.2,1.7-0.5,2.2-1.3c0.2-0.3,0.2-0.8,0.7-0.3c-0.4,0.9-0.8,1.8-1,2.7
	c-0.2,0.5-0.6,0.5-0.9,0.6c-0.5,0.2-0.5-0.3-0.5-0.7C173.6,86.7,173.4,86.7,173.2,86.7L173.2,86.7z"/>
</svg>
