<?xml version="1.0" encoding="UTF-8"?>
<svg id="Layer_1" data-name="Layer 1" xmlns="http://www.w3.org/2000/svg" xmlns:xlink="http://www.w3.org/1999/xlink" viewBox="0 0 286.47 147">
  <defs>
    <style>
      .cls-1 {
        fill: #063678;
      }

      .cls-2 {
        fill: #024396;
      }

      .cls-3 {
        fill: #657aa1;
      }

      .cls-4 {
        fill: #3264a4;
      }

      .cls-5 {
        fill: #2f2a2d;
      }

      .cls-6 {
        fill: #b1bdd7;
      }

      .cls-7 {
        fill: #7bc4fb;
      }

      .cls-8 {
        fill: #3b6ca9;
      }

      .cls-9 {
        fill: #1e63ab;
      }

      .cls-10 {
        fill: #38445d;
      }

      .cls-11 {
        fill: #a5a4a8;
      }

      .cls-12 {
        fill: #0850a1;
      }

      .cls-13 {
        fill: #3d5481;
      }

      .cls-14 {
        fill: #597fbb;
      }

      .cls-15 {
        fill: #025ab3;
      }

      .cls-16 {
        fill: #223c69;
      }

      .cls-17 {
        fill: #1d7cd0;
      }

      .cls-18 {
        fill: #7b8daf;
      }

      .cls-19 {
        fill: #90898d;
      }

      .cls-20 {
        fill: #909ebe;
      }

      .cls-21 {
        fill: #7992bf;
      }

      .cls-22 {
        fill: #0a5fb9;
      }

      .cls-23 {
        fill: #6a6469;
      }

      .cls-24 {
        fill: #3f69a4;
      }

      .cls-25 {
        fill: #8297c4;
      }

      .cls-26 {
        fill: #93a5c0;
      }

      .cls-27 {
        fill: #1274d1;
      }

      .cls-28 {
        fill: #9aa9c8;
      }

      .cls-29 {
        fill: #635b5e;
      }

      .cls-30 {
        fill: #94a1c4;
      }

      .cls-31 {
        fill: #5779af;
      }

      .cls-32 {
        fill: #1c73c4;
      }

      .cls-33 {
        fill: #8db9eb;
      }

      .cls-34 {
        fill: #7f7775;
      }

      .cls-35 {
        fill: #345282;
      }

      .cls-36 {
        fill: #597cb0;
      }

      .cls-37 {
        fill: #51668e;
      }

      .cls-38 {
        fill: #8ac3f4;
      }

      .cls-39 {
        fill: #0c73d1;
      }

      .cls-40 {
        fill: #8a888d;
      }

      .cls-41 {
        fill: #042c65;
      }

      .cls-42 {
        fill: #0468c7;
      }

      .cls-43 {
        fill: #2a4774;
      }

      .cls-44 {
        fill: #8f8a8e;
      }

      .cls-45 {
        fill: #28508b;
      }

      .cls-46 {
        clip-path: url(#clippath);
      }

      .cls-47 {
        fill: #6d7d9e;
      }

      .cls-48 {
        fill: #094485;
      }

      .cls-49 {
        fill: none;
      }

      .cls-50 {
        fill: #274067;
      }

      .cls-51 {
        fill: #add6fd;
      }

      .cls-52 {
        fill: #7e7a7b;
      }

      .cls-53 {
        fill: #567db9;
      }

      .cls-54 {
        fill: #5c79b0;
      }

      .cls-55 {
        fill: #0959a7;
      }

      .cls-56 {
        fill: #848083;
      }

      .cls-57 {
        fill: #13243e;
      }

      .cls-58 {
        fill: #c7bfba;
      }

      .cls-59 {
        fill: #033273;
      }

      .cls-60 {
        fill: #7785a1;
      }

      .cls-61 {
        fill: #7990bc;
      }

      .cls-62 {
        fill: #0558ae;
      }

      .cls-63 {
        fill: #515c75;
      }
    </style>
    <clipPath id="clippath">
      <rect class="cls-49" x="0" y="0" width="248" height="147" transform="translate(248 147) rotate(-180)"/>
    </clipPath>
  </defs>
  <g class="cls-46">
    <g>
      <path class="cls-2" d="M279.74,22.69l-15.38-5.54c-2.51,1.23-5.49,1.16-7.31,4.33-.17,1.47,.64,1.99,1.57,2.52,1.2,.68,3.67-.34,3.38,2.25-.21,1.92-2.32,2.43-3.65,3.48-2.74,2.17-5.74,3.41-8.77,4.73-3.78,1.64-7.9,2.85-10.3,7.51-1.72,6.87-4.39,2.21-6.72,1.64-2.32-.59-4.58-.71-6.44,2.04-.94,4.59-3,5.38-5.99,3.06-.33-.1-.74-.29-.99-.1-5.16,3.97-10.88,6.91-15.28,12.27,1.34,2.53,3.29,1.04,5.01,.16,2.63-1.34,5.23-2.83,7.59-4.85,1.63-1.4,3.17-1.9,4.78-.7,3.04,1.53,5.73,1.14,7.8-2.84,1.09-2.83,2.47-3.88,4.84-2.2,3.08,2.18,5.67,1.14,7.92-2.93,3.19-5.78,8.78-6.55,13.44-8.48,7.34-3.04,14.17-7.35,21.1-11.44,1.66-.98,3.84-1.91,3.4-4.9Z"/>
      <path class="cls-59" d="M279.74,22.69c-6.16,6.4-13.6,9.87-20.88,13.1-4.85,2.15-10.26,3.75-14.36,6.95-4.61,3.61-7.61,10-13.69,5.14-.85-.68-2.1,1.9-2.64,3.49,5.28,1.36,9.81,2.96,15.75-2.71,5.41-5.17,12.74-7.79,19.84-8.82,1.86-.27,3.38,.21,4.68,1.51,5.54,.23,10.28-2.53,14.56-7.01,1.16-3.07,2.32-6.14,3.47-9.21-2.24-.81-4.49-1.62-6.73-2.43Z"/>
      <path class="cls-8" d="M248.02,11.26c-1.7,.68-3.4,1.36-5.1,2.03-1.35,.76-3.02,.9-3.74,2.89-.49,3.66-1.95,7.16-2.49,10.82,3.07,3.13,6.73-.28,10.08-.15,.51-.03,1.01-.1,1.52-.2,3.15-1.15,6.72-1.39,8.39-5.85-1.1-1.77-2.67-.95-4.19-.42-1.69,.59-3.43,1.35-4.47-.94,1.9-3.35,6.49-.72,7.69-5.42-2.56-.92-5.13-1.85-7.69-2.77Z"/>
      <path class="cls-6" d="M255.71,14.03c-1.62,1.82-3.71,1.33-5.48,2.19-1.57,.77-4.85,.57-4.24,3.29,.54,2.42,2.71,4.86,6.07,2.76,1.39-.87,2.81-2.21,4.46-1.36,.12,.57,.43,.72,.92,.46,2.26-1.52,5.23-1.18,6.92-4.22l-8.65-3.12Z"/>
      <path class="cls-58" d="M59.68,106.14c-17.22,4.69-33.95,11.55-49.98,21.47,3.85,3.78,8.91,5.32,13.2,8.29,4.18,.02,7.44-3.53,11.18-5.22,7.35-4.42,14.18-9.99,21.22-15.09,1.65-1.73,3.31-3.45,4.27-5.82,.47-1.25,.57-2.47,.1-3.62Z"/>
      <path class="cls-37" d="M275.02,56.44c.28-.76,.56-1.52,.84-2.29-1.88-2.51-4.99-2.66-7.33-4.37-1.68-1.23-2.65-2.64-3.1-4.78-1.85-1.23-3.1,.8-4.57,1.71-1.15,1.08-2.32,2.14-3.54,3.12-1.93,1.9-4.17,3.12-6.37,4.42-.46,.27-.89,.6-1.31,.96-1.01,1.06-1.95,2.15-1.23,3.75,3.69-.46,6.46,.86,8.26,4.49,1.71,3.45,5.22,3.48,8.23,4.4,2.04-.15,3.95-1.36,3.01-3.69-1.92-4.72,.5-5.49,3.66-6.06,1.24-.23,2.36-.87,3.44-1.67Z"/>
      <path class="cls-19" d="M176.41,62.9c-15.22,5.58-30.57,10.46-45.56,17.26-.93,.97-2.54,1.21-2.55,3.16,.11,.58,.37,1.02,.79,1.33,4.76,1.05,8.74-3.12,13.16-4.41,13.98-4.07,27.68-9.84,41.42-15.31,2.19-.87,6.65-1.57,2.98-6.13-.68-.32-1.4-.42-2.17-.27-2.75,1.24-5.23,3.34-8.06,4.38Z"/>
      <path class="cls-44" d="M59.68,106.14l-1.03,3.68c2.09,1.38,4.33,.33,6.5-.51,9.62-3.74,19.3-7.15,28.92-10.85,.97-.42,1.86-1.05,2.73-1.71,4.57-2.51,9.12-4.88,14.04-6.08,3.28-.8,7-1.62,8.75-6.19-10.11,2.15-19.79,6.95-29.7,10.36-10.12,3.49-20.15,7.51-30.22,11.3Z"/>
      <path class="cls-17" d="M184,59.35c.66,.11,1.31,.22,1.97,.32,.45-.17,.84-.45,1.18-.84,3.96-3.78,7.52,.52,11.35-.82,1.22-6.47,1.76-7.01,7.98-7.56-1.51,4.61-5.58,5.03-8.08,7.67-.17,1.07,.27,1.71,.98,2.18,5.16,.24,9.25-3.6,13.26-6.86,2.41-1.96,2.15-5.01-.41-6.76-2.7-1.41-5.59-2.33-8.53-3.06-7.15,1.49-13.71,5.14-19.94,9.92-.65,.71-1.3,1.41-1.94,2.12-1.49,3.14-.2,3.88,2.18,3.69Z"/>
      <path class="cls-63" d="M275.02,56.44c-1.9,.23-3.8,.38-5.69,.7-4.17,.72-5.63,2.85-2.83,6.67,1.93,2.64-.2,2.77-1.65,3.4-2.14-.26-3.94,1.61-5.98,2.03-2.97,1.01-5.65,3.23-8.72,3.87-3.23,1.98-7.44,.21-10.03,4.67,.12,.56,.38,1.15,.84,1.18,1.53,.1,2.84,.23,1.17,2.55,.3,.43,.71,.6,1.21,.53,8.67-4.03,17.69-6.39,26.28-10.79,2.25-4.77,3.91-9.75,5.39-14.8Z"/>
      <path class="cls-30" d="M239.67,16.12c1.09-.94,2.17-1.88,3.26-2.83-9.96,1.93-18.87,7.74-27.79,13.46,1.27,1.95,3.06,.23,4.61,.24,.97-.18,1.94-.32,2.91-.33,8.14,2.9,12.09-5.1,17.02-10.55Z"/>
      <path class="cls-60" d="M276.33,52.95c1.81-5.05,3.62-10.1,5.43-15.16-4.84,.03-8.97,2.52-12.7,6.42-.46,6.15,3.53,7.3,7.27,8.74Z"/>
      <path class="cls-36" d="M183.76,53.54c6.14-2.97,12.28-5.95,18.42-8.92,1.48-1.9,4.39,1.63,5.28-2.51-.53-1.01-1.38-1.52-2.3-1.95-3.23-1.53-6.31-.48-9.24,2.11-2.59,2.3-5.45,4.09-8.05,6.36-1.51,1.48-3.28,2.67-4.11,4.91Z"/>
      <path class="cls-19" d="M119.6,84.48c-6.24,5.9-14.15,5.1-20.8,9.45-.91,.6-2.01,.78-2.76,1.81,.72,1.67,2.1,1.83,3.52,1.27,9-3.55,17.99-7.1,26.99-10.62,1-.39,1.97-1.15,2.03-2.65l-.02-.07c-1.34-2.4-3.36-.92-5.19-.52-1.25,.44-2.51,.88-3.76,1.32Z"/>
      <path class="cls-47" d="M276.33,52.95c-1.75-3.41-6.92-3.43-6.44-9.05-.32-.85-.95-1.23-1.73-1.39-1.39,.07-2.61,.46-2.98,2.4-2.46,7.98,4.83,5.33,6.91,8.41,.61,.9,2.48,.59,3.77,.83,.16-.4,.31-.8,.47-1.2Z"/>
      <path class="cls-28" d="M187.87,48.63c3.33-1.01,6.24-3.13,9.03-5.56,2.5-2.17,5.07-3.3,7.78-1.65,.82-1.65-1.31-2.39-.52-4.03-.18-1.22-.57-2.28-1.37-3.07-6.03,3.21-10.13,9.27-14.93,14.3Z"/>
      <path class="cls-53" d="M212.88,27.57c-1.41-.64-2.51,.68-3.72,1.3-1.71,1.37-1.09,2.33,.23,2.82,1.39,.52,3.03,.07,4.44,.46,2.68,.74-1.07,1.21-.32,1.96,.42,2.05,1.73,3.22,3,4.46,1.68,.76,3.43,1.08,5.34,.34,1.97-2.48,2.93-4.99,.99-7.62-2.83-2.56-6.65-2.46-9.97-3.72Z"/>
      <path class="cls-34" d="M22.32,137.53l1.13-.1c.83-.62,1.15-1.4,.79-2.4-4.72-2.74-9.06-6.32-14.54-7.42-1.03,2.28,.5,2.74,1.62,3.41,3.65,2.2,7.33,4.34,10.99,6.51Z"/>
      <path class="cls-25" d="M213.66,34.32c1.69-1.58,3.24,.71,5.32-.69-1.96-2.96-4.78-3.2-7.73-3.14-1.04,.02-2.72,1-2.09-1.63-2.31,.51-3.87,2.25-5.13,4.5,1.17,1.85,3.23,1.5,4.91,2.11,1.62,.22,3.23,.26,4.72-1.15Z"/>
      <path class="cls-43" d="M267.95,43.17c.64,.24,1.29,.49,1.93,.73,3.96-2.04,7.92-4.07,11.87-6.1,.41-1.16,.83-2.31,1.24-3.47-4.69,2.38-9.27,5.17-14.19,6.66-.75,.54-1.07,1.25-.86,2.18Z"/>
      <path class="cls-54" d="M209.45,34.14c-1.66-.94-3.52-.95-5.42-.77-.41,.32-.82,.65-1.24,.97-.49,1.51-.22,2.6,1.02,3.15,1.13,1.85,2.9,1.34,4.61,1.06,2-1.17,.66-2.94,1.02-4.41Z"/>
      <path class="cls-4" d="M212.88,27.57c2.51,3.56,6.85,2.99,10.09,4.9,.8,.72,1.26,.17,1.61-.78-.62-2.67-4.21-1.9-4.38-5.09-.08-.23-.17-.46-.26-.69-1.6,.28-3.2,.56-4.8,.84-.75,.27-1.5,.54-2.25,.81Z"/>
      <path class="cls-26" d="M184,59.35c-1.41-.64-2.72-1.38-2.18-3.69-2.23,2-2.4,5.99-5.41,7.24,2.76-.3,5.61-.23,7.59-3.55Z"/>
      <path class="cls-44" d="M123.37,83.16c1.73,.17,3.46,.34,5.19,.52,.76-1.17,1.53-2.34,2.29-3.51-2.64,.26-5.21,.9-7.48,2.99Z"/>
      <path class="cls-41" d="M267.95,43.17c.29-.73,.57-1.45,.86-2.18,.61-3.12-1.25-3.36-3.04-3.01-9.19,1.8-18.23,4.32-25.61,12.63-1.47,1.65-2.92,1.57-4.34,.85-2.44-1.24-5.03-.69-7.64-.09-1.74,5.51-4.66,3.58-7.43,2.55-2.2-1.13-3.47,1.19-5.08,2.38-2.95,2.17-6.13,3.75-9.2,5.61-1.26,.76-2.96,1.11-3.15,3.11-.25,2.64,1.6,3,3.26,3.45,.84,.09,1.7,.01,2.55-.28,5.46-1.9,10.91-3.6,16.44-2.88,2.07-2.47,4.09-5.12,7.33-4.01,2.25,.22,4.5,.64,6.75-.93,3.44-5.15,7.91-7.76,13.15-8.77,2.95-.57,5.71-2.08,8.28-4.14,1.37-.85,2.74-1.7,4.11-2.55,.92-.58,1.85-1.16,2.77-1.74Z"/>
      <path class="cls-15" d="M257.45,21.37c-.31-.15-.62-.31-.92-.46-2.44,2.52-5.47,3.37-8.27,4.86,2.67,2.72,2.16,4.42-1.52,6.36-3.05,1.61-6.9,2.47-8.26,7.15,.04,1.43-.22,3.1,1.58,3.22,2.36-4.02,6.14-5.45,9.55-6.56,4.39-1.43,8.06-4.39,12.05-6.69,1.55-.89,2.94-2.15,2.75-4.2-.21-2.2-2.05-2.16-3.55-2.23-1.35-.06-2.85,.49-3.4-1.45Z"/>
      <path class="cls-1" d="M207.18,67.41c-1.04-.71-3.06-.2-2.94-2.31,.09-1.64,1.74-1.93,2.8-2.6,4.55-2.9,9.13-5.73,13.7-8.59-1.68-2.91-3.15-.08-4.65,.91-3.87,2.57-7.43,6.18-12.06,6.18-.92-2.6-3.88,.8-4.86-1.61-.17-.53-.34-1.06-.52-1.59l.03,.04c-2.64-.84-5.03-2.67-8.02-2.16-1.58,.27-3.74-.11-4.16,2.94,1.36,1.74,3.07,2.72,5.27,2.53,.48,0,.97-.04,1.45-.07,2.87-.17,2.52,2.22,2.21,4.37-.47,3.24-2.52,3.49-4.67,3.4-1.1,.34-1.77,1.24-2.23,2.4,.55,4.75,2.83,5.49,6.87,1.97,1.99-1.73,3.64-4.18,6.35-3.08,1.98-.3,4.26,.41,5.42-2.73Z"/>
      <path class="cls-22" d="M199.17,59.4c.83,2.87,3.29,.94,4.86,1.61,5.34-3.75,10.68-7.51,16.03-11.26,.79-.42,1.11-1.17,1.18-2.07-.78-3.71-5.02-5.07-4.26-9.82-.36-2.11-1.75-2.93-3.33-3.53-1.4-.06-2.81-.12-4.21-.18-1.7,1.19-.62,2.44-.44,3.68-.63,1.34-.87,2.7-.58,4.08,1.2,2,2.98,3.53,3.45,6.14,2.37,1.56,1.5,3.91-.33,5.07-3.97,2.52-7.68,6.24-12.39,6.29Z"/>
      <path class="cls-39" d="M240.05,42.51c-.33-1.04-.66-2.08-1-3.12-.23,.08-.45,.17-.68,.24-1.76,1.78-3.71,2.11-5.76,1.81-.48,.07-.92,.27-1.33,.6-.88,1.95,1.02,1.92,1.38,2.99,1.84,.83,2.82,3.73,5.51,2.49,2.2-1.02,1.86-3.1,1.88-5.01Z"/>
      <path class="cls-62" d="M232.67,45.03c-.42-.96-.84-1.91-1.26-2.87-2.56-4.61-4.63-4.71-7.51-.36-.11,1.89,.26,3.56,1.29,4.91,.42,.35,.89,.38,1.41,.07,1.73-3.1,3.93-2.22,6.07-1.76Z"/>
      <path class="cls-27" d="M226.6,46.78c-.27-.08-.53-.18-.79-.29-1.73-.28-3.45-.43-5.03,1.18-.24,.69-.47,1.38-.71,2.07,1.22,1.48,2.46,3.1,4.64,2.11,2.19-.99,1.89-3.14,1.89-5.08Z"/>
      <path class="cls-32" d="M224.89,42.35c2.57-4.89,4.45-1.39,6.52-.19,0,0,.4-.33,.4-.33,.71-1.78-.12-2.97-.81-4.21-.68-1.23-1.77-2.48-.63-4.14,1.21-1.76,2.47-.55,3.67-.15,.47,.16,.97,.21,1.49,.12,2.06-2.08,4.33-3.47,6.95-4.14,1.91-.49,4.2-.75,4.78-3.87-3.43-.38-6.85,2.42-10.29,1.49-4.89-.56-10.03,.29-14.74-1.32-.76,.1-1.52,.2-2.28,.3,0,0,.12,.32,.12,.32,.65,1.96,2.28,2.51,3.82,2.77,2.26,.39-.03,1.97,.44,2.74-.45,.24-.9,.48-1.35,.72,.81,2.14-1.35,3.98-1.09,6.06-.75,3.15,.51,4.15,3.01,3.82Z"/>
      <path class="cls-42" d="M247.25,25.44c-1.78,2.13-4.06,2.19-6.22,2.94-2.13,.73-5.07,.59-5.19,4.67-.19,2.99,.39,5.44,2.87,6.62,0,0,.34-.28,.34-.28,2.16-3.87,6.01-4.24,8.89-6.61,1.64-1.35,4.71-1.29,4.69-4.15-.01-2.37-2.83-1.99-4.39-2.85-.33-.11-.67-.22-1-.33Z"/>
      <path class="cls-14" d="M222.22,25.61c4.77,1.29,9.1,5.14,14.74,1.32,2.46-3.29,3.42-6.88,2.71-10.82-1.27,.73-3.02,1.11-3.71,2.26-3.59,5.96-8.04,8.47-13.74,7.23Z"/>
      <path class="cls-11" d="M42.68,132.89c15.65-7.62,31.76-13.12,47.6-19.89,10.63-4.55,21.32-8.8,32-13.12,1.34-.54,2.75-.69,4.13-1.02,12.01-3.66,23.55-9.63,35.35-14.32,1.19-.47,2.3-1.29,3.54-.83,.2-.31,.4-.63,.6-.94,5.74-2.65,11.68-1.52,17.45-3.7,1.49-2.47,5.04-3.16,4.89-7.06-1.54-2.12-3.65-1.24-5.66-.6-5.76,1.83-11.47,3.89-16.94,7.06-2.96,1.69-6.15,2.3-9.19,3.61-.49,.15-.96,.34-1.43,.57-14.36,6.02-28.63,12.48-43.09,18.01-4.75,1.82-9.31,4.78-14.29,5.28-8.88,4.49-18.05,7.63-27.13,11.2-10.71,3.72-20.96,9.5-31.61,13.52-1.54,.58-3.61,1.14-3.35,3.99,4.45-.63,2.45-.63,7.13-1.75Z"/>
      <path class="cls-5" d="M165.71,79.57c7.41-3.07,14.6-7.59,22.48-7.51,.45,0,.86-.18,1.22-.54,.39-.97,.9-1.79,1.86-2.05,.48-3.23,4.52-5.75,2.33-9.5-.37-.09-.74-.18-1.12-.26-7.06,5.85-15.22,7.42-22.97,10.31-17.14,6.38-34.18,13.34-51.38,19.43-7.61,2.7-15.22,5.88-22.75,9.21-1.39,.62-2.76,.61-4.14,.96-9.99,3.79-19.91,8.01-29.98,11.36-2.47,.82-4.38,3-6.77,3.91-7.22,4.65-13.74,10.87-21.33,14.67,2.6,3.22,5.56,.26,8.19-.79,11.21-4.48,22.38-9.21,33.64-13.43,7.7-3.05,15.44-5.96,23.08-9.34,11.43-3.96,22.73-8.65,34-13.41,7.93-3.34,15.96-6.15,23.85-9.66l-.03,.02c3.22-1.46,6.49-2.59,9.81-3.38Z"/>
      <path class="cls-52" d="M75.22,114.27c-12.72,3.68-25.01,9.65-37.51,14.5-1.56,.61-3.01,1.32-4.55,.78-2.97,1.83-5.94,3.65-8.91,5.48-.26,.8-.53,1.6-.79,2.39,3.08-.55,6.16-1.1,9.24-1.64,.88-.71,2.37,.69,2.84-1.43,8.87-5.01,18.14-8.45,27.22-12.65,2.63-1.22,5.26-2.46,7.89-3.68,1.66-1,3.98-.82,4.58-3.74Z"/>
      <path class="cls-23" d="M54.5,114.88c12.31-4.17,24.59-8.52,36.58-14.35,1.12-.91,3.13-.44,3.19-2.96-9.36,1.84-18.26,6.58-27.44,9.59-2.71,.89-5.46,1.69-8.17,2.65-1.38,1.69-2.77,3.37-4.15,5.06Z"/>
      <path class="cls-3" d="M259.3,70.37c2.08-.39,3.88-1.57,5.54-3.16-4.81-1.24-7.78-4.99-10.43-9.35-1.77-2.92-4.03,.9-6.07,.75-3.31-.4-5.84,2.86-8.9,3.64-.46,.33-.85,.74-1.19,1.22-.61,1.08-.92,2.18-.55,3.34,6.36-2.37,12.23-2.92,16.89,2.78,.98,1.19,3.42-.91,4.71,.79Z"/>
      <path class="cls-16" d="M261.07,47.46c-3.94,1.25-7.86,2.69-11.83,3.71-4.28,1.1-7.61,3.55-9.82,8.16,.2,.51,.55,.77,1.05,.8,3.48-1.09,6.65-3.44,10.1-4.64h0c2.26-2.13,5.02-3.15,7.34-5.16,1.44-.33,2.56-1.19,3.17-2.85Z"/>
      <path class="cls-13" d="M250.56,55.48c-3.83-.59-7.08,1.57-10.22,4.22-1.08,.93-1.69,2.02-1.21,3.48,3.46-.14,6.31-2.44,9.21-4.56,.74-1.04,1.48-2.09,2.22-3.13Z"/>
      <path class="cls-13" d="M257.9,50.32c-2.75,1.06-5.59,1.91-7.33,5.17,2.74-1.07,5.56-1.97,7.33-5.17Z"/>
      <path class="cls-29" d="M94.26,97.58c-1.06,.98-2.13,1.97-3.19,2.95,3.05,1.31,5.84-1.16,8.62-2.23,26.17-10.02,52.3-20.26,78.45-30.41,3.4-1.32,6.81-2.55,10.23-3.75,2.03-.71,3.7-1.75,4.12-4.44-2.17,.41-4.08-.34-5.99-1.07-.2,.33-.38,.68-.53,1.04,2.67,1.91,.69,2.47-.97,3.15-8.62,3.51-17.17,7.45-25.88,10.41-8.86,3.01-17.76,5.7-26.46,9.63-1.31,.59-2.67,1.44-4.08,.88-10.77,4.42-21.36,9.82-32.53,12-.59,.61-1.19,1.22-1.78,1.84Z"/>
      <path class="cls-51" d="M198.66,57.81c3.98,.81,6.4-2.92,9.19-5.38,1.23-1.08,1.12-2.69-.07-3.49-3.29-2.22-6.27,1.12-9.16,2.52-2.88,1.4-1.02,3.56-.17,5.29,.15,.31,.16,.73,.23,1.1,0,0-.03-.04-.03-.04Z"/>
      <path class="cls-50" d="M211.89,48.04c1.73-4.08-.54-5.12-3.01-6.01-.65-.21-1.14,.02-1.4,.85-1.49,2.45-4.19-3.32-5.29,1.75,3.23,1.14,6.47,2.28,9.7,3.42Z"/>
      <path class="cls-10" d="M204.32,90c10.52-1.95,21.11-2.55,31.5-6.73,2.19-.88,4.41-1.63,6.62-2.44,3.4-5.3-2.33-1.17-2.26-3.03-3.34-2.64-6.91,.38-10.38,.84-3.61,1.47-6.93,.55-10.28-.21-3.78-.19-7.64,2.88-11.39,1.17-1.39-.09-2.78,.07-4.19,.38-1.04,.27-2.06,.6-3.03,1.2-1.88,1.19-3.3,2.77-3.07,5.33,.21,2.27,1.56,3.21,3.47,3.27,1.01,.03,1.9,.76,3,.21Z"/>
      <path class="cls-20" d="M229.9,79.75c3.43-.65,6.85-1.3,10.28-1.95,3.23-2.54,7.11-1.17,10.34-3.66,3.07-2.2,1.41-3.59-.28-4.53-4.89-2.71-9.97-3.89-15.38,.81-1.56,1-2.76,2.5-3.98,3.99-.92,1.71-3.27,3.28-.98,5.34Z"/>
      <path class="cls-18" d="M234.83,72.11c5.59-5.66,10.66-2.82,15.74-.82,1.55,.61,.33,1.86-.05,2.86,3.2-.05,5.77-2.9,8.78-3.77,.51-1.87-.07-2.78-1.7-2.22-2.97,1.03-5.02-.12-6.41-2.72-2.12-3.96-4.82-4.2-8.45-1.26-1.44,1.16-3.22,1.7-4.84,2.52-2.3,.94-3.61,2.55-3.07,5.41Z"/>
      <path class="cls-33" d="M207.48,42.87c.47-.28,.93-.57,1.4-.85,.15-1.41,1.23-2.91,.14-4.21-1.73-.11-3.46-.22-5.19-.33-2.39,2.44,1.07,2.42,.87,3.94,.93,.48,1.86,.96,2.79,1.44Z"/>
      <path class="cls-38" d="M224.89,42.35c-1.38-.86-2.41-2.11-3.01-3.82-1.54-.68-3.13-1.14-4.9-.68-3.59,6.29,2.15,6.78,3.79,9.82,1.75,.57,3.47,.82,5.03-1.18-.31-1.38-.61-2.76-.92-4.14Z"/>
      <path class="cls-12" d="M224.32,31.74c1.92-1.67,3.67-3.28-.03-4.15-1.44-.34-2.83-.9-4.24-1.36-1.47,1.26-2.72,2.56-.31,3.68,1.49,.69,3.05,1.23,4.57,1.84Z"/>
      <path class="cls-45" d="M207.18,67.41c-1.69,.66-3.38,1.31-5.07,1.97-.49,.39-.68,.9-.6,1.52,3.19,3.2,6.77,.03,10.17-.67,2.66-.56,5.24-2.8,8-1.57,2.36,1.34,4.52,1.56,6.01-2.17,.13-.65,.06-1.25-.19-1.8-6.13-2.9-12.22,1.03-18.32,2.71Z"/>
      <path class="cls-48" d="M239.14,63.17c.4-1.16,.8-2.32,1.21-3.48-.31-.12-.62-.24-.93-.37-2.27,1.17-4.45,.83-6.63,.4-1.12,1.39-.88,2.76-.39,4.13,2.11,3.29,4.33,2.96,6.67-.64,0,0,.07-.04,.07-.04Z"/>
      <path class="cls-35" d="M232.56,63.41c.07-1.23,.15-2.46,.22-3.69-3.55-.9-6.1,.5-7.29,4.99-.13,.43-.26,.87-.39,1.31,.31,.38,.7,.52,1.18,.4,1.86-1.2,3.99-1.09,5.84-2.35,.15-.21,.3-.43,.44-.65Z"/>
      <path class="cls-55" d="M201.72,70.7c.13-.44,.27-.87,.4-1.31-2.15-2.53-3.76-2.52-6.02,1.2-2.72,4.49-5.56,4.56-6.68,.93-.41,.18-.82,.36-1.23,.54-.05,3.37-5.23,2.39-4.4,6.5,.56,.3,1.12,.6,1.67,.9,.35,0,.7-.01,1.06-.02,6.68,1.71,11.4-1.01,15.2-8.75Z"/>
      <path class="cls-57" d="M193.61,59.97c1.08,3.53-4.76,5.71-2.33,9.5,1.11,1.63,2.67,1.81,3.92,.13,1.73-2.33,2.24-5.18,1.69-7.96-.38-1.9-1.25-3.15-3.28-1.68Z"/>
      <path class="cls-7" d="M238.71,39.67c-.96-2.21-1.91-4.41-2.87-6.62-.56-.39-1.17-.7-1.66-1.18-1.55-1.51-3.11-2.04-4.99,.11-1.99,2.27-1.08,3.98,.09,5.73,.89,1.33,1.69,2.74,2.53,4.12,2.61,1.55,5.24,3.26,6.9-2.16Z"/>
      <path class="cls-40" d="M155.93,82.93c-6.71,.82-12.95,4.49-19.37,6.94-12.92,4.92-25.75,10.31-38.62,15.5-.64,.35-.78,.82-.4,1.42,5.72,.94,10.8-3.33,16.09-5.23,13.18-4.73,26.15-10.68,39.18-16.23,1.11-.47,2.08-1.59,3.12-2.41Z"/>
      <path class="cls-56" d="M97.53,106.79c.13-.47,.26-.94,.4-1.42-7.72,2.2-15.27,5.3-22.71,8.9-1.53,1.25-3.05,2.49-4.58,3.74,9.17-2.79,18.31-5.75,26.9-11.22Z"/>
      <path class="cls-40" d="M165.71,79.57c-3.53-.51-6.76,.91-9.81,3.38,3.47,.1,6.67-1.44,9.81-3.38Z"/>
      <path class="cls-31" d="M192,86c2.88,2.16,1.62,1.64,3,2,3.28,.84,5.83,3.36,9.32,2-.79-.27-1.59-.53-2.38-.81-1.59-.56-3.38-1.04-3.15-3.58,.23-2.5,2.09-3.12,3.78-3.81,.66-.27,1.32-.55,1.97-.83,.41-1.15-3.2-1.99,.05-3.27,3.51-1.38,6.75-3.71,10.41-5.31-.71,5.21-5.95,4.23-7.13,8.25,3.66,3.06,7.51-.67,11.27-1.13,.97-.54,2.41,.59,2.95-1.48-.07-1.37-.56-2.51-1.16-3.59-1.74-2.12,.21-5.14-.6-7.48-4.76-1.7-8.99,3.06-13.62,3.39-1.66,.12-3.38,1.27-5.01,.34-1.44,1.52-2.81,3.17-4.35,4.54-3.29,2.93-6.83,4.91-10.85,4.21,.88,.75,1.76,1.51,2.64,2.26"/>
      <path class="cls-9" d="M239.06,63.21c-2.39,2.85-4.43,1.31-6.5,.2,0,0-.09,.11-.09,.11-2.68,2.31-3.83,5.57-4.33,8.95-.46,3.11,.54,4.67,3.48,2.49,1.07-.95,2.14-1.9,3.21-2.85,1.02-1.8,2.05-3.61,3.07-5.41,.39-1.16,.77-2.32,1.16-3.49Z"/>
      <path class="cls-21" d="M207.88,80.64c3.29-1.97,7.19-2.86,9.03-7.41,.62-1.54,1.28-3.92-1.05-2.87-5.42,2.46-10.66,5.6-16.18,8.57,1.4,2.43,3.65,.76,4.86,2.04,1.11-.11,2.22-.22,3.33-.33Z"/>
      <path class="cls-24" d="M231.62,74.96c-2.17,.44-3.31-.07-2.17-3.02,1.07-2.78,2.02-5.61,3.02-8.42-2.22,.61-4.92-.94-6.48,2.71,.11,.22,.23,.45,.33,.67,2,1.61,1.21,3.52-.03,5.63-1.24,2.1-3.34,3.25-4.44,5.48-.91,.5-1.81,1-2.71,1.5,3.42,1.43,6.83,2.94,10.75,.24-1.04-2.18,1.38-3.11,1.72-4.79Z"/>
      <path class="cls-24" d="M220.34,66.96c-.66,1.88-1.35,3.74-1.96,5.63-.98,3.06,.92,2.5,2.41,2.43,4.07-1.14,5.12-4.53,5.28-8.59,0,0-.09-.2-.09-.2-.3-.06-.6-.13-.89-.22-1.45,3.13-3.05,3.2-4.76,.95Z"/>
      <path class="cls-61" d="M226.08,66.43c-1.74,2.88-2.9,6.19-5.28,8.59-.59,1.55-.1,2.47,1.06,2.99,3.54-.8,5.32-3.98,6.87-7.27,1.68-3.55,1.13-5.45-2.65-4.31Z"/>
    </g>
  </g>
</svg>