<?xml version="1.0" encoding="UTF-8"?>
<svg id="Layer_1" data-name="Layer 1" xmlns="http://www.w3.org/2000/svg" viewBox="0 0 92.83 93.95">
  <defs>
    <style>
      .cls-1 {
        fill: #032f34;
      }

      .cls-2 {
        fill: #bcbab9;
      }

      .cls-3 {
        fill: #02313b;
      }

      .cls-4 {
        fill: #81807c;
      }

      .cls-5 {
        fill: #0e4147;
      }

      .cls-6 {
        fill: #017f83;
      }

      .cls-7 {
        fill: #d5d0d0;
      }

      .cls-8 {
        fill: #aea39f;
      }

      .cls-9 {
        fill: #499da6;
      }

      .cls-10 {
        fill: #040707;
      }

      .cls-11 {
        fill: #22adb0;
      }

      .cls-12 {
        fill: #018084;
      }

      .cls-13 {
        fill: #04565c;
      }

      .cls-14 {
        fill: #018d90;
      }

      .cls-15 {
        fill: #07b1b1;
      }

      .cls-16 {
        fill: #02787d;
      }

      .cls-17 {
        fill: #03a7aa;
      }

      .cls-18 {
        fill: #948782;
      }

      .cls-19 {
        fill: #029496;
      }

      .cls-20 {
        fill: #007a87;
      }

      .cls-21 {
        fill: #026e73;
      }

      .cls-22 {
        fill: #0d292d;
      }

      .cls-23 {
        fill: #959d9d;
      }

      .cls-24 {
        fill: #015a5c;
      }

      .cls-25 {
        fill: #026162;
      }

      .cls-26 {
        fill: #06aaae;
      }

      .cls-27 {
        fill: #29abae;
      }

      .cls-28 {
        fill: #5abdbf;
      }

      .cls-29 {
        fill: #c4bdb9;
      }

      .cls-30 {
        fill: #949895;
      }

      .cls-31 {
        fill: #08555d;
      }

      .cls-32 {
        fill: #3ab9bf;
      }

      .cls-33 {
        fill: #03a8a9;
      }

      .cls-34 {
        fill: #cec5c2;
      }

      .cls-35 {
        fill: #018f9e;
      }

      .cls-36 {
        fill: #025059;
      }

      .cls-37 {
        fill: #028588;
      }

      .cls-38 {
        fill: #133c3f;
      }

      .cls-39 {
        fill: #014544;
      }

      .cls-40 {
        fill: #456869;
      }

      .cls-41 {
        fill: #01252c;
      }

      .cls-42 {
        fill: #089193;
      }

      .cls-43 {
        fill: #065860;
      }

      .cls-44 {
        fill: #01868b;
      }

      .cls-45 {
        fill: #549d9f;
      }

      .cls-46 {
        fill: #013d48;
      }

      .cls-47 {
        fill: #65b6b9;
      }

      .cls-48 {
        fill: #036c70;
      }

      .cls-49 {
        fill: #0d4147;
      }

      .cls-50 {
        fill: #dddbda;
      }

      .cls-51 {
        fill: #018c90;
      }

      .cls-52 {
        fill: #018f93;
      }

      .cls-53 {
        fill: #b0a49e;
      }

      .cls-54 {
        fill: #4b8b8d;
      }

      .cls-55 {
        fill: #325153;
      }

      .cls-56 {
        fill: #59b1b5;
      }

      .cls-57 {
        fill: #026061;
      }

      .cls-58 {
        fill: #106265;
      }

      .cls-59 {
        fill: #046d71;
      }

      .cls-60 {
        fill: #036c6f;
      }

      .cls-61 {
        fill: #011114;
      }

      .cls-62 {
        fill: #02383a;
      }

      .cls-63 {
        fill: #38bac0;
      }

      .cls-64 {
        fill: #018185;
      }

      .cls-65 {
        fill: #275c5c;
      }

      .cls-66 {
        fill: #056267;
      }

      .cls-67 {
        fill: #58bdc8;
      }

      .cls-68 {
        fill: #28abae;
      }

      .cls-69 {
        fill: #d3cfce;
      }

      .cls-70 {
        fill: #01a0a5;
      }
    </style>
  </defs>
  <path class="cls-70" d="M2.84,4.52c.46-.94,.95-1.86,1.21-2.9,.24-.97,1.08-1.34,2.01-1.48,1.47-.22,2.93-.16,4.39,.03,1.57,.21,3.16,.24,4.73,.28,1.62,.03,3.23,.3,4.85,.18,.56-.04,1.12-.11,1.68-.23,.69-.16,1.37-.19,2.07-.02,.57,.14,1.18,.2,1.74,.07,1.33-.31,2.57,.05,3.83,.32,.6,.13,1.21,.26,1.81,.4,.28,.47,.04,.96,0,1.43-.1,.99,.14,1.78,1.03,2.31,.25,.2,.48,.41,.76,.57,.64,.38,1.02,.34,1.56-.16,.17-.15,.32-.32,.57-.32,.85,.14,1.68,.13,2.48-.25,.53-.25,1.03-.04,1.51,.2,1.55,.76,1.66,.72,2.25-.87,.04-.11,.08-.21,.19-.27,.98-.31,1.99-.4,3.01-.42,1.77-.03,3.54,0,5.31-.01,.85,0,1.64,.12,2.2,.89,.39,.54,1.04,.46,1.61,.5,1.02,.39,2.1,.42,3.16,.52,.63,.06,1.22,.22,1.8,.45,.64,.08,1.28-.04,1.9-.15,.69-.12,1.15-.53,1.27-1.25,.04-.22,.1-.44,.15-.66,.21-.92,.82-1.49,1.7-1.7,1.08-.26,2.19-.29,3.3-.27,.14,0,.26,.06,.36,.14,.66,0,1.32,.01,1.98,.01,5.79,0,11.59,0,17.38,0,.39,0,.8-.06,1.13,.23-.15,.4-.5,.26-.76,.26-2.69,.01-5.39,0-8.08,0-.42,0-.83,.02-1.23,.15-.27,.08-.5,.22-.45,.55,.05,.32,.33,.34,.57,.33,1.35-.05,2.66,.22,3.96,.57,.31,.08,.62,.17,.91,.3,.81,.37,1.14,1.03,.79,1.84-.59,1.38-.91,2.88-1.85,4.11-.24,.31-.15,.56,.21,.71,.12,.05,.24,.11,.35,.17,1.28,.76,1.99,2.03,2.83,3.18,.06,.16,.08,.33,.05,.5-.09,.61-.01,1.22,.13,1.8,.34,1.43,.37,2.88,.23,4.33-.22,2.22-.36,4.43-.31,6.66,.02,.86-.28,1.63-.74,2.34-.12,.19-.26,.37-.48,.47-1.21,.12-2.42,.16-3.64-.02-.23-.26,.06-.33,.18-.41,.7-.41,.89-1.07,.94-1.82,.05-.85-.15-1.69-.12-2.54,.03-.85,.39-1.55,1.17-1.85,.97-.37,1.11-1.11,1.07-1.95-.03-.69-.15-1.39-.35-2.06-.15-.48-.37-.9-.79-1.21-.53-.39-.74-.93-.75-1.57-.01-.72,0-1.43,0-2.15,0-.32-.02-.64-.09-.96-.2-.93-.68-1.34-1.64-1.41-.57-.04-1.12,.13-1.69,.11-.53-.02-1.05,.02-1.58-.04-1.08-.13-1.57,.3-1.57,1.38,0,3.32,0,6.64,0,9.95,0,.3,.03,.6-.07,.9-.13,.25-.32,.09-.49,.07-.2-.03-.39-.02-.44,.22-.05,.24-.09,.51,.14,.67,.25,.17,.36-.01,.45-.23,.06-.14,.05-.43,.34-.2,.15,.65,.14,1.31,.05,1.95-.14,1.04-.07,2.05,.26,3.04,.01,.17-.08,.31-.21,.38-.42,.21-.48,.54-.36,.95,.33,2.62-.04,5.24,0,7.85,.04,2.43-.02,4.87,.02,7.3,.04,2.17,.06,4.34,.13,6.5,.06,1.58,.08,3.17,.07,4.75,0,1.05-.11,2.11-.12,3.16,0,.96,.11,1.92,.15,2.88,0,.15,.04,.3,.07,.45,.21,1.01,.51,1.3,1.51,1.45,.48,.12,.96,.05,1.44,.07,.26,.01,.52-.03,.75,.14,.09,.43-.24,.38-.48,.4-.61,.05-1.23-.06-1.84,.07-.1,.03-.2,.04-.3,.05-.17,0-.34,0-.51,0-.89-.05-1.11,.07-1.18,.95-.11,1.38-.32,2.78,.06,4.15,.13,.45,.08,.9,.1,1.35,.02,.58-.07,1.17,.09,1.74,.1,1.58,.06,3.15,.03,4.73-.02,1.28,.16,2.55,.13,3.82,.03,.48,.39,.55,.76,.59,.36,.03,.72,.02,1.05,.18,.39,.2,.43,.45,.1,.74-.19,.16-.42,.26-.65,.33-.61,.19-1.24,.33-1.79,.67-.37,.23-.51-.06-.57-.36-.12-.59-.19-1.19-.24-1.79-.11-1.15-.31-2.28-.5-3.41-.28-1.68-.29-3.37-.25-5.07,.08-3.25,.59-6.45,.84-9.69,.25-3.28,.07-6.56,.11-9.84,.03-2.79-.21-5.58-.1-8.37,.17-4.45,.08-8.9,.12-13.35,0-.75-.17-1.4-.6-2.01-.76-1.06-1.14-2.29-1.42-3.55-.2-.91-.35-1.01-1.27-.98-2.45,.08-4.89,.32-7.33,.47-.31,.02-.58,.12-.74,.37,.02,.08,.04,.13,.07,.13,1.78,.3,3.43,1.02,5.12,1.61,.21,.07,.55,.13,.53,.35-.03,.29-.38,.2-.61,.24-.84,.14-1.69,.11-2.54,.11-.85,0-1.69,0-2.54,.09-.96,.1-1.91-.14-2.88-.1-.42,.02-.82,.06-1.21,.22-.3,.08-.49,.3-.68,.53-.62,.23-1.25,.37-1.91,.42-.24-.05-.43-.18-.57-.39-.01-.41-.18-.74-.54-.96-.25-.16-.32-.5-.59-.65-.43-.16-.87-.23-1.33-.1-.2,.06-.41,.03-.62,.03-4.13,0-8.25,0-12.38,0-.28,0-.61,.1-.82-.22,.16-.26,.42-.21,.66-.22,3.99,0,7.99,0,11.98,0,.17,0,.34,.03,.39,.04-.64-.33-1.35-.73-1.73-1.52,.08-.27,.32-.36,.53-.47,.87-.42,1.67-.94,2.44-1.52,1.15-.86,2.46-1.3,3.9-1.27,2.29,.04,4.58,.21,6.87,.33,1.21,.06,2.4-.13,3.61-.1,.41,0,.83,0,1.24,0,1.4,.07,1.43,.03,1.44-1.4,0-.64,0-1.27,0-1.91,0-1.43-.03-2.85-.01-4.28,.02-1.81,.01-3.61,0-5.42,0-.34-.08-.67-.18-.99-.25-.79-.78-1.18-1.71-1.03-2.09,.35-4.2,.3-6.29,.49-1.89,.17-3.79,.24-5.66-.26-.92-.24-1.76-.65-2.59-1.11-.12-.06-.23-.14-.32-.23-.62-.58-1.34-.72-2.15-.56-2.2,.42-4.42,.54-6.64,.47-1.34-.04-2.68-.03-4.01-.14-.35-.14-.15-.31,0-.46,.22-.23,.63-.44,.29-.82-.31-.34-.67-.13-.96,.09-.56,.41-1.11,.84-1.68,1.24-.41,.29-.38,.51,.07,.72,.17,.08,.36,.13,.38,.36-.23,.65-.73,1.13-1.1,1.7-.38,.58-.83,1.12-1.19,1.72-.18,.29-.42,.5-.79,.42-.37-.08-.48-.39-.53-.72-.03-.26-.01-.53-.03-.79-.05-.93-.47-1.42-1.38-1.59-1-.19-2.02-.28-3.03-.32-1.94-.08-3.88-.03-5.82-.02-.32,0-.64,.08-.74,.41-.28,.84-.61,1.66-.71,2.55-.08,.69,.21,1.19,.69,1.62-.22,.89-.5,1.77-.45,2.72,.04,.77,.32,1.19,1.06,1.41,.6,.17,1.22,.25,1.84,.25,1.97,0,3.9,.37,5.83,.67,.31,.05,.65,.1,.78,.46,.02,.23-.19,.3-.31,.43-.27,.29-.2,.5,.2,.58,.33,.07,.68,0,1.01,.06,.8,.14,1.18,.84,.84,1.52-.21,.05-.41-.03-.61-.1-1.27-.44-2.57-.72-3.91-.88-.65-.08-1.28,0-1.91,.1-1.31,.19-2.59,.11-3.87-.22-.37-.1-.74-.16-1.12-.17-.54,0-.79,.2-.91,.73-.04,.19-.05,.37-.05,.56,0,1.07,.26,1.37,1.31,1.51,.92,.12,1.85,.11,2.76,.02,1.28-.13,2.56-.09,3.83,.1,.32,.05,.69,.05,.89,.4-.21,.3-.54,.23-.83,.23-1.75,0-3.51,0-5.26,0-.28,0-.57-.03-.86,.12,.19,.15,.39,.08,.57,.08,2.53,0,5.05,0,7.58,.01,.29,0,.66-.12,.83,.28-.21,.21-.49,.17-.75,.17-3.07,0-6.14,.02-9.21,0-1.6-.01-3.13-.43-4.63-.94-.34-.12-.52-.35-.6-.69-.11-.8-.03-1.59-.04-2.39,0-.24,.02-.48-.05-.72-.04-.16-.04-.33-.01-.5,.1-.31,.06-.63,.08-.95,0-.1,.02-.2,.05-.29,.26-1.32,.38-2.65,.37-3.99,0-.95,.15-1.88,.12-2.82-.02-.77-.24-1.02-1-1.08-1.69-.12-3.39-.16-5.08-.24-.88-.04-.92,.03-1.08,.93-.06,.37-.08,.75-.08,1.13,0,1,.01,2-.01,3-.02,.55-.27,.93-.82,1.08-.61,.17-1.35-.06-1.74-.55-.2-.26-.31-.55-.37-.88-.23-1.27-.23-2.54-.05-3.82,.21-1.46,.04-2.86-.95-4.06-.65-.78-1.45-1.31-2.41-1.6-.84-.25-1.53-.72-2.07-1.41-.09-.12-.23-.21-.15-.39Z"/>
  <path class="cls-55" d="M2.29,81.23c.42-.53,.72-1.12,.89-1.77,.11-.44,.15-.89,.05-1.34-.14-.65-.08-1.3,.03-1.95,.21-1.18,.07-2.37,.09-3.55,.06-3.62,.14-7.24,.16-10.85,.01-2.98-.3-5.94-.61-8.9-.2-1.94-.07-3.88,.2-5.81,.48-3.39,.47-6.8,.57-10.21,.17-5.5,.13-11.01,.09-16.51-.01-1.49-.27-2.96-.51-4.43-.11-.71-.01-1.43-.09-2.14,.63-.57,.77-1.36,.95-2.13,.05-.22,.06-.45,.11-.67,.16-.67,.46-1.01,.99-1.09,.59-.09,1.17,.17,1.48,.72,.33,.58,.53,1.2,.52,1.88-.01,2.3,0,4.6,0,6.9,0,2.68-.03,5.35-.01,8.03,0,.26-.02,.53,.06,.78,.17,1.1,.3,1.15,1.4,1.27,1.23,.13,2.43,.13,3.63-.22,.97,.23,1.97,.2,2.96,.2,.32,0,.64,.03,.89,.26,.15,.23,.12,.49,.12,.75,.03,.19,.02,.38,.02,.57,0,11.37,0,22.75,0,34.12,0,.34,.05,.68-.11,1-.17,.22-.42,.22-.66,.19-.51-.07-1.03-.07-1.54-.14-.68-.12-1.38-.16-2.07-.24-1.01-.11-2.02-.28-3.02-.45-1.3-.23-1.66,.07-1.67,1.38-.01,5.39-.02,10.78,0,16.17,0,2.17,1,3.34,3.13,3.8,2.05,.45,4.12,.38,6.19,.25,.51-.03,1.02-.12,1.48,.19,.18,.34-.09,.48-.3,.62-.32,.2-.69,.2-1.04,.14-1.42-.25-2.86-.21-4.29-.19-.97,0-1.92-.07-2.86-.28-.71-.16-1.2-.03-1.33,.31-.12,.33,.21,.93,.72,1.31,.09,.08,.09,.17,0,.23-.15,.11-.33,.12-.48,.03-1.87-1.05-3.72-2.12-4.24-4.46-.11-.5-.13-1-.14-1.51,0-1.24-.25-1.58-1.41-1.95-.15-.05-.35-.04-.36-.28Z"/>
  <path class="cls-14" d="M76.33,66.48c.62-.21,1.26-.05,1.89-.1,.19-.02,.44,.09,.49-.22,.14-.15,.33-.17,.51-.17,1.23,.03,2.45-.2,3.69-.12,.39,.03,.79,.02,1.18,.14,.67,.21,.96,.66,.69,1.3-.45,1.04-.41,2.13-.48,3.22-.14,2.11-.04,4.22-.12,6.33-.05,1.35-.12,2.71-.35,4.05-.21,1.21-.06,2.41,.09,3.61,.16,1.32,.97,2.22,2.21,2.62,1.19,.38,1.98,1.12,2.45,2.25,.2,.47,.47,.9,.77,1.32,.4,.56,.83,.59,1.32,.1,.4-.4,.72-.87,1.04-1.34,.14-.21,.26-.48,.59-.44,.26,.13,.34,.34,.2,.6-.79,1.49-1.66,2.91-3.26,3.69-.87,.07-1.48-.33-1.89-1.07-.25-.44-.41-.93-.59-1.4-.18-.5-.42-.96-.75-1.38-.65-.84-1.51-1.06-2.51-.92-.41,.06-.81,.15-1.21,.27-.15,.03-.31,.05-.47,.05-.7,0-1.38-.2-2.05-.37-1.74-.45-3.46-.46-5.17,.11-.38,.13-.77,.16-1.17,.14-.38-.03-.7-.16-.84-.55-.07-1.77-.05-3.54-.02-5.32,.04-3.04-1.51-4.21-4.16-4.42-1.45-.12-2.88-.32-4.33-.49-.21-.02-.46-.06-.53-.27-.08-.23,.13-.37,.29-.5,.31-.25,.6-.52,.86-.82,.33-.38,.31-.64-.07-.97-.34-.3-.73-.54-1.1-.79-.3-.2-.57-.43-.76-.75-.21-.34-.15-.65,.12-.93,.25-.26,.54-.23,.83-.06,.26,.15,.51,.33,.82,.35,.18,0,.35-.03,.42-.22,.06-.17-.05-.29-.17-.39-.16-.13-.35-.22-.54-.31-.76-.4-1.36-.93-1.68-1.76-.23-.58-.53-.65-1.07-.34-1.09,.63-1.59,1.68-1.4,2.97,.05,.34,.09,.67-.05,1-.17,.39-.47,.59-.89,.56-.42-.03-.64-.3-.71-.69-.09-.46-.07-.94-.14-1.41-.12-.8-.36-1.54-.83-2.2-.13-.18-.26-.37-.36-.58-.25-.52-.1-.99,.4-1.23,.5-.24,.96-.07,1.21,.45,.11,.24,.16,.5,.29,.74,.13,.24,.26,.24,.41,0,.3-.47,.14-1.07-.49-1.43-.92-.52-1.55-1.31-2.16-2.12-.13-.18-.26-.37-.3-.6-.03-.12,0-.22,.13-.27,.54-.09,1.05,.1,1.57,.15,2.26,.19,4.52,.24,6.78,.22,.94,0,1.89-.05,2.82,.09,.28,.04,.57,.03,.85,0,.6-.08,.82-.56,.48-1.07-.13-.19-.31-.32-.47-.48-.68-.67-.99-1.46-.78-2.41,.2-.91,.25-1.82,.25-2.75-.01-4.43,0-8.87,0-13.3,0-2.42,.19-4.82,.4-7.22,.08-.95-.17-1.83-.66-2.64-.24-.85-.32-1.71,.04-2.55,.41-.33,.88-.58,1.27-.94,.27-.26,.51-.54,.32-.94-.18-.38-.54-.44-.92-.4-1.65,.14-3.3,.1-4.96,0-1.56-.09-3.12-.02-4.69-.03-.28,0-.57,.06-.81-.16,.33-.31,.75-.32,1.15-.34,.83-.04,1.66,.14,2.47,.09,2.07-.13,4.14,.02,6.31-.25-2.09-.71-4.01-1.62-6.18-1.88,.38-.56,.79-.78,1.41-.81,1.96-.1,3.93-.28,5.89-.42,.6-.04,1.2-.03,1.8-.06,.52-.02,.75,.43,.84,.91,.19,1.08,.5,2.12,1.02,3.09,.03,.05,.04,.11,.08,.15,1,1.06,.98,2.37,.95,3.71-.04,1.81-.02,3.62,0,5.43,.03,3.92-.26,7.84-.1,11.76,.17,3.98,.07,7.95,.07,11.93,0,1.47-.27,2.94-.41,4.42-.12,1.17-.21,2.35-.36,3.52-.16,1.18-.16,2.37-.18,3.54-.03,1.66-.03,3.34,.34,4.99,.29,1.26,.38,2.55,.53,3.84,0,.07-.02,.16,.01,.22,.16,.33-.06,.84,.22,1.01,.28,.17,.57-.27,.88-.39,.53-.19,1.11-.22,1.61-.51,.16-.09,.39-.17,.39-.37-.01-.23-.27-.21-.44-.28-.29-.13-.6-.08-.89-.08-.48,0-.8-.18-.87-.69,.1-.07,.21-.09,.32-.06,1.55,.41,3.14,.17,4.71,.24,.11-.01,.23,0,.34,0,.64-.03,.93-.26,.91-.89-.02-1.08,.16-2.14,.13-3.22-.02-.73,.24-1.29,.84-1.74,.99-.75,1.15-1.9,1.3-3.03,.11-.82-.05-1.49-.91-1.92-.81-.4-1.06-1.2-1-2.07,.07-.99-.06-1.98,.27-2.97,.24-.72-.14-1.12-.96-1.14-1.17-.03-2.34,0-3.51-.01-.26,0-.54,.06-.74-.17Z"/>
  <path class="cls-40" d="M81.9,88.69c.15,0,.29,0,.44,0,.69,0,1.27,.15,1.43,.95,.05,.24,.26,.22,.45,.23,1.02,.04,1.31,.47,1,1.47-.07,.23-.16,.46-.26,.68-.22,.5-.29,1.03-.25,1.57-3.89-.11-7.78-.44-11.68-.41-.07,0-.14-.04-.21-.05,.18-.22,.45-.2,.68-.18,2.88,.21,5.6-.62,8.34-1.28,.33-.08,.66-.19,.9-.45,.29-.32,.22-.63-.19-.7-2.06-.35-4.1-.8-6.22-.57-1.67,.17-3.34,.26-5.01,.4-2.07,.17-4.14,.13-6.2,.32-.08,0,.02,0-.06,0-.91,.1-1.71,.35-1.86,1.43-.56,.22-1.06-.1-1.58-.21-1.47-.31-2.93-.7-4.44-.77-1.14-.05-2.26,.03-3.33,.46-.29,.11-.5,.27-.65,.57-.61,1.22-1.63,1.81-2.96,1.59-2.73-.45-5.49-.31-8.23-.42-1.3-.05-1.68-.32-2.12-1.59-.14-.41-.39-.73-.78-.93,.06-.18-.04-.19-.18-.21-.84-.11-1.69-.11-2.52-.04-.32,.03-.63-.11-.94,.02-1.58-.02-3.11,.19-4.53,.96-.22,.12-.45,.02-.66,.1-.15-.24-.02-.48,0-.71,.07-.76-.23-1.18-.98-1.33-.28-.06-.56-.06-.84-.06-1.45,0-2.9-.03-4.35,0-2.37,.05-4.74-.09-7.11-.15-1.71-.04-3.42-.04-5.14-.08-.74-.02-1.46,.17-2.2,.11-.24-.02-.5,.02-.69-.17-.47-.05-1.03-.74-1.02-1.27,0-.46,.37-.8,1.03-.64,2.54,.58,5.14,.06,7.67,.53,.52,.1,1.11,.13,1.37-.55-.11-.8-.09-1.61,0-2.41,.38-1.6,1-2.07,2.66-1.84,1.41,.19,2.82,.17,4.23,.24,2.64,.13,5.28,0,7.92,.12,2.13,.1,4.26-.01,6.39,.1,3.39,.18,6.79-.02,10.18,.12,2.92,.12,5.85,.15,8.77,.06,3.79-.12,7.58-.02,11.37-.08,.25,0,.49,0,.73,.02,.45,0,.91-.07,1.35,.08,.32,.33,.31,.74,.26,1.15-.05,.47-.05,.93-.03,1.4,.03,.73,.39,1.31,.84,1.85,.13,.3,.37,.43,.68,.45,2.83,.25,5.67,.43,8.51,.11Z"/>
  <path class="cls-26" d="M83.92,30.26c.75-.98,1.09-2.06,1.03-3.31-.09-2.01,.12-4,.3-6,.14-1.46,.12-2.94-.23-4.4-.14-.58-.3-1.2-.1-1.82,.06-.19,0-.37-.1-.54,.75-1.59,1.67-3.07,2.92-4.33,.37-.37,.54-.87,.41-1.41-.06-.27-.23-.49-.53-.51-.3-.02-.32,.25-.41,.45-.42,.97-.97,1.87-1.61,2.71-.41,.54-.87,.56-1.43,.16-.05-.03-.09-.07-.13-.11-.86-.7-1.08-.69-1.82,.09-1.2-.48-1.29-.44-.42-1.58,.28-.37,.44-.82,.61-1.27,.3-.79,.63-1.57,.93-2.36,.3-.79,.01-1.42-.81-1.69-1.52-.49-3.07-.87-4.69-.81-.38,.02-.79,.05-.83-.51-.03-.52,.32-.65,.74-.74,.43-.1,.85-.11,1.29-.11,2.69,0,5.39,0,8.08,0,.22,0,.46,.08,.64-.1,.38,.17,.8,.18,1.2,.28,1.2,.3,2.03,1.09,2.77,2.03,.9,1.15,1.16,2.45,1.07,3.87-.08,1.35-.26,2.7,0,4.06,.13,.68-.33,1.18-1.11,1.29-.3,.04-.6,.02-.9,.05-.85,.08-1.3,.53-1.32,1.39-.03,1.4-.02,2.79-.02,4.19,0,6.08,.01,12.15,.01,18.23,0,.18,.09,.38-.1,.53-.31-.19-.36-.51-.4-.83-.03-.3-.02-.6-.02-.9,0-5.56,0-11.13,0-16.69,0-.49-.02-.98-.14-1.46-.09-.36-.28-.62-.66-.7-.45-.09-.82,.17-.72,.6,.46,2.05-.06,4.05-.21,6.07-.03,.36,.02,.72,.06,1.07,.24,2.17,.37,4.35,.45,6.54,.34,8.99,.16,17.99,.22,26.98,0,1.26-.23,2.47-.58,3.67-.03,.09-.06,.18-.1,.26-.22,.46-.59,.69-1.03,.64-.48-.06-.67-.41-.75-.81-.08-.39-.16-.77-.33-1.13-.13-1.39-.1-2.79-.03-4.18,.08-1.77,.27-3.53,.29-5.3,.01-.96,.11-1.92,.13-2.88,.04-3.21-.26-6.4-.6-9.58-.24-2.33-.29-4.66-.1-7,0-.04,0-.08,0-.11,.06-.84,.15-1.69-.94-1.98Z"/>
  <path class="cls-31" d="M8.97,89.26c2.3-.13,4.6-.2,6.89-.1,4.35,.19,8.7,.21,13.05,.21,1.4,0,1.85,.79,1.36,2.28-.24,.76-.8,1.1-1.56,1.16-1.37,.11-2.75-.01-4.12-.03-4.79-.05-9.57-.12-14.36-.18-1.39-.02-2.79-.07-4.18-.06-2.32,.02-4.97-1.72-5.7-4.41-.56-2.05-.39-4.07,.1-6.08,.27-1.09,.92-1.35,1.84-.84,.12,.16,.31,.12,.47,.16,1.1,.28,1.49,.71,1.44,1.86-.06,1.64,.38,3.07,1.57,4.23,.79,.76,1.76,1.26,2.68,1.84,.16,.1,.36,.11,.52-.05Z"/>
  <path class="cls-17" d="M92.31,89.02c-.54,.43-.77,1.1-1.24,1.59-.19,.2-.35,.44-.6,.58-.46,.27-.84,.2-1.16-.27-.38-.56-.73-1.14-1.01-1.76-.4-.92-1.08-1.5-2.04-1.81-1.72-.56-2.42-1.75-2.6-3.54-.22-2.27,.31-4.48,.36-6.72,.04-1.56-.02-3.13,.02-4.69,.04-1.4,.13-2.81,.23-4.21,.01-.21,.15-.42,.24-.62,.43-.88,.27-1.22-.66-1.46-.28-.08-.56-.05-.84-.07,.03-.33,.31-.33,.53-.37,.48-.08,.95-.17,1.39-.41,.95-.04,1.48,.28,1.78,1.15,.29,.84,.39,1.73,.42,2.61,.03,1,0,2,.01,3,.01,.63-.13,1.19-.48,1.71-.07,.11-.14,.22-.2,.34-.6,1.04-.41,1.58,.7,2,.99,.37,1.2,.85,.77,1.83-.22,.48-.52,.92-.7,1.42-.27,.73-.12,1.13,.57,1.49,.33,.17,.7,.28,1.02,.48,.19,.1,.31,.29,.49,.39,.45,.27,.95,.29,1.46,.29,.55,0,1.08,.04,1.55,.37,.02,.05,.05,.09,.07,.14-.03,1.41-.06,2.83,.03,4.24,.03,.47-.04,.94-.03,1.41-.03,.3-.2,.59-.07,.91Z"/>
  <path class="cls-11" d="M88.79,81.44c-.31-.14-.62-.27-.93-.41-.97-.42-1.19-.98-.74-1.92,.24-.51,.52-1,.75-1.51,.29-.65,.09-1.12-.58-1.31-1.42-.4-1.77-1.09-.87-2.45,.44-.66,.59-1.35,.56-2.13-.05-1.54,.05-3.07-.23-4.61-.2-1.14-.69-1.66-1.82-1.75-.08-.14-.08-.29-.04-.44,.23-.99,.22-2,.22-3.01,0-.22-.02-.45,.17-.63,.25,.26,.28,.59,.35,.93,.07,.4,.1,.85,.67,.88,.55,.04,.77-.3,.9-.75,.42-1.41,.59-2.85,.58-4.33-.03-6.34,.03-12.68-.04-19.01-.02-2.07-.03-4.14-.1-6.21-.07-1.99-.2-3.97-.34-5.96-.05-.78-.28-1.56-.29-2.34,0-.8,.14-1.6,.25-2.4,.17-1.27,.3-2.54,0-3.81-.17-.74-.07-.9,.54-1.1,.47-.15,1.12,.24,1.18,.76,.05,.43,.14,.85,.14,1.29-.01,5.81,0,11.62-.02,17.43,0,.46,.09,.89,.24,1.31,0,.52,0,1.03,0,1.55,.05,1.09,.1,2.18-.04,3.27-.02,.15-.04,.3-.04,.45,.04,2.56-.23,5.12-.23,7.68,0,.6-.09,1.2-.14,1.8-.2,1.18-.44,2.34-.34,3.57,.12,1.38,.04,2.78,.02,4.18,0,.52-.24,.99-.41,1.46-.3,.8-.32,1.62-.18,2.45,.28,1.6,.36,3.21,.17,4.83-.1,.84,0,1.66,.47,2.39,.28,.43,.09,.93,.24,1.37,.05,.2,.11,.41,.08,.62-.04,2.34-.01,4.68-.02,7.02,0,.28,.06,.57-.17,.8Z"/>
  <path class="cls-54" d="M67.28,1.84c-1.07-.02-2.14,.06-3.2,.18-1.25,.15-1.91,.9-2.12,2.12-.2,1.19-.69,1.58-1.89,1.67-.5,.04-1,.14-1.51,.08-.16-.27,.02-.51,.08-.76,.16-.59,.18-1.17-.17-1.69-.46-.71-1.14-.89-1.93-.73-.67,.13-1.31,.35-1.98,.49-.49,.1-.63,.49-.7,.92-.04,.25,.04,.54-.18,.75-.87,.13-1.59-.06-2.1-.86-.3-.47-.86-.45-1.34-.46-2.04-.03-4.08-.05-6.11,0-.89,.02-1.79,.21-2.68,.33-.23,.18-.47,.08-.7,.02-.95-.23-1.79-.7-2.63-1.17-.57-.32-1.16-.54-1.82-.53-1.02,.02-1.43,.47-1.37,1.49,.03,.46,.21,.92,.06,1.4-.05,.02-.12,.02-.16,.06-1.05,.93-1.73,.89-2.67-.15-.32-.78-.46-1.58-.33-2.42,.02-.15,.11-.29,.31-.19,.35,.48,.36,1.06,.47,1.61,.04,.2,.08,.41,.16,.59,.13,.28,.39,.33,.67,.28,.28-.05,.44-.22,.42-.51-.02-.3-.06-.6-.1-.89-.16-.97,.3-2.08,1.72-2,.9,.05,1.8,.1,2.7-.09,.33-.07,.69,0,1,.14,1.43,.7,2.98,.77,4.52,.79,2.13,.03,4.26-.06,6.39,.07,1.03,.06,2-.23,2.96-.61,1.36-.53,2.83-.61,4.27-.68,.99-.05,1.74,.61,2.4,1.32,.21,.23,.41,.62,.71,.59,.29-.03,.23-.49,.35-.75,.58-1.27,1.57-1.84,2.76-1.31,1.09,.48,2.21,.38,3.31,.51,.24,.03,.46,.02,.4,.36Z"/>
  <path class="cls-66" d="M7.16,28.23c-.17-.15-.11-.35-.11-.53,0-2.06,0-4.11,0-6.17,0-3.07,0-6.13,0-9.2,0-.63-.24-1.18-.51-1.71-.27-.51-.78-.7-1.35-.61-.54,.08-.73,.48-.79,.97-.1,.8-.31,1.58-.62,2.33-.13,.32-.29,.46-.61,.44-.23,0-.45,0-.68-.01-.93-.08-1.64-.73-1.7-1.65-.12-1.81,.06-3.61,.11-5.42,0-.3,.19-.52,.37-.74,.44-.32,.88-.22,1.24,.09,.64,.54,1.36,.82,2.18,.99,1.88,.39,3.2,1.88,3.47,3.79,.03,.21,.03,.41,0,.62-.26,1.63-.2,3.27,.02,4.9,.08,.56,.04,1.13,.12,1.69,.06,.51,.25,.85,.74,1.02,.09,.03,.16,.09,.22,.17,.21,.68,.08,1.38,.1,2.07,.01,.48,.08,.93,.31,1.36,.26,.38,.64,.53,1.08,.58,.23,.03,.49,.02,.6,.31,.07,.79-.23,1.25-1.02,1.53-.79,.29-1.63,.04-2.05-.61-.35-.55-.58-1.14-.6-1.8,0-.36-.06-.71-.28-1.08-.11,.24-.07,.43-.07,.62,0,1.75,0,3.51,0,5.26,0,.28,.06,.57-.16,.81Z"/>
  <path class="cls-43" d="M63.19,92.1c-.16-.59,.02-.99,.54-1.25,.78-.39,1.63-.45,2.47-.45,1.96,0,3.91-.16,5.86-.27,1.85-.1,3.69-.39,5.55-.42,1.77-.03,3.5,.38,5.24,.66,.26,.04,.3,.18,.29,.39-.04,.6-.47,.84-.96,.97-1.23,.32-2.48,.58-3.71,.92-1.86,.51-3.76,.42-5.66,.47-1.66,.02-3.3-.2-4.95-.29-1.18-.06-2.36-.07-3.55-.03-.53,.02-.98-.11-1.12-.7Z"/>
  <path class="cls-45" d="M88.9,73.52c-.08-.14-.12-.29-.11-.45-.06-.65-.17-1.31-.17-1.95-.03-5.49,0-10.97,0-16.46,0-.62,.07-1.24,.16-1.85,.07-2.27,.18-4.54,.26-6.81,.03-.94-.08-1.9,.11-2.81,.26-1.22,.12-2.43,.21-3.64,.13,.63,.06,1.27,.07,1.91,.04,1.67,.06,3.35,.25,5.02,.05,.46,.17,.9,.45,1.26,.46,.58,.51,1.21,.29,1.86-.16,.5-.19,.99-.19,1.5,0,4.98-.01,9.95,.01,14.93,0,1.12-.18,2.21-.23,3.32-.06,1.5,.3,2.98,.24,4.49-.08,1.94-.08,3.88-.42,5.8-.14,.78,.19,1.31,.92,1.61,.24,.1,.49,.2,.74,.26,.46,.1,.79,.31,.78,.83-.75-.16-1.51-.23-2.28-.23-.32,0-.61-.16-.89-.33-.14-.29-.17-.61-.18-.93-.05-1.77,0-3.54,0-5.31,0-.67-.13-1.34-.07-2.02Z"/>
  <path class="cls-20" d="M9.19,19.16c-.8-.13-.93-.26-1.02-1.13-.16-1.64-.37-3.27-.35-4.93,0-.51,.07-1.02,.15-1.51,.33-1.96-1.34-4.09-3.17-4.42-.93-.17-1.76-.45-2.45-1.13-.29-.28-.71-.16-1.08-.13,.03-.36,.23-.66,.39-.97,.32-.63,.53-.7,1.18-.44,.64,.84,1.44,1.43,2.48,1.73,1.99,.59,3.43,2.62,3.32,4.61-.04,.83-.14,1.64-.21,2.46-.07,.94,.05,1.88,.28,2.79,.17,.69,.86,1.08,1.58,1.02,.55-.05,.93-.29,.95-.9q.12-.63,.51-.63c.16,.72,.2,1.42-.45,1.96-.2,.08-.4,.06-.61,.07-.88,.06-1.18,.32-1.35,1.19-.03,.13-.04,.26-.15,.35Z"/>
  <path class="cls-16" d="M84.7,93.59c-.24-.33-.24-.68-.09-1.06,.18-.45,.36-.9,.5-1.37,.26-.86-.03-1.2-.92-1.13-.39,.03-.67,0-.61-.51,.04-.31-.21-.46-.46-.56-.25-.1-.52-.19-.78-.28,1.03-.39,2.07-.58,3.08,.01,.75,.44,1.14,1.17,1.45,1.95,.17,.44,.35,.87,.51,1.31,.32,.87,1.06,1.15,1.87,1.34-1.47,.83-2.99,.78-4.54,.28Z"/>
  <path class="cls-9" d="M32.16,2.41c-.43,.34-.2,.8-.17,1.18,.04,.47,.17,.94,.19,1.42-.99-.38-1.25-1.29-1.19-2.24,.04-.54,.11-1.08,.17-1.61,.72,.11,.94,.61,1,1.24Z"/>
  <path class="cls-42" d="M92.38,88.11c-.11-.94-.21-1.89-.19-2.84,.01-.75,0-1.5,0-2.25,0-.21-.03-.42,.19-.55,.08,.1,.18,.18,.17,.33-.05,1.53,.2,3.07-.03,4.6-.04,.24-.1,.48-.14,.71Z"/>
  <path class="cls-23" d="M35.46,90.59c1.33-.29,2.65-.31,4.04,.04-.18,.08-.29,.13-.4,.18-.22-.06-.43-.11-.66-.07-1.01,.14-2,.05-2.99-.15Z"/>
  <path class="cls-68" d="M85.28,61.28c-.01,1.24,.09,2.48-.23,3.7-.03,.13-.07,.25-.11,.37-.36,.4-.87,.35-1.33,.44-.22,.04-.44,.05-.6,.24-1.43,.04-2.87,.08-4.3,.12-.72-.07-1.44,.13-2.15-.12-.1-.4-.14-.82-.15-1.23-.02-.78,.47-1.05,1.16-.66,.15,.08,.28,.19,.42,.29,.41,.3,.87,.35,1.35,.27,.4-.06,.66-.29,.67-.72,.04-1.75-.06-3.42-1.11-4.97-1.16-1.71-1.5-3.68-1.41-5.77,.11-2.6,.42-5.18,.61-7.77,.08-1.05,.25-2.09,.12-3.15-.1-.86-.3-1.69-.77-2.4-1.14-1.74-1.17-3.66-1-5.62,.05-.56,.16-1.12,.19-1.69,.03-.66-.1-.81-.76-.96-.45-.1-.95,0-1.37-.28-.35-.71,.38-.72,.66-1.01,.06-.05,.13-.09,.2-.09,1.41,.12,2.79-.21,4.19-.18,.2,0,.41-.02,.58,.14,1.25,0,2.51,0,3.76,.01,1.03,.07,1.16,.18,1.12,1.17-.05,1.35-.11,2.7-.11,4.06,0,2.03,.21,4.04,.44,6.05,.13,1.15,.16,2.32,.25,3.48,.11,1.41,.16,2.82,.1,4.23-.09,2.49-.17,4.99-.36,7.48-.12,1.53-.03,3.05-.09,4.57Z"/>
  <path class="cls-44" d="M69.21,15.09c-2.49,.09-4.98,.15-7.46-.03-2.25-.17-4.48,.17-6.72,.05-.72-.04-1.44-.07-1.96-.69-.1-.11-.23-.11-.36-.12-.7-.03-1.39-.06-2.09-.12-.51-.04-.97-.07-1.32,.46-.22,.34-.65,.24-1,.2-3.34-.35-6.7-.4-10.06-.35-4.2,.07-8.41,.2-12.61,.29-.54,.01-1.1,.07-1.61-.17-.97-.38-.87-.99-.74-2.05,.09-.74,.41-1.44,.62-2.16,.12-.38,.41-.53,.78-.53,2.02,0,4.04-.04,6.06,.01,1.01,.03,2.01,.2,3.01,.33,.89,.11,1.45,.75,1.48,1.65,.01,.34-.02,.68,.02,1.02,.02,.22,.12,.45,.39,.49,.23,.04,.42-.03,.54-.22,.73-1.21,1.61-2.31,2.41-3.47,.03-.04,.02-.11,.03-.17,.32-.82,1.02-1.25,1.82-1.12,1.69-.06,3.38,.14,5.07,.1,1.98-.04,3.97-.1,5.92-.52,.95-.21,1.72,.21,2.37,.88,1.33,1.31,2.68,2.59,3.65,4.21,.34,.56,.93,.63,1.5,.61,1.72-.06,3.41-.29,5.06-.81,1.42-.45,2.71-1.13,3.96-1.91,.29-.18,.58-.35,.91-.45,.49-.15,.85,.01,1.07,.47,.12,.24,.18,.5,.19,.76,.02,.94,.02,1.89,0,2.83-.01,.65-.28,.79-.93,.52Z"/>
  <path class="cls-69" d="M67.98,33.43c-.21,.83-.18,1.67-.01,2.51,.1,.58-.08,1.16-.05,1.74,.16,3.26,.2,6.52,.09,9.77-.1,2.86,.04,5.72-.23,8.58-.09,.76-.22,1.49-.65,2.16-.24,.38-.14,.79,.13,1.15,.12,.16,.26,.32,.34,.51,.09,.28,.08,.56,.02,.85-.11,.32-.2,.65-.28,.98-.34,1.35-.98,1.66-2.23,1.07-.17-.12-.32-.26-.44-.43-.86-1.19-2-2.09-3.12-3.02-.65-.55-1.05-1.19-.98-2.05,.14-1.66-.71-2.83-1.87-3.86-1.11-.99-2.23-1.96-3.6-2.61-1.72-.81-3.54-1.14-5.42-1.21-.57-.02-1.13-.05-1.68-.21-1.36-.38-2.25-1.49-2.26-2.9,0-.92,.03-1.84,.08-2.77,.11-2-.1-3.96-1.09-5.76-.07-.13-.15-.26-.11-.43,.11-.1,.23-.11,.36-.08,.1,.03,.17,.1,.22,.18,.4,.83,.95,1.58,1.1,2.53,.06,.41,.13,.83,.13,1.23,0,.88,.26,1.72,.2,2.62-.1,1.41,.19,2.78,1.38,3.78,.69,.58,1.47,.9,2.34,1.03,.91,.14,1.84,.13,2.75,.31,1.44,.29,2.72,.87,3.76,1.93,.35,.36,.75,.51,1.28,.39,.85-.19,1.71-.25,2.56,.08,1.29,.5,2.13,1.68,2.21,3.07,.1,1.78,.2,3.56,.78,5.27,.13,.38,.29,.73,.59,1.01,.5,.48,1.11,.41,1.62-.07,.55-.52,.58-1.16,.51-1.8-.06-.57-.07-1.13-.08-1.69-.03-.85,.05-1.69-.09-2.54-.08-.48,.02-.96,.12-1.45,.18-.85,.13-1.73,.04-2.59-.06-.59-.05-1.14,.08-1.73,.18-.81,.14-1.66,.04-2.48-.06-.5,0-1.02-.14-1.51-.03-.09-.04-.19-.05-.28,.07-1.44-.38-2.83-.42-4.26-.02-.94-.11-1.88-.23-2.81-.05-.42,.2-.75,.43-1.08,.61-.88,.57-1.61-.12-2.4-.41-.48-.91-.62-1.52-.53-.72,.11-1.44,.25-2.18,.33-1.28,.14-2.51,0-3.75-.26-.4-.08-.78-.08-1.17,.03-.68,.2-1.36,.27-2.04-.05-.34-.16-.75-.04-1.12-.14-1.49-.45-3-.67-4.56-.75-1.57-.08-3.13,0-4.68,.05-1.79,.07-3.58,.01-5.37,.09-2.58,.11-5.15,.25-7.71,.61-.36,.05-.71,.05-1.07,.06-.26,0-.49,.08-.55,.38-.06,.28,.06,.48,.28,.63,.35,.25,.77,.32,1.18,.34,2.07,.11,4.14,.25,6.2,.38,1.21,.07,2.41,.04,3.62,.1,.91,.05,1.74,.33,2.39,1,.04,.06,.04,.13,.01,.19-.23,.18-.5,.14-.76,.14-1.48-.01-2.97-.03-4.45-.08-1.61-.05-3.23,.09-4.85,.09-1.89,0-3.54-.63-5.01-1.77-1.22-.93-1.18-1.91,.06-2.83,.11-.08,.2-.17,.33-.22,.48-.13,.96-.19,1.45-.19,1.38,0,2.75,.03,4.13,0,2-.05,3.98-.25,5.98-.3,1.43-.03,2.86-.09,4.29,.07,.51,.06,1.02,.02,1.53,.02,1.72,0,3.43,0,5.15,0,.48,0,.94,.08,1.37,.28,.63,.29,1.26,.35,1.91,.06,.17-.08,.36-.1,.55-.08,.63-.14,1.26-.27,1.88-.41,.13-.14,.3-.12,.47-.12,2.69,.03,5.38,.19,8.07,.16,1.13-.02,1.79,.47,1.98,1.32,.05,.22,.08,.45-.07,.65Z"/>
  <path class="cls-46" d="M80.17,30.25c-1.27,.08-2.54,.16-3.8,.23-.39,.02-.79,0-1.17-.1-.44-.85-.51-1.76-.4-2.67,.1-.84,.06-1.68,.05-2.52-.09-.13-.09-.25,0-.37,0-3.32,0-6.64,0-9.96,0-.4,0-.79,0-1.19,0-1,.67-1.46,1.65-1.37,.85,.07,1.69,.1,2.53,0,.33-.04,.68-.05,1.02-.02,1.1,.08,1.66,.76,1.7,2.06,.03,.89,.01,1.77,.02,2.66,0,.6,.19,1.1,.75,1.43,.32,.19,.52,.49,.64,.84,.4,1.15,.64,2.31,.43,3.54-.08,.47-.28,.77-.77,.92-.95,.3-1.39,.94-1.38,1.96,.01,.79,.08,1.58,.11,2.37,.03,1.04-.35,1.83-1.38,2.21Z"/>
  <path class="cls-41" d="M11.24,17.47c.59-.54,.42-1.25,.43-1.92-.1-.13-.1-.28-.06-.43,.3-1.3,.96-2.33,2.21-2.89,1.12-.5,2.3-.54,3.5-.45,.64,.05,1.04,.52,1.09,1.24,.05,.73,.02,1.47,.02,2.2,0,1.35,.03,2.71-.16,4.05,0,.07-.01,.14-.02,.21-.12,.3,.02,.62-.08,.92,0,.15-.02,.3-.02,.45-.03,1.05-.1,2.1-.1,3.15,0,1.2,0,2.4,.21,3.59,.03,.13,.05,.27,.05,.4,0,.3,0,.61,0,.91,0,.24,.01,.49-.15,.7-.67,.27-1.35,.39-2.04,.09-.49-.13-.99-.14-1.5-.12-.8,.04-1.6-.03-2.37-.24-.69-.07-.98-.39-1.04-1.19-.07-.85,0-1.69,.14-2.52,.13-.73,.02-1.45-.11-2.17-.12-.16-.3-.11-.47-.12-.49-.02-.89-.23-1.22-.57-.28-1.17-.21-2.36-.13-3.54,.06-.98,.68-1.51,1.82-1.78Z"/>
  <path class="cls-33" d="M74.53,31.39c.53-.05,1.05,.05,1.57,.14,.63,.1,.77,.39,.72,1.02-.14,1.82-.53,3.65-.03,5.48,.15,.57,.39,1.09,.69,1.59,.78,1.29,1.05,2.68,.93,4.2-.11,1.44-.23,2.88-.38,4.31-.21,1.88-.34,3.77-.41,5.66-.07,1.79,.28,3.57,1.34,5.03,1.2,1.66,1.25,3.49,1.22,5.37,0,.43-.35,.64-.71,.7-.6,.09-1.21,.08-1.69-.4-.05-.05-.12-.09-.18-.14-.25-.18-.53-.36-.83-.18-.28,.17-.22,.5-.2,.78,.02,.37,.23,.73,0,1.1-1.31,.15-1.65-.76-1.8-2-.19-1.57-.21-3.16-.1-4.73,.11-1.51,.13-3.01,.06-4.51-.08-1.94,0-3.88-.11-5.81-.21-4.18-.07-8.36-.07-12.54,0-1.08,.05-2.18,.08-3.27,.02-.6-.19-1.19-.11-1.79Z"/>
  <path class="cls-19" d="M18.12,29.58c.01-.23,.02-.45,.03-.68,.07-.3,.07-.6,0-.9,0-.11-.02-.22-.02-.33-.01-1.06-.07-2.12-.04-3.18,0-.17,.03-.34,.17-.46,.11,.32,.32,.48,.65,.59,1.8,.6,3.62,.92,5.53,.9,2.96-.04,5.92-.01,8.88-.01,.26-.22,.57-.17,.86-.13,1.15,.13,2.26,.43,3.31,.93,1.25,.6,1.75,1.43,1.64,2.68-.02,.23-.07,.45-.26,.6,.16,.19,.39,.11,.58,.11,4.26,0,8.51,0,12.77,0,.54,0,1.07-.24,1.61,0,.15,.07,.33,.09,.43,.24-.27,.24-.61,.17-.92,.17-4.31,0-8.62,.03-12.93-.01-1.22-.01-2.22,.27-2.99,1.25-.75,.23-1.52,.13-2.28,.08-.38-.12-.45-.62-.86-.7-1.7-.3-3.4-.37-5.12-.19-.54,.06-1.09,.01-1.64,.02-1.14-.04-2.29,.05-3.43-.06-.19-.02-.37,.02-.55,.1-.48,.22-.58,.59-.21,.97,.55,.56,.92,1.22,1.27,1.91,.08,.49,.05,.96-.09,1.44-.24,.45-.17,.97-.28,1.44-.17,.28-.39,.2-.56,.03-.55-.54-1.16-1.01-1.68-1.58-1.08-1.18-1.08-3.84-.13-4.91,.64-.72,.6-1.08,.1-1.62-.5-.54-1.44-.71-2.02-.36-.38,.22-.47,.6-.57,.99-.19,.7-.63,.93-1.24,.69Z"/>
  <path class="cls-3" d="M76.33,66.48c1.38,0,2.75,0,4.13,0,1.16,0,1.55,.52,1.19,1.61-.35,1.09-.18,2.2-.17,3.29,0,.75,.53,1.24,1.18,1.52,.49,.21,.67,.56,.69,1.05,.04,1.03-.14,2.02-.57,2.96-.21,.46-.49,.84-.93,1.1-.45,.26-.64,.67-.65,1.18-.03,1.09-.07,2.18-.09,3.27-.02,1.12-.27,1.37-1.37,1.33-.71-.23-1.45-.16-2.18-.17-1.17-.02-1.84-.73-1.68-1.9,.46-3.41-.13-6.72-.96-10-.13-.53-.27-1.06-.42-1.58-.05-.61-.15-1.22-.14-1.85,.03-1.12,.49-1.64,1.6-1.76,.06,0,.11-.03,.15-.06,.07,0,.15-.01,.22-.02Z"/>
  <path class="cls-60" d="M54.72,20.54c1.76-.72,3.6-1.09,5.5-1,1.11,.05,2.22-.07,3.33,0,1.04,.06,2.05,.22,3.05,.51,.29,.09,.47,.35,.78,.37,.06,.3-.18,.43-.34,.6-.73,.85-1.69,1.43-2.57,2.1-.32,.24-.62,.49-.84,.83-.09,.14-.26,.27-.18,.45,.09,.21,.32,.16,.5,.16,.43,.02,.86,.02,1.3,0,.92-.03,1.84,.03,2.76,.13,.28,.03,.62-.01,.75,.35-1.65,.04-3.31,.13-4.96,.1-1.95-.04-3.89-.19-5.84-.32-2.04-.14-3.85,.38-5.42,1.74-.68,.59-1.55,.91-2.35,1.32-.1,.13-.24,.18-.39,.21-1.28,.25-2.57,.4-3.88,.25-.39-.2-.16-.44-.03-.65,.64-1.06,1.46-1.96,2.44-2.72,.83-.65,1.68-1.28,2.65-1.71,1.44-.65,2.77-1.44,3.75-2.72Z"/>
  <path class="cls-29" d="M34.99,31.25c.79,0,1.59,0,2.38,0,.24-.15,.5-.14,.77-.14,4.24-.03,8.47,.15,12.71,.14,1.22,0,2.44,.07,3.67,.09,.23,0,.46,0,.64,.16,.16,.11,.32,.23,.48,.34-.88,.55-1.77,.65-2.72,.11-.32-.18-.71-.21-1.1-.2-1.85,0-3.69-.02-5.54,.01-.68,.01-1.35-.1-2.02-.12-2.05-.07-4.11,0-6.14,.16-2.6,.21-5.18,.14-7.78,.18-.38,0-.73,.18-1.12,.12-.31,.19-.65,.3-.98,.44-.7,.28-.9,.74-.64,1.44,.07,.18,.13,.35,.24,.51,.67,1.06,1.16,2.2,1.63,3.36,.17,.42,.4,.81,.68,1.17,.76,.99,1.76,1.39,2.99,1.11,1.02-.23,1.94-.72,2.89-1.13,1.73-.75,3.53-1.32,5.33-1.9,.23-.08,.48-.11,.72-.14,.87-.12,1.5,.21,1.94,.96,.39,.68,.66,1.42,.71,2.19,.08,1.49,.16,2.98-.08,4.46-.09,.53-.31,1.04-.9,1.1-.61,.07-1.19-.1-1.56-.68,.02-.23,.2-.35,.35-.49,.51-.49,.79-1.09,.8-1.81,.02-.94-.01-1.88-.13-2.82-.14-1.12-.65-1.44-1.72-1.04-1.28,.48-2.44,1.19-3.59,1.91-1.51,.95-3.07,1.77-4.81,2.22-.75,.19-1.44,.54-2.12,.93-1.58,.92-2.51,.53-3.06-1.23-.66-2.13-.92-4.31-.88-6.52,.02-.9-.1-1.73-.67-2.45-.12-.15-.18-.33-.24-.51-.27-.82,.04-1.47,.88-1.72,.45-.14,.92-.2,1.39-.2,1.21,0,2.41,.03,3.62,0,.72,.05,1.42-.12,2.14-.12,.28,0,.56,0,.82,.15Z"/>
  <path class="cls-15" d="M45.78,28.22c1.48,.1,2.95-.1,4.41-.33,.66,.72,1.33,1.42,2.35,1.69-4.56,0-9.12,0-13.67,0,.38-1.52-.07-2.53-1.48-3.16-1.29-.58-2.64-.96-4.07-.91-.19-.19-.43-.11-.64-.11-2.92,0-5.84,0-8.81,0,.2-.42,.47-.58,.9-.57,1.98,.02,3.96,0,5.93,0,.2,0,.42,.07,.59-.11,.3-.18,.62-.03,.94-.04,.86-.04,1.73,.08,2.59-.06,.78-.13,1.06-.79,.6-1.35-.07-.09-.16-.16-.25-.23-.11-.1-.23-.19-.26-.36,0-1.04-.31-1.36-1.33-1.36-.13,0-.26,0-.4,0-.31,0-.68,0-.73-.37-.04-.3,.17-.56,.51-.66,.05-.01,.09-.06,.13-.1,.42,.1,.82,.03,1.2-.13,2.05-.85,4.07-.92,6.08,.15,.46,.25,1.01,.28,1.53,.32,1.2,.09,2.41,0,3.61,0,.35,0,.71-.05,1.06,.09,.04,.19-.12,.21-.23,.26-2.09,.74-4.19,1.26-6.42,.65-.6-.16-1.24-.07-1.86-.05-.54,.02-.71,.26-.53,.79,.47,1.4,1.23,2.63,2.36,3.6,1.45,1.24,3.16,1.88,5.04,2.09,.3,.03,.6,.06,.85,.26Z"/>
  <path class="cls-51" d="M69.21,15.09q.79,0,.79-.79c0-.81,0-1.62,0-2.43,0-.29-.06-.56-.17-.82-.19-.43-.51-.61-.95-.38-.79,.42-1.58,.86-2.37,1.3-1.56,.87-3.24,1.37-5,1.64-.89,.14-1.78,.25-2.68,.24-.76,0-1.36-.24-1.72-1.02-.27-.59-.75-1.07-1.2-1.55-.6-.65-1.21-1.28-1.81-1.93-.12-.14-.21-.31-.31-.47,.97,.49,1.94,1.01,3.03,1.17,1.2,.18,2.39,.42,3.63,.21,.66-.11,1.34-.03,2.02-.11,.93-.11,1.87-.15,2.81-.12,.9,.03,1.75-.19,2.62-.3,.53-.07,1.01,0,1.49,.12,.5,.13,.64,.63,.77,1.05,.12,.37,.15,.77,.15,1.16,.01,1.73,0,3.47,0,5.2-.17,.07-.34,.13-.53,.11,.04-.37-.33-.56-.41-.89-.12-.45-.18-.91-.18-1.38Z"/>
  <path class="cls-19" d="M34.9,22.68s.09,.06,.14,.09c.48,.3,.9,.65,.73,1.31-.13,.49-.6,.77-1.36,.75-1.05-.03-2.1,.13-3.14-.1-1.32-.32-2.67-.43-4.02-.32-.94,.07-1.88,.1-2.81,.09-.43,0-.86-.06-1.28-.13-.31-.05-.55-.25-.65-.56-.08-.25-.15-.51-.16-.77-.11-1.59,.41-2.04,1.96-1.63,1.63,.43,3.25,.46,4.9,.17,.93-.16,1.87,.07,2.79,.24,.99,.19,1.97,.48,2.91,.86Z"/>
  <path class="cls-62" d="M68.76,25.05c-.68-.31-1.42-.26-2.14-.31-.92-.06-1.84-.02-2.76-.02-.25,0-.56,0-.68-.18-.13-.19,.15-.38,.26-.56,.59-.92,1.57-1.37,2.38-2.02,.58-.46,1.09-.97,1.56-1.53,.53-.75,1.27-1.02,2.16-.92,.48,.11,.54,.51,.59,.9,.06,.42,.05,.86,.19,1.27,.01,.79,.03,1.58,.03,2.36,0,.89-.32,1.17-1.21,1.04-.13-.02-.26-.02-.39-.03Z"/>
  <path class="cls-49" d="M55.16,31.49c-4.01-.06-8.02-.12-12.03-.17-1.92-.03-3.84-.05-5.76-.07,.51-.9,1.31-1.32,2.32-1.32,4.63,0,9.26,0,13.88,.01,.23,0,.45,0,.68,0,.15,.3,.35,.56,.65,.74,.32,.19,.4,.48,.26,.82Z"/>
  <path class="cls-36" d="M74.63,70.11c.7,2.26,1.2,4.57,1.47,6.92,.18,1.57,.17,3.14-.07,4.72-.13,.88,.3,1.8,1.53,1.74,.74-.03,1.51-.17,2.19,.32-1.41-.04-2.82,.15-4.23-.11-.29-.05-.58-.15-.87-.23-.17-2.9-.09-5.81-.13-8.72-.09-.31-.05-.64-.04-.95,.04-1.02-.07-2.02-.11-3.04-.01-.24-.08-.54,.27-.66Z"/>
  <path class="cls-47" d="M35,5.1c-.15-.66-.26-1.32-.21-1.99,.04-.56,.57-.99,1.21-1.05,.81-.07,1.54,.16,2.25,.57,1,.59,2.03,1.14,3.22,1.26-.01,.13-.02,.26-.05,.39-.31,1.36-.91,1.64-2.14,.94-.72-.41-1.39-.55-2.18-.15-.66,.33-1.4,.2-2.1,.03Z"/>
  <path class="cls-37" d="M18.26,19.28c0-1.98,0-3.95,0-5.93,0-1.12-.32-1.42-1.45-1.44-.87,0-1.73,.02-2.56,.3-1.6,.54-2.29,1.79-2.58,3.34-.22,.17-.3,.44-.43,.67,0-1.17,0-2.34,0-3.5,0-.15,0-.3,.02-.45,.25-1.44,.57-1.64,2.32-1.34,.38,.06,.75,.1,1.12,.08,1.02-.06,2.02,.12,3.04,.13,.83,0,1.13,.34,1.09,1.17-.11,2.26-.07,4.54-.45,6.78-.01,.07-.06,.13-.1,.19Z"/>
  <path class="cls-56" d="M53.69,4.88c0-.24-.02-.49,0-.73,.06-.56,.27-1.03,.91-1.11,.8-.1,1.54-.44,2.35-.53,1.08-.11,2.27,.94,1.9,2.48-.07,.31-.19,.61-.29,.91-.87-.42-1.8-.49-2.74-.54-.74-.04-1.46-.14-2.13-.47Z"/>
  <path class="cls-63" d="M82.22,11.24c.29-.83,1.01-1.05,1.65-.42,.97,.97,1.42,.67,2.05-.41,.45-.77,1.04-1.47,1.26-2.37,.08-.32,.33-.37,.63-.23,.49,.22,.65,.79,.48,1.41-.19,.7-.77,1.1-1.2,1.6-.76,.88-1.33,1.86-1.85,2.88-.09,.19-.11,.46-.41,.49-.5-.67-1.01-1.33-1.51-2-.3-.4-.74-.62-1.09-.95Z"/>
  <path class="cls-1" d="M67.98,33.43c-.12-1.37-.54-1.79-1.92-1.8-2.84,0-5.68-.08-8.53-.21,.12-.25,.25-.48,.58-.47,.09,0,.19,.01,.28,.01,2.9,.03,5.8,.05,8.69,.08,.49,0,.97,0,1.46-.07,.46-.08,.91-.02,1.14,.5,.24,.53-.07,.88-.44,1.16-.4,.3-.74,.71-1.27,.8Z"/>
  <path class="cls-32" d="M40.44,8.41c-.8,.06-1.35,.52-1.82,1.12-.15-.03-.29-.08-.44-.09-.23-.02-.31-.15-.37-.36-.06-.21,0-.38,.16-.5,.69-.51,1.39-1.01,2.09-1.51,.21-.15,.46-.18,.7-.11,.43,.13,.52,.64,.21,.97-.17,.18-.43,.24-.55,.47Z"/>
  <path class="cls-14" d="M74.63,70.11c-.15,.18-.09,.39-.1,.59-.01,1.35-.02,2.7-.02,4.06-.03-.05-.08-.1-.08-.14,.1-1.56-.25-3.1-.33-4.64-.05-.93,.12-1.86,.21-2.79,.05-.52,.48-.86,.97-.75,.28,.06,.56,.04,.84,.06-.19,.07-.38,.14-.57,.21-.7,.28-1.04,.74-1.02,1.5,.01,.63,.07,1.27,.1,1.9Z"/>
  <path class="cls-59" d="M70.32,21.67c-.24-.29-.31-.65-.31-1,0-.47-.14-.84-.47-1.16-.3-.76-.41-1.5,.26-2.15,.16-.12,.31-.29,.53-.11,0,1.47,0,2.95-.01,4.42Z"/>
  <path class="cls-12" d="M18.26,24.03c-.06,1.21,.12,2.43-.12,3.64-.19-.44-.17-.92-.2-1.38-.09-1.75-.09-3.49,.1-5.24,0-.07,.06-.13,.1-.2,.23,.3,.1,.65,.11,.98,.02,.73,0,1.46,.01,2.19Z"/>
  <path class="cls-28" d="M74.84,24.82c0,.12,0,.25,0,.37-.01,.02-.03,.03-.03,.05-.1,.23,.08,.6-.33,.68-.23,.05-.44-.03-.54-.22-.16-.29-.18-.67-.01-.92,.26-.39,.62-.18,.92,.03Z"/>
  <path class="cls-35" d="M26.41,1.13h-3.17c1.05-.46,2.11-.35,3.17-.17,0,.06,0,.11,0,.17Z"/>
  <path class="cls-12" d="M18.16,20.41c0-.31-.08-.62,.08-.92,0,.31,.1,.63-.08,.92Z"/>
  <path class="cls-24" d="M16.1,66.12c0-11.66,0-23.31,0-34.97,0-.26,0-.53,.01-.79,.49-.11,.86,.04,1.07,.46,.12,.24,.17,.5,.16,.77-.15,4.84-.06,9.69-.05,14.53,0,1.41,.14,2.83,.56,4.19,.1,.31,.17,.62,.31,.91,.37,.77,.94,.94,1.66,.51,.49-.29,.9-.68,1.29-1.1,.37-.39,.79-.7,1.3-.88,1.05-.36,1.49-1.16,1.54-2.21,.03-.6,0-1.21,.01-1.81,0-.24-.04-.5,.2-.67,.32,.14,.33,.44,.38,.71,.19,1.24,.1,2.47-.03,3.71-.13,1.27-.22,2.55-.21,3.83,.01,2.13,.01,4.25,0,6.38,0,.64,.12,1.23,.47,1.77,.11,.72,.19,1.44,.07,2.17-.08,.06-.17,.04-.27,.02-.63-.15-1.28,.33-1.34,.99-.03,.41,.23,.54,.56,.53,.81-.03,1.61,.13,2.42,.13,1.62,0,3.24,.06,4.85-.02,1.89-.09,3.8-.07,5.68-.3,.24-.03,.49-.03,.73,0,.47,.19,1.02,.28,1.24,.84-.64,.2-1.02,.67-1.27,1.27-.29,.68-.81,1.09-1.52,1.23-.72,.14-1.07,.57-1.15,1.27-.02,.19-.07,.37-.11,.55-.05,.2-.1,.43-.35,.46-.23,.03-.37-.15-.5-.32-.17-.23-.24-.51-.34-.77-.11-.27-.27-.52-.59-.54-.34-.03-.55,.2-.72,.46-.14,.21-.16,.46-.19,.7-.11,1.09-.13,2.18-.12,3.27,0,.71-.21,1.11-.6,1.22-.41,.11-.73-.14-1.08-.8-.33-.62-.54-1.29-.9-1.89-.19-.31-.38-.76-.85-.54-.44,.21-.28,.64-.16,1,.14,.41,.37,.79,.46,1.22,.12,.56-.08,.97-.55,1.16-.43,.17-.85,.01-1.16-.44-.19-.27-.21-.6-.39-.88-.25,.02-.26,.25-.35,.39-.54,.88-1.24,1.44-2.34,1.4-1.02-.04-2.04,0-3.05,0-.37,0-.74-.04-1.02-.28-.65-.57-1.3-1.12-2.06-1.55-.08-.2-.08-.4-.07-.61,.06-1.1-.1-2.2-.11-3.3,0-.52,.02-1.04,.08-1.56,.13-1.04-.2-1.47-1.23-1.65-.15-.03-.3-.03-.39-.18Z"/>
  <path class="cls-6" d="M24.15,45.09c-.07,1.01,.09,2.03-.09,3.04-.15,.86-.63,1.45-1.44,1.72-.61,.21-1.09,.57-1.51,1.04-.29,.32-.62,.6-.97,.86-.94,.7-1.76,.48-2.18-.61-.29-.77-.48-1.58-.6-2.4-.17-1.23-.23-2.47-.23-3.71,0-4.13,0-8.26,0-12.4,0-.34,.05-.68,.06-1.01,.04-.84-.22-1.18-1.07-1.28,0-.22,0-.44,0-.66,.67-.04,1.34-.08,2-.13,.77,0,1.06-.18,1.14-.87,.09-.82,.75-1.21,1.52-1.15,.71,.05,1.29,.39,1.62,1.06,.19,.38,.09,.69-.17,1.03-1.18,1.54-1.31,3.46-.23,4.89,.53,.71,1.27,1.27,1.93,1.88,.03,.03,.14-.02,.21-.04,.21,.19,.19,.44,.19,.68,0,2.45,0,4.9,0,7.35,0,.24,.02,.5-.18,.69Z"/>
  <path class="cls-61" d="M16.1,66.12c.06,0,.11,.02,.17,.02,1.39-.09,1.78,.76,1.59,2-.07,.43-.02,.86-.07,1.29-.17,.54-.06,1.08-.06,1.62,0,3.77,.02,7.55,0,11.32,0,.95-.39,1.29-1.32,1.09-.97-.21-1.95-.13-2.93-.15-.26,0-.53,0-.79,0-1-.06-1.48-.49-1.59-1.49-.07-.6-.02-1.21-.03-1.81,0-.32-.03-.64,0-.96,.08-.82-.13-1.44-.9-1.89-.81-.48-.96-1.36-1.02-2.23-.04-.62-.03-1.24-.11-1.86-.09-.7,.23-1.19,.85-1.52,1.04-.54,1.17-.87,1.01-2.05-.1-.72-.27-1.45-.09-2.19,.21-.9,.81-1.41,1.73-1.37,.47,.02,.94,0,1.4,.11,.72,.03,1.43,.05,2.15,.08Z"/>
  <path class="cls-39" d="M13.95,66.05c-.37,0-.74,.01-1.11,0-1.55-.07-2.06,.94-1.9,2.32,.06,.56,.18,1.11,.24,1.67,.08,.71-.28,1.25-1.02,1.58-.89,.41-1.1,.82-.9,1.79,.15,.7,0,1.42,.14,2.14,.16,.78,.52,1.37,1.22,1.72,.47,.24,.63,.59,.63,1.1-.02,1.04,0,2.08,0,3.11,0,1.22,.45,1.65,1.68,1.67,1.26,.02,2.52-.11,3.77,.2,.59,.15,.89-.17,.89-.83,0-4.02,0-8.04,0-12.06,0-.36,0-.72,.23-1.02,.08,1.36,.16,2.72,.12,4.09,.17,.18,.18,.41,.18,.64,0,1.81,.02,3.61-.01,5.41,.04,1.79-.11,3.59,.06,5.39,0,.62,0,1.23,0,1.85,0,.18,.06,.38-.11,.52-1.1-.28-2.21,.05-3.31,.01-1.48-.05-2.96,0-4.43-.34-2.2-.5-3.22-1.67-3.23-3.84-.04-5.49-.01-10.97-.01-16.46,0-.04,0-.08,0-.11,.03-1.16,.41-1.53,1.65-1.32,1.7,.29,3.4,.54,5.12,.68,.05,0,.09,.06,.14,.09Z"/>
  <path class="cls-25" d="M11.23,23.47c.52,.96,.32,1.95,.17,2.95-.1,.62-.08,1.24-.03,1.85,.05,.52,.28,.96,.88,1.08-1.4,.59-2.84,.29-4.27,.2-.59-.03-.82-.49-.82-1.33,0-2.2,0-4.4,0-6.61,0-.16-.09-.4,.1-.45,.24-.07,.25,.22,.34,.37,.36,.55,.14,1.22,.34,1.81,.14,.43,.31,.86,.6,1.2,.37,.45,1.2,.57,1.82,.32,.68-.27,.88-.59,.88-1.39Z"/>
  <path class="cls-16" d="M72.71,88.14c-.82-.39-.92-1.16-1-1.92-.08-.79,.15-1.59-.01-2.39-.14-.19-.06-.4-.06-.6,.06-1.32-.51-2.13-1.79-2.52-.93-.28-1.89-.34-2.85-.44-2.02-.22-4.06-.29-6.09-.38-1.92-.09-3.85,0-5.77-.1-2.69-.14-5.38-.21-8.07-.41-2.41-.18-4.81-.37-7.17-.94-.29-.07-.59-.14-.86-.27-.81-.4-.96-1.26-.35-1.92,.21-.22,.46-.39,.68-.59,.5-.47,.48-.68-.08-1.04-.33-.22-.67-.42-.99-.65-1.17-.87-1.81-3.11-.51-4.54,.27-.29,.48-.63,.72-.94,.4-.52,.66-1.1,.64-1.77,0-.26,0-.55,.33-.64,1.1,.07,2.12,.49,3.17,.76,.29,.07,.66,0,.86,.33-.03,.14-.22,.14-.26,.29,.4,.33,.88,.28,1.34,.28,1.25,0,1.57,.3,1.77,1.54,.16,1.03,.09,2.07,.1,3.1,0,.51,.07,1.01,.27,1.59,.18-.36,.2-.67,.24-.97,.09-.59,.32-.87,.76-.92,.45-.06,.79,.19,1,.73,.1,.25,.16,.5,.24,.75,.07,.24,.2,.45,.43,.58,.22,.12,.44,.1,.64-.05,.22-.17,.21-.39,.1-.61-.18-.35-.41-.68-.58-1.04-.38-.8-.46-1.62-.15-2.47,.54-1.48,1.46-2.58,3.03-3.03,.27-.08,.54-.18,.81-.24,.47-.1,.32-.29,.08-.49,.03-.37,.39-.35,.61-.48,.3-.18,.63-.34,.99-.4,.54-.08,1.08-.07,1.58,.19,.64,1.12,1.37,2.14,2.56,2.76,.71,.37,.85,1.21,.38,1.88-.17,.25-.32,.25-.45-.02-.14-.29-.24-.59-.35-.89-.22-.57-.55-.72-1.05-.49-.49,.22-.6,.6-.32,1.1,.3,.54,.73,1,.92,1.61,.22,.71,.35,1.42,.36,2.16,0,.73,.26,1.06,.75,1,.5-.06,.81-.6,.69-1.22-.29-1.54,.24-2.69,1.56-3.41,.52-.28,.94-.17,1.12,.39,.31,.97,1.03,1.49,1.87,1.92,.32,.17,.83,.28,.59,.83-.15,.36-.64,.39-1.15,.1-.13-.07-.26-.16-.38-.25-.21-.16-.42-.18-.6,.02-.18,.2-.34,.41-.18,.71,.17,.3,.42,.53,.7,.73,.4,.28,.81,.55,1.2,.84,.53,.38,.55,.75,.1,1.22-.39,.4-.8,.78-1.22,1.25,.8,.11,1.61,.21,2.41,.33,1.26,.19,2.56,.11,3.79,.47,2.06,.6,2.77,1.69,2.88,3.63,.11,1.99,.02,4,.02,6Z"/>
  <path class="cls-65" d="M56.53,65.49c-.53,.09-1.06-.21-1.6-.02-.45-.22-.94-.26-1.43-.26-2.24,0-4.48,0-6.72,0-.47,0-.94-.05-1.4-.13-.17-.03-.4-.02-.39-.3,.48-.26,1.01-.27,1.53-.27,1.63,0,3.26,.03,4.89,0,3.01,.02,6.03,.07,9.04,.2,.72,.03,1.43,.02,2.15,.01,1.02,0,2.04,0,3.05,.15,.48,.07,.94,0,1.33-.3,.46-.65,.53-1.4,.45-2.14-.06-.59-.04-1.15,.08-1.72,0-.3,.01-.6,.02-.91-.17-.67-.08-1.34-.04-2.01,.04-.54,.07-1.08,.13-1.61,.25-5.41,.22-10.81,.21-16.22,0-1.15-.07-2.3,0-3.44,.01-.21,.04-.41,.15-.6,.65,.83,.81,1.78,.7,2.8-.1,1.01-.2,2.02-.25,3.03-.24,4.8-.08,9.61-.12,14.42,0,.98-.02,1.96,0,2.94,.02,1.02-.1,2.02-.3,3.02-.17,.89,.22,1.63,.93,2.16,.32,.25,.55,.53,.59,.92,.04,.43-.39,.82-.89,.81-1.24-.02-2.48-.15-3.72-.12-1.9,.05-3.81,0-5.7-.12-.9-.06-1.79-.21-2.68-.32Z"/>
  <path class="cls-16" d="M81.9,88.69c-.49,.26-1.06,.29-1.58,.3-2.06,.07-4.13,.12-6.17-.28-.25-.05-.54,.06-.76-.14,.68,.1,1.29-.21,1.92-.36,1.67-.41,3.3-.27,4.93,.19,.54,.15,1.09,.29,1.66,.28Z"/>
  <path class="cls-48" d="M39.56,66.14c-.18,.03-.27,.14-.25,.31,.17,1.35-.7,2.23-1.46,3.11-1.01,1.17-.66,3.22,.4,4.11,.41,.34,.86,.6,1.31,.87,.52,.32,.56,.59,.12,1.02-.28,.27-.61,.51-.88,.78-.59,.59-.41,1.44,.39,1.69,1.25,.4,2.54,.62,3.84,.8,1.52,.21,3.06,.26,4.58,.43,.65,.07,1.31,.08,1.97,.1,1.09,.03,2.18,.12,3.27,.16,2.33,.09,4.67,.03,7,.12,1.61,.06,3.23,.06,4.84,.22,1.69,.17,3.4,.22,5.06,.64,1.7,.43,2.4,1.62,1.95,3.31-.45,0-.9,0-1.36,0-1.52-1.94-3.61-2.48-5.93-2.42-2.61,.06-5.2-.23-7.79-.43-.86-.07-1.73-.09-2.6-.11-1.36-.03-2.71-.12-4.07-.16-2.77-.09-5.54-.18-8.31-.3-1.45-.06-2.9-.1-4.35-.14-2.34-.07-4.67-.19-7-.31-1.86-.09-3.72-.34-5.59-.24-1.84,.1-3.69,.22-5.54,.2-.43,0-.87,0-1.24-.29,0-2.04,0-4.07,0-6.11,.51,0,.91,.23,1.21,.6,.62,.77,1.38,1.09,2.37,.99,.75-.07,1.51-.06,2.26,0,1.29,.1,2.04-.56,2.56-1.64,.06-.12,0-.41,.27-.34,.17,.04,.24,.21,.27,.39,.07,.35,.17,.69,.44,.96,.3,.3,.64,.33,.97,.12,.31-.19,.43-.47,.34-.87-.11-.47-.35-.87-.51-1.31-.08-.22-.13-.43-.12-.66,0-.31,.2-.49,.45-.59,.22-.09,.43,0,.61,.18,.42,.41,.58,.97,.84,1.46,.2,.38,.36,.79,.55,1.18,.17,.33,.38,.66,.82,.53,.4-.12,.48-.49,.47-.87,0-.45,.03-.91,0-1.36-.06-.79,.14-1.57,.13-2.36,0-.28,.11-.54,.32-.76,.58-.61,1.18-.49,1.47,.3,.12,.32,.17,.65,.42,.91,.24,.25,.39,.18,.46-.12,.07-.27,.1-.55,.15-.83,.1-.61,.38-1.07,1.04-1.17,.89-.14,1.44-.65,1.77-1.46,.23-.55,.57-1.03,1.29-.98,.34-.07,.62,.01,.79,.35Z"/>
  <path class="cls-58" d="M17.92,79.63c1.1,.17,2.22,.18,3.32,.09,1.48-.11,2.97-.21,4.44-.18,2.47,.05,4.94,.28,7.41,.42,.98,.05,1.95,.04,2.93,.1,1.84,.11,3.69,.06,5.53,.15,2.2,.11,4.39,.16,6.59,.23,1.97,.07,3.94,.13,5.91,.23,2,.1,4,.2,6,.41,1.7,.18,3.42,.14,5.13,.14,1.67,0,3.16,.59,4.5,1.57,.34,.25,.56,.6,.65,1.03-2.15,0-4.3,.01-6.45,0-4.32-.01-8.63,.25-12.95,.09-3.43-.12-6.86,.03-10.29-.12-2.22-.1-4.45,.03-6.67-.1-2.49-.15-4.98,.04-7.46-.12-2.11-.14-4.25,.08-6.35-.39-.84-.19-1.7,.46-1.91,1.31-.04,.16,.03,.35-.13,.47-.24-.9-.35-1.8-.26-2.75,.08-.85,.03-1.72,.04-2.58Z"/>
  <path class="cls-13" d="M48.59,92.53c-1.96-.05-3.92-.19-5.87-.09-1.36,.07-1.72-.82-1.58-1.88,.11-.83,.53-1.17,1.57-1.19,2.61-.05,5.23,0,7.83,.33,.67,.09,1,.46,1.01,1.13,0,.13,0,.26,0,.4,0,.91-.33,1.26-1.25,1.29-.57,.02-1.13,0-1.7,0Z"/>
  <path class="cls-67" d="M91.86,6.48c-.03,.22,.06,.51-.08,.78-.27,.51-.99,.56-1.5,.07-.55-.54-1.06-1.12-1.57-1.69-.46-.52-.91-1.05-1.37-1.57-.21-.24-.44-.48-.3-.85,.15-.38,.48-.36,.81-.36,1.67-.02,2.92,.67,3.74,2.15,.25,.45,.28,.93,.27,1.47Z"/>
  <path class="cls-27" d="M88.9,73.52c.32,1.6,.31,3.21,.14,4.82-.06,.54,.11,1.04,.09,1.57-.01,.62,0,1.24,0,1.87-.11-.11-.23-.22-.34-.34,0-2.45,0-4.89,0-7.34,0-.2-.07-.42,.11-.59Z"/>
  <path class="cls-27" d="M88.79,52.8c0,6.76,0,13.51,0,20.27-.03-1.3-1.07-2.39-.79-3.76,.15-.73,.09-1.46,.12-2.19,.03-.91-.11-1.8-.27-2.68-.19-1.08-.05-2.09,.38-3.07,.1-.23,.2-.47,.2-.69,.03-1.51,.11-3.02-.02-4.52-.1-1.17,.16-2.25,.37-3.36Z"/>
  <path class="cls-57" d="M11.24,17.47c-.75,.33-1.45,.7-1.66,1.6-.08,.34-.04,.67-.04,1.01,0,.9,0,1.8,.01,2.71-.32-.59-.37-1.23-.35-1.89,.02-.58,0-1.16,0-1.74,0-1.38,.4-1.7,2.04-1.69Z"/>
  <path class="cls-52" d="M45.78,28.22c-2.46-.18-4.72-.88-6.5-2.7-.9-.92-1.54-2.03-1.93-3.27-.2-.65,0-.92,.69-.93,.94-.02,1.87,.01,2.8,.21,1.69,.37,3.31-.11,4.91-.6,.28-.09,.55-.2,.83-.3,2.62-.12,5.25-.09,7.88-.14,.09,0,.18,.03,.27,.05-.47,1.03-1.34,1.64-2.3,2.14-1.31,.69-2.65,1.31-3.82,2.25-1.15,.92-2.17,1.94-2.82,3.29Z"/>
  <path class="cls-34" d="M42.26,44.97c.21,.23,.5,.33,.78,.44,.81,.32,1.34-.02,1.49-.88,.11-.63,.12-1.27,.11-1.91-.02-1.14,.11-2.29-.22-3.42-.15-.51-.35-1-.63-1.44-.47-.73-1.18-.93-2.37-.55-2.15,.68-4.29,1.38-6.34,2.35-.75,.36-1.51,.69-2.34,.77-1.69,.17-2.73-.94-3.34-2.34-.52-1.19-1-2.39-1.69-3.49-.58-.91-.47-1.71,.26-2.04,.4-.18,.83-.36,1.29-.39-.19,.36-.62,.46-.83,.83-.37,.64-.38,1.09,.16,1.61,1.08,1.04,2.38,1.73,3.86,1.96,1.69,.26,3.4,.17,5.11,.04,.73-.06,1.46,0,2.19,.07,.97,.09,1.96,.02,2.93,.02,.43,0,.87,0,1.3,0,.19-.08,.28,.08,.38,.18,.08,.12,.17,.25,.25,.37,.05,.11,.13,.22,.05,.35,.76,1.18,1.08,2.48,1.27,3.86,.23,1.7-.1,3.38-.03,5.06,.06,1.34,.88,2.37,2.15,2.77,.98,.3,1.98,.17,2.96,.28,2.47,.29,4.7,1.1,6.6,2.73,.91,.78,1.88,1.51,2.53,2.54,.35,.56,.69,1.16,.59,1.84-.2,1.35,.41,2.25,1.44,3.01,1.15,.85,2.15,1.87,2.99,3.03-.21,.16-.44,.06-.65,.02-2.69-.48-5.37-1.02-8.05-1.56-.52-.1-1.03-.24-1.5-.5-.8-.44-1.16-1.18-1.01-2.08,.06-.36,.2-.69,.35-1.01,.56-1.15,1.17-2.28,1.77-3.41,.13-.25,.26-.5,.32-.78,.12-.5-.02-.83-.47-1.1-.33-.19-.7-.28-1.07-.36-1.18-.27-2.39-.27-3.59-.37-1.16-.09-1.56,.33-1.57,1.51,0,.95,0,1.91,0,2.86-.04,1.02-.06,2.04,0,3.05,.09,1.61-1.19,1.99-2.3,1.73-1.27-.3-1.96-1.28-2.42-2.42-.38-.92-.45-1.9-.47-2.89-.01-.64-.02-1.28-.15-1.91-.23-1.1-.83-1.83-1.94-2.11-1.11-.29-2.24-.5-3.38-.63-.95-.11-1.73-.48-2.25-1.32-.43-.71-.96-1.35-1.5-1.98-.48-.56-.69-1.2-.62-1.93,.02-.23,.08-.45,.28-.6,.6-.29,1.26-.16,1.88-.17,1.63-.04,3.25,.07,4.88,.13,.2,0,.42,0,.58,.16Z"/>
  <path class="cls-50" d="M54.26,33.43c.55-.02,1.09-.02,1.59,.24,.45,.24,.9,.05,1.32-.08,.59-.18,1.14-.15,1.71,0,.86,.22,1.75,.3,2.62,.27,.95-.04,1.9-.16,2.83-.37,.94-.21,1.43,0,2,.85,.54,.81,.58,1.46,.02,2.18-.39,.5-.59,.97-.45,1.65,.16,.78,.23,1.6,.21,2.4-.02,1.42,.52,2.77,.38,4.2-.17,.64-.2,1.3-.18,1.96,0,.33,.02,.66-.04,.98-.14,.52-.05,1.05-.07,1.57,0,.27,0,.53-.04,.8-.13,.45-.06,.91-.07,1.37,0,.33,.01,.67-.05,1-.04,.15-.08,.29-.08,.44,.08,1.25-.13,2.48-.14,3.72,0,.84-.08,1.69-.1,2.54,0,.52-.32,.86-.71,.86-.36,0-.68-.33-.71-.82-.14-2.18-.39-4.35-.5-6.54-.13-2.55-.02-5.09-.09-7.63-.05-1.73,.27-3.42,.51-5.11,.11-.83,.12-1.65-.06-2.48-.18-.84-.68-1.42-1.49-1.71-.48-.17-.98-.29-1.49-.3-.75-.01-1.51-.03-2.26,0-.93,.04-1.78,.31-2.49,.94-.65,.58-.88,1.3-.63,2.15,.15,.49,.35,.97,.69,1.35,2.07,2.32,2.57,5.05,2.1,8.03-.08,.54-.16,1.08-.28,1.62-.09,.39-.28,.72-.71,.79-.43,.07-.68-.2-.84-.54-.75-1.5-2.04-2.08-3.62-2.24-1.12-.12-2.25-.2-3.38-.34-1.42-.17-2.02-.82-2.12-2.25-.08-1.15-.02-2.3,.02-3.45,.08-2.09-.8-3.68-2.39-4.93-.67-.52-1.36-1.02-2.14-1.36-.17-.08-.34-.16-.48-.3-.49-.47-.3-1.13,.43-1.32,.67-.18,1.36-.31,2.06-.31,2.57,0,5.13,.02,7.7,0,.48,0,.96,.05,1.43,.17Z"/>
  <path class="cls-7" d="M52.79,33.43c-2.53,0-5.06,.02-7.58-.01-.71,0-1.37,.19-2.06,.28-.31,.04-.63,.21-.65,.61-.02,.41,.3,.57,.62,.72,1.5,.68,2.78,1.65,3.76,2.98,.68,.9,.93,1.95,.93,3.07,0,1.27,0,2.55,0,3.82,0,1.38,.69,2.03,2.07,2.15,1.36,.11,2.72,.22,4.07,.44,1.37,.23,2.33,.99,2.95,2.21,.14,.28,.28,.56,.66,.5,.36-.06,.51-.32,.58-.67,.47-2.3,.74-4.59-.11-6.88-.35-.95-.96-1.73-1.56-2.53-.61-.82-1.16-1.67-.86-2.79,.21-.78,.76-1.24,1.43-1.58,.64-.32,1.32-.53,2.06-.5,.98,.05,1.96-.09,2.93,.11,1.7,.36,2.3,1.18,2.43,2.84,.1,1.33-.23,2.61-.38,3.91-.07,.56-.17,1.11-.18,1.67-.02,2.55-.08,5.1,.01,7.64,.07,1.93,.13,3.86,.42,5.77,.09,.59,.1,1.2,.12,1.8,.01,.43,.08,.88,.57,.88,.49,0,.56-.41,.58-.86,.06-2.08,.14-4.17,.22-6.25,0-.12,.01-.23,.11-.3,.5,.82,.31,1.72,.21,2.57-.17,1.41-.21,2.81,.06,4.21,.12,.61-.11,1.13-.63,1.45-.59,.36-1.12,.21-1.37-.44-.41-1.08-.68-2.19-.83-3.34-.09-.73-.09-1.45-.11-2.18-.06-2.07-1.5-3.57-3.56-3.79-.42-.05-.82,.06-1.23,.14-.82,.17-1.53,0-2.09-.66-1.11-1.29-2.62-1.59-4.21-1.74-.97-.09-1.95-.16-2.89-.49-1.48-.52-2.19-1.85-2.3-3.26-.04-.49-.03-.98-.18-1.45-.05-.16-.07-.34-.04-.5,.16-.91-.02-1.8-.13-2.69-.18-1.54-1.01-2.67-2.34-3.45-.11-.08-.23-.15-.34-.23,0-.04,0-.08,0-.11-.48-.7-1.23-.95-1.99-1.05-1.48-.19-2.96-.19-4.45-.09-.56,.04-1.12-.1-1.68-.16-.86-.09-1.73,.02-2.58-.17-.63-.14-1.28,0-1.91-.17-.16-.05-.33-.07-.49-.14-.32-.14-.55-.36-.47-.74,.07-.38,.4-.36,.67-.36,1.38,.02,2.73-.35,4.1-.39,1.03-.03,2.05-.29,3.09-.2,.73,.06,1.47,.07,2.19-.13,.2-.05,.41-.02,.62-.03,1.5-.08,3,.13,4.51-.07,1.18-.16,2.41,.1,3.61,0,1.04-.08,2.02,.19,3.03,.29,.22,.02,.51,.03,.57,.35Z"/>
  <path class="cls-2" d="M49.5,52.91c.02-1.16,.46-1.64,1.6-1.57,1.23,.07,2.47,.1,3.69,.34,.28,.05,.55,.13,.81,.22,.99,.35,1.24,.93,.76,1.88-.67,1.33-1.36,2.64-2.03,3.97-.26,.51-.39,1.05-.24,1.63,.24,.93,1,1.24,1.79,1.43,1.31,.31,2.64,.55,3.96,.81,1.76,.35,3.52,.68,5.29,1.02,1.44,.5,1.78,.23,2.13-1.25,.06-.23,.08-.48,.23-.68-.02,.95,.22,1.89,.04,2.85-.07,.39-.18,.76-.39,1.1-.21,.14-.43,.07-.65,.02-.71-.16-1.36-.45-1.95-.88-1-.72-2.13-1.01-3.35-1.01-1.17,0-2.34,0-3.51,0-2.07,.01-4.14-.19-6.2-.32-.79-.05-1.58-.02-2.38-.02-.48,0-.9-.12-1.22-.48-.83-.95-1.92-1.2-3.11-1.22-.43,0-.87,0-1.3-.03-.3-.06-.43-.28-.52-.54-.2-.62-.3-1.26-.25-1.89,.1-1.3,.03-2.6,.05-3.9,0-.08,0-.15-.02-.23-.13-1.18-.38-1.43-1.57-1.44-1.41-.01-2.82,0-4.23-.12-.21-.02-.41-.03-.62-.06-1.36-.24-1.99-.92-2.14-2.3-.13-1.18-.15-2.37-.12-3.55,0-.41-.05-.82,.08-1.22,.12-.34,.29-.66,.76-.51-.3,.91-.09,1.71,.55,2.4,.62,.67,1.12,1.41,1.62,2.16,.44,.66,1.14,.91,1.89,.99,1.29,.13,2.57,.35,3.8,.73,1.08,.34,1.57,1.2,1.77,2.28,.2,1.04,.04,2.1,.21,3.14,.22,1.41,.69,2.64,1.9,3.5,.64,.45,1.33,.46,2.04,.27,.55-.15,.82-.57,.83-1.2,0-1.09,0-2.19,0-3.28,.7,.64,1.23,.16,1.79-.25,.82-.6,1.67-1.17,2.46-1.81,.26-.22,.68-.43,.55-.84-.15-.44-.62-.35-.99-.35-1.2,0-2.42-.16-3.59,.22-.07,.02-.15,0-.22-.03Z"/>
  <path class="cls-7" d="M44.29,36.83c.54-.15,.68,.35,.99,.58,.75,.56,1.14,1.34,1.38,2.2,.15,.53,.1,1.14,.23,1.64,.22,.89-.16,1.77,.17,2.66,.24,.65,.03,1.4,.29,2.1,.5,1.35,1.48,2.04,2.83,2.25,1.12,.17,2.25,.26,3.36,.46,1.1,.2,2.14,.6,2.86,1.53,.67,.85,1.53,.82,2.46,.61,1.81-.4,3.8,.83,4.32,2.66,.2,.7,.25,1.41,.18,2.16-.07,.74,.15,1.52,.31,2.26,.16,.73,.33,1.46,.62,2.16,.31,.74,1.02,.85,1.53,.18,.2-.26,.3-.56,.23-.94-.28-1.46-.31-2.93-.05-4.41,.14-.82,.06-1.65-.08-2.47,0-.34,0-.68,0-1.02,.19-.24,.06-.5,.06-.76,0-.2-.06-.41,.05-.6,0-.26,0-.53,0-.79,.2-.32,.05-.65,.06-.98,0-.2-.06-.41,.05-.6,0-.34,0-.68,0-1.02,.11-.15,.22-.25,.39-.08,.15,.81,0,1.62-.05,2.42-.04,.58-.07,1.16-.02,1.74,.07,.87,0,1.73-.1,2.59-.06,.53-.08,1.06-.04,1.58,.04,.57,.03,1.12,0,1.69-.05,.79,0,1.58,.11,2.36,.1,.65,.08,1.28-.49,1.8-.7,.64-1.7,.54-2.04-.35-.53-1.43-.86-2.9-.91-4.45-.04-1.16-.02-2.38-.81-3.4-.61-.79-1.41-1.17-2.37-1.26-.6-.06-1.2,.02-1.8,.12-.54,.1-.98-.09-1.33-.47-1.36-1.48-3.15-1.92-5.05-2.04-1.5-.09-2.93-.32-4-1.52-.59-.66-.9-1.42-.98-2.29-.14-1.59-.14-3.19-.34-4.77-.14-1.04-.62-1.92-1.24-2.75l-.11-.11c-.16-.11-.33-.19-.45-.34-.15-.06-.22-.18-.23-.34Z"/>
  <path class="cls-7" d="M52.79,33.43c-.48-.3-1.05-.2-1.57-.34-1.11-.3-2.23-.08-3.35-.11-.56-.02-1.13,0-1.68-.11-.65-.14-1.24,.24-1.89,.24-.83,0-1.65-.12-2.47-.15-1.14-.03-2.22,.33-3.36,.26-2.11-.12-4.2,.26-6.29,.53-.39,.05-.79,0-1.19,.03-.19,0-.45-.1-.49,.22-.04,.29,.1,.47,.37,.56,.39,.12,.79,.23,1.21,.23,.56,0,1.13-.05,1.67,.2,.26,.12,.52-.12,.77-.07,.87,.17,1.79-.02,2.64,.28,.38,.13,.7-.1,1.06-.07,1.14,.09,2.28-.04,3.43,.14,.74,.12,1.41,.29,2.03,.68,.15,.09,.5,.21,.29,.55-.61-.36-1.21-.74-1.94-.85-.13-.02-.26-.05-.39-.05-1.58,.05-3.16,0-4.73-.14-1.92-.17-3.86-.12-5.77-.43-.15-.02-.29-.06-.43-.12-.39-.16-.72-.41-.65-.88,.08-.51,.49-.58,.95-.59,1.33-.03,2.64-.27,3.96-.41,.58-.06,1.17-.11,1.74-.12,1.28,0,2.55-.18,3.83-.14,2.37,.07,4.74-.09,7.11-.14,2.06-.05,4.07,.1,6.06,.6,.2,.05,.41,.07,.56,.23h-1.47Z"/>
  <path class="cls-69" d="M45.09,37.62c.85,.7,1.2,1.66,1.35,2.7,.24,1.64,.14,3.3,.36,4.93,.22,1.59,1.15,2.81,3.08,3.33,.94,.26,1.93,.2,2.9,.35,1.38,.21,2.69,.58,3.65,1.68,.57,.66,1.24,.77,2.08,.64,1.08-.16,2.18-.16,3.13,.57,.79,.61,1.2,1.42,1.33,2.39,.18,1.37,.09,2.77,.44,4.13,.19,.71,.38,1.41,.63,2.1,.14,.4,.42,.64,.9,.61,.57-.04,1.12-.41,1.33-.89,.24-.57,.05-1.12-.03-1.67-.11-.79-.08-1.56,0-2.35,.08-.88-.02-1.77,.03-2.66,.11-1.77,.07-3.54,.12-5.3,.01-.54,.1-1.08,.1-1.63-.3-.53-.18-1.06,0-1.59,.21,.61,.18,1.25,.2,1.87,.03,.87,.1,1.74-.17,2.63-.23,.77,.14,1.6,.08,2.41-.05,.61,.07,1.23-.19,1.84-.12,.29-.08,.68-.02,1.01,.2,1.09,.05,2.18,.1,3.27,.03,.65,.06,1.29,.1,1.94,.02,.31-.71,1.19-1.11,1.32-.73,.23-1.44-.07-1.74-.87-.49-1.27-.79-2.59-.86-3.94-.05-.94-.06-1.89-.32-2.8-.5-1.76-2.24-2.49-3.79-2.16-1.02,.21-1.71,0-2.45-.73-1.01-1-2.37-1.39-3.77-1.6-.93-.14-1.87-.11-2.79-.32-1.66-.38-3.12-1.89-3.22-3.69-.04-.64,0-1.27-.02-1.9-.01-.65-.23-1.32-.23-1.99,0-1.35-.63-2.49-1.2-3.64Z"/>
  <path class="cls-2" d="M67.6,56.19c-.04,1.21,.19,2.42-.09,3.62-.72-.61-.91-1.11-.46-1.85,.35-.57,.43-1.16,.55-1.77Z"/>
  <path class="cls-7" d="M66.49,44.98v1.59c-.11,.04-.23,.08-.34,.11,.02-.66-.11-1.34,.34-1.93,0,.08,0,.15,0,.23Z"/>
  <path class="cls-69" d="M44.52,37.17c.23,0,.35,.16,.45,.34h-.34c-.04-.11-.08-.23-.12-.34Z"/>
  <path class="cls-12" d="M18.16,28c.16,.3,.15,.6,0,.9,0-.3,0-.6,0-.9Z"/>
  <path class="cls-38" d="M24.15,45.09c0-2.91-.01-5.81-.02-8.72,.06-.49-.11-1.02,.24-1.47,.29-.12,.36,.11,.45,.28,.14,.27,.16,.57,.16,.88,0,.98-.08,1.96,.02,2.93,.15,1.41-.09,2.8,0,4.21,.01,5.64,0,11.27,0,16.91,0,.48,.03,.99-.3,1.4-.37-.36-.55-.81-.55-1.31-.01-2.79-.05-5.58,.01-8.37,.04-1.76,.39-3.51,.32-5.28-.02-.5-.07-1.01-.33-1.46Z"/>
  <path class="cls-38" d="M34.99,31.25l-3.03,.13c-1.83-.13-3.66-.26-5.49,.04-.33,.05-.66,.13-1,.13-.6,.03-.61,.04-.55,.61,.05,.47,.18,.99-.42,1.25-.52-.62-.82-1.39-1.45-1.94-.35-.3-.16-.83,.32-1.05,.21-.1,.48-.18,.71-.14,1.11,.18,2.22,.02,3.33,.09,.71,.06,1.41,.1,2.13,.07,1.63-.06,3.27-.03,4.9,.14,.33,.09,.47,.35,.55,.66Z"/>
  <path class="cls-5" d="M24.5,33.42c.31-.37,.38-.77,.27-1.24-.18-.72-.11-.79,.64-.78,.06,.71-.13,1.42-.08,2.13,.03,.51,.02,1.02,0,1.52,.02,1.82,.01,3.63,.01,5.45,0,.3,.02,.6-.06,.89-.22,.35-.16,.75-.19,1.13-.02,.24,.08,.54-.27,.65,.01-.66,.09-1.32,.07-1.96-.05-1.84-.06-3.69-.1-5.53,0-.27-.02-.66-.43-.78,.11-.49,.1-.99,.13-1.48Z"/>
  <path class="cls-64" d="M34.44,30.59c-1.83,0-3.66,.02-5.48,0-.51,0-1.04-.04-1.54-.21,1.5,.04,2.99-.22,4.49-.11,.85,.06,1.71,.07,2.53,.32Z"/>
  <path class="cls-8" d="M25.18,35.02c-.02-1.09-.14-2.17,.1-3.25,.03-.13,.09-.24,.13-.37,.9-.09,1.79-.21,2.69-.28,1.3-.1,2.59,.05,3.87,.26-1.13,0-2.26,.01-3.4,0-.42,0-.82,.04-1.23,.11-1.08,.2-1.55,1.01-.92,1.88,.75,1.04,.79,2.14,.79,3.32,0,2.13,.3,4.23,1,6.25,.43,1.24,1.23,1.61,2.36,.94,1.25-.74,2.62-1.11,3.97-1.59,1.75-.62,3.23-1.75,4.84-2.65,.9-.5,1.78-1.03,2.85-1.17,.6-.08,.89,.23,1,.67,.34,1.32,.37,2.68,.23,4.03-.08,.75-.63,1.3-1.2,1.78-1.78-.04-3.57-.11-5.35-.12-.67,0-1.35-.1-2.01,.13-.5,.05-.63,.41-.67,.82-.03,.3-.02,.6-.02,.89-1.06,0-1.42,.78-1.83,1.57-1.02,2-2,4.01-3.02,6.01-.21,.42-.41,.92-1,.85-.59-.07-.89-.52-1.06-1.05-.1-.33-.15-.66-.15-1,0-.6-.01-1.21,0-1.81,.07-2.39-.11-4.78-.14-7.17-.03-2.09-.16-4.17-.21-6.26,0-.4-.09-.79-.17-1.17-.1-.44-.36-.78-.81-.85-.5-.07-.66-.34-.65-.79Z"/>
  <path class="cls-4" d="M24.83,43.18c.17-.37,.05-.77,.09-1.15,.02-.22-.02-.46,.23-.58,.1,.02,.18,.07,.24,.15,.82,1.29,1.66,2.55,1.66,4.19-.01,4.21,0,8.41,0,12.62,0,.91,.06,1.81,.13,2.71,.06,.74,.36,1.06,1.09,1.24,.89,.22,1.8,.15,2.7,.2,1.71,.1,3.42,.17,5.14,.27,2.49,.15,4.95,.45,7.42,.83,1.73,.27,3.49,.37,5.21,.72,.37,.07,.75,.03,1.13,.03,.37-.02,.73-.02,1.1,0,.19,.01,.42-.02,.48,.25-1.29,0-2.59,.02-3.88,.02-.86,0-1.72,.04-2.58,.12-.2,.19-.45,.17-.69,.17-2.18,0-4.35-.16-6.53-.13-.69-.21-1.41-.21-2.12-.21-1.52,.01-3.05,.02-4.57,0-1.67-.02-3.34-.14-5.02-.12-.78,.01-1.13-.27-1.24-.85-.03-.72-.06-1.43-.09-2.15,.28-3.75,.1-7.5,.13-11.25,.02-2.36,0-4.72,0-7.07Z"/>
  <path class="cls-10" d="M37.73,64.7c2.41,.04,4.83,.07,7.24,.11,.62,.17,1.25,.22,1.89,.22,2.32,0,4.64-.01,6.95,0,.42,0,.88-.04,1.12,.44-.6,.06-1.05,.46-1.57,.69-.49,.4-1.12,.4-1.69,.56-1.1,.32-2.22,.57-3.38,.62-1.28,0-2.56,0-3.83,0-.32,0-.65,.08-.92-.18-1.32-.34-2.64-.68-3.96-1.02-.26-.12-.53-.23-.79-.35-.38-.23-.76-.45-1.15-.68-.16-.19-.09-.32,.1-.42Z"/>
  <path class="cls-22" d="M37.73,64.7c-.08,.13-.13,.27-.1,.42-1.75,.1-3.49,.18-5.24,.27-2.24,.12-4.49,.06-6.73,.05-.65,0-1.31-.06-1.97-.09-.57-.02-.75-.31-.6-.86,.09-.33,.26-.58,.5-.8,.49-.47,.69-.47,1.19-.04,.27,.55,.73,.7,1.3,.7,3.35,.03,6.69,.07,10.04,.09,.55,0,1.09,.04,1.6,.25Z"/>
  <path class="cls-14" d="M43.53,67.16l.88,.03c1.32,.2,2.64,.2,3.96,0,1.59-.13,3.11-.6,4.65-.98,.11-.03,.22-.04,.33-.05,.27,0,.52,.09,.53,.38,0,.3-.32,.19-.49,.26-.4,.16-.82,.26-1.24,.38-1.79,.53-3.22,3.09-2.66,4.67,.18,.5,.43,.96,.72,1.4,.23,.33,.32,.66-.01,.96-.32,.29-.77,.22-1.11-.12-.3-.3-.3-.72-.43-1.09-.16-.44-.3-.89-.89-.83-.6,.06-.63,.54-.67,1.01-.03,.37-.12,.73-.32,1.16-.38-.54-.43-1.11-.46-1.67-.05-1.12,.04-2.25-.1-3.38-.15-1.12-.43-1.45-1.57-1.42-.65,.02-1.26-.05-1.8-.46,.16-.27,.43-.21,.66-.24Z"/>
  <path class="cls-14" d="M54.78,74.76c-.59-.19-1.37-.18-2.11-.36-.5-.12-.91-.73-.76-1.35,.22-.91,.05-1.81-.03-2.68-.14-1.71,.61-1.84,2.03-1.93,.47-.03,.96,.13,1.44,.22,.22,.04,.4,.15,.45,.37,.05,.23-.09,.4-.26,.53-.43,.34-.9,.4-1.43,.25-.26-.08-.69-.41-.84,.14-.14,.5,.32,.55,.64,.68,.34,.13,.68,.19,1.05,.18,.25-.01,.52-.02,.55,.33,.03,.33,.03,.65-.36,.79-.27,.1-.55,.12-.83,.12-.26,0-.52-.02-.78,.07-.23,.08-.37,.2-.38,.43,0,.21,.16,.33,.35,.39,.48,.16,.97,.26,1.49,.24,.73-.02,.98,.16,.97,.64-.01,.58-.42,.95-1.17,.94Z"/>
  <path class="cls-48" d="M40.56,72.07c.02,.4-.11,.76-.62,.87-.52,.11-1.08-.19-1.3-.68-.24-.55-.29-1.13-.23-1.71,.06-.58,.56-.93,1.18-.88,.54,.04,.86,.39,.84,1-.02,.46,.14,.89,.13,1.41Z"/>
  <path class="cls-30" d="M51.43,64.66c-.52-.21-1.06-.04-1.58-.1-.08-.05-.17-.09-.22-.17-.64-1.07-1.67-1.45-2.84-1.6-1.03-.14-1.94-.49-2.49-1.43-.2-.34-.66-.35-.79-.74,.77,.02,1.54-.03,2.31,.09,.8,.12,1.49,.4,2.02,1.01,.39,.46,.84,.63,1.44,.6,1.96-.09,3.91,.12,5.86,.25,2.07,.14,4.14,.04,6.21,.08,1.2,.02,2.31,.29,3.28,1.02,.76,.57,1.62,.85,2.54,1.02-.63,.64-1.4,.42-2.13,.33-.49-.06-.97-.07-1.46-.08-2.77-.05-5.53-.05-8.3-.15-1.28-.05-2.56-.04-3.84-.1Z"/>
  <path class="cls-53" d="M49.5,52.91c.79-.35,1.61-.4,2.46-.35,.54,.03,1.09,0,1.63,.02,.33,.01,.7,0,.87,.36,.19,.41-.11,.63-.36,.85-1.11,.98-2.35,1.78-3.57,2.62-.54,.37-.75-.14-1.03-.44,0-1.02,0-2.04,0-3.05Z"/>
  <path class="cls-7" d="M66.15,47.7c.02,.33-.04,.66,.08,.99,.09,.23-.01,.43-.19,.59,.06-.53-.13-1.07,.11-1.59Z"/>
  <path class="cls-7" d="M66.03,50.08c.01,.3-.03,.6,.09,.89,.08,.2,0,.37-.2,.47,.06-.45-.12-.92,.11-1.36Z"/>
  <path class="cls-18" d="M43.5,60.61c.44,.19,.8,.45,1.06,.87,.5,.81,1.34,1.03,2.21,1.16,.98,.15,1.91,.37,2.61,1.16,.21,.23,.33,.5,.47,.76-1.14,.14-2.23-.26-3.35-.36-1.38-.12-2.75-.34-4.12-.54-2.32-.35-4.64-.58-6.99-.69-1.42-.07-2.85-.13-4.27-.24-.95-.08-1.91,.02-2.86-.19-.89-.19-1.25-.6-1.29-1.49-.24-4.92-.09-9.84-.08-14.76,0-1.44-.45-2.64-1.14-3.83-.2-.34-.4-.68-.61-1.02,.01-2.14,.02-4.28,.04-6.43,.08,.37,.23,.57,.68,.61,.43,.04,.8,.33,.9,.83,.08,.39,.22,.77,.21,1.16-.04,1.32,.13,2.63,.13,3.95,0,1.86,.07,3.73,.15,5.59,.08,2,.02,3.99,.07,5.99,.01,.46,.11,.89,.32,1.3,.17,.34,.47,.53,.8,.56,.36,.03,.53-.29,.68-.59,.76-1.54,1.53-3.07,2.3-4.61,.41-.82,.82-1.65,1.28-2.45,.45-.77,.69-.84,1.52-.67,.04,1.13,.03,2.26,.11,3.38,.12,1.52,.86,2.28,2.44,2.38,1.41,.09,2.82,.12,4.23,.1,.36,0,.71,.05,1.06,.1,.45,.07,.69,.35,.74,.74,.22,1.61,.16,3.23,.07,4.85-.04,.74,.08,1.46,.32,2.15,.05,.14,.17,.19,.31,.21Z"/>
  <path class="cls-21" d="M48.37,67.19c-1.32,.41-2.64,.41-3.96,0,1.32,0,2.64,0,3.96,0Z"/>
</svg>