<?xml version="1.0" encoding="UTF-8"?>
<svg id="Layer_1" data-name="Layer 1" xmlns="http://www.w3.org/2000/svg" viewBox="0 0 1920 1080">
  <defs>
    <style>
      .cls-1 {
        fill: #6a5947;
      }

      .cls-2 {
        fill: #fdfcfb;
      }

      .cls-3 {
        fill: #6a5b46;
      }

      .cls-4 {
        fill: #81715b;
      }

      .cls-5 {
        fill: #6c5d48;
      }

      .cls-6 {
        fill: #997959;
      }

      .cls-7 {
        fill: #98775c;
      }

      .cls-8 {
        fill: #92897e;
      }

      .cls-9 {
        fill: #bb9b77;
      }

      .cls-10 {
        fill: #8d7b65;
      }

      .cls-11 {
        fill: #c2a47f;
      }

      .cls-12 {
        fill: #c2a57f;
      }

      .cls-13 {
        fill: #b69a79;
      }

      .cls-14 {
        fill: #b79a79;
      }

      .cls-15 {
        fill: #ba9b79;
      }

      .cls-16 {
        fill: #cdb18d;
      }

      .cls-17 {
        fill: #ceb18b;
      }

      .cls-18 {
        fill: #ceb18c;
      }

      .cls-19 {
        fill: #ceb491;
      }

      .cls-20 {
        fill: #ae8d6c;
      }

      .cls-21 {
        fill: #a98866;
      }

      .cls-22 {
        fill: #a58363;
      }

      .cls-23 {
        fill: #bfa589;
      }

      .cls-24 {
        fill: #bfa27f;
      }

      .cls-25 {
        fill: #af8c68;
      }

      .cls-26 {
        fill: #d8c09b;
      }

      .cls-27 {
        fill: #c0a07a;
      }

      .cls-28 {
        fill: #b2916f;
      }

      .cls-29 {
        fill: #a48669;
      }

      .cls-30 {
        fill: #bc9f7f;
      }

      .cls-31 {
        fill: #a48262;
      }

      .cls-32 {
        fill: #be9c75;
      }

      .cls-33 {
        fill: #be9b74;
      }

      .cls-34 {
        fill: #c0a17f;
      }

      .cls-35 {
        fill: #c0a380;
      }

      .cls-36 {
        fill: #c0a27f;
      }

      .cls-37 {
        fill: #aa8966;
      }

      .cls-38 {
        fill: #bfa07a;
      }

      .cls-39 {
        fill: #bf9f7a;
      }

      .cls-40 {
        fill: #c6a782;
      }

      .cls-41 {
        fill: #c6a883;
      }

      .cls-42 {
        fill: #cbaf8b;
      }

      .cls-43 {
        fill: #cbac86;
      }

      .cls-44 {
        fill: #d2b68f;
      }

      .cls-45 {
        fill: #d2b790;
      }

      .cls-46 {
        fill: #ac8e6e;
      }

      .cls-47 {
        fill: #d4ba95;
      }

      .cls-48 {
        fill: #dbc29b;
      }

      .cls-49 {
        fill: #d3b995;
      }

      .cls-50 {
        fill: #c6a986;
      }

      .cls-51 {
        fill: #dec6a3;
      }

      .cls-52 {
        fill: #c8ab87;
      }

      .cls-53 {
        fill: #e0c9a3;
      }

      .cls-54 {
        fill: #e0c8a2;
      }

      .cls-55 {
        fill: #6e5d49;
      }

      .cls-56 {
        fill: #72604b;
      }

      .cls-57 {
        fill: #88755f;
      }

      .cls-58 {
        fill: #887560;
      }

      .cls-59 {
        fill: #635442;
      }

      .cls-60 {
        fill: #5d4f3e;
      }

      .cls-61 {
        fill: #4d3f31;
      }

      .cls-62 {
        fill: #5e4f3c;
      }

      .cls-63 {
        fill: #5e4f3e;
      }

      .cls-64 {
        fill: #83715d;
      }

      .cls-65 {
        fill: #7c6b53;
      }

      .cls-66 {
        fill: #4e4031;
      }
    </style>
  </defs>
  <g id="bGtS37">
    <g>
      <path class="cls-52" d="M1919.44,519.71v79.49c-5.5,13.69-16.99,22.74-25.38,34.2-12.23,16.69-8.91,34.23-4.42,51.9,1.68,6.61,7.95,7.48,13.94,7.78,5.51,.27,11.59-1.38,15.86,4.1v33.27c-4.72,5.65-10.94,4.34-16.74,3.29-8-1.45-15.51-4.74-22.71-8.57-7.12-3.78-14.27-4.01-21.77-1.47-9.1,3.08-17.83,7.23-27.25,9.44-10.84,2.55-20.64,1.62-29.54-6.09-6.2-5.37-8.83-4.28-11.24,3.89-2.09,7.07-3.72,14.28-5.34,21.48-1.6,7.15-4.86,13.58-9.97,18.29-10.92,10.07-22.39,19.55-35.61,26.42-10.75,5.59-22.18,4.47-33.51,3.12-14.07-1.67-28.16-1.12-42.22-.53-8.02,.33-14.39,13.22-10.72,20.47,2.24,4.43,6.45,3.96,10.29,3.98,23.1,.15,46.2,.03,69.3,.08,14.7,.03,29.4-.25,44.1,.15,11.8,.32,17.55,5.79,18.81,17.81,.7,6.74,.6,13.55,.02,20.31-.49,5.7-2.38,11.17-6.96,14.52-20.26,14.81-40.31,30.13-65.33,35.87-2.36,.54-4.75,1-7.13,.84-23.94-1.57-43.19,10.36-63.83,23.11,34.98,.58,68.43-.49,101.89,.64,19.44-1.4,38.79,.37,58.19,1,28.97,.94,57.98,.23,86.98,.26,3.89,0,7.77,.06,11.65,.23,3.46,.15,6.44,1.19,8.66,4.04v31.43c-3.02,3.89-7.06,3.74-11.42,3.53-36.8-1.83-73.62-.22-110.41-.59-29.28-.29-58.64,.98-87.93-1.56-16.68-1.45-33.51-2.54-49.96,2.45-7.29,2.21-14.76,2.3-22.26,2.3-56.32,0-112.64-.03-168.96,.03-4.09,0-8.31-.62-13.08,1.68,3,3.32,6.37,2.58,9.34,2.63,13.48,.19,26.97-.2,40.44,.21,14.56,.44,19.28,10.14,11.75,23.76-2.95,1.99-6.3,1.55-9.54,1.6-30.64,.46-61.31-1.04-91.93,1.35-3.58,.28-7.13-.29-10.6-1.32-2.55-.36-4.51-1.65-5.89-3.87-1.89-5.84-4.67-11.32-6.6-17.16-2.43-7.37-7.55-10.77-15.04-10.63-24.85,.47-49.68-.85-74.56,1.17-22.08,1.8-44.31,.63-66.47-.02-67.38-1.98-134.8,.09-202.15-1.63-56.03-1.43-112.05-.93-168.07-1.59-4.4-.05-9.11,.67-12.8-2.94-2.65-9.1,4.12-19.75,13.73-21.48,2.06-.37,4.31-.77,6.27-.19,21.67,6.48,43.56,.59,65.32,1.32,91.15,3.08,182.33,1.8,273.5,1.85,29.37,.02,58.7-2.76,88.1-1.83,1.5,.05,3.02,0,4.48-.33,1.72-.4,3.91-.68,3.76-3.07-.15-2.34-2.38-2.48-4.1-2.7-7.13-.92-14.22-2.08-21.47-2.02-12.6,.1-25.21,.5-37.79-.26-8.82-.53-11.8-4.44-10.22-13.31,1.89-10.57,5.51-20.17,15.68-25.55,6.24-3.3,9.6-8.58,7.9-15.9-1.78-7.68-7.67-9.54-14.53-9.55-45-.09-90-.15-135.01,.04-2.71,.01-5.37,.41-8.04,.93-7.2,1.41-13.5-.71-17.21-7.11-4.37-7.54-10.67-8.78-18.32-8.77-68.4,.09-136.81,.07-205.21,.06-4.8,0-9.6,.1-14.4-.23-3.31-.23-6.68-.42-8.62-3.9,.73-5.37,4.92-4.55,8.31-4.65,8.67-.24,17.35-.09,26.02-.09,60.72,0,121.44-.03,182.16,.04,5.73,0,11.32-.65,16.9-1.85,5.13-1.1,8.81-3.67,9.73-9.33,2.35-3.99,5.99-4.68,10.11-4.12,19.49,2.66,38.77-.97,58.12-2.19,28.22-1.77,55.56,.42,80.9,15.03,10.4,6,13.59,3.92,14.33-8.29,.35-5.84,.04-11.68-.26-17.51,.62-5.7-1.4-11.1-1.75-16.69,2.69-17.02,17.59-27.41,34.95-24.15,3.49,.66,6.97,1.61,10.4,2.71,19.93,6.38,27.8,1.92,36.8-17.77,6.21-13.6,9.62-28.28,12.11-43.13,.99-5.91,1.08-12.34,6.18-16.74,5.43-2.36,11.18-1.62,16.8-1.63,42.99-.1,85.99,0,128.98-.07,16.71-.02,20.59-6.17,14.82-23.2-5.84-4.76-12.76-4.85-19.68-4.86-42-.02-84.01,.01-126.01-.02-12.1,0-13.69-1.18-16.96-13.15-1.47-5.37-2.99-10.71-5.86-15.43-3.61-5.94-7.61-6.24-12.33-1.19-6.48,6.95-10.41,15.77-16.08,23.34-14.17,18.97-37.41,21.63-51.54,3.09-15.98-20.96-37.13-25.68-60.42-26.53-18.28-.67-36.6-.16-54.9-.16-17.88,0-35.27-4.01-49.34-14.81-22.89-17.58-45.3-13.57-68.62-2.89-7.96,3.64-15.12,8.8-22.96,12.69-10.61,5.26-21.02,5.64-32.14,1.43-31.28-11.85-63.16-21.58-96.25-26.61-9.78-1.48-19.62-2.48-29.48-3.04-14.41-.82-16.44-2.8-18.17-19.24,.08-2.49,.67-4.86,1.31-7.23,2.68-9.88,5.02-11.87,15.13-11.89,42.41-.09,84.83-.03,127.24-.04,3.88,0,7.77,0,11.65,0,8.61-.19,17.26,.55,25.78-1.41,15.33,1.74,30.72,1.41,46.11,1.41,10.05,1.21,19.7-2.16,29.6-2.75,6.31,1.38,12.49-.85,18.79-.65,21.26,.68,42.5,.14,63.8,1.46,24.18,1.51,48.49,.22,72.77-1.06,43.39-2.29,85.99,5.57,128.49,13.49,18.58,3.46,37.23,6.54,55.88,9.59,14.89,2.44,29.26-1.3,43.54-4.83,16.12-3.98,32.31-6.64,48.96-5.55,6.97,.46,13.68,1.63,19.86,5.12,5.1,5.54,6.84,12.78,9.52,19.6,4.5,11.45,9.53,13.01,18.99,5.81,13.45-10.24,28.86-14.12,45.14-16.33,30.34-4.12,59.57-13.66,89.36-20.53,28.92-6.67,57.88-7.33,87.4-5.39,25.31,1.67,50.87,2.12,76.26-.75,.89-.1,1.79-.12,2.69-.15,14.14-.45,15.88-2.22,17.03-16.86,.39-5.01-.89-9.77-1.7-14.6-.9-5.33-4.15-7.91-9.25-8.39-7.17-.67-14.24-.83-21.44,.68-11.46,2.41-22.14,1.13-29.83-9.52-2.82-3.91-5.06-7.81-1.13-12.36,1.72-1.44,3.78-1.73,5.88-1.87,30.32-2,60.64-3.32,90.97-.15,3.43,.36,6.41,1.22,8.62,4.06Z"/>
      <path class="cls-44" d="M668.26,.27h925.33c3.19,2.88,2.33,6.71,2.3,10.34-.07,7.38-.24,14.76,.11,22.14,.16,3.39,.32,7.07,4.07,8.51,3.42,1.32,5.59-1.34,7.76-3.41,6.38-6.07,13.21-11.59,20.27-16.75,14.97-10.95,31.86-14.24,48.44-6.43,14.41,6.78,27.66,6.05,41.66,.91,11.03-4.05,22.07-7.77,34.12-6.41,4.24,.48,8.31,1.26,12.06,3.25,7.79,4.14,9.47,11.27,3.89,18.24-26.1,32.6-57.26,57.32-98.38,66.78-16.9,3.89-33.91,3.48-50.93,2.61-6.86-.35-9.69,1.91-11.04,8.62-1.54,7.65-.93,15.32-1.53,22.96-.77,9.81-4.31,13.79-14.15,15.98-14.02,1.85-28.04,1.41-42.05,.32-20.68-.79-41.29-1.27-59.1-14.95-6.12-4.7-11.4-2.62-16,4.34-5.46,8.27-8.3,17.72-10.74,27.27-2.21,8.63-4.14,17.37-8.09,25.39-2.81,5.7-6.46,10.68-13.46,10.61-7.01-.07-10.67-5.25-13.35-10.87-4.93-10.33-6.81-21.62-8.92-32.8-1.65-8.76-3.3-17.53-5.72-26.12-3.14-11.18-7.4-13.85-18.31-15.72-13.39-2.29-26.92-.72-40.3-2.88-10.88-1.76-20.96-5.37-30.39-10.84-14.2-8.25-27.34-6.14-40.62,2.44-17.2,11.1-29.15,27.26-41,43.52-4.27,5.86-2.91,7.66,5.72,7.72,26.7,.16,53.4,.05,80.1,.06,2.4,0,4.81,.12,7.2,0,19.14-.99,20.28,7.39,18.61,24.64-.53,5.45-4.53,8.63-9.32,10.26-21.62,7.36-43.16,14.97-64.84,22.18-4.65,1.55-9.56,1.3-14.27,.44-7-1.28-10.4,2.31-11.21,8.65-1.34,10.58,.34,20.96,4.35,30.71,3.39,8.25,11.4,10.53,18.85,12.77,4.65,1.4,6.97-3.09,9.16-6.16,7.93-11.13,17.87-18.96,31.31-21.46,9.67-1.8,19.1,.76,28.55,2.16,17.25,2.55,33.8,8.26,50.74,12.22,14.73,3.45,29.53,4.22,44.61,3.62,18.61-.74,27.62,9.54,26.87,29.23-2.26,7.58-7.33,10.51-14.93,10.3-25.11-.69-50.27,1.63-75.35-1.55-11.63-1.47-22,1.36-30.3,10.38-2.27,2.47-4.91,4.51-7.85,6.1-4.65,2.42-9.85,1.27-14.7,2.43-5.73-.36-11.47-1.47-17.22-.08-16.4-.99-32.41,.96-47.02,9.01-9.66,5.32-19.28,9.09-30.49,9.37-10.89,.27-20.81,4.2-29.79,11.27-9.61,7.57-17.1,5.62-24.41-4.36-5.08-6.94-9.22-14.48-12.63-22.29-7.04-16.15-19.56-23.3-35.76-27.26-40.06-9.78-80.65-10.25-121.42-9.56-6.86,.12-10.12,4.09-12.1,10.24-3.7,11.52-3.32,23.68-5.53,35.44-1.24,6.59-2.12,13.28-10.55,13.5-5.67,.15-10.9-6.21-11.61-14.38-.89-10.12-.85-20.3,.07-30.42,.97-10.6-.11-12.48-9.64-15.14-17.73-4.96-20.33-3.67-29.7,12.49-5.36,9.24-11.45,17.92-19.82,24.81-9.8,8.06-20.55,11.94-33.19,11.53-13.72-.45-27.48-.33-41.21,.55-9.23-2.2-17.72-.27-26.01,4.2-9.29,5.01-18.71,9.7-29.64,9.86-6.21,.09-11.99-1.06-17.11-4.57-17.45-11.95-37.28-14.59-57.49-15.61-16.74-.85-33.56,1.31-50.27-1.78-7.72-1.43-15.56-2.77-22.48-6.33-28.65-14.72-58.33-14.35-88.67-7.73-7.03,1.54-14.14,2.75-21.23,3.93-4.89,.82-10.11,2.09-14.85-1.1-1.32-2.1-.97-4.11,.35-6.05,3.9-2.92,5.87-6.59,5.5-11.8-.44-6.25,1.7-12.19,3.52-18.01,2.32-7.43,11.42-11.66,21.67-10.74,3.59,.32,6.99,1.61,10.63,1.79,24.4,1.16,43.78-21.02,44.93-41.4,.3-5.3,2.73-7.93,7.61-8.41,2.98-.29,6-.1,9-.08,2.87,.03,5.72,.76,6.78,3.59,1.26,3.33-1.7,4.63-3.83,6.36-7.65,6.19-8.37,10.52-4.17,23,3.73,11.08,7.82,14.85,16.73,15.05,13.46,.31,26.89,.57,40.36,1.47,15.43,1.03,31.01-1.78,46.6-1.76,7.45,.01,11.65-5.79,13.24-13.03,1.72-7.81,3.65-15.52,6.64-22.96,3.23-8.02,8.66-11.96,17.33-11.84,14.08,.19,28.19,1.06,42.23,.78,29.07-.58,58.12,.2,87.17,.3,6.62,.02,13.13-1.07,19.73-1.12,7.32-.05,10.81-5.66,12.23-11.67,5.19-21.93,7.21-44.23,4.15-66.71-.98-7.2-4.13-13.04-12.88-12.12-4.31,.45-7.31-2.17-10.29-4.84-8.84-7.93-18.33-10.75-30.6-8.69-16.25,2.73-32.76-1.51-49.18-2.26-19.74-.91-39.51-2.42-59.14,1.19-11.24,2.07-21.85,6.31-32.21,11.21-9.27,4.38-13.52,1.47-13.07-8.99,.37-8.55-.84-17.1,1.41-25.65,3.51-13.36,7.96-17.36,21.35-17.37,26.1-.04,52.2,.05,78.3-.05,9.07-.03,11.95-3.41,11.55-12.26-.22-4.71-1.96-7.46-6.77-8.06-9.17-1.13-18.68-3.66-23.9,7.85-11.24,3.03-22.51,2.81-33.78,.23-3.7-8.42-10.8-9.09-18.6-9.04-26.96,.17-53.91,.06-80.87,.07-2.99,0-5.95,.09-8.94,.6-9.41,1.59-11.5,6.42-6.18,14.47,1.9,2.88,4.48,4.95,7.15,6.92,4.05,3,6.59,6.92,7.97,11.87,2.48,8.89-1.17,14.31-10.14,13.09-26.75-3.64-51.41,3.7-75.76,13.75-17.08,7.05-35.33,8.48-53.39,10.33-7.85,.81-15.55,.92-20.64,8.42-6.98,2.11-14.01,1.66-21.06,.48-6.49-8.56-15.73-7.4-24.93-8.63-20.67-2.77-41.44-5.53-61.65-11.24-22.47-6.34-45.06-12.25-66.79-21.07-4.24-1.72-9.02-3.25-8.81-9.01,.22-5.91,4.77-7.86,9.62-9.44,4.66-1.51,8.93-1.55,13.92-.72,12.68,2.1,25.73,2.17,38.42,.83,11.7-1.24,20.03-9.67,25.22-20.27,4.18-8.54,9.88-12.77,19.23-11.48,9.97,1.37,18.73-3.19,27.75-6.27,4.82-1.65,9.55-3.6,14.32-5.43,5.7-2.18,10.23-1.14,14.33,3.93,9.3,11.49,13.24,12.27,25.79,3.94,13.32-8.84,27.68-12.96,43.37-12.26,11.93,.53,23.6-3.71,35.69-1.41,5.1,.97,8.72-3.48,11.96-7.13,3.18-3.59,6.83-4.55,10.1-1.04,3.43,3.67,7.41,3.49,11.58,3.5,12.3,0,24.6-.2,36.89,.09,6.49,.15,12.12-.05,13.01-8.61,.14-1.38,1.81-2.38,2.85-3.49Z"/>
      <path class="cls-48" d="M1341.55,307.12c11.13-16.88,26.55-20.21,45.51-17.77,24.34,3.14,49,.7,73.52,1.06,5.02,.07,4.73-4.82,6.99-7.33,8.64,4.63,18.01,6.28,27.56,7.18,13.56,1.28,24.54,9.47,36.64,14.61,15.23,6.46,30.32,13.01,46.8,15.65,13.51,2.16,26.5,1,38.38-5.88,25.12-14.53,51.63-15.92,79.27-10.74,16.76,3.14,33.53,6.78,50.72,6.62,6.63-.06,11.21,3.17,14.86,8.71,6.97,10.56,11.13,22.47,15.91,34.06,5.45,13.2,13.09,24.73,22.46,35.35,11.82,13.41,26.14,16.3,42.53,12.58,1.76-.4,3.53-.68,5.32-.98,3.49-.93,7.04-1.25,10.62-1.21,5.34,.06,9.51-1.56,13.07-6.22,8.22-10.76,20.73-9.01,32.01-10.17,5.41-.55,11.48-1.48,15.71,3.96v110.91c-8.42,10.78-19.95,7.55-30.83,7.22-20.34-.62-36.48-13.13-54.48-20.36-5.86-2.35-11.61-4.99-17.53-7.19-14.24-5.29-28.69-6.2-43.22-1.67-13.33,4.16-25.47,1.03-37.02-5.8-5.71-3.38-10.93-7.59-16.59-11.07-11.29-6.95-25.6-6.7-34.87,.31-3.29,2.49-5.44,5.48-5.98,9.82-1.48,11.86,1.09,15.06,12.72,15.27,6.89,.12,13.79-.14,20.68,.28,5.41,.33,9.26,2.47,9.69,8.65,.52,7.47-2.78,12.52-9.1,13.76-2.65,.52-5.37,.47-8.07,.48-37.48,.07-74.96,.03-112.44,.04-3.61,0-7.16-.7-10.75-.77-9.56,1.64-19.46-.43-29.32,1.77,1.61,5.25,5.26,5.17,8.37,5.4,9.15,.68,13.93,5.89,15.86,14.76,1.72,7.94,1.62,15.87,.4,23.78-1.88,12.19-5.49,23.91-9.81,35.38-6.72,17.87-20.59,22.22-36.65,11.66-22.33-6.61-44.56-4.58-66.42,1.89-23.4,6.92-46.47,5.6-70.12,1.13-35.26-6.67-70.49-14-106.23-17.49-22.59-2.21-45.2-2.62-68.05-.99-23.48,1.67-47.2,1.08-70.88-.69-23.26-1.74-46.73-.43-70.11-.46-.22-.44-.44-.87-.66-1.31,2.39-10.24,12.54-18.3,24.46-19.26,11.72-.94,23.37-.09,34.85,2.4,6.1,1.32,11.28,.18,15.78-4.18,4.53-4.39,9.69-5.71,15.75-3.98,19.04,5.42,37.95,2.96,56.81-1.22,21.09-4.67,41.59-11.7,62.76-16.1,14.33-2.97,26.38-.31,36.93,10.7,10.08,10.51,15.07,10.15,26.29,1.01,6.12-4.99,11.76-10.46,17.32-16.08,4.57-4.62,5.47-8.69,1.06-14.33-16.71-21.38-38.35-34.86-63.5-42.98-18.92-6.1-38.55-8.81-57.95-12.56-4.86-.94-9.8-1.94-11.27-7.58-1.52-5.84,2.65-9.07,6.6-11.96,23.17-16.94,44.82-36.04,69.29-51.11,13.72-8.45,28.21-14.84,44.07-17.84,5.4-1.02,10.72-1.4,16.04-.27,9.55,2.04,18.42,.03,27.05-4.1,10.59-5.06,20.65-11.29,31.62-15.53,14.32-5.52,28.07-5.54,40.72,4.59,4.43,3.55,8.61,3.67,10.78-2.22,4.16-11.33,6.2-23.09,4.25-35.23-.52-3.27-1.17-7.43-5.64-6.99-10.38,1.03-20.22-2.13-30.25-3.6-17.62-2.58-35.3-1.32-52.95-1.69-3.9-.08-7.97,.62-11.65-.42-9.49-2.67-16.82,.05-23.32,7.41-4.14,4.69-9.82,6.31-15.58,3.26-5.49-2.91-8.71-7.51-6.8-14.38Z"/>
      <path class="cls-41" d="M.37,601.05v-83.18c3.69-4.93,9.06-4.17,14.06-4.13,37.14,.29,74.29,.7,111.4,.83,38.3,.14,76.66-.68,114.99-.93,7.96-.05,15.86,.2,22.46,1.74-7.71-.32-15.71-3.99-23.43-8.02-23.7-12.36-47.18-11.61-70.89-.09-16.77,8.15-34.76,8.89-52.82,7.59-16.45-1.19-28.09-11.41-37.94-23.82-10.1-12.72-10.81-13.16-24.94-5.25-2.1,1.18-4.08,2.58-6.27,3.6-9.65,4.49-17.11,1.74-21.17-8.27-4.52-11.16-6.61-22.97-7.81-34.94-.27-2.75-.27-5.53-.69-8.27-1.15-7.4-2.82-14.18-12.43-13.41-1.86,.15-3.19-1.52-4.53-2.75v-33.27c2.42-3.18,5.91-3.74,9.51-4.46,4.73-.95,9.9-2.29,11.31-7.75,1.52-5.91-1.01-10.81-5.94-14.27-12.49-8.77-13.1-21.78-11.98-35.4,.22-2.67,1.63-4.56,3.93-5.81,4.66-1.56,9.48-1.22,14.23-1.25,17.93-.11,35.88-.48,53.79,.06,27.78,.84,55.45-3.51,83.23-1.55,27.03-1.35,53.92,1.88,80.89,2.52,9.85,8.68,20.39,15.87,33.6,18.3,5.55,1.02,10.79,.09,16.05-.74,35.1-5.55,69.28,.67,103.36,8.24,17.6,3.91,35.43,6.18,53.32,8.08,9.96,1.06,19.71-1.26,29.52-2.35,11.14-1.24,14.76,1.66,15.23,13.29,.1,2.46,.09,4.93,0,7.39-.39,10.59-2.44,13.53-12.41,16.23-21.73,5.89-43.38,12.33-65.87,14.41-7.67,.71-11.09,4.76-12.4,12.03-1.68,9.38-2.92,18.84-4.87,28.17-1.09,5.21-2.87,9.98-6.89,13.68-5.65,5.19-12.14,6.02-17.87,1-7.51-6.58-14.78-13.51-20.62-21.82-1.51-2.15-2.21-5.94-5.42-5.37-3.83,.68-3.01,4.86-3.51,7.66-2.14,11.82-1.55,23.89-2.92,35.82-1.59,13.88-3.83,16.77-17.6,17.93-2.85,.24-6.06-.49-8.63,2.77,2.99,2.76,6.77,2.09,10.02,2.37,25.65,2.19,51.33,4.73,76.78-1.93,4.12-1.08,8.56-2.27,11.57,1.99,3.13,4.44,1.43,8.75-1.46,12.72-2.52,3.45-4.6,7.23-7.19,10.61-8.58,11.2-19.17,17.85-33.77,17.75-36.59-.27-73.19,.14-109.78-.17-25.05-.21-49.58,3-73.85,9.2-22.66,5.79-45.24,12.21-69,11.45-7.36-.24-10.86,3.98-10.5,10.7,.35,6.52,3.81,8.58,10.11,8.73,77.94,1.85,155.9,1.47,233.85,1.47,7.18,0,14.33-.05,21.53-1.03,12.1-1.66,20.32,7.6,18.76,20.29-3.87,4.79-9.6,5.14-14.77,5.35-33.35,1.37-65.79,9.36-98.67,14.08-15.79,2.26-31.59,4-47.43,2.84-25.6-1.88-49.76,4.86-74.06,11.31-9.56,2.54-18.96,5.54-28.69,7.56-28.4,5.92-49.58-5.56-66.76-27.72-4.12-5.31-7.39-11.19-10.97-16.86-3.65-5.78-8.03-6.93-13.67-3.33-6.39,4.08-13.03,7.6-20.38,9.45-4.34,1.1-8.76,2.72-12.73-1.07Z"/>
      <path class="cls-9" d="M.37,601.05c11.81-2.54,23.21-6.21,33.14-13.5,7.14-5.25,11.83-3.04,16.1,4.09,4.69,7.83,9.54,15.68,15.24,22.73,17.53,21.67,40.02,28.55,66.1,20.42,20.01-6.23,40.79-9.3,60.55-16.45,2.97-1.08,6.54-.78,9.8-.59,43.07,2.5,85.27-4.32,127.4-12.2,19.42-3.63,39.12-4.78,58.76-6.38,3.83-5.55,9.69-4.1,14.85-4.14,33.82-.24,67.65-.1,101.48-.11,31.73,0,63.46-.01,95.19,0,5.39,0,10.78-.08,16.11,.95,9.88,.6,19.53,2.73,29.18,4.79,8.89,1.9,17.74,2.07,26.72,.71,15.1-2.27,21.44,2.09,23.81,17.33,2.04,13.07,1.18,26.34,.5,39.51-.31,6.07-4.01,8.53-9.68,8.21-.97-.05-1.93-.31-2.82-.72-5.07-5.36-4.9-12.75-7.01-19.28-1.01-3.13-1.29-7.21-4.78-8.3-4.12-1.28-5.11,3.37-7.27,5.57-5.06,5.17-9.55,11.19-17.95,10.02-13.82-.69-27.63-.31-41.45-.22-7.68-2.09-15.38,.07-23.07,.04-15.72-.07-31.44-.85-47.16-.08-6.69,.15-13.38-.39-20.08-.12-21.46,5.68-43.19,4.22-64.91,2.41-3.88-.32-7.74-.54-11.6-.14-17.38-3.37-34.23-2.16-50.75,5.03-8.33,3.62-16.54,7.46-22.94,13.86-17.39,17.38-37.99,19.54-60.38,14.89-9.38-1.94-18.3-5.5-27.58-7.79-16.03-3.96-21.88,1.64-19.81,19.07,.62,1.91,1.44,3.71,2.75,5.24,6.09,4.89,13.3,5.07,20.48,5.08,37.36,.06,74.71,.01,112.07,.05,3.87,0,7.78-.42,11.58,.7,6.37,5.67,7.09,13.23,6.01,21-.85,6.12-1.41,12.21-1.32,18.36,.23,16.48-7.63,26.53-22.21,33.15-29.53,13.41-60.41,21.65-91.95,27.79-8.52,1.66-16.94,3.95-25.69,4.13-2.42,.05-4.85,.63-6.59,2.51-2.75,2.98-2.48,5.56,1.57,6.85,2.59,.82,5.35,.53,8.04,.54,23.36,.03,46.72,0,70.09,.02,2.7,0,5.39-.02,8.09,.09,5.13,.21,10.86,0,12.53,6.43,1.7,6.57-2.62,10.61-7.7,12.98-15.29,7.14-29.29,16.66-44.15,24.51-24.14,12.76-47.65,6.93-70.42-5.09-1.65-.87-2.74-2.34-3.5-4.07-2.12-5.84-2-12.1-3.08-18.14-1.23-6.93-4.58-9.86-11.46-10.26-17.65-1.03-35.16-.13-52.78,1.22-21.83,1.67-41.32-4.45-56.5-22.1-5.52-6.42-10.5-13.38-17.21-18.77-4.43-3.56-6.1-9.05-6.35-14.78-.47-10.77-.54-21.55,0-32.31,.43-8.62,4.15-15.29,12.07-19.01,1.86-.88,4.58-1.35,4.2-4.04-.47-3.3-3.58-2.8-5.82-2.81-24.28-.16-48.57-.17-72.85-.03-5.25,.03-8.39,2.38-9.67,7.68-1.44,5.97-2.96,11.96-5.39,17.59-1.98,4.58-4.32,9.06-10.57,7.45v-151.58Z"/>
      <path class="cls-39" d="M239.73,323.74c-27.05,1.39-53.99-2.44-81.03-1.88-4.18-2.7-5.38-6.79-6.01-11.64-1.79-13.72-3.88-15.47-17.15-15.48-40.08-.03-80.15,.06-120.23-.08-5.26-.02-10.96,.98-14.93-4.18v-42.52c7.87-9.4,19.43-8.98,29.73-10.82,16.56-2.97,33.37-2.54,49.9,1.23,10.89,2.48,20.84,7.51,30.83,12.44,8.73,4.31,11.8,2.95,14.12-6.61,1.38-5.65,2.08-11.48,3-17.25,2.27-14.18,7.55-19.19,21.16-22.31,14.59-3.35,27.95-1.2,40.29,7.34,4.04,2.79,8.57,4.39,12.93,6.4,2.49,1.15,5.47,1.91,7.66-.18,2.74-2.6,.23-5.3-1.09-7.4-7.4-11.82-8.02-24.88-7.17-38.27,.77-12.06,5.99-16.38,18.02-16.13,8.66,.18,17.27-1.57,25.97-1.51,4.83,.03,5.4-2.63,3.2-6.71-6.9-12.78-12.05-14.76-25.42-10.64-20.97,6.46-42.05,4.35-63.07,0-18.74-3.87-37.1-10.01-56.59-9.36-6.94,.23-13.7,.98-20.47,2.5-10.83,2.44-17.03-1.57-20.24-12.61-3.07-10.57-2.24-21.36-1.47-32.08,.57-8.05,6.43-10.33,13.13-11.21,.94,.1,1.89,.2,2.84,.26,45.61,9.69,84.28-11.29,122.99-30.42,14.14-6.99,26.1-18.36,38.45-28.53,7.98-6.57,15.98-12.8,25.93-15.84h327.65c3.72,9.66-2.35,17.44-13.84,16.57-13.51-1.02-26.79,.98-40.18,1.57-13.28,.59-24.93,5.26-36.05,12.4-12.3,7.9-18.44,6.63-26.24-5.53-3.22-5.02-6.57-5.4-11.34-3.44-5.83,2.38-11.77,4.5-17.65,6.77-10.11,3.9-20.35,7.23-31.43,5.87-5.71-.7-9.97,1.53-12.37,7-9.18,20.95-25.15,28.36-46.64,24.65-8.6-1.48-17.27,.49-25.93-.93-4.32-.71-8.91,1-13,3-3.24,1.59-6.89,3.45-7.12,7.61-.26,4.72,4.07,5.8,7.27,7,35.08,13.15,70.72,24.21,107.71,30.29,12.65,2.08,25.3,4.01,38.08,4.87,4.35,.29,8.17,1.69,11.67,4.22,7.22,0,14.44,0,21.66,0,2.89-1.65,5.7-3.67,9.29-2.23,3.96,3.84,8.47,4.74,13.92,4,12.16-1.65,24.28-3.45,36.36-5.63,6.84-1.23,10.04,1.53,10.58,8.72,.96,12.82-2.57,16.99-14.95,16.42-33.53-1.54-67.1-.28-100.63-1.76-5.09-.22-10.26-.4-15.19-1.2-17.43-2.82-33.17,1.37-48.36,9.89-8.21,4.61-17.1,7.17-26.7,7.06-10.33-.12-12.77,2.58-12.85,12.96-.11,13.52,.53,27.08-1.8,40.5-1.89,10.87-5.37,13.11-15.32,9.82-14.63-4.84-28.27,4.63-29.82,20.39-1.21,12.38-.38,24.57,2.71,36.53,3.04,11.76,8.2,15.53,20.02,15.58,13.49,.05,26.99-.05,40.48,.05,2.72,.02,5.94,.15,6.07,3.83,.11,2.89-2.59,4.24-5.02,4.22-16.8-.12-27.92,9.34-36.92,22.58-.32,.47-.97,.69-1.5,1.02-25.3,3.29-50.7,3.58-76.13,2.86-4.32-.12-8.13-1.9-11.79-4.08Z"/>
      <path class="cls-24" d="M237.99,859.82c29.51,16.5,58.43,19.13,86.4-3.63,8.11-6.6,18.51-8.65,27.25-14.04,3.3-2.04,8.1-3.87,7.39-8.26-.87-5.39-6.25-3.52-9.82-3.54-28.48-.14-56.96,.03-85.44-.2-4.13-.03-11.01,2.75-10.91-5.33,.08-6.6,3.89-12.26,10.8-12.75,24.67-1.75,48.33-8.51,72.19-14.35,18.16-4.45,35.18-12.11,52.3-19.54,8.92-3.87,14.61-11.05,14.78-20.35,.26-14.64,4.63-29.27,.67-43.95,1.23-1.38,2.78-1.73,4.52-1.48,5.09,2.23,10.48,2.35,15.89,2.35,24.28-.01,48.55-.01,72.83,0,2.69,0,5.43-.26,8.07,.38,6.16,1.51,8.13,5.44,6.11,11.72-3.24,10.1-9.49,17.74-19.8,19.32-11.29,1.73-17.13,9.22-22.17,18.11-5.6,9.89-8.59,20.97-12.32,31.66-2.26,6.47,.48,10.69,6.58,11.01,10.2,.53,19.11,4.78,28.02,9.19,4.05,2,7.82,4.62,11.92,6.46,8.45,3.78,16.8,6.16,26.67,5.34,17.87-1.49,35.93-.43,53.91-.43,44.06-.01,88.14-1.08,132.16,.23,84.77,2.51,169.54,1.04,254.3,1.7,10.87,.08,21.22,.18,26.74-11.97,.75-1.66,2.62-2.46,4.52-2.68,5.08-.39,10.17-.33,15.25-.19,48.43,1.27,96.8-3.02,145.22-1.78,6.96,.18,12.46-3.92,18.92-4.84,16.64-.8,33.29-.43,49.93-.29,3.23,.03,6.59-.13,9.46,1.97,3.18,4.74,4.85,9.56,.61,14.63-3.93,2.11-8.2,1.33-12.34,1.33-45.48,.06-90.96-.02-136.44,.12-4.82,.02-10.46-1.6-13.57,4.36-2.49,5.04,.92,9.59,1.15,14.39,1.66,13.08,.55,14.42-12.34,14.42-72.88,.02-145.76,0-218.64,0-66.85,0-133.7,.23-200.54-.21-12.16-.08-23.28,2.33-33.52,8.34-12.39,7.28-24.22,8.64-37.5,2.01-12.83-6.41-27.28-7.21-41.29-8.01-17.26-.99-33.77-4.08-49.66-11.3-13.26-6.02-21.52-1.97-25.25,12.31-4.3,16.48-5.32,33.31-3.49,50.35,1.74,16.18,2.71,32.43,4.51,48.61,.4,3.6,.57,7.41-1.21,10.88-2.06,2.96-4.94,4.46-8.41,4.5-30.13,.4-60.13,3.69-90.27,3.9-5.99-.93-11.94,.5-17.94,.3-80.88-2.68-161.8-1.21-242.69-2.26-19.21-.25-38.2,.84-57.28,2.16-5.04,.35-9.03,3.01-13.52,4.5-7.13-1.91-14.37-3.09-21.79-2.86-3.47,.11-6.33-1.24-8.55-4v-35.12c2.69-4.21,6.48-5.97,11.39-5.97,46.72-.02,93.45-.79,140.15,.42,23.89-1.06,47.8-.18,71.7-.61,4.76-.09,11.12,1.55,12.07-6.05,.85-6.88-1.2-12.73-8.18-15.7-5.67-2.42-11.46-3.45-17.52-2.28-8.9,1.71-17.88,1.29-26.82,.8-8.71-.48-15.87-4.48-18.83-13.17-4.56-13.39-7.62-27.09-.36-40.74,1.71-1.42,3.75-1.92,5.85-1.88,19.01,.31,37.88-2.95,56.9-2.16,4.19,.17,8.39,.25,11.28,4.14Z"/>
      <path class="cls-58" d="M853.66,972.3c47.35,.18,94.74-.71,142.05,.8,66.82,2.13,133.64-.44,200.41,1.69,32.65,1.04,65.3,2.07,97.89,1.03,26.95-.86,53.88-1.22,80.83-1.42,16.31-.12,18.56,1.64,23.26,17.98,1.27,4.4,1.96,8.97,2.91,13.46-3.72,2.57-7.06,.45-10.08-1.3-21.19-12.33-44.38-12.58-67.45-10.55-16.51,1.45-32.94,.74-49.4,1.28-5.39,.18-10.87-.55-16.16,.62-6.9,1.53-12.45-.17-16.82-5.81-3.77-4.86-6.15-3.93-7.8,1.69-.87,2.96-1.03,6.11-2.16,8.95-2.62,6.6-7.53,11.15-14.42,10.47-13.7-1.35-27.53,2.56-40.63-1.73,40.88,6.89,82.41,11.14,124.31,10.68,6.58-.07,13.13,.01,19.72-1.09,8.39-1.4,14.42,2.81,15.95,11.11,2.8,15.22,6.6,30.02,14.37,43.48,1.13,1.97,1.22,4.09,.09,6.16h-286.24c-.16-6.08,4.88-6.24,8.55-7.54,6.71-2.38,13.97-3,20.43-7.37-63.37-1.21-126.7-1.2-190.11-.47,2.62,2.45,5.94,1.82,8.91,2.53,8.02,1.91,10.8,5.51,10,12.86h-264.64c-.07-5.26,3.96-5.34,7.37-6.01,21.45-4.21,43.08-6.05,64.94-5.7,6.28,.1,14.61,3.16,18.38-3.32,3.86-6.63-4.48-10.96-7.04-16.49-2.05-4.42-4.7-8.57-6.12-13.27-1.36-4.51-2.01-9.08,2.14-12.72,6.18-3.41,12.92-2.15,19.41-2.15,111.27-.1,222.55-.07,333.82-.08,3.6,0,7.2,.18,10.78-.32,1.54-.21,3.14-.77,3.35-2.51,.21-1.68-1.1-2.74-2.48-3.49-1.34-.73-2.79-1.12-4.28-1.34-2.08-.3-4.19-.41-6.28-.37-57.87,1.17-115.71-3.82-173.54-1.6-31.48,1.21-62.92,1.13-94.39,1.56-24.93,.34-49.61-2.8-74.39-4.83-26.6-2.17-53.09-4.99-79.51-8.57-4.02-1.04-7.72-3.88-12.21-2.2-3.67,.84-7.35,.5-11.03,.17-5.46-2.54-11.07-3.6-16.97-1.75-5.17,.13-10.57,1.38-14.74-3.24-4.43-12.09,1.24-21.72,13.47-22.93,.6-.06,1.2-.12,1.79-.12,67.44-.18,134.89-.82,202.33,.41,4.54,.08,8.89-1.42,13.41-.9,3.28,.19,5.72,2.05,8,4.24Z"/>
      <path class="cls-11" d="M1752.04,941.16c-33.89,0-67.78,.02-101.67,0-2.69,0-5.41-.01-8.06-.39-.96-.14-2.25-1.2-2.53-2.13-.38-1.23,.73-2.15,1.98-2.57,16.02-5.37,28.84-17.54,45.08-22.42,4.58-1.38,9.34-3.92,13.84-3.56,27.39,2.16,49.05-11.46,70.55-25.84,1.26-.84,2.41-1.92,3.76-2.52,17.89-7.85,18.2-23.42,16.2-39.66-1.33-10.83-4.83-13.61-15.52-13.63-38.09-.06-76.18-.02-114.27-.03-13.56,0-15.71-2.67-13.38-16.44,2.42-14.31,5.31-16.98,19.69-16.76,14.95,.22,29.91-1,44.85,1.63,20.65,3.63,34.76-9.8,50.07-20.68,11.97-8.5,18.23-19.49,20.44-33.97,1.1-7.19,2.59-14.53,5.96-21.21,2.78-5.52,6.45-6.65,10.4-1.77,10.57,13.04,23.43,13.17,37.5,7.74,3.93-1.51,7.94-2.82,11.79-4.52,12.41-5.47,24.31-7.12,36.94,.53,10.15,6.15,21.76,8.64,33.79,7.49v101.67c-3.46,11.42-5.9,23.14-9.97,34.38-2.98,8.22-6.44,14.96-15.03,19.31-9.83,4.98-18.4,12.58-27.85,18.58-16.35,10.39-33.73,14.28-52.49,9.6-16.5-4.12-32.83-.57-49.19,.44-7.37,.45-7.93,7.36-8.67,13.21-.61,4.8,.31,10.03-4.2,13.54Z"/>
      <path class="cls-40" d="M1593.55,144.51c6.91-2.67,9.34-8.09,9.05-15.3-.35-8.94,.03-17.83,2.09-26.59,1.44-6.12,4.73-8.43,11.11-7.57,45.67,6.16,85.87-6.43,120.84-37.27,10.03-8.85,19.53-18.06,27.87-28.63,5.94-7.52,5.55-10.45-3.57-13.74-9.64-3.47-19.38-3.08-29.12,.04-11.4,3.65-22.36,8.93-34.72,8.96-6.46,.02-12.29-1.22-18.14-4.19-17.22-8.76-33.79-6.59-49.09,4.91-7.47,5.61-14.38,12.02-21.43,18.2-2.96,2.6-5.55,6.19-10.06,4.15-4.26-1.93-6.34-6-6.34-10.44-.01-12.26-1.74-24.63,1.55-36.75C1698.61,.27,1803.62,.43,1908.64,0c9.24-.04,12.81,1.88,10.84,11.37-.25,1.18-.03,2.46-.03,3.69-3.19,4.29-7.8,4.44-12.29,3.88-24.52-3.09-49.13-.97-73.69-1.47-12.85-.26-25.72-.25-38.68,.99,8.35,4.81,17.5,5.26,26.71,5.44,12.42,.24,21.68,6.07,28.15,16.8,.8,1.33,1.15,2.83,1.21,4.4-.1,4.18-3.05,6.4-5.7,8.92-5.28,5.01-10.18,10.43-15.37,15.53-12.88,12.66-25.51,10.87-34.6-4.85-1.84-3.18-2.98-6.72-4.61-9.99-2.62-5.28-6.1-5.6-8.29-.48-6.54,15.3-7.62,31.47-5.71,47.89,.37,3.21,3.29,5.04,5.33,7.24,8.04,8.67,7.4,19.59,7.44,30.29,0,1.79-1.25,3.42-2.64,4.7-11.44,4.41-23.63,2.09-35.38,4.09-5.56,.95-11.37,.08-17.06,.28-8.92,.32-9.49,1.18-7.57,10.55,.02,1.12-.23,2.16-.68,3.17-10.72,11.88-24.85,16.27-39.68,19.4-19.85,4.19-39.3-.4-58.84-2.51-9.21-1-18.45-1.62-27.62-3.13-6.29-1.04-10-4.25-9.99-10.79,.01-7.13-2.6-14.87,3.67-20.89Z"/>
      <path class="cls-21" d="M76.07,78c-10.44,.74-11.7,7.58-11.07,16.5,.56,7.96-.16,16.01,2.29,23.78,2.26,7.15,6.15,10.82,14.12,8.65,21.52-5.86,42.76-2.67,63.89,2.72,23.34,5.96,46.79,10.59,70.94,5.59,1.47-.3,2.89-.8,4.34-1.19,6.19-1.63,12.25-7.33,18.76-2.95,8.16,5.5,13.32,13.99,17.66,22.88,1.66,3.4,.82,5.63-3.07,5.22-12.57-1.32-25,2.58-37.56,.94-8.69-1.13-9.96,5.34-10.6,11.55-1.53,14.78,.44,28.83,9.4,41.24,1.84,2.54,4.75,5.63,2.7,9.1-1.78,3-5.46,1.68-8.36,1.9-8.31,.65-15.31-3.28-21.55-7.9-13.69-10.14-28.4-10.18-43.79-6.31-5.45,1.37-8.92,5.24-10.22,10.65-1.65,6.84-2.86,13.81-3.95,20.77-.77,4.93-2.11,9.62-4.44,13.97-2.32,4.33-5.18,6.33-10.19,3.27-18.81-11.51-39.06-18.89-61.11-18.96-11.59-.04-23.26,1.11-34.64,4.07-6.38,1.66-12.84,3-19.26,4.48,0-18.49,0-36.97,0-55.46,9.31-9.07,17.35-18.63,22.86-31.16,5.64-12.82,7.6-25.39,7.45-39.05-.14-11.88-1.57-23.91,1.63-35.66,3.31-12.16,8.61-15.23,20.48-11.6,3.31,1.01,6.27,.81,9.59-.04,4.84-1.24,10.1-2.59,13.7,2.98Z"/>
      <path class="cls-3" d="M1515.9,1007.15q-.04-18.06-17.63-18.06c-14.69,0-29.38-.06-44.07,.03-4.62,.03-8.19-.28-8.17-6.69,.02-6.6,3.96-6.44,8.37-6.44,62.95,.03,125.9,.03,188.85,.04,2.1,0,4.38,.59,6.27-.05,25.55-8.64,51.68-3.96,77.62-3.8,50.34,.32,100.67,.5,151.01,.57,13.79,.02,27.54,.41,41.28,1.7v49.91c-4.89,5.94-11.73,4.74-17.61,3.77-15.75-2.61-31.64-1.71-47.43-2.79-51.51-3.54-102.22-11.31-152-25.35-2.31-.65-4.72-.95-6.96-1.8-11.3-4.27-22.05-6.54-29.51,6.86-.86,1.54-2.98,1.95-4.82,2.08-3.24-.33-5.89-2.17-7.08-5-3.37-7.99-9.66-9.18-17.03-8.76-5.08,.28-10.19-.2-15.27,.33-2.56,.27-4.83,1.28-5.05,4.27-.27,3.52,2.08,4.9,5.03,5.25,5.37,.64,10.78,.16,16.17,.42,4.16,.2,8.53-.18,11.5,3.86,2.42,4.56,2.5,9.25,.82,14.05-5.68,6.68-10.21,14.35-16.44,20.61-5.86,1.72-11.88,1.22-17.84,1.23-50.88,.06-101.75,0-152.63,.06-8.35,0-16.75-.56-24.95,2.02-4.02,1.26-7.71-.13-10.8-2.93-5.21-4.71-8.99-23.08-6.25-29.6,2-4.76,6-4.29,9.91-4.29,25.44,.01,50.88,.06,76.32-.06,2.8-.01,6,1.37,8.41-1.43Z"/>
      <path class="cls-25" d="M1724.95,159.32c-6.21-1.48-5.72-6.4-4.92-10.98,.81-4.64,4.84-3.73,7.99-3.84,19.39-.68,38.79-1.28,58.19-1.91,4.59-2.23,7.41,1,10.06,3.79,4.67,4.92,10.21,8.32,16.09,11.47,8.42,4.52,15.54,2.56,22.19-3.46,6.44-5.82,10-13.64,13.89-21.24,7.03-13.75,13.55-15.07,25.32-5.28,1.39,1.16,2.73,2.37,4.21,3.43,13.86,9.93,20.73,8.69,30.64-5.31,2.66-3.75,4.55-9.08,10.83-7.4v122c-1.97,2.24-3.47,5.14-6.86,5.47-19.15,1.86-37.49,6.87-55.18,14.56-1.05,.46-2.36,.21-3.54,.48-8.63,2.46-17.15,.07-25.69-.67-2.75-.24-4.86-2.46-6.07-5.03-3.57-7.59-9.94-8.73-17.26-8.72-41.84,.05-83.68,.06-125.53,.02-9.86,0-19.73,.19-29.58-.28-11.1-1.58-22.14-3.84-33.43-3.29-5.94-1.54-6.55-6.22-4.87-10.83,2.26-6.21,6.21-12.24,13.57-11.2,8.92,1.25,17.76,1.12,26.65,1,18.23-.26,36.48,.71,54.7-.86,21.61-1.86,41.33-8.98,59.19-21.54,4.95-3.48,4.71-7.17,.49-11.27-10.83-10.53-20.98-22.07-36.8-24.74-2.42-.41-3.22-2.52-4.28-4.34Z"/>
      <path class="cls-10" d="M362.1,976.41c29.22-1.3,58.43-2.55,87.64-3.95,3.25-.16,6.46-1.13,9.69-1.73,1.22-1.15,2.51-2.21,4.17-2.63,4.32-1.64,8.87-1.93,13.31-1.35,23.57,3.07,47.24,1.14,70.86,1.6,7.24,.14,14.35,1.16,21.37,2.53,9.67,1.89,14.44,14.73,7.41,21.35-5.49,5.18-8.64,11.56-12.77,17.47-2.26,1.88-5.02,2.09-7.69,2.02-26.05-.67-52.05,2.06-78.1,1.4-50-5.45-97.42,9.17-145.35,19.77-28.18,6.23-56.56,9.63-85.45,10.87-71.34,3.05-142.67,.73-213.99,1.17-9.44,.06-18.51-1.51-25.19,7.28-7.19,2.49-4.98-5.15-7.66-7.51v-20.33c6.45-6.75,15.26-3.7,22.88-5.62,5.14-1.29,10.69-.53,16.04,.1,31.97-.02,63.92,2.57,95.83,2.68,51.78,.17,103.46-2.98,153.27-19.94,11.69-3.98,23.71-6.24,35.97-7.44,10.31-1.01,19.94-4.09,28.03-11.13,2.98-2.6,6.37-4.58,9.72-6.6Z"/>
      <path class="cls-22" d="M237.99,859.82c-24.59,.63-49.19,1.27-73.78,1.9-4.01,4.89-9.29,4.07-14.53,3.44-7.56-3.76-15.68-2.13-23.59-2.55-6.76-.35-13.6,.91-20.29-.92-2.4-1.48-2.99-3.85-2.38-6.38,1.27-5.31,.03-10.39-.97-15.5-2.24-11.49-5.18-13.69-16.38-13.07-24.68,1.35-49.08,1-71.76-11.39-5.32-2.91-10.79-5.3-13.96-10.95v-51.76c8.82-6.37,9.77-16.8,11.42-26.16,1.6-9.1,5.63-11.19,13.89-11.04,26.04,.46,52.1,.08,78.15,.29,3.03,.02,8.31-2.34,8.53,3.42,.16,4.43-1.27,10-6.6,10.82-11.47,1.76-13.19,10.08-13.51,19.49-.26,7.37,.07,14.76-.1,22.13-.2,9.06,1.74,16.42,9.79,22.2,5.7,4.1,9.55,10.87,14.39,16.29,14.52,16.24,33,21.25,53.64,19.1,19.35-2.02,38.67-1.71,58.02-.69,5.25,.28,6.98,4,7.99,8.47,1.7,7.52,2.46,15.13,2.01,22.86Z"/>
      <path class="cls-1" d="M1350.56,1079.82c-11.25-12.98-14.93-29.15-17.89-45.52-2.01-11.12-3.2-11.38-14.04-10.71-16.42,1.02-33.02,1.66-49.39,.38-20.24-1.59-40.66-1.24-60.72-5.16-14.25-2.79-28.69-4.74-42.34-10.62,16.76,1.35,33.28-3.09,49.99-.98,6.38,.8,10.12-3.11,11.56-9.2,1.06-4.47,1.61-9.07,2.51-13.58,.56-2.81,1.64-5.36,4.8-6,3.2-.65,4.99,1.01,6.21,3.91,3.59,8.53,9.3,12.6,18.52,8.86,.53-.21,1.19-.12,1.79-.09,27.86,1.14,55.65-1.17,83.48-1.93,20.46-.56,39.03,5.09,55.99,16.66,1.14,.7,2.29,1.4,3.43,2.1,3.31,2.74,2.84,6.43,2.53,10.16-.56,6.73-2.09,13.33-1.86,20.17,.4,11.89,2.97,14.59,14.35,15.07,8.43,.35,16.63-1.86,25.05-1.84,41.62,.09,83.24-.06,124.86,.15,6.58,.03,14.79-2.03,17.96,6.64,3.06,8.34-.08,15.64-6.35,21.53h-230.43Z"/>
      <path class="cls-15" d="M1919.44,118.58c-4.53,3.33-6.53,8.67-9.67,13.08-8.13,11.43-17.7,13.7-29.41,6.31-4.04-2.54-7.57-5.92-11.36-8.9-8.32-6.54-10.85-5.98-15.71,3.38-2.67,5.13-4.98,10.51-8.13,15.31-15.12,23.05-28.8,20.22-47.1,5.96-4.25-3.31-7.92-7.41-11.85-11.15-1.34-12.52,.98-26.37-12.17-34.57-1.9-1.18-2.09-3.63-2.15-5.83-.48-16.34-.37-32.63,5.62-48.16,1.77-4.59,3.66-10.06,9.2-10.08,5.36-.02,6.51,5.68,8.13,9.87,1.88,4.88,3.74,9.69,7.29,13.64,7.86,8.76,14.4,8.98,23.07,.97,7.97-7.36,14.02-16.96,24.04-21.96,3.4-4.58,7.66-3.53,12.07-2.06,7.12,2.36,13.4,6.51,19.87,10.13,9.48,5.31,18.48,5.89,27.69-.27,3.84-2.57,7.66-3.67,10.56,1.47v62.85Z"/>
      <path class="cls-34" d="M1854.59,257.29c20.5-10.14,42.58-13.82,64.85-16.7v146.03c-11-.4-21.9,.72-32.81,1.97-5.08,.59-9.97,2.72-11.64,7.26-2.79,7.59-7.99,7.82-14.21,7.48-4.44-.24-8.91-.05-13.36-.05-16.84-13.6-19.62-35.48-7.25-56.78,.54-2.1,2.14-3.62,2.94-5.6,2.87-7.04,.82-9.6-7.06-8.7-4.33,2.82-8.82,5.32-13.31,7.75-9.49,5.15-18.92,2.81-25.59-5.91-5.19-6.79-3.98-14.83,2.66-23.49,6.34-8.27,14.44-10.49,23.99-8.81,3.57,.63,7.09,1.31,10.71,.86,6.59-.82,10.98-4.12,12.75-11.08,1.47-5.77,1.75-11.59,1.51-17.41-.27-6.53,1.41-12.11,5.83-16.81Z"/>
      <path class="cls-65" d="M355.02,1079.82c-115.83,0-231.66-.07-347.49,.18-6.19,.01-8.5-1.3-7.17-7.57,3.39-4.55,8.36-4.17,13.07-4.18,20.5-.05,41.01-.55,61.49,.53,34.61-4.12,69.27-2.85,103.95-1.12,17.03,.85,34.08,1.12,51.14-.43,16.37-1.49,32.83-1.65,49.19-3.82,29.63-3.93,57.95-12.52,85.5-24.09,16.02-6.73,32.67-9.5,49.91-10.01,27.33-.81,54.37,2.23,81.45,5.15,7.73,.84,15.55,.42,23.29,1.19,13.3-1.43,26.66-.28,39.99-.7,10.5-.33,12.5-3.07,10.04-13.61-1.15-4.91-3.92-9.8-.47-14.89,10.42-5.24,21.43-5.48,32.64-4,6.54,5.75,4.89,14.74,8.15,21.78,2.63,8.38,.18,16.58-1.65,24.52-1.56,6.76-6.76,11.03-13.95,10.88-19.05-.4-36.27,6.72-53.98,12.58-22.36,7.4-45.15,8.99-67.51-1.1-13.65-6.16-28.25-7.84-42.88-9.25-7.29-.7-12.47,1.56-13.04,10.04-.22,3.29-1.69,5.83-4.06,7.93h-28.8c-4.13-3.09-5.07-8.14-7.33-12.39-3.75-7.04-7.74-7.16-11.52-.23-2.65,4.85-5.09,9.69-9.95,12.62Z"/>
      <path class="cls-12" d="M1581.05,503.11c42.29-.02,84.59,0,126.88-.12,3.85-.01,8.64,1.58,9.89-4.97,1.25-6.56,.89-10.51-7.41-9.89-9.25,.69-18.59-.05-27.88,.21-5.75,.16-8.16-2.12-8-8.11,.28-10.23-2.32-20.97,10.21-26.78,12.8-5.93,24.89-5.82,36.92,1.19,8.57,4.99,16.03,11.74,25.33,15.71,11.14,4.76,21.74,2.26,32.49-.61,13.99-3.73,27.41-.89,40.47,4.02,9.83,3.7,19.76,7.54,28.9,12.71,22.34,12.63,45.32,19.02,70.58,11.05v22.18c-35.42-2.29-70.83-1.31-106.25,.03-2.43,4.11-6.52,4.04-10.37,4.06-46.46,.26-92.93,1.07-139.36-.33-22.46-.68-44.82-1.84-67.27-.08-12.87,1.01-20.12-9.16-15.14-20.29Z"/>
      <path class="cls-28" d="M149.79,861.69c4.81,0,9.62,.02,14.43,.03,.05,10.43-.6,20.87,1.8,31.2,2.58,11.13,8.27,16.54,19.33,16.74,8.35,.15,16.71,.59,25.04-1.36,5.57-1.3,11.29-.4,16.77,1.71,10.97,4.22,16.26,13.72,13.95,25.29-1.13,5.65-5.24,5.89-9.66,5.88-26.06-.06-52.12-.08-78.19-.12-5.04-4.5-4.43-11.11-5.88-16.92-1.18-4.72-2.81-9.63-8.12-9.63-20.76-.02-41.63-5.99-62.29,.6-14.54,4.64-28.88,9.97-43.99,12.45-7.35,1.21-14.71,2.47-22.18,2.74-4.02,.15-7.77-.36-10.46-3.92v-68.4c5.26-5.21,11.4-2.45,17-1.47,15.69,2.74,31.46,3.91,47.22,2.16,9.85-1.09,19.63-1.12,29.46-1.12,3.58,0,7.21,.09,10.15,2.71,11.5,3.06,23.21,.7,34.81,1.39,3.58,.21,7.19,.03,10.78,.03Z"/>
      <path class="cls-55" d="M412.62,1079.82c.06-22.97,1.61-24.67,23.06-21.93,14.21,1.82,28.6,3.52,41.55,10.51,21.31,11.5,42.37,7.05,63.27-.8,17.18-6.45,34.21-13.04,52.99-11.87,7.04,.44,10.45-4.02,11.44-10.43,1.07-6.94,1.49-13.99,2.2-20.99,1.34-2.34,3.74-2.62,5.96-3.24,18.97-2.07,38.01-.39,57.01-1.05,11.22,2.98,22.67,.96,33.99,1.6,10.41,.59,20.93-1.45,31.26,1.26,.41,.42,.82,.84,1.22,1.25,1.21,11.82,7.46,21.16,14.01,30.41,2.59,3.66,6.78,7.78,4.72,12.21-2.33,5-8.13,5.8-13.39,5.61-26.09-.93-51.98,.92-77.7,5.48-2.35,.42-4.81,.21-6.75,1.99h-244.83Z"/>
      <path class="cls-60" d="M1634.93,1039.27c.42-8.68,4.17-14.69,12.76-16.83,2.67-3.63,6.52-3.89,10.48-4.01,10.99-.33,21.51,2.24,31.29,6.9,17.67,8.41,36.49,9.28,55.27,9.42,52.95,.41,105.9,.07,158.86,.22,5.52,.02,11.57-1.22,15.84,4.18,0,12.02-.21,24.04,.12,36.04,.11,3.99-.75,4.78-4.62,4.74-26.7-.22-53.41-.12-80.11-.12-11.4-1.53-22.8-1.53-34.2,0h-9c-39.73-3.38-78.75-12.16-118.37-16.41-7.08-.76-14.24-1.14-21.22-2.79-2.78-1.05-5.53-2.16-7.43-4.68-2.34-6.08-8.06-10.12-9.66-16.67Z"/>
      <path class="cls-21" d="M265,.27c-42.56,38.89-89.71,69.12-146.53,80.42-13.55,2.69-27.35,1.47-40.71-2.8-8.81-8.72-6.87-20.13-7.39-30.94,1.18-3.91,4.41-5.53,7.62-7.24,20.95-11.14,42.35-21.22,64.32-30.11,12.9-5.22,26.52-6.52,39.87-9.34h82.81Z"/>
      <path class="cls-46" d="M1752.04,941.16c.13-8.24-.92-16.56,2.2-24.57,1.76-4.52,4.47-6.81,9.39-6.87,19.59-.26,38.98-3.48,58.77,1.32,18.35,4.44,34.12-5.31,49.47-14.79,9.37-5.79,16.63-15.11,27.98-17.59,2.14-.47,1.6-3.02,2.18-4.65,4.02-11.23,8.04-22.45,12.02-33.69,1.14-3.21,2.28-6.36,5.38-8.2v110.91c-55.81,.54-111.61-.4-167.4-1.86Z"/>
      <path class="cls-14" d="M.37,421.74c2.64-.51,5.28-1.02,7.93-1.52,6.51-1.23,10.57,1.44,11.59,8.17,1.43,9.39,2.65,18.82,3.83,28.24,1.04,8.3,3.44,16.23,6.38,23.97,2.67,7,7.69,9.94,14.13,5.32,6.66-4.78,14.86-6.15,21.27-11.47,4.82-3.99,6.92,1.84,8.96,4.48,6.14,7.92,11.84,15.96,19.92,22.29,14.28,11.18,30.03,13.06,46.81,9.93,9.72-1.81,19.23-4.64,28.31-8.84,23.07-10.67,46.01-11.84,69.3-.1,10.95,5.52,22.61,9.55,33.93,15.65H.37c0-32.04,0-64.08,0-96.12Z"/>
      <path class="cls-4" d="M1919.44,1039.15c-60.54,0-121.09,.33-181.63-.26-16.6-.16-33.37-1.17-49.05-9.01-12.79-6.39-26.77-8.51-41.07-7.44-.05-4.86-.1-9.72-.15-14.59,3.47-6.15,8.38-2.71,12.88-2.04,.25-.18,.61-.29,.72-.53,7.75-17.01,19.69-16.89,35.45-11.72,35.33,11.59,71.87,18.31,108.65,22.87,26.61,3.3,53.35,6.15,80.25,6.11,11.35-.02,22.55,2.85,33.95,1.83v14.79Z"/>
      <path class="cls-7" d="M72.3,46.65c3.48,10.11,3.26,20.91,5.46,31.25-.57,.05-1.13,.08-1.7,.1-5.05-.06-10.09-.64-14.78,2.37-3.52,2.27-6.86,.16-10.16-1.35-8.41-3.85-11.84-2.3-14.41,6.73-1.34,4.7-2.28,9.48-2.2,14.48,.17,11.35,.36,22.71-.02,34.05-.69,20.46-9.62,37.41-22.34,52.53-3.03,3.61-6.98,5.72-11.8,5.71V46.49c3.83-4.64,9.23-5.38,14.56-5.79,17-1.32,33.84,2.13,50.81,2.01,2.8-.02,5.25,1.09,6.56,3.94Z"/>
      <path class="cls-30" d="M72.3,46.65c-23.98,1.01-47.95-4.36-71.94-.16C.37,33.24,.7,19.98,.21,6.75,0,1.2,1.3,.09,6.67,.12c58.51,.25,117.02,.16,175.52,.16-16.28,5.92-32.54,11.86-48.83,17.75-21.19,7.66-40.38,19.81-61.06,28.63Z"/>
      <path class="cls-57" d="M1634.93,1039.27c7.43,1.91,10.72,7.13,11.1,14.66,.15,4.1-2.74,4.95-5.75,5.55-2.04,.41-4.14,.38-6.22,.45q-15.69,.5-21.01,15.59c-.63,1.79-2.07,2.95-3.25,4.3h-28.8c-.55-5.15,2.44-9.43,3.29-14.23,1.08-6.15-.19-9.91-7.6-9.88-45.49,.2-90.98-.08-136.46,.29-8.6,.07-17.19,2-25.9,1.65-10.01-.4-12.89-3.62-13.44-14.09-.64-12.11,1.97-23.79,3.58-35.61,37.15-.26,74.3-.52,111.45-.79-2.76,3.44-6.6,2.32-10.06,2.33-23.64,.09-47.28,.02-70.93,.06-10.23,.02-11.39,1.27-10.41,11.76,.34,3.64,1.21,7.26,2.15,10.81,2.61,9.91,4.46,10.79,14.45,7.96,2.55-.72,5.31-.89,7.97-.89,61.95,0,123.89,.05,185.84,.09Z"/>
      <path class="cls-37" d="M.37,290.49c44.97,.02,89.94,.05,134.91,.04,19,0,20.32,1.29,21.78,21.35,.24,3.35,1.08,6.65,1.64,9.98-50.94,1.73-101.89,2.19-152.85,2-1.41,1.95-2.82,3.92-5.49,1.75v-35.12Z"/>
      <path class="cls-31" d="M104.77,861.68c-16.76-.71-33.44,.83-50.13,1.86-18.38,1.13-36.31-2.38-54.28-5.55v-53.61c14.92,5.2,28.34,14.42,44.25,16.98,14.85,2.39,29.71,2.32,44.5,.25,5.44-.76,9.24,.62,12.64,4.66,6.26,7.44,7.89,24.9,3.04,33.6,.45,.41,.59,.81,.44,1.21-.15,.4-.31,.6-.46,.6Z"/>
      <path class="cls-44" d="M475.61,122.2c-39.53-.59-77.68-9.49-115.39-20.69-17.25-5.12-34.27-11.02-50.98-17.86-6.3-2.58-7.09-5.44-3.15-10.81,4.4-5.99,9.58-9.88,17.27-9.75,14.87,.24,29.64-2.61,44.66-.17,14.66,2.38,23.89-7.43,29.8-19.21,4.57-9.11,7.87-14.77,19.85-12.58,11.16,2.04,22.15-3.98,32.87-7.89,3.95-1.44,7.93-2.83,11.76-4.56,8.58-3.86,15.58-5.48,18.98,7.1,1.86,6.88,9.32,8.27,14.19,4.53,25.12-19.24,54.09-17.12,82.79-17.12,8.35,0,13.71-3.76,14.4-12.9h14.4c2.81,3.66,6.64,4.85,10.99,4.93,10.68,.2,21.35,.18,32.03,.02,4.37-.07,8.18-1.29,10.98-4.94h7.2c-.52,13.38-1.89,14.76-14.78,14.78-13.5,.02-26.99,.02-40.49,0-2.1,0-5.05,.73-6.15-.39-7.42-7.55-11.53-1.55-16.29,3.48-2.33,2.46-6.41,4.67-8.93,3.51-11.12-5.15-21.58,1.96-32.41,.9-16.72-1.63-31.79,3.23-46,12.43-13.38,8.67-16.54,8.17-26.87-3.77-4.69-5.42-8.36-7.01-15.16-3.77-8.91,4.26-18.6,6.78-27.88,10.27-3.58,1.35-6.97,1.36-10.54,.3-7.41-2.18-13.21,.27-16.52,7.31-8.93,19.02-23.52,26.42-43.81,24.88-9.75-.74-19.49,.99-29.24-2.62-5.64-2.09-11.28,2.3-15.29,6.12-3.93,3.73,1.06,4.81,3.5,5.9,15.16,6.78,31.2,10.91,46.91,16.01,27.48,8.92,55.95,13.03,84.28,17.8,2.6,.44,5.37-.21,8.05-.37,7-.42,12.34,2.02,14.96,9.15Z"/>
      <path class="cls-17" d="M1919.44,55.73c-3.1-1.79-5.45-.59-8.06,1.52-9.49,7.67-19.4,7.49-30.12,2.13-10.3-5.15-19.49-13.52-32.03-12.92-8.21-13.38-19.56-20-35.38-18.63-7.78,.68-15.27-2.73-22.95-3.94-4.57-.72-4.53-3.81-4.7-7.22-.25-4.98,3.49-3.38,5.7-3.39,35.07-.09,70.14-.23,105.2,.14,7.41,.08,14.8,2.17,22.33,1.63V55.73Z"/>
      <path class="cls-6" d="M.37,926.39c21.4-.07,42.24-3.84,62.3-11.28,18.4-6.81,36.91-9.19,56.29-5.74,6.68,1.19,13.72,.5,20.59,.36,6.07-.13,9.55,2.77,10.89,8.67,1.7,7.46,3.6,14.89,2.84,22.68-45.95,.09-91.9,.2-137.85,.26-5.09,0-10.14,.12-15.05,1.7v-16.64Z"/>
      <path class="cls-56" d="M922.1,1079.82c-1.79-7.05-7.73-7.85-13.24-9.06-2.61-.57-5.49,.04-8.03-.68-4.38-1.23-9.91-3.42-9.34-8.35,.47-4.1,6.17-2.13,9.49-2.14,63.6-.12,127.21-.09,190.81-.09,1.5,0,3-.05,4.5,.02,3.25,.16,7.11-.37,7.31,4.6,.18,4.4-3.16,5.48-6.47,6.35-9,2.36-18.03,4.65-27.01,7.07-1.99,.54-3.87,1.51-5.8,2.28h-142.22Z"/>
      <path class="cls-11" d="M1919.44,697.17c-5.97,0-11.94,.11-17.9-.04-10.38-.25-15.45-5.42-17.91-15.6-6.38-26.34,.86-48.18,19.59-66.57,5.38-5.28,10.81-10.51,16.22-15.76v97.97Z"/>
      <path class="cls-64" d="M1651.2,1057.43c38.32,1.72,75.87,9.28,113.5,16.09,9.06,1.64,18.41,2.1,26.92,6.3h-135.02c-6.13-2.95-7.64-9.08-9.23-14.88-.86-3.13-.98-6.92,3.83-7.51Z"/>
      <path class="cls-66" d="M39.96,1022.21c-13.2,.72-26.39,1.43-39.59,2.15,0-15.4,0-30.81,0-46.21,7.7-.01,15.42,.21,23.1-.13,4.59-.21,5.52,2.35,5.72,6.06,8.52,4.41,17.47,25.68,14.54,34.54-.63,1.89-2.12,2.84-3.77,3.59Z"/>
      <path class="cls-61" d="M75.8,1072.21c-25.15,.07-50.29,.14-75.44,.21v-27.73c3.51,.98,3.15,4.95,5.18,7.06,15.4,3.13,30.52-1.16,45.79-1.7,10.16-.36,18.37,4.06,23.97,13.03,1.83,2.94,3.3,5.91,.49,9.13Z"/>
      <path class="cls-5" d="M1651.2,1057.43c-2.87,8.65,4.82,14.62,5.4,22.39h-46.81c0-.31,0-.61,0-.92-.01-23.07-.01-23,22.25-23.16,4.69-.03,9.63,1.28,13.98-1.81,1.72,1.17,3.45,2.33,5.17,3.5Z"/>
      <path class="cls-13" d="M.37,325.62c1.83-.59,3.66-1.17,5.49-1.76-1.17,14.81,.76,27.99,14.62,36.89,5.64,3.62,7.27,11.18,5.66,17.33-1.64,6.25-8.2,8.67-14.14,9.95-3.74,.81-7.74,.33-11.62,.43,0-20.95,0-41.9,0-62.85Z"/>
      <path class="cls-18" d="M661.06,.27c.69,6.45-1.55,9.58-8.44,9.36-12.2-.39-24.42-.27-36.63-.05-6.48,.12-9.46-2.67-8.94-9.31h54.01Z"/>
      <path class="cls-59" d="M355.02,1079.82c1.64-6.63,4.79-12.62,8.4-18.21,4.66-7.2,8.66-7.09,13.93-.48,4.34,5.45,6.3,11.74,6.47,18.7h-28.8Z"/>
      <path class="cls-8" d="M1800.62,1079.82c11.4-2.99,22.8-3.07,34.2,0h-34.2Z"/>
      <path class="cls-49" d="M1240.74,811.86c-19.82,0-39.64,0-59.46-.01-17.33,3.5-34.86,1.04-52.28,1.78-43.44,1.57-86.91,.44-130.36,1.28-60.55,2.42-121.12,.71-181.69,.91-11.36,.04-15.31-4.93-13.51-16.26,1.39-8.8,3.39-17.51,9.23-24.69,8.17-10.03,6.52-21.89,5.58-33.56-.15-1.85-1.02-3.77-2.57-4.73-16.25-10.07-30.05-24.7-50.4-27.07-9.73-1.14-19.15,.15-28.64,1.28-35.47,4.23-71.07,5.14-106.73,5.52-32.96,.36-65.88,2.59-98.87,1.75-5.39-.14-10.81,.13-16.02-1.78-1.12-.36-2.08-.97-2.91-1.83-3.81-6.17-4.84-12.94-4.67-20.15,.22-9.49,.18-18.99,.04-28.48-.09-6.45,1.32-12.08,5.99-16.6,6.58,0,13.15-.01,19.73-.02,6.37,2.62,11.9,6.88,18.05,9.89,13.32,6.52,26.43,6.72,38.81-2.36,4.69-3.44,10.33-4.59,15.18-7.55,14.37,.84,28.91-2.22,43.14,1.88,2.39,2.28,4.9,4.35,6.08,7.77,2.56,7.41,7.26,7.83,13.43,4.23,4.92-2.87,10.23-6.3,14.77,.83h-.02c2.45,1.76,5.74,1.73,7.71,.64,8.98-4.97,15.45,.17,22.09,4.98,1.95,1.41,3.78,2.99,5.82,4.31,8.59,5.51,13.9,4.52,19.63-4.2,3.01-4.57,5.41-9.58,9.12-13.64,8.62-9.43,18.44-8.57,25.38,2.19,.99,1.53,1.76,3.22,2.72,4.77,2.05,3.35,4.73,3.61,5.5-.42,3.57-18.88,12.76-36.57,11.41-56.51-.37-5.43-.95-8.56-8.02-6.26-9.92,3.23-20.39,4.64-30.65,6.66-12.18,2.4-21.51-3.28-28.56-13.24-2-2.82-3.07-6.01-1.32-9.5,2.31-3.05,5.7-3.41,8.97-3.21,9.12,.55,13.64-4.64,16.27-12.76,3.41-10.49,6.55-21.09,11.83-30.85,3.38-6.23,7.27-12,12.46-16.79,8.67-7.98,19.12-8.61,27.43-.27,8.31,8.34,17.06,14.98,28.56,18.05,7.54,2.01,12.82,7.96,15.79,15.4,2.86,7.18,7.88,9.59,14.96,8.53,7.7-1.15,15.49-1.38,23.2-2.26,9.29-1.06,16.96-5.71,22.52-13.7,4.88-7.03,8.82-14.61,12.93-22.12,10.24-18.7,23.46-19.75,36.38-3.02,10.95,14.17,17.06,30.96,23.6,47.45,5.05,12.73,11.95,13.84,20.65,3.09,4.4-5.44,9.23-10.45,15.13-14.32,6.63-4.35,12.31-9.76,15.98-17.11,2.16-4.32,5.15-7.84,10.39-7.37,5.27,.47,7.52,4.65,9.03,9.14,2.56,7.59,3.73,15.49,4.18,23.47q.72,12.91,13.7,13.49c4.09,.18,8.6-.64,11.25,3.96,0,0-.04,.15-.04,.15-9.41,3.67-19.2,.9-28.78,1.76-15.6-1.52-31.21-1.52-46.81,0-8.4,0-16.8,0-25.2,0-3.09-1.74-6.44-.87-9.66-.87-42.08-.07-84.17-.05-126.25-.04-16.54,0-18.12,2-15.33,19.41,.51,12.11,1.2,12.6,12.24,12.98,28.9,1.01,57.07,6.61,84.72,15.01,15.52,4.71,31.08,9.32,46.11,15.6,9.62,4.02,18.85,2.22,27.6-2.78,15.44-8.82,30.79-17.49,48.54-21.05,14.18-2.84,26.96-.54,38.55,7.67,19.22,13.63,40.27,19.3,63.56,18.97,21.23-.3,42.49-1.24,63.75,1.45,17.61,2.23,32.13,9.14,43.05,23.65,13.69,18.2,34.43,18.21,47.51-.08,5.66-7.92,10.71-16.32,16.46-24.17,6.61-9.01,13.14-8.45,18.82,1.27,3.42,5.86,5.88,12.24,6.81,18.94,1.13,8.09,5.17,10.36,12.86,10.31,46.79-.31,93.58-.17,140.38-.12,3.81,0,7.87-.97,11.26,1.88-3.99,5.19-9.72,4.08-14.97,4.1-44.34,.15-88.67,.14-133.01,0-9.4-.03-18.32,1.17-27.22,4.62-22.05,8.54-45.41,10.79-68.57,13.78-13.04,1.68-26.06,3.38-39.35,6.49,34.31-.06,68.14-.14,101.96,.09,4.83,.03,10.45-1.52,13.83,4.14-2.49,25.83-6.95,51.04-22.1,72.8-5.62,8.07-13.45,10.78-22.79,8.95-4.1-.8-8.18-1.8-12.18-3.01-21.33-6.42-29.36-2.98-40.16,17.36-1.17,1.1-2.37,1.11-3.6,.09Z"/>
      <path class="cls-19" d="M853.66,972.3c-2.41,.02-4.83,.04-7.24,.06-14.7-1.76-17.66-5.46-16.23-20.27,.99-10.25,5.92-14.68,16.17-13.42,11.14,1.36,22-3.09,32.34-1.18-22.69-6.71-47.18-7.09-70.84-12.58-14.76-3.42-28.83-8.06-40.36-18.8-2.85-2.66-6.3-4.67-9.69-6.66-5.57-3.28-11.61-3.51-15.79,1.25-20.86,23.75-49.52,16.63-71.89-1.27-11.32-9.06-22.43-18.39-33.7-27.52-3.8-3.08-8.28-7.13-2.11-12.51,9.88-1.02,19.77-.42,29.64-.43,53.93-.08,107.87-.07,161.8,.03,4,0,8.54-1.5,11.71,2.69,78.3,0,156.61,.06,234.91-.06,6.48-.01,11.23,.45,13.48,8.37,1.81,6.4,7.05,9.57,14.3,7.59,3.41-.93,7.11-1.04,10.68-1.05,45.3-.06,90.6-.05,135.9-.03,9.52,0,14.73,4.01,16.9,12.83,1.89,7.69-2.62,17-9.98,20.62-8.35,4.1-16.5,18.16-15.83,27.04,.36,4.68,3.75,4.13,6.61,4.16,11.1,.1,22.23,.58,33.29-.09,11.48-.7,22.64,2.68,34.04,1.8,3.87-.3,4.71,1.89,4.5,5.06-.24,3.75,1.33,8.51-4.33,9.64-1.75,.35-3.58,.23-5.38,.28-80.34,2.42-160.7,1.78-241.05,1.85-23.4,.02-46.85,.93-70.19-.29-20.36-1.06-40.7-1.14-61.06-1.69-11.75-.32-23.29,1.64-34.95,1.99-6.93,.21-13.71-.44-20.48-2.21-13.52-3.53-19.76,.3-25.2,14.83Z"/>
      <path class="cls-47" d="M1581.05,503.11c2.75,14.98,5.89,16.31,20.42,15.35,19.06-1.25,38.24-1.56,57.35,.4,3.86,.4,7.74,.75,11.61,.76,47.59,.08,95.18,.09,142.76,.12,8.67,15.74,15.14,19.11,32.37,15.05,8.47-1.99,16.63-.29,24.92-.04,4.65,.14,7.86,3.34,8.9,7.88,2.51,10.88,3.21,21.88-.09,32.77-1.51,4.99-4.14,9.59-9.98,8.7-13.75-2.09-27.39,.5-41.07,.6-26.66,.18-53.23-1.72-79.84-2.16-33.12-.55-64.4,9.52-96.06,17.32-17.76,4.38-35.55,8.29-53.68,10.78-14.39,1.97-27.72,7.04-39.28,16.74-9.08,7.62-14.12,6.38-20.23-3.94-4.41-7.44-6.05-16-8.64-24.17,4.48-.03,8.95-.25,13.37,1.01,6.22,1.77,11.9-.12,14.77-5.79,10.16-20.12,17.21-41.1,14.05-64.39-1.12-8.27-5.04-12.9-13.67-12.27-2.71,.2-5.34-.27-7.73-1.87-3.55-2.37-8.08-4.79-7.11-9.62,1.1-5.49,6.42-3.04,9.91-3.16,8.97-.31,17.96-.08,26.94-.07Z"/>
      <path class="cls-51" d="M1341.57,715.67c-39.26,0-78.51-.02-117.77-.03-2.1,0-4.2,.13-6.29-.04-2.56-.2-6.48,.96-7.02-2.31-.65-3.93,3.68-3.05,5.95-3.76,19.57-6.09,39.88-7.9,60.04-10.47,21.13-2.69,42.09-6.11,61.98-14.33,4-1.65,7.97-2.39,12.22-2.39,52.74,.06,105.48,.07,158.22,.09,.02,7.69-.31,15.41,.16,23.07,.53,8.66-3.92,10.16-11.07,10.14-47.34-.17-94.69-.09-142.04-.08-4.79,0-9.59,.06-14.38,.09Z"/>
      <path class="cls-19" d="M1076.92,843.23c-4.97-3.22-3.22-8.42-3.64-12.99-.47-1.3-.16-2.35,.93-3.17,2.72-1.68,5.76-1.4,8.73-1.4,51.06-.04,102.12-.03,153.17-.01,3.55,0,7.26-.46,10.01,2.73,3.56,10.26,2.46,20.57-.39,30.63-1.79,6.3-6.04,7.93-11.76,3.96-26.66-18.52-56.2-21.14-87.44-18.68-21.27,1.67-42.77,5.35-64.21,.77-2.48,1.51-3.84-.46-5.39-1.83Z"/>
      <path class="cls-35" d="M1076.92,843.23c1.8,.61,3.59,1.22,5.39,1.83q0,14.77-14.02,14.78c-72.87,0-145.73-.01-218.6,.04-4.11,0-8.45-1.01-12.22,1.78-68.4,.01-136.79,.03-205.19,.04-13.27,13.86-37.01,19.39-54.09,12.38-13.25-5.44-27.15-7.51-41.22-8.1-17.52-.73-34.38-3.69-50.48-11.23-12.37-5.79-19.48-2.01-22.23,11.61-3.12,15.44-3.58,31.17-2.01,46.79,1.55,15.56,2.09,31.21,4.39,46.7,.61,4.09,0,8.01-3.6,10.75-1.2,.04-2.41,.08-3.61,.11-.99-27-6.02-53.72-5.43-80.84,.21-9.58,1.44-19.03,3.72-28.26,4.17-16.92,14.48-22.28,29.61-15.01,16.08,7.72,32.94,10.48,50.47,11.58,16.1,1,32.26,2.74,47.07,10.53,6.56,3.45,13.59,3.56,19.84-.4,16.8-10.65,35-12.64,54.36-12.4,53.7,.68,107.45-1.15,161.1,.56,79.47,2.53,158.92,.66,238.38,1.52,2.4,.03,4.8,.02,7.2,0,12.77-.14,14.17-2,11.17-14.76Z"/>
      <path class="cls-35" d="M1246.12,828.39c-57.6,.02-115.2,.05-172.79,.07,.52-6.39,5.36-4.58,8.83-4.59,28.4-.09,56.81-.05,85.21-.07,21.53-.01,43.07,.03,64.6-.04,2.93-.01,5.99,.8,8.78-.88,.2-3.67,1.11-7.34,0-11.01,1.2-.03,2.4-.06,3.6-.09,.59,5.54,2.46,10.94,1.78,16.62Z"/>
      <path class="cls-16" d="M826.68,602.9c-2.28-2.92-1.52-6.42-1.83-9.75-.75-8.1,2.88-10.75,10.54-10.7,37.45,.24,74.9-.09,112.34,.24,10.04,.09,20.31-2.22,30.17,1.71-44.39,0-88.78,0-133.17,.01q-18.02,0-18.07,18.48Z"/>
      <path class="cls-16" d="M1003.11,584.41c15.6-3.04,31.21-3.04,46.81,0-15.6,0-31.21,0-46.81,0Z"/>
      <path class="cls-53" d="M1078.73,582.49c-5.39,.02-10.79,.09-16.18,.06-11.26-.05-12.45-1.19-12.62-12.53-.15-9.91-1.6-19.57-4.81-28.92-.89-2.59-1.47-5.66-4.83-5.94-3.33-.28-4.62,2.52-5.7,5.03-4.04,9.43-11.22,15.77-19.38,21.19-5.6,3.72-11.07,8.05-13.81,14.19-3.74,8.36-10.29,6.98-16.77,6.91-6.29-.07-7.29-5.21-9.07-9.82-6.95-18-13.55-36.18-25.55-51.57-9.08-11.63-17.95-11.5-25.67,.85-5.01,8.01-9.32,16.47-14.31,24.49-7.32,11.78-17.91,17.49-31.62,17.75-8.04,.15-16.17,.76-24.07,2.22-5.73,1.06-8.77-1.24-10.45-6-4.4-12.48-12.92-19.49-25.55-21.76-7.98-1.44-12.46-8.13-17.79-13.44-10.17-10.13-17.79-10.02-27.55,.68-6.88,7.54-10.99,16.79-14.71,26.23-1.12,2.85-1.93,5.82-2.88,8.74q-7.61,23.39-31.36,23.59c-1.75,2.99-4.58,3.88-7.69,3.89-32.65,.18-65.31,1.35-97.93-.62-8.35-1.1-14.91-6.13-21.64-10.69-8.71-5.9-16.88-8.05-26.34-.62-8.05,6.32-15.36,2.27-17.67-8.09-2.52-11.35-2.14-22.56,.24-33.83,2.7-12.74,9.58-17.66,22.07-14.86,6.96,1.56,13.62,1.39,20.41-.44,8.71-2.35,17.53-3.65,26.62-3.7,9.12-.04,17.11,2.36,24.16,8.24,10.61,8.85,22.01,10.01,34.46,4.3,5.47-2.51,11.12-4.65,16.34-7.65,8.61-4.95,17.69-7.05,27.59-6.67,10.55,.41,10.95-.69,6.36-10.81-3.58-7.9-8.02-15.07-14.37-20.99-4.65-4.34-8.81-9.18-12.64-14.36-3.06-4.14-6.49-7.6-12.43-8.01-7.12-.48-10.3-6.16-10.69-12.78-.81-13.81-1.42-27.68,1.88-41.33,3.67-15.13,11.31-20.56,26.41-19.55,17.03,1.13,33.28-3.51,49.44-8.14,10.69-3.06,21.35-6.46,32.32-7.86,18.14-2.32,27.85-13.86,34.15-30.05,2.36-6.08,2.98-13.55,10.57-16.07,10.89-3.37,22.18-2.63,33.07-1.57,27.63,2.68,44.69-11.9,57.34-34.55,10.4-18.63,22.59-22.65,41.69-12.85,5.9,3.03,7.43,8.92,6.07,15.04-2.18,9.79-1.03,19.63-1.26,29.44-.05,2.1,.24,4.41,1.07,6.29,1.66,3.75,2.48,9.27,7.88,8.64,4.94-.57,4.55-5.75,5.27-9.53,2.59-13.53,1.94-27.59,6.68-40.79,2.35-6.54,6.13-10.09,13.24-10.09,40.42,.02,80.68-.23,120.67,8.7,21.21,4.74,36.09,14.52,44.69,34.94,2.83,6.72,7.12,12.8,10.94,19.05,4.19,6.85,10.32,8.19,15.94,3,11.76-10.86,25.68-13.79,40.71-13.91,4.61-.04,8.94-1.24,12.79-3.8,17.28-11.48,36.54-14.77,56.66-14.64,6,1.47,12,1.47,18,0,4.8-.01,9.6-.02,14.4-.03,10.87,16.04,10.97,16.15,25.54,2.3,3.7-3.52,7.76-4.89,12.31-4,15.49,3.04,31.11,1.56,46.65,1.58,13.25,.02,26.27,1.55,39.26,3.9,6.15,1.11,12.09,3.1,18.39-.3,4-2.16,6.03,1.35,6.93,4.85,4.13,16.1,1.82,31.82-3.75,47.01-2.95,8.03-8.53,9.26-14.82,3.49-11.76-10.79-24.73-11.54-38.43-5.53-10.74,4.72-21.16,10.21-31.64,15.52-7.44,3.76-15.39,6.46-23.45,4.91-22.63-4.37-41.98,4.61-60.56,15.38-26.94,15.62-50.01,37.05-75.37,55.08-1.5,1.06-3.11,2.2-2.9,4.32,.32,3.18,3.12,3.64,5.32,4.07,11.46,2.26,23,4.15,34.46,6.42,24.89,4.91,48.99,12,69.67,27.98,10.08,7.79,19.39,16.33,27.05,26.8,3.65,5,3.44,8.6-.61,12.86-7.75,8.16-15.77,15.99-24.5,23.05-9.17,7.41-17.07,8.35-24.7-.62-13.68-16.09-29.42-16.03-47.4-10.86-20.19,5.82-40.56,11.14-61.07,15.6-17.05,3.7-34.44,4.81-51.42-1.07-4.5-1.56-7.52-.07-10.3,3.19-5.34,6.24-11.91,7.43-19.61,5.79-8.19-1.74-16.48-2.68-24.91-3.14-14.38-.79-24.86,5.22-32.97,16.78Z"/>
      <path class="cls-26" d="M835.69,323.78c-4.93,10.81-7.39,22.66-14.4,32.64-5.93,8.44-13.02,14.51-23.01,16.14-24.57,4.01-47.84,13.8-72.6,16.96-6.6,.84-13.25,1.62-19.65,.15-8.54-1.95-13.65,2.4-16.47,9.24-6.74,16.35-6.11,33.61-3.96,50.8,.47,3.78,2.13,7.34,7.17,5.86,5.19-1.53,8.38,.94,11.19,5.24,9.63,14.7,25.73,24.26,31.67,41.95,.97,2.9,2.33,5.66,3.34,8.55,.91,2.59,2.22,5.58,.35,7.93-2.34,2.94-4.87-.3-7.33-.66-10.27-1.52-20.24-1.25-29.72,3.97-8.71,4.8-17.68,8.98-27.13,12.13-10.02,3.34-19.86,1.97-27.23-4.65-14.04-12.62-29.57-12-45.68-7.95-10.99,2.76-21.67,4.67-32.64,.56-4.17-1.56-7.08,.42-8.95,4-7.68,14.74-6.54,30.3-2.9,45.7,1.21,5.14,6.16,4.94,9.4,1.66,11.64-11.8,22.6-7.34,33.77,.66,4.89,3.5,10.08,6.56,15.14,9.82,4.57,4.91,5.35,9.8-.04,14.68-76.19,0-152.38,.02-228.57,.03-6.36-15.9-6.36-15.04-23.66-14.93-60.59,.38-121.2,.84-181.77-.29-24.23-.45-48.39-2.37-72.6,.19-2.49,.26-4.94,.17-6.42-2.25-4.31-7.07-4.3-14.52-1.62-22.17,2.47-7.02,8.4-4.99,13.07-4.78,24.41,1.08,47.41-6.32,70.67-12.01,21.94-5.37,44.05-8.59,66.64-8.5,38.09,.17,76.19-.23,114.28,.2,14.35,.16,25-5.72,32.47-17.62,3.46-5.51,12.23-11.26,8.9-16.7-3.41-5.57-11.74,.97-17.83,2.01-22.73,3.87-45.35,1.26-67.97-.16-5.66-.35-11.34-.64-17.01-.96-4.42-.25-5.34-2.05-2.48-5.75,4.01-5.17,8.86-7.47,15.55-7.33,14.89,.31,14.99-.46,15.82-15.2,.79-14.09,2.24-28.14,3.77-42.17,.41-3.81,1.16-8.98,5.63-9.45,3.73-.39,5.9,3.92,7.27,7.3,4.08,10.11,12.42,16.48,19.58,23.82,8.68,8.9,16.13,7,19.69-5.35,2.45-8.5,3.73-17.4,5.03-26.2,3.02-20.43,2.88-20.92,23.66-22.89,21.07-2,40.89-9.38,61.41-13.69,6.04-1.27,7-5.32,7.03-10.88,.09-17.46,.14-18.34-16-16.17-35.96,4.83-70.15-5.28-104.75-11.85-27.64-5.25-55.04-6.15-82.99-2.08-17.3,2.52-32.22-4.91-43.09-19.58,29.46,.55,58.89-.41,88.31-1.9,2.5-1.2,4.59-3.37,7.58-3.45,33.27-2.66,66.46,1.79,99.73,1.43,14.64-.16,27.6-1.95,39.03-12.47,7.48-6.88,25.82-6.1,33.64-.24,28.2-5.25,56.2-12.38,85.16-10.92,12.37,.63,23.99,5.13,35.31,10.09,16.22,7.11,33.05,10.43,50.7,10.17,18.83-.28,37.7-.86,56.31,3.52,8.55,2.01,17.28,4.12,24.18,9.47,13.18,10.22,26.22,8.21,39.74,1.8,4.08-1.93,8.08-4.04,12.08-6.16,7.88-4.18,15.91-5.1,24.18-1.3Z"/>
      <path class="cls-18" d="M508.03,307.1c-3.29,.01-6.62,.36-9.87-.01-11.98-1.38-22.21,1.47-30.78,10.87-4.41,4.83-10.82,5.72-17.4,5.91-38.3,1.09-76.5-2.79-114.78-1.98-1.93-4.78,1.17-7.36,4.08-10.14,13.12-12.51,29.28-10.94,45.09-9.78,6.38,.47,12.32,.73,18.26-2.24-1.41-3.49-4.14-2.72-6.33-3.07-23.79-3.79-47.76-3.62-71.73-3.43-11.81,.1-16.95-3.78-20.06-15.49-3.84-14.42-3.67-29.17-2.41-43.92,.27-3.13,1.38-6.92,4.18-7.78,8.75-2.67,16.94-9.2,27.01-4.52,8.13,3.77,11,2.17,13.02-7.24,3-13.93,2.46-28.13,2.45-42.28,0-11.66,2.49-14.57,13.41-14.52,8.33,.04,16.37-1.66,23.36-5.78,17.61-10.36,36.09-13.3,56.18-11.15,21.73,2.33,43.66,2.25,65.53,2.02,16.79-.18,33.55,.25,50.29,1.44,5.65,.4,8.19-1.74,9.16-7.38,1.38-8.05,.71-15.91-.78-23.8,.54-3.9,3.37-5.49,6.48-6.94,19.89-9.26,40.92-13.51,62.56-15,5.7-.39,11.13,2.13,16.93,1.9,5.97-.23,8.25-2.62,6.83-8.67-1.57-6.7-3.73-12.93-9.77-16.98-2.74-1.84-5.32-4.03-6.97-7.09-3.26-6.04-1-11.62,5.48-13.6,2.92-.89,5.91-.9,8.91-.9,27.89,.01,55.78-.1,83.67,.09,6.07,.04,12.93-1.04,16.46,6.37,11.4,0,22.8,0,34.2,0,5.3-6.73,20.49-8.93,26.72-3.79,3.11,2.56,4.05,6.07,3.27,9.95-.94,4.67-3.77,7.74-8.42,8.43-3.85,.57-7.79,.21-11.68,.21-23.09,.01-46.18-.02-69.27,.02-13.04,.02-17.37,3.8-20.97,16.65-2.97,10.6-1.37,21.37-1.74,32.03-.22,6.36,3.96,8.17,9.96,5.01,11.27-5.94,23.01-10.52,35.43-12.86,19.61-3.69,39.37-1.91,59.11-1.26,18.75,.62,37.35,5.22,56.3,1.4,8.11-1.64,15.14,2.55,21.28,7.91,4.37,3.81,8.73,6.86,15.12,6.89,7.49,.04,9.68,6.52,10.55,12.83,1.95,14.07,1.46,28.22-.49,42.24-1.01,7.27-1.01,14.69-3.32,21.82-3.24,10.02-6.46,12.72-16.6,13.4-19.45,1.31-38.89,1.38-58.34,.02-9.88-.69-19.74,.57-29.62,.86-18.58,.54-37.12-1.12-55.71-1.1-10.19,.01-16.35,4.06-19.77,13.72-2.36,6.67-4.15,13.45-5.74,20.34-2.29,9.96-7.22,14-17.11,14.16-11.37,.18-22.73,1.13-34.03,1.44-17.28,.48-34.62-1.97-52-1.54-4.23,.1-7.26-2.57-9.68-5.91-2.36-3.26-3.72-7.01-4.88-10.85-4.63-15.38,1.08-23.89,17-23.96,9.62-.04,17.83-1.87,23.37-10.62,4.9-5.77,11.35-6.34,18.04-5.18,6.98,1.21,13.72,1.08,20.25-1.91,3.45-1.58,5.45-3.85,3.11-7.93-6.25-10.92-9.97-23.02-15.23-34.39-1.12-2.42-2-5.7-5.21-5.71-3.93-.01-4.15,3.93-5.17,6.63-2.72,7.19-3.52,14.91-5.4,22.33-2.58,10.19-6.09,12.06-15.48,8.23-9.45-3.86-11.69-3.03-17.96,5.77-3.67,5.15-6.13,11.32-11.64,14.99-20.04,1.37-40.1,1.09-60.15,1.1-30.85,.02-61.71-.04-92.56,.06-3.42,.01-7.03-.84-10.6,1.27,3.62,2.1,7.25,1.24,10.7,1.25,37.74,.1,75.49-.06,113.23,.15,6.09,.03,13.1-1.5,16.98,5.49,4.11,7.4-1.21,12.96-4.46,18.53-9.79,16.76-26.06,24.71-42.95,22.16-27.48-4.14-28.47,5.29-31.33,26.24-.71,5.22-.87,10.36-3.79,14.9-.6,1.22-1.21,2.44-1.81,3.66Z"/>
      <path class="cls-43" d="M1854.59,257.29c-1.02,11.56-1.44,23.22-3.25,34.65-1.72,10.91-7.24,14.97-18.02,15.12-3.25,.05-6.63-.19-9.74-1.06-9.81-2.72-17.02,.94-22.14,9.3-3.13,5.11-6.72,10.24-1.17,16.57,5.79,6.61,12.12,8.72,19.91,4.79,5.62-2.84,11.04-6.09,16.55-9.15,9.53,3.47,6.96,12.55,8.64,19.66-1.33,1.97-2.49,4.1-4.03,5.9-7.28,8.52-8.19,16.33-3.56,26.82,3.39,7.71,8.84,14.54,9.64,23.38-14.05,7.18-33.81,3.93-45.24-6.61-16.1-14.85-25.77-33.73-33.53-53.95-1.43-3.72-3.28-7.26-4.63-11-4.6-12.72-12.45-17.7-26.53-17.78-17.48-.1-35.03-3.98-52.39-7.15-22.81-4.16-44.22-.55-64.26,10.85-21.96,12.49-44.14,8.94-66.11,1.31-15.84-5.5-31.07-12.77-46.05-20.56-9.16-4.76-19.82-4.29-29.81-6.18-5.21-.99-11.27-1.19-11.29-9.1-.44-6.31-3.61-11.66-5.82-17.34-1.75-4.47-5.36-7.12-9.9-6.52-36.78,4.85-70.77-9.27-105.82-16.13-15.31-3-30.28-4.35-43.75,6.42-5.32,4.25-8.99,9.86-12.85,15.24-3.96,5.52-7.37,7.49-14.12,3.95-19.11-10.02-28.05-28.29-23.38-49.92,2.13-9.86,6.03-12.5,16.16-10.42,4.85,1,9.46,.83,14.15-.79,20.73-7.15,41.51-14.15,62.22-21.33,7.98-2.76,9.68-7.97,7.83-20.48-1.16-7.87-6.85-6.47-11.71-6.48-32.38-.09-64.75,0-97.13-.11-3.1,0-7.29,1.5-8.85-2.44-1.38-3.49,1.63-6.24,3.68-8.87,11.93-15.33,22.95-31.39,38.56-43.44,17.13-13.22,34.25-17.72,53.84-5.47,12.82,8.01,27.38,10.83,42.29,10.26,9.97-.38,19.68,1.55,29.51,2.3,9.85,.75,14.13,8.71,16.23,17.44,3.44,14.32,6.03,28.85,9.33,43.22,1.64,7.15,3.33,14.42,7.89,20.44,5.04,6.66,9.54,6.71,14.24-.24,4.68-6.94,6.64-15.08,8.64-23.15,2.89-11.64,5.72-23.34,12.17-33.56,7.18-11.38,13.72-12.73,24.72-5.2,12.04,8.23,24.85,13.51,39.64,12.17,4.55-.41,8.94,.63,13.29,1.87,1.21,1.35,3.11,2.58,3.05,4.4-.52,15.68-1.54,31.26-12.96,43.53-3.93,4.23-9.14,4.13-14.21,4.23-6.57,.13-12.87,.94-15.45,8.35-3.16,9.08-5.34,18.48-.45,27.6,2.36,4.41,7.24,3.68,11.37,3.7,24.51,.13,49.01,.07,73.52,.04,5.41,0,10.74,.31,15.97,1.83,2.51,.81,4.05,3.78,7.12,3.32,10.94,.49,21.93-.99,32.84,.85,53.54,.05,107.07,.21,160.61,.02,7.06-.02,12.41,1.2,14.54,8.87,1.25,4.52,4.14,6.55,8.69,5.98,7.11-.89,14.21,1.98,21.33,.06Z"/>
      <path class="cls-32" d="M1609.8,240.6c-31.8,0-63.6-.24-95.4,.15-7.63,.09-11.01-2.89-11.94-10.2-.86-6.76-1.12-13.45,.4-20.17,3.47-15.37,6.27-18.2,21.26-17.71,10.17,.33,15.59-4.42,18.45-13.8,3.42-11.21,5.76-22.6,6.07-34.38,14.97,0,29.95,.01,44.92,.02,.01,1.84,.03,3.68,.03,5.52,.05,22.45,.06,22.19,21.8,24.03,15.11,1.28,30.13,3.77,45.24,5,17.24,1.41,33.84-1.8,49.45-9.64,5.08-2.55,9.95-5.57,14.91-8.37,6.11,4.51,14.1,4.17,20.34,9.12,6.39,5.08,12.84,9.99,18.43,15.98,6.09,6.52,5.59,10.36-1.58,15.48-20.95,14.95-44.7,19.82-69.63,20.45-18.27,.47-36.56-.97-54.8,.83-2.54,.25-4.62-1.16-6.95-1.58-11.95-2.17-18.74,3.34-19.65,15.97-.09,1.31-.54,2.35-1.35,3.29Z"/>
      <path class="cls-54" d="M1020.91,79.75c24.9,.01,49.81,.06,74.71,0,18.88-.05,37.49-3.99,56.28-4.71,17.97-.68,35.8,1.8,53.16,6.99,3.34,1,3.31,4.08,3.23,6.85-.25,8.96-1.38,17.89-4.32,26.27-2.84,8.11-8.49,12.8-17.75,12.76-50.1-.21-100.21-.18-150.31-.02-8.2,.03-13.58-4.08-17.9-10.42-4.12-6.06-8.02-12.27-11.99-18.44-3.6-5.59-8.65-8.06-14.69-5.4-6.06,2.68-12.2,3.14-18.49,2.71-11.75-.81-19.28,5.22-24.48,15.27-.7,1.35-.97,2.95-1.74,4.25-2.63,4.4-2.79,11.79-10.28,10.73-7.69-1.08-11.28-7.04-11.95-14.25-.74-7.94-.55-16-.31-23.99,.22-7.41,5.33-8.66,11.33-8.64,28.5,.06,57.01,.03,85.51,.04Z"/>
      <path class="cls-44" d="M652.07,209.12c-3.95,11.59-9.91,15.82-21.42,15.2-2.39-.13-4.8-.42-7.18-.29-10.44,.57-14.53,6.38-11.85,16.64,3.72,14.25,6.69,16.22,21.36,16.64,24.79,.7,49.56,1.47,74.36,.01,10.7-.63,14.57-3.37,16.73-13.92,.18-.9,.19-1.85,.45-2.73,7.7-25.94,8.95-32.45,38.53-31.74,11.7,.28,23.3,3.22,34.91,1.94,26.63-2.93,53.18,.73,79.76,.07,7.45-.19,14.9-1.13,22.32-1.96,5.76-.64,8.26-5.46,9.11-10.16,3.88-21.41,7.32-42.93,3.57-64.8-.8-4.65-3.2-8.15-8.37-7.94-6.59,.26-11.3-2.99-15.72-7.56-5.86-6.07-13.2-8.72-21.39-6.95-17.42,3.77-34.53-1.03-51.79-1.45-28.66-.69-57.6-4.55-84.95,8.45-4.33,2.06-8.57,4.36-12.71,6.81-5.85,3.46-10.77,2.14-11.39-4.6-1.49-16.33-3.56-32.96,5.07-48.28,4.34-7.7,11.35-9.38,19.22-9.38,25.49,.01,50.98,.02,76.46-.03,2.95,0,6.11,.53,8.57-1.82,3.4-3.24,2.14-9.23-2.35-11.14-7.86-3.36-15.29-.9-22.68,1.88-.52-6.76,2.62-9.61,9.09-9.25,3.59,.2,7.2-.01,10.79,.03,10.56,.14,14.33,3.62,14.31,13.15-.02,10.12-4.04,14.44-14.4,14.5-26.69,.16-53.38,.43-80.06-.14-9.3-.2-14.02,3.94-16.37,12.23-2.81,9.87-2.9,20.03-2.5,30.21,.21,5.57,3.13,6.1,7.22,3.88,31.07-16.82,64.15-15.87,97.92-13.4,17.73,1.3,35.58,4.73,53.69,1,8.9-1.83,16.52,4.34,23.78,9.35,2.69,1.86,4.93,4.29,8.48,4.92,12.15,2.14,16.79,6.5,17.38,18.84,.98,20.27,1.16,40.62-3.7,60.54-3.6,14.75-8.73,18.65-23.44,18.65-45.88,.02-91.76,0-137.64,0-14.35,0-17.41,2.25-21.66,16.55-1.57,5.29-2.6,10.75-3.97,16.11-2.61,10.19-7.52,14.67-17.64,15.28-28.97,1.75-57.96,.67-86.94,.03-6.44-.14-11.81-3.08-14.74-9.01-4.18-8.46-8.46-17.09-5.3-27.15,1.65-5.25,5.36-8.53,9.94-11.81-3.18,0-6.38,.24-9.53-.05-5.6-.52-7.35,1.15-7.65,7.58-1.1,23.45-29.06,45.64-51.77,41.92-.59-.1-1.16-.31-1.75-.42-18.48-3.5-26.36,2.77-27.01,22.3-.22,6.64-1.22,12.19-7.36,15.55-.12-9.23,.01-18.35,2.51-27.4,3.83-13.88,13.87-20.7,28.15-18.32,22.42,3.74,36.88-3.59,47.37-23.99,5.14-10.01,3.27-13.42-7.74-13.44-42.53-.07-85.06,.05-127.58-.14-4.53-.02-12.1,2.6-12.05-5.23,.04-7.14,7.32-5.67,12.11-5.68,54.51-.12,109.01-.09,163.52-.11,9.08-5.94,28.46-5.94,35.95,0Z"/>
      <path class="cls-44" d="M756.47,52.01c-3.48-.88-6.92-2.31-10.44-2.55-31.42-2.14-62.87-1.3-94.3-.4-2.87,.08-7.15,.17-8.1,4.43-.87,3.91,1.97,6.77,4.66,8.3,12.87,7.31,12.49,21.66,17.12,33.26,1.8,4.51-1.42,3.9-4.51,3.18-31.7-7.37-61.68-1.26-90.62,12.53-1.06,.5-1.91,1.46-2.86,2.21-3.13,5.83-9.28,5.12-14.15,6.04-12.2,2.31-24.5,4.13-36.88,5.36-3.77,.37-7.02,.06-10.13-2.03-3-.05-6-.1-9-.14,2.47-6.65,7.37-8.8,14.06-9.27,22.71-1.58,45.3-3.96,66.7-13,17.31-7.31,35.55-10.71,54.11-12.64,4.93-.51,9.47,1.33,14.24,1.62,8.89,.55,10.96-2.63,7.14-10.94-1.72-3.75-4.56-6.53-7.85-8.7-3.42-2.25-5.81-5.19-7.54-8.91-5.2-11.19-1.76-17.45,10.31-17.51,32.99-.18,65.98,.02,98.96-.13,6.46-.03,9.61,2.52,9.09,9.28Z"/>
      <path class="cls-48" d="M1327.16,307.16c-6,2.76-12,2.76-18.01,0,6,0,12,0,18.01,0Z"/>
      <path class="cls-42" d="M513.5,649.22c-2.7,21.52-3.05,43.04-.05,64.57-1.33,1.4-2.96,1.74-4.78,1.48-6.28-2.61-12.9-2.39-19.48-2.39-74.47,.02-148.94-.04-223.42,.04-5.6,0-10.95,.15-13.33-6.5,0-1.86,0-3.72,.01-5.59,2.46-3.33,2.83-7.33,3.53-11.25,1.87-10.43,3.91-11.83,13.82-9.93,16.95,3.25,33.13,10.07,50.55,11.22,12.68,.84,24.93-1.1,34.43-9.74,22.63-20.57,48.81-29.97,78.73-29.29,.94,.02,1.73-.34,2.47-.87,15.22,0,30.3,2.41,45.58,2.01,10.82-.28,21.43-1.11,31.92-3.78Z"/>
      <path class="cls-42" d="M616.02,599.14c.01-4.89,.03-9.79,.04-14.68,36,0,72,0,107.99,0,9.26,16.94,17.65,21.26,35.28,16.15,9.82-2.85,20.95-.65,29.57-8.84,3.25-3.08,5.01,1.53,5.79,4.4,2.45,9.06,2.44,18.48,.6,27.42-2.98,14.41-7.31,28.52-11.17,42.73-.88,3.23-1.75,7.09-5.67,7.49-3.81,.39-4.29-3.67-5.74-6.18-3.42-5.91-4.9-14.41-13.39-14.45-8.5-.04-11.23,8.24-15.13,14.2-2.34,3.57-4.27,7.36-7.45,10.3-5.61,5.17-11.52,6.22-17.96,1.72-2.47-1.73-5.01-3.4-7.3-5.35-6.41-5.47-13.24-9.48-22.04-8.33-2.39,.31-4.8-.09-6.77-1.82,6.41,.8,9.49-1.65,9.06-8.72-.81-13.15,1.32-26.43-1.74-39.51-2.03-8.7-6.17-12.43-14.74-10.54-20.47,4.52-39.69-1.87-59.23-5.96Z"/>
      <path class="cls-42" d="M605.27,649.19c-20.25,25.08-52.11,25.08-72.04,.02,24.01,0,48.03-.01,72.04-.02Z"/>
      <path class="cls-42" d="M436,650.99c-8.64,3.31-17.94,3.02-26.88,5.01-17.72,3.94-33.87,10.55-47.32,22.67-17.63,15.87-37.22,17.41-58.66,11.57-11.24-3.06-22.75-5.14-33.96-8.3-7.88-2.22-10.65,1.64-11.18,8.5-.35,4.52-.66,8.63-5.54,10.41,2.33-27.94,6.09-26.52,26.94-21.26,13.62,3.43,26.83,8.45,41.16,8.88,12.06,.36,23.54-.92,32.78-9.4,23.67-21.71,51.17-30.92,82.66-28.07Z"/>
      <path class="cls-42" d="M682.69,663.88c-4.38-2.26-8.08-.17-11.79,1.94-12.75,7.25-17.3,5.29-21.5-9.36-.5-1.75-.67-3.6-.99-5.41,7.3-2.47,11.09-8.84,15.48-14.6,5.81-7.63,9.45-7.24,13.34,1.59,3.61,8.17,5.14,16.89,5.46,25.83Z"/>
      <path class="cls-42" d="M252.45,706.43c4.59,4.56,10.06,5.68,16.39,5.64,40.71-.22,81.47,1.25,122.11-.53,35.88-1.57,71.72-.64,107.56-1.4,4.1-.09,8.57-.87,11.33,3.65-2.03,2.57-4.87,1.85-7.47,1.85-28.87,.02-57.73,.03-86.6,0-2.95,0-6.01,.36-8.54-1.8-1.21,0-2.42,.02-3.63,.03-46.97-.02-93.95-.03-140.92-.05-5.06,0-10.89,1.02-10.23-7.38Z"/>
      <path class="cls-38" d="M506.26,122.34c20.52-2.2,40.92-5.26,61.17-9.37,7.08,5.46,3.64,13.13,3.05,19.54-1.35,14.76-3.06,14.79-17.57,14.19-20.64-.87-41.38,.47-62-.61-20.87-1.1-41.84-.51-62.64-3.28-11.82-1.57-22.54,2.61-32.79,7.82-11.38,5.79-22.78,10.86-35.84,10.64-5.99-.1-8.13,3.51-8.29,9.53-.37,14.1,1.35,28.25-1.56,42.31-3.08,14.92-5.79,16.73-19.2,11.27-11.6-4.72-25.75,4.76-25.97,17.4-.21,12-.26,23.95,3.2,35.64,2.62,8.85,7.91,13.02,17.08,13.14,23.03,.29,46.11-1.56,69.06,1.74,5.32,.76,10.67,1.29,16.01,1.93,1.79,.21,3.96,.26,4.44,2.37,.59,2.58-1.62,3.8-3.42,4.79-8.4,4.61-17.13,6.45-26.82,5.08-11.78-1.67-23.75-3.48-35.12,2.73-5.69,3.11-10.64,6.84-13.86,12.69-2.38-.02-4.76-.03-7.15-.05,8.6-16.31,22.04-24.41,40-25.79-13.32,0-26.7-.8-39.95,.18-21.63,1.6-26.44-10-28.6-27.14-1.49-11.76-2.41-23.66-.43-35.67,1.22-7.36,3.94-11.86,11.37-13.15,8.98-1.56,17.33-5.3,27.18-1.57,5.71,2.17,5.8-5.8,6.31-9.82,1.43-11.25,2.43-22.54,2.21-33.96-.37-18.9,1.5-20.69,19.53-21.18,7.4-.2,14.52-2.25,20.52-6.08,17.04-10.89,35.77-12.41,54.65-10.27,21.56,2.44,43.07,1.15,64.59,1.42,16.16,.2,32.27,.73,48.39,1.82,8.67,.58,13.75-9.45,9.48-17.31-1.63-3.01-3.94-1.93-6.26-1.56-12.11,1.9-24.22,3.74-36.33,5.62-5.66,.88-11.5,2.39-14.42-5.01Z"/>
      <path class="cls-62" d="M39.96,1022.21c1.88-10.36-2.28-19.38-6.08-28.45-1.38-3.31-3.11-6.46-4.69-9.68,1.87-7.6,7.66-7.59,13.73-7.98,66.5-4.29,133.04-.9,199.56-1.03,39.87-.08,79.75,.86,119.62,1.34-5.91,13.06-17.07,19.6-29.89,20.74-31.29,2.78-60.09,16.18-90.86,20.85-19.22,2.92-38.45,5.29-57.87,6.57-33.54,2.2-67-.05-100.49-.35-14.35-.13-28.69-1.3-43.04-2Z"/>
      <path class="cls-35" d="M407.23,713.84c34.2-.01,68.41-.03,102.61-.04,1.2,0,2.41,0,3.61,0,.59,.02,1.18,.03,1.76,.04,3.35,3.11,3.63,6.92,2.18,10.99-4.43,12.38-10.95,22.6-24.98,24.82-5.35,.84-9.42,3.91-12.71,8.07-8.06,10.21-12.43,22.41-17.03,34.41-2.02,5.26,.16,8.84,5.81,10.11,7.68,1.71,14.62,5.27,21.49,9.16,15.79,8.93,32.67,13.01,50.86,12.93,66.26-.32,132.57,1.44,198.77-.56,69.85-2.11,139.66-.42,209.48-1.36,9.27-.12,18.57-.51,27.8,1.34,4.99,1,9.64-.15,12.6-4.98,2.02-3.3,5.17-5.05,8.25-6.94,43.78,.01,87.57,.02,131.35,.03-1.38,5.06-5.38,2.41-8.09,2.6-38.42,2.72-76.91,1.8-115.38,1.96-1.5,0-2.99-.03-4.29,.92-7.24,15.4-19.94,15.33-34.49,15.13-59.34-.82-118.72,.71-178.04-.6-83.31-1.84-166.61-2.16-249.9-1.01-19.25,.27-35.69-3.47-51.82-13.07-8.05-4.79-16.82-7.83-26.44-8.05-6.06-.14-11.47-3.07-8.6-10.4,6-15.32,9.43-31.85,20.05-45.1,4.74-5.92,9.57-10.41,17.64-11.17,9.72-.92,17.31-8.87,19.11-18.35,1.28-6.74-3.74-6.96-7.81-7.07-11.99-.3-23.98-.15-35.98-.15-16.19,0-32.38,.05-48.57-.04-3.43-.02-7.47,1.08-9.23-3.63Z"/>
      <path class="cls-36" d="M1001.31,817.33c3.15-2.52,6.87-1.81,10.41-1.82,18.6-.05,37.2,.22,55.79-.09,18.55-.31,37.09-1.13,55.63-1.88,2-.08,3.96-1.1,5.93-1.69,17.4,0,34.81,0,52.21,0-4.54,2.68-9.52,3.54-14.66,3.61-45.51,.63-91.03,1.27-136.54,1.85-9.59,.12-19.19,.02-28.78,.02Z"/>
      <path class="cls-36" d="M1240.74,822.87c-3.45,2.68-7.48,1.81-11.31,1.82-47.97,.05-95.93,.01-143.9,.07-4.35,0-9.21-1.23-12.22,3.7,0,.6-.02,1.19-.04,1.78-2.95-5.16,.24-6.8,4.3-7.16,4.75-.42,9.55-.2,14.33-.21,49.61,0,99.22,0,148.82,0Z"/>
      <path class="cls-23" d="M463.04,970.61c-1.56-27.86-6.4-55.51-5.38-83.54,.35-9.51,.94-19.11,4.27-28.08,4.07-10.95,11.36-15.2,21.2-10.13,22.17,11.41,46.11,12.3,69.87,14.5,10.64,.98,20.66,3.77,30.17,8.38,7.98,3.87,15.39,3.7,23.21-.36,8.22-4.27,16.08-9.83,25.9-9.66,9.84,11.29,22.67,18.85,33.73,28.63,9.12,8.07,18.79,15.07,30.44,19,14.8,4.99,27.65,1.96,39.09-8.6,11.91-11.01,16.72-12.5,28.77-1.84,23.09,20.45,51.14,23.67,79.3,27.51,14.52,1.98,28.99,4.27,42.93,9.13,2.37,.83,5.38,.97,6.59,5.28-16.29,.61-32.26,2.08-48.15,1.4-6.9-.3-9.18,1.7-10.5,7.58-2.72,12.1,.92,19.06,11.94,22.56-70.29,.08-140.57,.16-210.86,.24-15.54,.02-18.06,2.3-19.84,18.03-2.27,5.82-9.45,6.65-11.87,12.32-.68,.53-1.43,.85-2.27,.97-10.58,2.93-21.52,2.92-32.32,4.11-1.9,1.39-3.62,1.28-5.13-.63-2.03-7.39,.92-12.77,7.13-15.92,4.45-2.26,5.29-5.09,4.23-9.63-1.12-4.8-3.39-7.02-8.5-7.6-14.32-1.64-28.66-1.82-43.01-1.57-20.36,.36-40.64-.96-60.94-2.07Z"/>
      <path class="cls-63" d="M601.92,1002.18c1.17-8.17,6.22-11.45,13.8-11.54,4.92,.22,9.83,.44,14.75,.66,4.96,5.76,10.99-.17,16.32,1.58,3.56,.09,7.12,.17,10.68,.26,3.09,4.56,7.34,.55,10.91,1.56,19,1.99,37.99,4.01,56.99,5.95,17.24,1.77,34.47,3.59,51.72,5.16,37.68,3.44,75.5,2.84,113.18,1.47,32.07-1.17,64.13-2.1,96.14-.94,36.26,1.32,72.49,1.13,108.74,1.45,3.91,.03,7.85,.08,11.27,2.43,4.34,2.98,9.46,7.14,8.42,12.02-.95,4.43-7.37,2.06-11.29,2.06-117.53,.12-235.07,.1-352.6,.09-4.79,0-9.59-.18-14.38-.28,0,0-.13-.1-.13-.1-6.61-2.97-13.51-.94-20.27-1.25-12.5-.58-25-.12-37.5-.24-2.98-.03-5.99-.14-8.58,1.8-19.21,0-38.42,0-57.63,0-3.57-2.19-4.93-5.7-5.82-9.66-.98-4.36-1.29-9.05-4.71-12.47Z"/>
      <path class="cls-63" d="M646.8,992.88c-5.56,.75-11.84,9.3-16.32-1.59,5.48,.11,11.1-1.28,16.32,1.59Z"/>
      <path class="cls-63" d="M668.38,994.7c-4.03,2.41-8.36,6.95-10.91-1.56,3.72-.13,7.51-.73,10.91,1.56Z"/>
      <path class="cls-29" d="M1800.21,780.38c-4.62,.29-8.84-1.5-12.57-5.03-8.69-8.22-8.46-9.78,1.52-15.53,4.38-2.52,8.37-5.81,12.36-8.97,4.88-3.87,10.42-4.14,16.18-3.71,5.04,.38,8.36,3.68,10.36,7.79,1.92,3.95-1.31,7.1-3.91,9.42-7.14,6.37-11.49,17.22-23.94,16.04Z"/>
      <path class="cls-33" d="M1609.8,240.6c-3.5-15.11,5.01-22.55,19.87-22.71,37.09-.39,74.81,6.27,111-8.17,7.33-2.92,14.02-6.86,20.68-10.98,4.44-2.74,4.86-5.79,1-9.49-9.17-8.79-18-18.06-30.56-21.85-3.27-.99-6.3-2.24-6.8-6.35,0-.58-.02-1.16-.04-1.74,21.37,2.54,34.61,18.01,48.71,32.19,2.95,2.97,2.7,4.65-.71,7.06-19.52,13.79-40.27,23.68-64.45,25.55-27.22,2.11-54.35,2.66-81.55,.02-8.8-.86-14.2,7.13-11.76,16.47,1.21,.59,1.21,1.18,0,1.77-1.8-.59-3.6-1.19-5.4-1.78Z"/>
      <path class="cls-50" d="M1660.43,1005.81c-3.88,3.44-8.65,.93-12.88,2.04-9.58-.11-19.17-.56-28.73-.22-7.51,.27-6.96-4.53-7.1-9.66-.15-5.35,.72-9.08,7.21-8.59,4.77,.36,9.68,.72,14.35-.06,13.75-2.32,23.08,2.37,27.15,16.5Z"/>
      <path class="cls-32" d="M1615.2,242.39v-1.77c11.39,.91,22.98-2.1,34.23,1.73-11.41,.01-22.82,.03-34.23,.04Z"/>
      <path class="cls-59" d="M75.8,1072.21c-6.49-14.34-16.91-20.28-31.63-17.88-5.31,.86-10.55,2.22-15.88,2.94-8.2,1.11-16.21,.89-22.75-5.51,7.26-13.46,7.26-13.41,22.44-11.2,2.95,.43,5.97,.38,8.96,.38,58.43,.03,116.85,.06,175.28,.05,50.77,0,100.73-6.43,149.96-19.31,31.62-8.28,63.62-14.42,96.5-14.02,6.34,.08,12.54,.7,18.7,2.06,7.37,7.85,15.4,11.37,26.83,9.51,11.84-1.92,20.07,9.43,16.36,19.86-23.13,.79-45.92-3.47-68.87-4.82-29.58-1.74-59.16-2.53-87.6,9.88-31.57,13.77-64.52,22.29-99,24.99-27.8,2.18-55.65,4.83-83.39,2.84-27.6-1.97-55.13-.74-82.68-1.29-7.73-.15-15.49,.98-23.24,1.52Z"/>
      <path class="cls-55" d="M520.59,1039.09c-4.8-14.91-8.14-17.15-22.4-15.03-11.97,1.78-16.3-1.21-20.79-14.34,28.88-2.1,57.81-1.97,86.73-2.31,1.71,.21,3.42,.42,5.13,.63,2.73,6.52,5.03,13.15,5.76,20.28,.75,7.32-1.89,10.99-9.47,10.88-14.98-.23-29.97-.1-44.96-.11Z"/>
      <path class="cls-20" d="M104.77,861.68c0-.6,.01-1.2,.02-1.81,11.86,0,23.73-.04,35.59-.01,3.23,0,6.58-.47,9.4,1.83-15,2.98-30.01,3-45.01-.01Z"/>
      <path class="cls-2" d="M1845.38,347.17c-2.88-6.55-5.76-13.1-8.64-19.66,8.62-.89,10.89,3.86,9.78,11.61-.39,2.68-.76,5.36-1.14,8.04Z"/>
      <path class="cls-63" d="M601.92,1002.18c3.74,0,4.78,2.55,5.62,5.74,1.45,5.52,3.25,10.93,4.91,16.39-1.78,0-3.55,0-5.33-.01-1.85-6.79-3.7-13.58-5.54-20.38,.04-.6,.16-1.18,.35-1.74Z"/>
      <path class="cls-63" d="M670.08,1024.32c1.79-2.96,4.57-3.64,7.7-3.64,17.24,.02,34.49,.01,51.73,.01,2.82,0,5.31,.71,6.93,3.32-22.12,.1-44.24,.2-66.36,.3Z"/>
      <path class="cls-42" d="M997.73,811.81c-.81,1.65-1.62,3.3-2.43,4.95-6.61,13.45-7.15,13.7-21.46,11.11-3.23-.59-6.51-1.23-9.77-1.23-67.49-.07-135.03-1.65-202.46,.37-73.77,2.21-147.5,.13-221.23,1.51-18.19,.34-35.12-3.53-50.89-12.52-9-5.13-18.21-9.29-28.46-10.8-4.52-.66-6.71-2.05-4.76-7.88,4.19-12.57,9.06-24.78,15.74-36.12,5.21-8.86,11.5-15.91,23.2-16.41,9.63-.42,18.77-15.95,20.03-30.96,7.49,0,14.98-.17,22.47,0,42.82,.98,85.58-1.82,128.37-2.38,27.04-.35,54.24-2.03,81.22-6.38,21.84-3.52,41.29,4.34,58.02,19.12,2.03,1.79,4.13,4.39,6.47,4.74,10.96,1.65,11.32,9.2,11.52,18.24,.28,12.68-.56,24.55-9.77,34.22-1.21,1.27-1.99,3.09-2.61,4.79-8.31,22.77-6.44,25.58,16.94,25.58,56.63,0,113.25,.02,169.88,.03Z"/>
      <path class="cls-45" d="M1107.6,373.92c-.21-7.05,5.66-14.93,10.99-14.74,5.16,.18,16.66,14.1,15.8,20.82-.98,7.59-8.57,6.39-13.61,7.58-5.37,1.28-12.98-7.26-13.17-13.66Z"/>
      <path class="cls-27" d="M652.07,209.12c-11.98,0-23.97,0-35.95,0,1.05-6.29,4.63-11.3,8.15-16.22,7.06-9.9,11.39-11.02,21.97-4.86,6.52,3.8,8.75,2.46,9.75-5.08,1.25-9.39,3.3-18.71,6.63-27.65,1.33-3.58,3.11-7.28,6.86-7.84,4.13-.62,6.24,3.33,7.77,6.56,3.27,6.88,6,14.03,9.07,21.02,2.34,5.31,4.54,10.72,7.38,15.75,5.48,9.71,4.81,12.02-5.42,16.16-5.14,2.08-10.55,3.03-15.84,2.04-6.89-1.29-13.59-.74-20.38,.13Z"/>
    </g>
  </g>
</svg>